G75*
%MOIN*%
%OFA0B0*%
%FSLAX24Y24*%
%IPPOS*%
%LPD*%
%AMOC8*
5,1,8,0,0,1.08239X$1,22.5*
%
%ADD10C,0.1320*%
%ADD11R,0.0651X0.0651*%
%ADD12C,0.0651*%
%ADD13OC8,0.0651*%
%ADD14C,0.0330*%
D10*
X001571Y001335D03*
X005071Y019835D03*
X001571Y028335D03*
X017571Y028335D03*
X017571Y001335D03*
D11*
X018081Y009750D03*
X018081Y010950D03*
X018081Y012150D03*
X018081Y013350D03*
X015981Y028750D03*
X014581Y028750D03*
X013081Y028750D03*
X003781Y025850D03*
D12*
X003781Y024850D03*
X003781Y023850D03*
D13*
X007081Y027750D03*
X007081Y028750D03*
X008081Y028750D03*
X008081Y027750D03*
X009081Y027750D03*
X009081Y028750D03*
X010081Y028750D03*
X010081Y027750D03*
X011081Y027750D03*
X011081Y028750D03*
X012081Y028750D03*
X012081Y027750D03*
X013081Y027750D03*
X014581Y027750D03*
X015981Y027750D03*
X018081Y014350D03*
X017081Y012150D03*
X017081Y010950D03*
X017081Y009750D03*
D14*
X014681Y014550D03*
X014006Y014900D03*
X012656Y016650D03*
X012106Y016875D03*
X012106Y015900D03*
X012231Y014650D03*
X012256Y013475D03*
X010456Y017000D03*
X009956Y018475D03*
X009406Y017725D03*
X009081Y015350D03*
X005756Y012350D03*
X004206Y011875D03*
X003706Y003900D03*
X007506Y003750D03*
X014906Y003900D03*
X015406Y016300D03*
X014956Y024800D03*
X010781Y028325D03*
X009681Y025775D03*
X008681Y025375D03*
X008391Y025950D03*
X007881Y024575D03*
X005956Y024575D03*
M02*
