G75*
%MOIN*%
%OFA0B0*%
%FSLAX24Y24*%
%IPPOS*%
%LPD*%
%AMOC8*
5,1,8,0,0,1.08239X$1,22.5*
%
%ADD10C,0.0000*%
%ADD11C,0.0010*%
D10*
X000481Y000150D02*
X000481Y029646D01*
X018851Y029646D01*
X018851Y000150D01*
X000481Y000150D01*
X000941Y001335D02*
X000943Y001385D01*
X000949Y001435D01*
X000959Y001484D01*
X000973Y001532D01*
X000990Y001579D01*
X001011Y001624D01*
X001036Y001668D01*
X001064Y001709D01*
X001096Y001748D01*
X001130Y001785D01*
X001167Y001819D01*
X001207Y001849D01*
X001249Y001876D01*
X001293Y001900D01*
X001339Y001921D01*
X001386Y001937D01*
X001434Y001950D01*
X001484Y001959D01*
X001533Y001964D01*
X001584Y001965D01*
X001634Y001962D01*
X001683Y001955D01*
X001732Y001944D01*
X001780Y001929D01*
X001826Y001911D01*
X001871Y001889D01*
X001914Y001863D01*
X001955Y001834D01*
X001994Y001802D01*
X002030Y001767D01*
X002062Y001729D01*
X002092Y001689D01*
X002119Y001646D01*
X002142Y001602D01*
X002161Y001556D01*
X002177Y001508D01*
X002189Y001459D01*
X002197Y001410D01*
X002201Y001360D01*
X002201Y001310D01*
X002197Y001260D01*
X002189Y001211D01*
X002177Y001162D01*
X002161Y001114D01*
X002142Y001068D01*
X002119Y001024D01*
X002092Y000981D01*
X002062Y000941D01*
X002030Y000903D01*
X001994Y000868D01*
X001955Y000836D01*
X001914Y000807D01*
X001871Y000781D01*
X001826Y000759D01*
X001780Y000741D01*
X001732Y000726D01*
X001683Y000715D01*
X001634Y000708D01*
X001584Y000705D01*
X001533Y000706D01*
X001484Y000711D01*
X001434Y000720D01*
X001386Y000733D01*
X001339Y000749D01*
X001293Y000770D01*
X001249Y000794D01*
X001207Y000821D01*
X001167Y000851D01*
X001130Y000885D01*
X001096Y000922D01*
X001064Y000961D01*
X001036Y001002D01*
X001011Y001046D01*
X000990Y001091D01*
X000973Y001138D01*
X000959Y001186D01*
X000949Y001235D01*
X000943Y001285D01*
X000941Y001335D01*
X004441Y019835D02*
X004443Y019885D01*
X004449Y019935D01*
X004459Y019984D01*
X004473Y020032D01*
X004490Y020079D01*
X004511Y020124D01*
X004536Y020168D01*
X004564Y020209D01*
X004596Y020248D01*
X004630Y020285D01*
X004667Y020319D01*
X004707Y020349D01*
X004749Y020376D01*
X004793Y020400D01*
X004839Y020421D01*
X004886Y020437D01*
X004934Y020450D01*
X004984Y020459D01*
X005033Y020464D01*
X005084Y020465D01*
X005134Y020462D01*
X005183Y020455D01*
X005232Y020444D01*
X005280Y020429D01*
X005326Y020411D01*
X005371Y020389D01*
X005414Y020363D01*
X005455Y020334D01*
X005494Y020302D01*
X005530Y020267D01*
X005562Y020229D01*
X005592Y020189D01*
X005619Y020146D01*
X005642Y020102D01*
X005661Y020056D01*
X005677Y020008D01*
X005689Y019959D01*
X005697Y019910D01*
X005701Y019860D01*
X005701Y019810D01*
X005697Y019760D01*
X005689Y019711D01*
X005677Y019662D01*
X005661Y019614D01*
X005642Y019568D01*
X005619Y019524D01*
X005592Y019481D01*
X005562Y019441D01*
X005530Y019403D01*
X005494Y019368D01*
X005455Y019336D01*
X005414Y019307D01*
X005371Y019281D01*
X005326Y019259D01*
X005280Y019241D01*
X005232Y019226D01*
X005183Y019215D01*
X005134Y019208D01*
X005084Y019205D01*
X005033Y019206D01*
X004984Y019211D01*
X004934Y019220D01*
X004886Y019233D01*
X004839Y019249D01*
X004793Y019270D01*
X004749Y019294D01*
X004707Y019321D01*
X004667Y019351D01*
X004630Y019385D01*
X004596Y019422D01*
X004564Y019461D01*
X004536Y019502D01*
X004511Y019546D01*
X004490Y019591D01*
X004473Y019638D01*
X004459Y019686D01*
X004449Y019735D01*
X004443Y019785D01*
X004441Y019835D01*
X000941Y028335D02*
X000943Y028385D01*
X000949Y028435D01*
X000959Y028484D01*
X000973Y028532D01*
X000990Y028579D01*
X001011Y028624D01*
X001036Y028668D01*
X001064Y028709D01*
X001096Y028748D01*
X001130Y028785D01*
X001167Y028819D01*
X001207Y028849D01*
X001249Y028876D01*
X001293Y028900D01*
X001339Y028921D01*
X001386Y028937D01*
X001434Y028950D01*
X001484Y028959D01*
X001533Y028964D01*
X001584Y028965D01*
X001634Y028962D01*
X001683Y028955D01*
X001732Y028944D01*
X001780Y028929D01*
X001826Y028911D01*
X001871Y028889D01*
X001914Y028863D01*
X001955Y028834D01*
X001994Y028802D01*
X002030Y028767D01*
X002062Y028729D01*
X002092Y028689D01*
X002119Y028646D01*
X002142Y028602D01*
X002161Y028556D01*
X002177Y028508D01*
X002189Y028459D01*
X002197Y028410D01*
X002201Y028360D01*
X002201Y028310D01*
X002197Y028260D01*
X002189Y028211D01*
X002177Y028162D01*
X002161Y028114D01*
X002142Y028068D01*
X002119Y028024D01*
X002092Y027981D01*
X002062Y027941D01*
X002030Y027903D01*
X001994Y027868D01*
X001955Y027836D01*
X001914Y027807D01*
X001871Y027781D01*
X001826Y027759D01*
X001780Y027741D01*
X001732Y027726D01*
X001683Y027715D01*
X001634Y027708D01*
X001584Y027705D01*
X001533Y027706D01*
X001484Y027711D01*
X001434Y027720D01*
X001386Y027733D01*
X001339Y027749D01*
X001293Y027770D01*
X001249Y027794D01*
X001207Y027821D01*
X001167Y027851D01*
X001130Y027885D01*
X001096Y027922D01*
X001064Y027961D01*
X001036Y028002D01*
X001011Y028046D01*
X000990Y028091D01*
X000973Y028138D01*
X000959Y028186D01*
X000949Y028235D01*
X000943Y028285D01*
X000941Y028335D01*
X016941Y028335D02*
X016943Y028385D01*
X016949Y028435D01*
X016959Y028484D01*
X016973Y028532D01*
X016990Y028579D01*
X017011Y028624D01*
X017036Y028668D01*
X017064Y028709D01*
X017096Y028748D01*
X017130Y028785D01*
X017167Y028819D01*
X017207Y028849D01*
X017249Y028876D01*
X017293Y028900D01*
X017339Y028921D01*
X017386Y028937D01*
X017434Y028950D01*
X017484Y028959D01*
X017533Y028964D01*
X017584Y028965D01*
X017634Y028962D01*
X017683Y028955D01*
X017732Y028944D01*
X017780Y028929D01*
X017826Y028911D01*
X017871Y028889D01*
X017914Y028863D01*
X017955Y028834D01*
X017994Y028802D01*
X018030Y028767D01*
X018062Y028729D01*
X018092Y028689D01*
X018119Y028646D01*
X018142Y028602D01*
X018161Y028556D01*
X018177Y028508D01*
X018189Y028459D01*
X018197Y028410D01*
X018201Y028360D01*
X018201Y028310D01*
X018197Y028260D01*
X018189Y028211D01*
X018177Y028162D01*
X018161Y028114D01*
X018142Y028068D01*
X018119Y028024D01*
X018092Y027981D01*
X018062Y027941D01*
X018030Y027903D01*
X017994Y027868D01*
X017955Y027836D01*
X017914Y027807D01*
X017871Y027781D01*
X017826Y027759D01*
X017780Y027741D01*
X017732Y027726D01*
X017683Y027715D01*
X017634Y027708D01*
X017584Y027705D01*
X017533Y027706D01*
X017484Y027711D01*
X017434Y027720D01*
X017386Y027733D01*
X017339Y027749D01*
X017293Y027770D01*
X017249Y027794D01*
X017207Y027821D01*
X017167Y027851D01*
X017130Y027885D01*
X017096Y027922D01*
X017064Y027961D01*
X017036Y028002D01*
X017011Y028046D01*
X016990Y028091D01*
X016973Y028138D01*
X016959Y028186D01*
X016949Y028235D01*
X016943Y028285D01*
X016941Y028335D01*
X016941Y001335D02*
X016943Y001385D01*
X016949Y001435D01*
X016959Y001484D01*
X016973Y001532D01*
X016990Y001579D01*
X017011Y001624D01*
X017036Y001668D01*
X017064Y001709D01*
X017096Y001748D01*
X017130Y001785D01*
X017167Y001819D01*
X017207Y001849D01*
X017249Y001876D01*
X017293Y001900D01*
X017339Y001921D01*
X017386Y001937D01*
X017434Y001950D01*
X017484Y001959D01*
X017533Y001964D01*
X017584Y001965D01*
X017634Y001962D01*
X017683Y001955D01*
X017732Y001944D01*
X017780Y001929D01*
X017826Y001911D01*
X017871Y001889D01*
X017914Y001863D01*
X017955Y001834D01*
X017994Y001802D01*
X018030Y001767D01*
X018062Y001729D01*
X018092Y001689D01*
X018119Y001646D01*
X018142Y001602D01*
X018161Y001556D01*
X018177Y001508D01*
X018189Y001459D01*
X018197Y001410D01*
X018201Y001360D01*
X018201Y001310D01*
X018197Y001260D01*
X018189Y001211D01*
X018177Y001162D01*
X018161Y001114D01*
X018142Y001068D01*
X018119Y001024D01*
X018092Y000981D01*
X018062Y000941D01*
X018030Y000903D01*
X017994Y000868D01*
X017955Y000836D01*
X017914Y000807D01*
X017871Y000781D01*
X017826Y000759D01*
X017780Y000741D01*
X017732Y000726D01*
X017683Y000715D01*
X017634Y000708D01*
X017584Y000705D01*
X017533Y000706D01*
X017484Y000711D01*
X017434Y000720D01*
X017386Y000733D01*
X017339Y000749D01*
X017293Y000770D01*
X017249Y000794D01*
X017207Y000821D01*
X017167Y000851D01*
X017130Y000885D01*
X017096Y000922D01*
X017064Y000961D01*
X017036Y001002D01*
X017011Y001046D01*
X016990Y001091D01*
X016973Y001138D01*
X016959Y001186D01*
X016949Y001235D01*
X016943Y001285D01*
X016941Y001335D01*
D11*
X017171Y001335D02*
X017971Y001335D01*
X017571Y000935D02*
X017571Y001735D01*
X017181Y001335D02*
X017183Y001374D01*
X017189Y001412D01*
X017198Y001450D01*
X017212Y001486D01*
X017228Y001522D01*
X017249Y001555D01*
X017272Y001586D01*
X017299Y001614D01*
X017328Y001640D01*
X017359Y001663D01*
X017393Y001682D01*
X017429Y001698D01*
X017465Y001710D01*
X017503Y001719D01*
X017542Y001724D01*
X017581Y001725D01*
X017619Y001722D01*
X017658Y001715D01*
X017695Y001705D01*
X017731Y001690D01*
X017766Y001673D01*
X017799Y001652D01*
X017829Y001627D01*
X017857Y001600D01*
X017882Y001570D01*
X017904Y001538D01*
X017922Y001504D01*
X017937Y001468D01*
X017949Y001431D01*
X017957Y001393D01*
X017961Y001354D01*
X017961Y001316D01*
X017957Y001277D01*
X017949Y001239D01*
X017937Y001202D01*
X017922Y001166D01*
X017904Y001132D01*
X017882Y001100D01*
X017857Y001070D01*
X017829Y001043D01*
X017799Y001018D01*
X017766Y000997D01*
X017731Y000980D01*
X017695Y000965D01*
X017658Y000955D01*
X017619Y000948D01*
X017581Y000945D01*
X017542Y000946D01*
X017503Y000951D01*
X017465Y000960D01*
X017429Y000972D01*
X017393Y000988D01*
X017359Y001007D01*
X017328Y001030D01*
X017299Y001056D01*
X017272Y001084D01*
X017249Y001115D01*
X017228Y001148D01*
X017212Y001184D01*
X017198Y001220D01*
X017189Y001258D01*
X017183Y001296D01*
X017181Y001335D01*
X017376Y001335D02*
X017378Y001363D01*
X017384Y001390D01*
X017394Y001416D01*
X017407Y001440D01*
X017424Y001463D01*
X017443Y001482D01*
X017466Y001499D01*
X017490Y001512D01*
X017516Y001522D01*
X017543Y001528D01*
X017571Y001530D01*
X017599Y001528D01*
X017626Y001522D01*
X017652Y001512D01*
X017676Y001499D01*
X017699Y001482D01*
X017718Y001463D01*
X017735Y001440D01*
X017748Y001416D01*
X017758Y001390D01*
X017764Y001363D01*
X017766Y001335D01*
X017764Y001307D01*
X017758Y001280D01*
X017748Y001254D01*
X017735Y001230D01*
X017718Y001207D01*
X017699Y001188D01*
X017676Y001171D01*
X017652Y001158D01*
X017626Y001148D01*
X017599Y001142D01*
X017571Y001140D01*
X017543Y001142D01*
X017516Y001148D01*
X017490Y001158D01*
X017466Y001171D01*
X017443Y001188D01*
X017424Y001207D01*
X017407Y001230D01*
X017394Y001254D01*
X017384Y001280D01*
X017378Y001307D01*
X017376Y001335D01*
X005471Y019835D02*
X004671Y019835D01*
X005071Y019435D02*
X005071Y020235D01*
X004681Y019835D02*
X004683Y019874D01*
X004689Y019912D01*
X004698Y019950D01*
X004712Y019986D01*
X004728Y020022D01*
X004749Y020055D01*
X004772Y020086D01*
X004799Y020114D01*
X004828Y020140D01*
X004859Y020163D01*
X004893Y020182D01*
X004929Y020198D01*
X004965Y020210D01*
X005003Y020219D01*
X005042Y020224D01*
X005081Y020225D01*
X005119Y020222D01*
X005158Y020215D01*
X005195Y020205D01*
X005231Y020190D01*
X005266Y020173D01*
X005299Y020152D01*
X005329Y020127D01*
X005357Y020100D01*
X005382Y020070D01*
X005404Y020038D01*
X005422Y020004D01*
X005437Y019968D01*
X005449Y019931D01*
X005457Y019893D01*
X005461Y019854D01*
X005461Y019816D01*
X005457Y019777D01*
X005449Y019739D01*
X005437Y019702D01*
X005422Y019666D01*
X005404Y019632D01*
X005382Y019600D01*
X005357Y019570D01*
X005329Y019543D01*
X005299Y019518D01*
X005266Y019497D01*
X005231Y019480D01*
X005195Y019465D01*
X005158Y019455D01*
X005119Y019448D01*
X005081Y019445D01*
X005042Y019446D01*
X005003Y019451D01*
X004965Y019460D01*
X004929Y019472D01*
X004893Y019488D01*
X004859Y019507D01*
X004828Y019530D01*
X004799Y019556D01*
X004772Y019584D01*
X004749Y019615D01*
X004728Y019648D01*
X004712Y019684D01*
X004698Y019720D01*
X004689Y019758D01*
X004683Y019796D01*
X004681Y019835D01*
X004876Y019835D02*
X004878Y019863D01*
X004884Y019890D01*
X004894Y019916D01*
X004907Y019940D01*
X004924Y019963D01*
X004943Y019982D01*
X004966Y019999D01*
X004990Y020012D01*
X005016Y020022D01*
X005043Y020028D01*
X005071Y020030D01*
X005099Y020028D01*
X005126Y020022D01*
X005152Y020012D01*
X005176Y019999D01*
X005199Y019982D01*
X005218Y019963D01*
X005235Y019940D01*
X005248Y019916D01*
X005258Y019890D01*
X005264Y019863D01*
X005266Y019835D01*
X005264Y019807D01*
X005258Y019780D01*
X005248Y019754D01*
X005235Y019730D01*
X005218Y019707D01*
X005199Y019688D01*
X005176Y019671D01*
X005152Y019658D01*
X005126Y019648D01*
X005099Y019642D01*
X005071Y019640D01*
X005043Y019642D01*
X005016Y019648D01*
X004990Y019658D01*
X004966Y019671D01*
X004943Y019688D01*
X004924Y019707D01*
X004907Y019730D01*
X004894Y019754D01*
X004884Y019780D01*
X004878Y019807D01*
X004876Y019835D01*
X001971Y028335D02*
X001171Y028335D01*
X001571Y027935D02*
X001571Y028735D01*
X001181Y028335D02*
X001183Y028374D01*
X001189Y028412D01*
X001198Y028450D01*
X001212Y028486D01*
X001228Y028522D01*
X001249Y028555D01*
X001272Y028586D01*
X001299Y028614D01*
X001328Y028640D01*
X001359Y028663D01*
X001393Y028682D01*
X001429Y028698D01*
X001465Y028710D01*
X001503Y028719D01*
X001542Y028724D01*
X001581Y028725D01*
X001619Y028722D01*
X001658Y028715D01*
X001695Y028705D01*
X001731Y028690D01*
X001766Y028673D01*
X001799Y028652D01*
X001829Y028627D01*
X001857Y028600D01*
X001882Y028570D01*
X001904Y028538D01*
X001922Y028504D01*
X001937Y028468D01*
X001949Y028431D01*
X001957Y028393D01*
X001961Y028354D01*
X001961Y028316D01*
X001957Y028277D01*
X001949Y028239D01*
X001937Y028202D01*
X001922Y028166D01*
X001904Y028132D01*
X001882Y028100D01*
X001857Y028070D01*
X001829Y028043D01*
X001799Y028018D01*
X001766Y027997D01*
X001731Y027980D01*
X001695Y027965D01*
X001658Y027955D01*
X001619Y027948D01*
X001581Y027945D01*
X001542Y027946D01*
X001503Y027951D01*
X001465Y027960D01*
X001429Y027972D01*
X001393Y027988D01*
X001359Y028007D01*
X001328Y028030D01*
X001299Y028056D01*
X001272Y028084D01*
X001249Y028115D01*
X001228Y028148D01*
X001212Y028184D01*
X001198Y028220D01*
X001189Y028258D01*
X001183Y028296D01*
X001181Y028335D01*
X001376Y028335D02*
X001378Y028363D01*
X001384Y028390D01*
X001394Y028416D01*
X001407Y028440D01*
X001424Y028463D01*
X001443Y028482D01*
X001466Y028499D01*
X001490Y028512D01*
X001516Y028522D01*
X001543Y028528D01*
X001571Y028530D01*
X001599Y028528D01*
X001626Y028522D01*
X001652Y028512D01*
X001676Y028499D01*
X001699Y028482D01*
X001718Y028463D01*
X001735Y028440D01*
X001748Y028416D01*
X001758Y028390D01*
X001764Y028363D01*
X001766Y028335D01*
X001764Y028307D01*
X001758Y028280D01*
X001748Y028254D01*
X001735Y028230D01*
X001718Y028207D01*
X001699Y028188D01*
X001676Y028171D01*
X001652Y028158D01*
X001626Y028148D01*
X001599Y028142D01*
X001571Y028140D01*
X001543Y028142D01*
X001516Y028148D01*
X001490Y028158D01*
X001466Y028171D01*
X001443Y028188D01*
X001424Y028207D01*
X001407Y028230D01*
X001394Y028254D01*
X001384Y028280D01*
X001378Y028307D01*
X001376Y028335D01*
X017171Y028335D02*
X017971Y028335D01*
X017571Y027935D02*
X017571Y028735D01*
X017181Y028335D02*
X017183Y028374D01*
X017189Y028412D01*
X017198Y028450D01*
X017212Y028486D01*
X017228Y028522D01*
X017249Y028555D01*
X017272Y028586D01*
X017299Y028614D01*
X017328Y028640D01*
X017359Y028663D01*
X017393Y028682D01*
X017429Y028698D01*
X017465Y028710D01*
X017503Y028719D01*
X017542Y028724D01*
X017581Y028725D01*
X017619Y028722D01*
X017658Y028715D01*
X017695Y028705D01*
X017731Y028690D01*
X017766Y028673D01*
X017799Y028652D01*
X017829Y028627D01*
X017857Y028600D01*
X017882Y028570D01*
X017904Y028538D01*
X017922Y028504D01*
X017937Y028468D01*
X017949Y028431D01*
X017957Y028393D01*
X017961Y028354D01*
X017961Y028316D01*
X017957Y028277D01*
X017949Y028239D01*
X017937Y028202D01*
X017922Y028166D01*
X017904Y028132D01*
X017882Y028100D01*
X017857Y028070D01*
X017829Y028043D01*
X017799Y028018D01*
X017766Y027997D01*
X017731Y027980D01*
X017695Y027965D01*
X017658Y027955D01*
X017619Y027948D01*
X017581Y027945D01*
X017542Y027946D01*
X017503Y027951D01*
X017465Y027960D01*
X017429Y027972D01*
X017393Y027988D01*
X017359Y028007D01*
X017328Y028030D01*
X017299Y028056D01*
X017272Y028084D01*
X017249Y028115D01*
X017228Y028148D01*
X017212Y028184D01*
X017198Y028220D01*
X017189Y028258D01*
X017183Y028296D01*
X017181Y028335D01*
X017376Y028335D02*
X017378Y028363D01*
X017384Y028390D01*
X017394Y028416D01*
X017407Y028440D01*
X017424Y028463D01*
X017443Y028482D01*
X017466Y028499D01*
X017490Y028512D01*
X017516Y028522D01*
X017543Y028528D01*
X017571Y028530D01*
X017599Y028528D01*
X017626Y028522D01*
X017652Y028512D01*
X017676Y028499D01*
X017699Y028482D01*
X017718Y028463D01*
X017735Y028440D01*
X017748Y028416D01*
X017758Y028390D01*
X017764Y028363D01*
X017766Y028335D01*
X017764Y028307D01*
X017758Y028280D01*
X017748Y028254D01*
X017735Y028230D01*
X017718Y028207D01*
X017699Y028188D01*
X017676Y028171D01*
X017652Y028158D01*
X017626Y028148D01*
X017599Y028142D01*
X017571Y028140D01*
X017543Y028142D01*
X017516Y028148D01*
X017490Y028158D01*
X017466Y028171D01*
X017443Y028188D01*
X017424Y028207D01*
X017407Y028230D01*
X017394Y028254D01*
X017384Y028280D01*
X017378Y028307D01*
X017376Y028335D01*
X001971Y001335D02*
X001171Y001335D01*
X001571Y000935D02*
X001571Y001735D01*
X001181Y001335D02*
X001183Y001374D01*
X001189Y001412D01*
X001198Y001450D01*
X001212Y001486D01*
X001228Y001522D01*
X001249Y001555D01*
X001272Y001586D01*
X001299Y001614D01*
X001328Y001640D01*
X001359Y001663D01*
X001393Y001682D01*
X001429Y001698D01*
X001465Y001710D01*
X001503Y001719D01*
X001542Y001724D01*
X001581Y001725D01*
X001619Y001722D01*
X001658Y001715D01*
X001695Y001705D01*
X001731Y001690D01*
X001766Y001673D01*
X001799Y001652D01*
X001829Y001627D01*
X001857Y001600D01*
X001882Y001570D01*
X001904Y001538D01*
X001922Y001504D01*
X001937Y001468D01*
X001949Y001431D01*
X001957Y001393D01*
X001961Y001354D01*
X001961Y001316D01*
X001957Y001277D01*
X001949Y001239D01*
X001937Y001202D01*
X001922Y001166D01*
X001904Y001132D01*
X001882Y001100D01*
X001857Y001070D01*
X001829Y001043D01*
X001799Y001018D01*
X001766Y000997D01*
X001731Y000980D01*
X001695Y000965D01*
X001658Y000955D01*
X001619Y000948D01*
X001581Y000945D01*
X001542Y000946D01*
X001503Y000951D01*
X001465Y000960D01*
X001429Y000972D01*
X001393Y000988D01*
X001359Y001007D01*
X001328Y001030D01*
X001299Y001056D01*
X001272Y001084D01*
X001249Y001115D01*
X001228Y001148D01*
X001212Y001184D01*
X001198Y001220D01*
X001189Y001258D01*
X001183Y001296D01*
X001181Y001335D01*
X001376Y001335D02*
X001378Y001363D01*
X001384Y001390D01*
X001394Y001416D01*
X001407Y001440D01*
X001424Y001463D01*
X001443Y001482D01*
X001466Y001499D01*
X001490Y001512D01*
X001516Y001522D01*
X001543Y001528D01*
X001571Y001530D01*
X001599Y001528D01*
X001626Y001522D01*
X001652Y001512D01*
X001676Y001499D01*
X001699Y001482D01*
X001718Y001463D01*
X001735Y001440D01*
X001748Y001416D01*
X001758Y001390D01*
X001764Y001363D01*
X001766Y001335D01*
X001764Y001307D01*
X001758Y001280D01*
X001748Y001254D01*
X001735Y001230D01*
X001718Y001207D01*
X001699Y001188D01*
X001676Y001171D01*
X001652Y001158D01*
X001626Y001148D01*
X001599Y001142D01*
X001571Y001140D01*
X001543Y001142D01*
X001516Y001148D01*
X001490Y001158D01*
X001466Y001171D01*
X001443Y001188D01*
X001424Y001207D01*
X001407Y001230D01*
X001394Y001254D01*
X001384Y001280D01*
X001378Y001307D01*
X001376Y001335D01*
M02*
