%
M48
M72
T01C0.0130
T02C0.0394
T03C0.1260
%
T01
X3706Y3900
X7506Y3750
X4206Y11875
X5756Y12350
X9081Y15350
X10456Y17000
X9956Y18475
X9406Y17725
X12106Y16875
X12656Y16650
X12106Y15900
X12231Y14650
X12256Y13475
X14006Y14900
X14681Y14550
X15406Y16300
X14956Y24800
X10781Y28325
X9681Y25775
X8681Y25375
X8391Y25950
X7881Y24575
X5956Y24575
X14906Y3900
T02
X17081Y9750
X17081Y10950
X17081Y12150
X18081Y12150
X18081Y10950
X18081Y9750
X18081Y13350
X18081Y14350
X15981Y27750
X15981Y28750
X14581Y28750
X14581Y27750
X13081Y27750
X13081Y28750
X12081Y28750
X12081Y27750
X11081Y27750
X11081Y28750
X10081Y28750
X10081Y27750
X9081Y27750
X9081Y28750
X8081Y28750
X8081Y27750
X7081Y27750
X7081Y28750
X3781Y25850
X3781Y24850
X3781Y23850
T03
X1571Y1335
X5071Y19835
X1571Y28335
X17571Y28335
X17571Y1335
M30
