G75*
%MOIN*%
%OFA0B0*%
%FSLAX24Y24*%
%IPPOS*%
%LPD*%
%AMOC8*
5,1,8,0,0,1.08239X$1,22.5*
%
%ADD10R,0.2362X0.3150*%
%ADD11R,0.0315X0.1378*%
%ADD12R,0.0591X0.0591*%
%ADD13C,0.0591*%
%ADD14R,0.0512X0.0591*%
%ADD15R,0.0591X0.0120*%
%ADD16R,0.2283X0.3228*%
%ADD17R,0.0630X0.1575*%
%ADD18R,0.0472X0.0315*%
%ADD19R,0.0591X0.0512*%
%ADD20R,0.0630X0.0710*%
%ADD21R,0.0394X0.0748*%
%ADD22R,0.0748X0.0394*%
%ADD23OC8,0.0591*%
%ADD24C,0.0060*%
%ADD25C,0.0270*%
%ADD26C,0.0100*%
D10*
X014581Y010950D03*
D11*
X015057Y014001D03*
X015557Y014001D03*
X014057Y014001D03*
X013557Y014001D03*
D12*
X018081Y013350D03*
X018081Y012150D03*
X018081Y010950D03*
X018081Y009750D03*
X015981Y028750D03*
X014581Y028750D03*
X013081Y028750D03*
X003781Y025850D03*
D13*
X003781Y024850D03*
X003781Y023850D03*
D14*
X004155Y021450D03*
X003407Y021450D03*
X003407Y028250D03*
X004155Y028250D03*
X008407Y026450D03*
X009155Y026450D03*
X009707Y015150D03*
X010455Y015150D03*
X011707Y015150D03*
X012455Y015150D03*
X012755Y001350D03*
X012007Y001350D03*
X009455Y001250D03*
X008707Y001250D03*
X005955Y001250D03*
X005207Y001250D03*
X014907Y001350D03*
X015655Y001350D03*
D15*
X010957Y016163D03*
X010957Y016359D03*
X010957Y016556D03*
X010957Y016753D03*
X010957Y016950D03*
X009185Y016950D03*
X009185Y016753D03*
X009185Y016556D03*
X009185Y016359D03*
X009185Y016163D03*
D16*
X004581Y014736D03*
X004081Y006736D03*
X007881Y006736D03*
X011481Y006736D03*
X015281Y006736D03*
D17*
X016186Y003350D03*
X014375Y003350D03*
X012386Y003350D03*
X010575Y003350D03*
X008786Y003350D03*
X006975Y003350D03*
X004986Y003350D03*
X003175Y003350D03*
X003675Y011350D03*
X005486Y011350D03*
D18*
X014167Y016650D03*
X014955Y016276D03*
X014955Y017024D03*
D19*
X016081Y017024D03*
X016081Y016276D03*
X006481Y024576D03*
X006481Y025324D03*
X002381Y011524D03*
X002381Y010776D03*
D20*
X006921Y011050D03*
X007021Y012750D03*
X008141Y012750D03*
X008041Y011050D03*
X008141Y014550D03*
X007021Y014550D03*
X010621Y013250D03*
X011741Y013250D03*
X011741Y011350D03*
X010621Y011350D03*
X010621Y009550D03*
X011741Y009550D03*
D21*
X012024Y019050D03*
X011433Y019050D03*
X010843Y019050D03*
X010252Y019050D03*
X009662Y019050D03*
X009071Y019050D03*
X008481Y019050D03*
X008481Y024207D03*
X009071Y024207D03*
X009662Y024207D03*
X010252Y024207D03*
X010843Y024207D03*
X011433Y024207D03*
X012024Y024207D03*
X012615Y024207D03*
X013205Y024207D03*
X013796Y024207D03*
X014386Y024207D03*
X014977Y024207D03*
X015567Y024207D03*
X015567Y019050D03*
X014977Y019050D03*
X014386Y019050D03*
X013796Y019050D03*
X013205Y019050D03*
X012615Y019050D03*
D22*
X007756Y019581D03*
X007756Y020172D03*
X007756Y020763D03*
X007756Y021353D03*
X007756Y021944D03*
X007756Y022534D03*
X007756Y023125D03*
X007756Y023715D03*
D23*
X008081Y027750D03*
X008081Y028750D03*
X009081Y028750D03*
X009081Y027750D03*
X010081Y027750D03*
X010081Y028750D03*
X011081Y028750D03*
X011081Y027750D03*
X012081Y027750D03*
X012081Y028750D03*
X013081Y027750D03*
X014581Y027750D03*
X015981Y027750D03*
X018081Y014350D03*
X017081Y012150D03*
X017081Y010950D03*
X017081Y009750D03*
X007081Y027750D03*
X007081Y028750D03*
D24*
X007081Y027750D02*
X005731Y026400D01*
X005731Y024125D01*
X006156Y023700D01*
X006156Y018700D01*
X008681Y016175D01*
X009181Y016175D01*
X009185Y016163D01*
X009185Y016359D02*
X009206Y016375D01*
X009581Y016375D01*
X009631Y016366D01*
X009931Y016425D02*
X009581Y016775D01*
X009206Y016775D01*
X009185Y016753D01*
X009185Y016556D02*
X009181Y016550D01*
X009181Y016375D01*
X009185Y016359D01*
X009185Y016950D02*
X009681Y016950D01*
X010731Y015900D01*
X011656Y015900D01*
X012406Y015150D01*
X012455Y015150D01*
X012231Y014650D02*
X011731Y015150D01*
X011707Y015150D01*
X012106Y015900D02*
X011256Y016750D01*
X010981Y016750D01*
X010957Y016753D01*
X010957Y016950D02*
X011381Y016950D01*
X013556Y014775D01*
X013556Y014025D01*
X013557Y014001D01*
X014056Y014025D02*
X014057Y014001D01*
X014056Y014025D02*
X014056Y014850D01*
X014006Y014900D01*
X014031Y014900D01*
X014281Y015150D01*
X015906Y015150D01*
X017706Y013350D01*
X018081Y013350D01*
X018081Y012150D02*
X017631Y012150D01*
X015781Y014000D01*
X015581Y014000D01*
X015557Y014001D01*
X015556Y014000D01*
X015081Y014000D01*
X015057Y014001D01*
X015056Y014025D01*
X015056Y014175D01*
X014681Y014550D01*
X013806Y014750D02*
X013806Y013275D01*
X013456Y012925D01*
X013231Y012925D01*
X013006Y012700D01*
X013006Y008600D01*
X013081Y008525D01*
X013081Y005450D01*
X012156Y004525D01*
X011881Y004525D01*
X010656Y003300D01*
X010575Y003350D01*
X010581Y003350D01*
X012006Y001925D01*
X012006Y001350D01*
X012007Y001350D01*
X014381Y002650D02*
X014381Y003350D01*
X014375Y003350D01*
X014381Y003375D01*
X014906Y003900D01*
X014381Y002650D02*
X014906Y002125D01*
X014906Y001350D01*
X014907Y001350D01*
X015281Y006736D02*
X015281Y006750D01*
X016156Y007625D01*
X016156Y009800D01*
X017081Y010725D01*
X017081Y010950D01*
X013806Y014750D02*
X013781Y014775D01*
X013781Y015200D01*
X012106Y016875D01*
X012656Y016650D02*
X014167Y016650D01*
X014955Y016276D02*
X014956Y016275D01*
X015406Y016275D01*
X015406Y016300D01*
X015406Y016275D02*
X016081Y016275D01*
X016081Y016276D01*
X012256Y013475D02*
X011756Y012975D01*
X011741Y013250D01*
X011731Y013275D01*
X011731Y013450D01*
X010781Y014400D01*
X009106Y014400D01*
X008506Y015000D01*
X007781Y015000D01*
X007056Y014275D01*
X007021Y014550D01*
X007031Y014550D01*
X007031Y012775D01*
X007021Y012750D01*
X007006Y012750D01*
X006931Y012675D01*
X006931Y011050D01*
X006921Y011050D01*
X006906Y011025D01*
X006906Y009575D01*
X004081Y006750D01*
X004081Y006736D01*
X003706Y003900D02*
X003181Y003375D01*
X003175Y003350D01*
X003181Y003350D01*
X003181Y003275D01*
X005206Y001250D01*
X005207Y001250D01*
X006975Y003350D02*
X007056Y003300D01*
X007506Y003750D01*
X006981Y003350D02*
X006975Y003350D01*
X006981Y003350D02*
X008706Y001625D01*
X008706Y001250D01*
X008707Y001250D01*
X007881Y006736D02*
X007881Y006750D01*
X008031Y006900D01*
X008031Y011025D01*
X008041Y011050D01*
X008056Y011050D01*
X008056Y012675D01*
X008131Y012750D01*
X008141Y012750D01*
X008131Y012775D01*
X008131Y014550D01*
X008141Y014550D01*
X009081Y015350D02*
X006506Y015350D01*
X005906Y014750D01*
X004581Y014750D01*
X004581Y014736D01*
X004231Y012600D02*
X005118Y011713D01*
X005756Y012350D01*
X005118Y011713D02*
X005481Y011350D01*
X005486Y011350D01*
X004206Y011875D02*
X003681Y011350D01*
X003675Y011350D01*
X003656Y011350D01*
X003106Y010800D01*
X002381Y010800D01*
X002381Y010776D01*
X002381Y011524D02*
X002381Y011800D01*
X003181Y012600D01*
X003181Y012625D01*
X002756Y013050D01*
X002756Y024800D01*
X003781Y025825D01*
X003781Y025850D01*
X003781Y025875D01*
X003431Y026225D01*
X003431Y028250D01*
X003407Y028250D01*
X003781Y023850D02*
X003781Y023800D01*
X004131Y023450D01*
X004131Y021450D01*
X004155Y021450D01*
X005956Y024575D02*
X006481Y024575D01*
X006481Y024576D01*
X006506Y024575D01*
X007881Y024575D01*
X008681Y025375D02*
X009131Y025375D01*
X009131Y026450D01*
X009155Y026450D01*
X009331Y026450D01*
X010681Y027800D01*
X010681Y027900D01*
X011131Y028350D01*
X012306Y028350D01*
X012706Y028750D01*
X013081Y028750D01*
X012756Y029150D02*
X013406Y029150D01*
X013831Y028725D01*
X013831Y027525D01*
X015556Y025800D01*
X015556Y024225D01*
X015567Y024207D01*
X014977Y024207D02*
X014956Y024225D01*
X014956Y024800D01*
X012356Y028750D02*
X012081Y028750D01*
X012356Y028750D02*
X012756Y029150D01*
X012081Y027750D02*
X012081Y024975D01*
X011731Y024625D01*
X011731Y021250D01*
X009956Y019475D01*
X009956Y018475D01*
X009406Y017725D02*
X010331Y016800D01*
X010331Y016500D01*
X010656Y016175D01*
X010956Y016175D01*
X010957Y016163D01*
X010957Y016359D02*
X010956Y016375D01*
X010656Y016375D01*
X010456Y016575D01*
X010456Y017000D01*
X009931Y016425D02*
X009931Y015900D01*
X009731Y015700D01*
X009731Y015150D01*
X009707Y015150D01*
X010621Y013250D02*
X010631Y013250D01*
X010631Y011375D01*
X010621Y011350D01*
X010631Y011350D01*
X010631Y009550D01*
X010621Y009550D01*
X010631Y009525D01*
X010631Y007600D01*
X011481Y006750D01*
X011481Y006736D01*
X011731Y009550D02*
X011741Y009550D01*
X011731Y009550D02*
X011731Y011350D01*
X011741Y011350D01*
X011731Y011375D01*
X011731Y013250D01*
X011741Y013250D01*
X009071Y019050D02*
X009056Y019050D01*
X009056Y023500D01*
X008781Y023775D01*
X008781Y024950D01*
X007756Y025975D01*
X007756Y026900D01*
X008206Y027350D01*
X008231Y027350D01*
X008681Y027800D01*
X008681Y028350D01*
X009081Y028750D01*
X008931Y029150D02*
X009381Y029150D01*
X009781Y028750D01*
X010081Y028750D01*
X010031Y028325D02*
X010781Y028325D01*
X010031Y028325D02*
X009456Y027750D01*
X009081Y027750D01*
X008231Y028350D02*
X008681Y028800D01*
X008681Y028900D01*
X008931Y029150D01*
X008231Y028350D02*
X008131Y028350D01*
X007681Y027900D01*
X007681Y027800D01*
X006481Y026600D01*
X006481Y025324D01*
X008391Y025950D02*
X008391Y026450D01*
X008407Y026450D01*
X009131Y025375D02*
X009131Y024275D01*
X009081Y024225D01*
X009071Y024207D01*
X009662Y024207D02*
X009681Y024225D01*
X009681Y025775D01*
X004231Y012600D02*
X003181Y012600D01*
D25*
X004206Y011875D03*
X005756Y012350D03*
X009081Y015350D03*
X010456Y017000D03*
X009956Y018475D03*
X009406Y017725D03*
X012106Y016875D03*
X012656Y016650D03*
X012106Y015900D03*
X012231Y014650D03*
X012256Y013475D03*
X014006Y014900D03*
X014681Y014550D03*
X015406Y016300D03*
X014956Y024800D03*
X010781Y028325D03*
X009681Y025775D03*
X008681Y025375D03*
X008391Y025950D03*
X007881Y024575D03*
X005956Y024575D03*
X003706Y003900D03*
X007506Y003750D03*
X014906Y003900D03*
D26*
X000688Y000357D02*
X000688Y029439D01*
X018643Y029439D01*
X018643Y025047D01*
X016205Y025047D01*
X016083Y024926D01*
X016083Y018354D01*
X016205Y018233D01*
X018643Y018233D01*
X018643Y000357D01*
X000688Y000357D01*
X000688Y000446D02*
X018643Y000446D01*
X018643Y000544D02*
X017850Y000544D01*
X017738Y000498D02*
X018046Y000625D01*
X018281Y000861D01*
X018409Y001168D01*
X018409Y001502D01*
X018281Y001809D01*
X018046Y002045D01*
X017738Y002172D01*
X017405Y002172D01*
X017097Y002045D01*
X016861Y001809D01*
X016734Y001502D01*
X016734Y001168D01*
X016861Y000861D01*
X017097Y000625D01*
X017405Y000498D01*
X017738Y000498D01*
X018063Y000643D02*
X018643Y000643D01*
X018643Y000741D02*
X018161Y000741D01*
X018260Y000840D02*
X018643Y000840D01*
X018643Y000938D02*
X018313Y000938D01*
X018354Y001037D02*
X018643Y001037D01*
X018643Y001135D02*
X018395Y001135D01*
X018409Y001234D02*
X018643Y001234D01*
X018643Y001332D02*
X018409Y001332D01*
X018409Y001431D02*
X018643Y001431D01*
X018643Y001529D02*
X018397Y001529D01*
X018357Y001628D02*
X018643Y001628D01*
X018643Y001726D02*
X018316Y001726D01*
X018266Y001825D02*
X018643Y001825D01*
X018643Y001923D02*
X018168Y001923D01*
X018069Y002022D02*
X018643Y002022D01*
X018643Y002120D02*
X017864Y002120D01*
X017278Y002120D02*
X015143Y002120D01*
X015143Y002022D02*
X017073Y002022D01*
X016975Y001923D02*
X015143Y001923D01*
X015143Y001853D02*
X015143Y002223D01*
X014894Y002473D01*
X014898Y002477D01*
X014898Y003556D01*
X014899Y003558D01*
X014974Y003558D01*
X015100Y003610D01*
X015196Y003706D01*
X015248Y003832D01*
X015248Y003968D01*
X015196Y004094D01*
X015100Y004190D01*
X014974Y004242D01*
X014878Y004242D01*
X014776Y004345D01*
X013974Y004345D01*
X013853Y004223D01*
X013853Y002477D01*
X013974Y002355D01*
X014340Y002355D01*
X014668Y002027D01*
X014668Y001853D01*
X014565Y001853D01*
X014443Y001731D01*
X014443Y000969D01*
X014565Y000847D01*
X015249Y000847D01*
X015325Y000924D01*
X015341Y000915D01*
X015379Y000905D01*
X015605Y000905D01*
X015605Y001300D01*
X015705Y001300D01*
X015705Y001400D01*
X016061Y001400D01*
X016061Y001665D01*
X016050Y001703D01*
X016031Y001737D01*
X016003Y001765D01*
X015969Y001785D01*
X015930Y001795D01*
X015705Y001795D01*
X015705Y001400D01*
X015605Y001400D01*
X015605Y001795D01*
X015379Y001795D01*
X015341Y001785D01*
X015325Y001776D01*
X015249Y001853D01*
X015143Y001853D01*
X015277Y001825D02*
X016876Y001825D01*
X016827Y001726D02*
X016037Y001726D01*
X016061Y001628D02*
X016786Y001628D01*
X016745Y001529D02*
X016061Y001529D01*
X016061Y001431D02*
X016734Y001431D01*
X016734Y001332D02*
X015705Y001332D01*
X015705Y001300D02*
X016061Y001300D01*
X016061Y001035D01*
X016050Y000997D01*
X016031Y000963D01*
X016003Y000935D01*
X015969Y000915D01*
X015930Y000905D01*
X015705Y000905D01*
X015705Y001300D01*
X015705Y001234D02*
X015605Y001234D01*
X015605Y001135D02*
X015705Y001135D01*
X015705Y001037D02*
X015605Y001037D01*
X015605Y000938D02*
X015705Y000938D01*
X015705Y001431D02*
X015605Y001431D01*
X015605Y001529D02*
X015705Y001529D01*
X015705Y001628D02*
X015605Y001628D01*
X015605Y001726D02*
X015705Y001726D01*
X016061Y001234D02*
X016734Y001234D01*
X016748Y001135D02*
X016061Y001135D01*
X016061Y001037D02*
X016789Y001037D01*
X016829Y000938D02*
X016006Y000938D01*
X016883Y000840D02*
X009808Y000840D01*
X009803Y000835D02*
X009831Y000863D01*
X009850Y000897D01*
X009861Y000935D01*
X009861Y001200D01*
X009505Y001200D01*
X009505Y001300D01*
X009861Y001300D01*
X009861Y001565D01*
X009850Y001603D01*
X009831Y001637D01*
X009803Y001665D01*
X009769Y001685D01*
X009730Y001695D01*
X009505Y001695D01*
X009505Y001300D01*
X009405Y001300D01*
X009405Y001695D01*
X009179Y001695D01*
X009141Y001685D01*
X009125Y001676D01*
X009049Y001753D01*
X008914Y001753D01*
X007498Y003169D01*
X007498Y003406D01*
X007499Y003408D01*
X007574Y003408D01*
X007700Y003460D01*
X007796Y003556D01*
X007848Y003682D01*
X007848Y003818D01*
X007796Y003944D01*
X007700Y004040D01*
X007574Y004092D01*
X007498Y004092D01*
X007498Y004223D01*
X007376Y004345D01*
X006574Y004345D01*
X006453Y004223D01*
X006453Y002477D01*
X006574Y002355D01*
X007376Y002355D01*
X007498Y002477D01*
X007498Y002497D01*
X008303Y001691D01*
X008243Y001631D01*
X008243Y000869D01*
X008365Y000747D01*
X009049Y000747D01*
X009125Y000824D01*
X009141Y000815D01*
X009179Y000805D01*
X009405Y000805D01*
X009405Y001200D01*
X009505Y001200D01*
X009505Y000805D01*
X009730Y000805D01*
X009769Y000815D01*
X009803Y000835D01*
X009861Y000938D02*
X011574Y000938D01*
X011543Y000969D02*
X011665Y000847D01*
X012349Y000847D01*
X012425Y000924D01*
X012441Y000915D01*
X012479Y000905D01*
X012705Y000905D01*
X012705Y001300D01*
X012805Y001300D01*
X012805Y001400D01*
X013161Y001400D01*
X013161Y001665D01*
X013150Y001703D01*
X013131Y001737D01*
X013103Y001765D01*
X013069Y001785D01*
X013030Y001795D01*
X012805Y001795D01*
X012805Y001400D01*
X012705Y001400D01*
X012705Y001795D01*
X012479Y001795D01*
X012441Y001785D01*
X012425Y001776D01*
X012349Y001853D01*
X012243Y001853D01*
X012243Y002023D01*
X011098Y003169D01*
X011098Y003406D01*
X011979Y004288D01*
X012254Y004288D01*
X012393Y004427D01*
X013318Y005352D01*
X013318Y008623D01*
X013243Y008698D01*
X013243Y012602D01*
X013329Y012688D01*
X013554Y012688D01*
X013693Y012827D01*
X013971Y013105D01*
X014301Y013105D01*
X014422Y013226D01*
X014422Y014324D01*
X014487Y014260D01*
X014613Y014208D01*
X014687Y014208D01*
X014692Y014203D01*
X014692Y013226D01*
X014814Y013105D01*
X015301Y013105D01*
X015307Y013111D01*
X015314Y013105D01*
X015801Y013105D01*
X015922Y013226D01*
X015922Y013523D01*
X016832Y012613D01*
X016578Y012358D01*
X016578Y011942D01*
X016872Y011647D01*
X017289Y011647D01*
X017554Y011913D01*
X017578Y011913D01*
X017578Y011769D01*
X017699Y011647D01*
X018462Y011647D01*
X018583Y011769D01*
X018583Y012531D01*
X018462Y012653D01*
X017699Y012653D01*
X017582Y012535D01*
X016018Y014098D01*
X015922Y014195D01*
X015922Y014776D01*
X015801Y014898D01*
X015314Y014898D01*
X015307Y014891D01*
X015301Y014898D01*
X014814Y014898D01*
X014791Y014875D01*
X014749Y014892D01*
X014613Y014892D01*
X014487Y014840D01*
X014422Y014776D01*
X014348Y014850D01*
X014348Y014882D01*
X014379Y014913D01*
X015807Y014913D01*
X017578Y013142D01*
X017578Y012969D01*
X017699Y012847D01*
X018462Y012847D01*
X018583Y012969D01*
X018583Y013731D01*
X018462Y013853D01*
X018294Y013853D01*
X018583Y014142D01*
X018583Y014558D01*
X018289Y014853D01*
X017872Y014853D01*
X017578Y014558D01*
X017578Y014142D01*
X017867Y013853D01*
X017699Y013853D01*
X017619Y013772D01*
X016143Y015248D01*
X016004Y015387D01*
X014182Y015387D01*
X014037Y015242D01*
X014018Y015242D01*
X014018Y015298D01*
X013879Y015437D01*
X012904Y016413D01*
X013724Y016413D01*
X013724Y016407D01*
X013845Y016285D01*
X014489Y016285D01*
X014511Y016307D01*
X014511Y016033D01*
X014633Y015911D01*
X015277Y015911D01*
X015328Y015962D01*
X015338Y015958D01*
X015474Y015958D01*
X015578Y016001D01*
X015578Y015934D01*
X015699Y015813D01*
X016462Y015813D01*
X016583Y015934D01*
X016583Y016618D01*
X016507Y016695D01*
X016516Y016710D01*
X016526Y016748D01*
X016526Y016974D01*
X016131Y016974D01*
X016131Y017074D01*
X016526Y017074D01*
X016526Y017300D01*
X016516Y017338D01*
X016496Y017372D01*
X016468Y017400D01*
X016434Y017420D01*
X016396Y017430D01*
X016131Y017430D01*
X016131Y017074D01*
X016031Y017074D01*
X016031Y017430D01*
X015766Y017430D01*
X015728Y017420D01*
X015693Y017400D01*
X015665Y017372D01*
X015646Y017338D01*
X015635Y017300D01*
X015635Y017074D01*
X016031Y017074D01*
X016031Y016974D01*
X015635Y016974D01*
X015635Y016748D01*
X015646Y016710D01*
X015655Y016695D01*
X015578Y016618D01*
X015578Y016599D01*
X015474Y016642D01*
X015338Y016642D01*
X015294Y016624D01*
X015277Y016641D01*
X014633Y016641D01*
X014611Y016619D01*
X014611Y016762D01*
X014626Y016747D01*
X014661Y016727D01*
X014699Y016717D01*
X014926Y016717D01*
X014926Y016995D01*
X014983Y016995D01*
X014983Y016717D01*
X015211Y016717D01*
X015249Y016727D01*
X015283Y016747D01*
X015311Y016774D01*
X015331Y016809D01*
X015341Y016847D01*
X015341Y016995D01*
X014983Y016995D01*
X014983Y017053D01*
X014926Y017053D01*
X014926Y017331D01*
X014699Y017331D01*
X014661Y017321D01*
X014626Y017302D01*
X014598Y017274D01*
X014579Y017239D01*
X014569Y017201D01*
X014569Y017053D01*
X014926Y017053D01*
X014926Y016995D01*
X014569Y016995D01*
X014569Y016936D01*
X014489Y017015D01*
X013845Y017015D01*
X013724Y016893D01*
X013724Y016887D01*
X012903Y016887D01*
X012850Y016940D01*
X012724Y016992D01*
X012588Y016992D01*
X012462Y016940D01*
X012448Y016927D01*
X012448Y016943D01*
X012396Y017069D01*
X012300Y017165D01*
X012174Y017217D01*
X012038Y017217D01*
X011912Y017165D01*
X011815Y017069D01*
X011763Y016943D01*
X011763Y016903D01*
X011479Y017187D01*
X011368Y017187D01*
X011338Y017218D01*
X010723Y017218D01*
X010650Y017290D01*
X010524Y017342D01*
X010388Y017342D01*
X010262Y017290D01*
X010219Y017248D01*
X009748Y017718D01*
X009748Y017793D01*
X009696Y017919D01*
X009600Y018015D01*
X009474Y018067D01*
X009338Y018067D01*
X009212Y018015D01*
X009115Y017919D01*
X009063Y017793D01*
X009063Y017657D01*
X009115Y017531D01*
X009212Y017435D01*
X009338Y017383D01*
X009412Y017383D01*
X009607Y017187D01*
X009597Y017187D01*
X009567Y017218D01*
X008804Y017218D01*
X008683Y017096D01*
X008683Y016607D01*
X008740Y016550D01*
X008740Y016477D01*
X008745Y016458D01*
X008743Y016449D01*
X006393Y018798D01*
X006393Y023798D01*
X005968Y024223D01*
X005968Y024233D01*
X005980Y024233D01*
X006099Y024113D01*
X006862Y024113D01*
X006983Y024234D01*
X006983Y024338D01*
X007634Y024338D01*
X007687Y024285D01*
X007813Y024233D01*
X007949Y024233D01*
X008075Y024285D01*
X008134Y024344D01*
X008134Y024256D01*
X008432Y024256D01*
X008432Y024159D01*
X008134Y024159D01*
X008134Y024062D01*
X007805Y024062D01*
X007805Y023764D01*
X008151Y023764D01*
X008164Y023741D01*
X008192Y023713D01*
X008226Y023694D01*
X008264Y023683D01*
X008432Y023683D01*
X008432Y024159D01*
X008529Y024159D01*
X008529Y023683D01*
X008543Y023683D01*
X008543Y023677D01*
X008682Y023538D01*
X008818Y023402D01*
X008818Y019631D01*
X008788Y019631D01*
X008724Y019567D01*
X008697Y019574D01*
X008529Y019574D01*
X008529Y019098D01*
X008432Y019098D01*
X008432Y019002D01*
X008134Y019002D01*
X008134Y018656D01*
X008144Y018618D01*
X008164Y018584D01*
X008192Y018556D01*
X008226Y018536D01*
X008264Y018526D01*
X008432Y018526D01*
X008432Y019002D01*
X008529Y019002D01*
X008529Y018526D01*
X008697Y018526D01*
X008724Y018533D01*
X008788Y018469D01*
X009354Y018469D01*
X009367Y018481D01*
X009379Y018469D01*
X009613Y018469D01*
X009613Y018407D01*
X009665Y018281D01*
X009762Y018185D01*
X009888Y018133D01*
X010024Y018133D01*
X010150Y018185D01*
X010246Y018281D01*
X010298Y018407D01*
X010298Y018469D01*
X010535Y018469D01*
X010548Y018481D01*
X010560Y018469D01*
X011126Y018469D01*
X011138Y018481D01*
X011151Y018469D01*
X011716Y018469D01*
X011729Y018481D01*
X011741Y018469D01*
X012307Y018469D01*
X012319Y018481D01*
X012332Y018469D01*
X012897Y018469D01*
X012910Y018481D01*
X012922Y018469D01*
X013488Y018469D01*
X013500Y018481D01*
X013513Y018469D01*
X014078Y018469D01*
X014091Y018481D01*
X014103Y018469D01*
X014669Y018469D01*
X014681Y018481D01*
X014694Y018469D01*
X015260Y018469D01*
X015272Y018481D01*
X015285Y018469D01*
X015850Y018469D01*
X015972Y018590D01*
X015972Y019510D01*
X015850Y019631D01*
X015285Y019631D01*
X015272Y019619D01*
X015260Y019631D01*
X014694Y019631D01*
X014681Y019619D01*
X014669Y019631D01*
X014103Y019631D01*
X014091Y019619D01*
X014078Y019631D01*
X013513Y019631D01*
X013500Y019619D01*
X013488Y019631D01*
X012922Y019631D01*
X012910Y019619D01*
X012897Y019631D01*
X012332Y019631D01*
X012319Y019619D01*
X012307Y019631D01*
X011741Y019631D01*
X011729Y019619D01*
X011716Y019631D01*
X011151Y019631D01*
X011138Y019619D01*
X011126Y019631D01*
X010560Y019631D01*
X010548Y019619D01*
X010535Y019631D01*
X010448Y019631D01*
X011968Y021152D01*
X011968Y023626D01*
X012307Y023626D01*
X012319Y023638D01*
X012332Y023626D01*
X012897Y023626D01*
X012910Y023638D01*
X012922Y023626D01*
X013488Y023626D01*
X013500Y023638D01*
X013513Y023626D01*
X014078Y023626D01*
X014091Y023638D01*
X014103Y023626D01*
X014669Y023626D01*
X014681Y023638D01*
X014694Y023626D01*
X015260Y023626D01*
X015272Y023638D01*
X015285Y023626D01*
X015850Y023626D01*
X015972Y023748D01*
X015972Y024667D01*
X015850Y024789D01*
X015793Y024789D01*
X015793Y025898D01*
X014068Y027623D01*
X014068Y028823D01*
X013643Y029248D01*
X013504Y029387D01*
X012657Y029387D01*
X012406Y029136D01*
X012289Y029253D01*
X011872Y029253D01*
X011581Y028961D01*
X011289Y029253D01*
X010872Y029253D01*
X010581Y028961D01*
X010289Y029253D01*
X009872Y029253D01*
X009743Y029123D01*
X009479Y029387D01*
X008832Y029387D01*
X008693Y029248D01*
X008493Y029048D01*
X008289Y029253D01*
X007872Y029253D01*
X007581Y028961D01*
X007289Y029253D01*
X006872Y029253D01*
X006578Y028958D01*
X006578Y028542D01*
X006870Y028250D01*
X006578Y027958D01*
X006578Y027583D01*
X005493Y026498D01*
X005493Y024027D01*
X005632Y023888D01*
X005918Y023602D01*
X005918Y018602D01*
X006057Y018463D01*
X008582Y015938D01*
X008762Y015938D01*
X008804Y015895D01*
X009567Y015895D01*
X009688Y016017D01*
X009688Y016309D01*
X009631Y016366D01*
X009631Y016389D01*
X009693Y016327D01*
X009693Y015998D01*
X009632Y015937D01*
X009493Y015798D01*
X009493Y015653D01*
X009365Y015653D01*
X009314Y015601D01*
X009275Y015640D01*
X009149Y015692D01*
X009013Y015692D01*
X008887Y015640D01*
X008834Y015587D01*
X006407Y015587D01*
X006268Y015448D01*
X005930Y015110D01*
X005930Y016436D01*
X005808Y016557D01*
X003353Y016557D01*
X003231Y016436D01*
X003231Y013036D01*
X003353Y012914D01*
X005808Y012914D01*
X005930Y013036D01*
X005930Y014513D01*
X006004Y014513D01*
X006604Y015113D01*
X007557Y015113D01*
X007490Y015045D01*
X007422Y015112D01*
X006620Y015112D01*
X006498Y014991D01*
X006498Y014109D01*
X006620Y013988D01*
X006793Y013988D01*
X006793Y013312D01*
X006620Y013312D01*
X006498Y013191D01*
X006498Y012309D01*
X006620Y012188D01*
X006693Y012188D01*
X006693Y011612D01*
X006520Y011612D01*
X006398Y011491D01*
X006398Y010609D01*
X006520Y010488D01*
X006668Y010488D01*
X006668Y009673D01*
X005430Y008435D01*
X005430Y008436D01*
X005308Y008557D01*
X002853Y008557D01*
X002731Y008436D01*
X002731Y005036D01*
X002853Y004914D01*
X005308Y004914D01*
X005430Y005036D01*
X005430Y007763D01*
X007143Y009477D01*
X007143Y010488D01*
X007322Y010488D01*
X007443Y010609D01*
X007443Y011491D01*
X007322Y011612D01*
X007168Y011612D01*
X007168Y012188D01*
X007422Y012188D01*
X007543Y012309D01*
X007543Y013191D01*
X007422Y013312D01*
X007268Y013312D01*
X007268Y013988D01*
X007422Y013988D01*
X007543Y014109D01*
X007543Y014427D01*
X007618Y014502D01*
X007618Y014109D01*
X007740Y013988D01*
X007893Y013988D01*
X007893Y013312D01*
X007740Y013312D01*
X007618Y013191D01*
X007618Y012309D01*
X007740Y012188D01*
X007818Y012188D01*
X007818Y011612D01*
X007640Y011612D01*
X007518Y011491D01*
X007518Y010609D01*
X007640Y010488D01*
X007793Y010488D01*
X007793Y008557D01*
X006653Y008557D01*
X006531Y008436D01*
X006531Y005036D01*
X006653Y004914D01*
X009108Y004914D01*
X009230Y005036D01*
X009230Y008436D01*
X009108Y008557D01*
X008268Y008557D01*
X008268Y010488D01*
X008441Y010488D01*
X008563Y010609D01*
X008563Y011491D01*
X008441Y011612D01*
X008293Y011612D01*
X008293Y012188D01*
X008541Y012188D01*
X008663Y012309D01*
X008663Y013191D01*
X008541Y013312D01*
X008368Y013312D01*
X008368Y013988D01*
X008541Y013988D01*
X008663Y014109D01*
X008663Y014507D01*
X009007Y014163D01*
X010682Y014163D01*
X011218Y013627D01*
X011218Y012809D01*
X011340Y012688D01*
X011493Y012688D01*
X011493Y011912D01*
X011340Y011912D01*
X011218Y011791D01*
X011218Y010909D01*
X011340Y010788D01*
X011493Y010788D01*
X011493Y010112D01*
X011340Y010112D01*
X011218Y009991D01*
X011218Y009109D01*
X011340Y008988D01*
X012141Y008988D01*
X012263Y009109D01*
X012263Y009991D01*
X012141Y010112D01*
X011968Y010112D01*
X011968Y010788D01*
X012141Y010788D01*
X012263Y010909D01*
X012263Y011791D01*
X012141Y011912D01*
X011968Y011912D01*
X011968Y012688D01*
X012141Y012688D01*
X012263Y012809D01*
X012263Y013133D01*
X012324Y013133D01*
X012450Y013185D01*
X012546Y013281D01*
X012598Y013407D01*
X012598Y013543D01*
X012546Y013669D01*
X012450Y013765D01*
X012324Y013817D01*
X012188Y013817D01*
X012151Y013802D01*
X012141Y013812D01*
X011704Y013812D01*
X011018Y014498D01*
X010879Y014637D01*
X009204Y014637D01*
X008743Y015098D01*
X008729Y015113D01*
X008834Y015113D01*
X008887Y015060D01*
X009013Y015008D01*
X009149Y015008D01*
X009243Y015047D01*
X009243Y014769D01*
X009365Y014647D01*
X010049Y014647D01*
X010125Y014724D01*
X010141Y014715D01*
X010179Y014705D01*
X010405Y014705D01*
X010405Y015100D01*
X010505Y015100D01*
X010505Y015200D01*
X010861Y015200D01*
X010861Y015465D01*
X010850Y015503D01*
X010831Y015537D01*
X010803Y015565D01*
X010769Y015585D01*
X010730Y015595D01*
X010505Y015595D01*
X010505Y015200D01*
X010405Y015200D01*
X010405Y015595D01*
X010179Y015595D01*
X010141Y015585D01*
X010125Y015576D01*
X010049Y015653D01*
X010019Y015653D01*
X010029Y015663D01*
X010168Y015802D01*
X010168Y016127D01*
X010493Y015802D01*
X010632Y015663D01*
X011557Y015663D01*
X011567Y015653D01*
X011365Y015653D01*
X011243Y015531D01*
X011243Y014769D01*
X011365Y014647D01*
X011888Y014647D01*
X011888Y014582D01*
X011940Y014456D01*
X012037Y014360D01*
X012163Y014308D01*
X012299Y014308D01*
X012425Y014360D01*
X012521Y014456D01*
X012573Y014582D01*
X012573Y014647D01*
X012797Y014647D01*
X012918Y014769D01*
X012918Y015077D01*
X013205Y014789D01*
X013192Y014776D01*
X013192Y013226D01*
X013256Y013162D01*
X013132Y013162D01*
X012907Y012937D01*
X012768Y012798D01*
X012768Y008502D01*
X012843Y008427D01*
X012843Y005548D01*
X012830Y005535D01*
X012830Y008436D01*
X012708Y008557D01*
X010868Y008557D01*
X010868Y008988D01*
X011022Y008988D01*
X011143Y009109D01*
X011143Y009991D01*
X011022Y010112D01*
X010868Y010112D01*
X010868Y010788D01*
X011022Y010788D01*
X011339Y010788D01*
X011241Y010887D02*
X011121Y010887D01*
X011143Y010909D02*
X011143Y011791D01*
X011022Y011912D01*
X010868Y011912D01*
X010868Y012688D01*
X011022Y012688D01*
X011143Y012809D01*
X011143Y013691D01*
X011022Y013812D01*
X010220Y013812D01*
X010098Y013691D01*
X010098Y012809D01*
X010220Y012688D01*
X010393Y012688D01*
X010393Y011912D01*
X010220Y011912D01*
X010098Y011791D01*
X010098Y010909D01*
X010220Y010788D01*
X010393Y010788D01*
X010393Y010112D01*
X010220Y010112D01*
X010098Y009991D01*
X010098Y009109D01*
X010220Y008988D01*
X010393Y008988D01*
X010393Y008557D01*
X010253Y008557D01*
X010131Y008436D01*
X010131Y005036D01*
X010253Y004914D01*
X012209Y004914D01*
X012057Y004762D01*
X011782Y004762D01*
X011098Y004078D01*
X011098Y004223D01*
X010976Y004345D01*
X010174Y004345D01*
X010053Y004223D01*
X010053Y002477D01*
X010174Y002355D01*
X010976Y002355D01*
X011098Y002477D01*
X011098Y002497D01*
X011742Y001853D01*
X011665Y001853D01*
X011543Y001731D01*
X011543Y000969D01*
X011543Y001037D02*
X009861Y001037D01*
X009861Y001135D02*
X011543Y001135D01*
X011543Y001234D02*
X009505Y001234D01*
X009505Y001332D02*
X009405Y001332D01*
X009405Y001431D02*
X009505Y001431D01*
X009505Y001529D02*
X009405Y001529D01*
X009405Y001628D02*
X009505Y001628D01*
X009836Y001628D02*
X011543Y001628D01*
X011543Y001726D02*
X009075Y001726D01*
X008842Y001825D02*
X011637Y001825D01*
X011672Y001923D02*
X008744Y001923D01*
X008645Y002022D02*
X011573Y002022D01*
X011475Y002120D02*
X008547Y002120D01*
X008448Y002219D02*
X011376Y002219D01*
X011278Y002317D02*
X008350Y002317D01*
X008413Y002423D02*
X008452Y002413D01*
X008736Y002413D01*
X008736Y003300D01*
X008321Y003300D01*
X008321Y002543D01*
X008331Y002505D01*
X008351Y002470D01*
X008379Y002443D01*
X008413Y002423D01*
X008441Y002416D02*
X008251Y002416D01*
X008329Y002514D02*
X008153Y002514D01*
X008054Y002613D02*
X008321Y002613D01*
X008321Y002711D02*
X007956Y002711D01*
X007857Y002810D02*
X008321Y002810D01*
X008321Y002908D02*
X007759Y002908D01*
X007660Y003007D02*
X008321Y003007D01*
X008321Y003105D02*
X007562Y003105D01*
X007498Y003204D02*
X008321Y003204D01*
X008321Y003400D02*
X008321Y004157D01*
X008331Y004195D01*
X008351Y004230D01*
X008379Y004257D01*
X008413Y004277D01*
X008452Y004287D01*
X008736Y004287D01*
X008836Y004287D01*
X008836Y003400D01*
X008736Y003400D01*
X008736Y003300D01*
X008836Y003300D01*
X008836Y002413D01*
X009121Y002413D01*
X009159Y002423D01*
X009193Y002443D01*
X009221Y002470D01*
X009241Y002505D01*
X009251Y002543D01*
X009251Y003300D01*
X008836Y003300D01*
X008836Y003400D01*
X009251Y003400D01*
X009251Y004157D01*
X009241Y004195D01*
X009221Y004230D01*
X009193Y004257D01*
X009159Y004277D01*
X009121Y004287D01*
X008836Y004287D01*
X008836Y004189D02*
X008736Y004189D01*
X008736Y004287D02*
X008736Y003400D01*
X008321Y003400D01*
X008321Y003401D02*
X007498Y003401D01*
X007498Y003302D02*
X008736Y003302D01*
X008736Y003204D02*
X008836Y003204D01*
X008836Y003302D02*
X010053Y003302D01*
X010053Y003204D02*
X009251Y003204D01*
X009251Y003105D02*
X010053Y003105D01*
X010053Y003007D02*
X009251Y003007D01*
X009251Y002908D02*
X010053Y002908D01*
X010053Y002810D02*
X009251Y002810D01*
X009251Y002711D02*
X010053Y002711D01*
X010053Y002613D02*
X009251Y002613D01*
X009243Y002514D02*
X010053Y002514D01*
X010114Y002416D02*
X009132Y002416D01*
X008836Y002416D02*
X008736Y002416D01*
X008736Y002514D02*
X008836Y002514D01*
X008836Y002613D02*
X008736Y002613D01*
X008736Y002711D02*
X008836Y002711D01*
X008836Y002810D02*
X008736Y002810D01*
X008736Y002908D02*
X008836Y002908D01*
X008836Y003007D02*
X008736Y003007D01*
X008736Y003105D02*
X008836Y003105D01*
X008836Y003401D02*
X008736Y003401D01*
X008736Y003499D02*
X008836Y003499D01*
X008836Y003598D02*
X008736Y003598D01*
X008736Y003696D02*
X008836Y003696D01*
X008836Y003795D02*
X008736Y003795D01*
X008736Y003893D02*
X008836Y003893D01*
X008836Y003992D02*
X008736Y003992D01*
X008736Y004090D02*
X008836Y004090D01*
X009122Y004287D02*
X010116Y004287D01*
X010053Y004189D02*
X009243Y004189D01*
X009251Y004090D02*
X010053Y004090D01*
X010053Y003992D02*
X009251Y003992D01*
X009251Y003893D02*
X010053Y003893D01*
X010053Y003795D02*
X009251Y003795D01*
X009251Y003696D02*
X010053Y003696D01*
X010053Y003598D02*
X009251Y003598D01*
X009251Y003499D02*
X010053Y003499D01*
X010053Y003401D02*
X009251Y003401D01*
X008450Y004287D02*
X007434Y004287D01*
X007498Y004189D02*
X008330Y004189D01*
X008321Y004090D02*
X007580Y004090D01*
X007749Y003992D02*
X008321Y003992D01*
X008321Y003893D02*
X007817Y003893D01*
X007848Y003795D02*
X008321Y003795D01*
X008321Y003696D02*
X007848Y003696D01*
X007813Y003598D02*
X008321Y003598D01*
X008321Y003499D02*
X007739Y003499D01*
X007579Y002416D02*
X007436Y002416D01*
X007678Y002317D02*
X004475Y002317D01*
X004573Y002219D02*
X007776Y002219D01*
X007875Y002120D02*
X004672Y002120D01*
X004770Y002022D02*
X007973Y002022D01*
X008072Y001923D02*
X004869Y001923D01*
X004967Y001825D02*
X008170Y001825D01*
X008269Y001726D02*
X005575Y001726D01*
X005549Y001753D02*
X005039Y001753D01*
X003698Y003094D01*
X003698Y003556D01*
X003699Y003558D01*
X003774Y003558D01*
X003900Y003610D01*
X003996Y003706D01*
X004048Y003832D01*
X004048Y003968D01*
X003996Y004094D01*
X003900Y004190D01*
X003774Y004242D01*
X003679Y004242D01*
X003576Y004345D01*
X002774Y004345D01*
X002653Y004223D01*
X002653Y002477D01*
X002774Y002355D01*
X003576Y002355D01*
X003670Y002449D01*
X004743Y001377D01*
X004743Y000869D01*
X004865Y000747D01*
X005549Y000747D01*
X005625Y000824D01*
X005641Y000815D01*
X005679Y000805D01*
X005905Y000805D01*
X005905Y001200D01*
X006005Y001200D01*
X006005Y001300D01*
X006361Y001300D01*
X006361Y001565D01*
X006350Y001603D01*
X006331Y001637D01*
X006303Y001665D01*
X006269Y001685D01*
X006230Y001695D01*
X006005Y001695D01*
X006005Y001300D01*
X005905Y001300D01*
X005905Y001695D01*
X005679Y001695D01*
X005641Y001685D01*
X005625Y001676D01*
X005549Y001753D01*
X005905Y001628D02*
X006005Y001628D01*
X006005Y001529D02*
X005905Y001529D01*
X005905Y001431D02*
X006005Y001431D01*
X006005Y001332D02*
X005905Y001332D01*
X006005Y001234D02*
X008243Y001234D01*
X008243Y001332D02*
X006361Y001332D01*
X006361Y001431D02*
X008243Y001431D01*
X008243Y001529D02*
X006361Y001529D01*
X006336Y001628D02*
X008243Y001628D01*
X008243Y001135D02*
X006361Y001135D01*
X006361Y001200D02*
X006361Y000935D01*
X006350Y000897D01*
X006331Y000863D01*
X006303Y000835D01*
X006269Y000815D01*
X006230Y000805D01*
X006005Y000805D01*
X006005Y001200D01*
X006361Y001200D01*
X006361Y001037D02*
X008243Y001037D01*
X008243Y000938D02*
X006361Y000938D01*
X006308Y000840D02*
X008273Y000840D01*
X009405Y000840D02*
X009505Y000840D01*
X009505Y000938D02*
X009405Y000938D01*
X009405Y001037D02*
X009505Y001037D01*
X009505Y001135D02*
X009405Y001135D01*
X009861Y001332D02*
X011543Y001332D01*
X011543Y001431D02*
X009861Y001431D01*
X009861Y001529D02*
X011543Y001529D01*
X011950Y002317D02*
X014378Y002317D01*
X014476Y002219D02*
X012048Y002219D01*
X012147Y002120D02*
X014575Y002120D01*
X014668Y002022D02*
X012243Y002022D01*
X012243Y001923D02*
X014668Y001923D01*
X014537Y001825D02*
X012377Y001825D01*
X012705Y001726D02*
X012805Y001726D01*
X012805Y001628D02*
X012705Y001628D01*
X012705Y001529D02*
X012805Y001529D01*
X012805Y001431D02*
X012705Y001431D01*
X012805Y001332D02*
X014443Y001332D01*
X014443Y001234D02*
X013161Y001234D01*
X013161Y001300D02*
X012805Y001300D01*
X012805Y000905D01*
X013030Y000905D01*
X013069Y000915D01*
X013103Y000935D01*
X013131Y000963D01*
X013150Y000997D01*
X013161Y001035D01*
X013161Y001300D01*
X013161Y001431D02*
X014443Y001431D01*
X014443Y001529D02*
X013161Y001529D01*
X013161Y001628D02*
X014443Y001628D01*
X014443Y001726D02*
X013137Y001726D01*
X013161Y001135D02*
X014443Y001135D01*
X014443Y001037D02*
X013161Y001037D01*
X013106Y000938D02*
X014474Y000938D01*
X015143Y002219D02*
X018643Y002219D01*
X018643Y002317D02*
X015050Y002317D01*
X014951Y002416D02*
X015841Y002416D01*
X015852Y002413D02*
X016136Y002413D01*
X016136Y003300D01*
X015721Y003300D01*
X015721Y002543D01*
X015731Y002505D01*
X015751Y002470D01*
X015779Y002443D01*
X015813Y002423D01*
X015852Y002413D01*
X015729Y002514D02*
X014898Y002514D01*
X014898Y002613D02*
X015721Y002613D01*
X015721Y002711D02*
X014898Y002711D01*
X014898Y002810D02*
X015721Y002810D01*
X015721Y002908D02*
X014898Y002908D01*
X014898Y003007D02*
X015721Y003007D01*
X015721Y003105D02*
X014898Y003105D01*
X014898Y003204D02*
X015721Y003204D01*
X015721Y003400D02*
X015721Y004157D01*
X015731Y004195D01*
X015751Y004230D01*
X015779Y004257D01*
X015813Y004277D01*
X015852Y004287D01*
X016136Y004287D01*
X016236Y004287D01*
X016236Y003400D01*
X016136Y003400D01*
X016136Y003300D01*
X016236Y003300D01*
X016236Y002413D01*
X016521Y002413D01*
X016559Y002423D01*
X016593Y002443D01*
X016621Y002470D01*
X016641Y002505D01*
X016651Y002543D01*
X016651Y003300D01*
X016236Y003300D01*
X016236Y003400D01*
X016651Y003400D01*
X016651Y004157D01*
X016641Y004195D01*
X016621Y004230D01*
X016593Y004257D01*
X016559Y004277D01*
X016521Y004287D01*
X016236Y004287D01*
X016236Y004189D02*
X016136Y004189D01*
X016136Y004287D02*
X016136Y003400D01*
X015721Y003400D01*
X015721Y003401D02*
X014898Y003401D01*
X014898Y003499D02*
X015721Y003499D01*
X015721Y003598D02*
X015070Y003598D01*
X015186Y003696D02*
X015721Y003696D01*
X015721Y003795D02*
X015233Y003795D01*
X015248Y003893D02*
X015721Y003893D01*
X015721Y003992D02*
X015239Y003992D01*
X015198Y004090D02*
X015721Y004090D01*
X015730Y004189D02*
X015102Y004189D01*
X014834Y004287D02*
X015850Y004287D01*
X016136Y004090D02*
X016236Y004090D01*
X016236Y003992D02*
X016136Y003992D01*
X016136Y003893D02*
X016236Y003893D01*
X016236Y003795D02*
X016136Y003795D01*
X016136Y003696D02*
X016236Y003696D01*
X016236Y003598D02*
X016136Y003598D01*
X016136Y003499D02*
X016236Y003499D01*
X016236Y003401D02*
X016136Y003401D01*
X016136Y003302D02*
X014898Y003302D01*
X013914Y002416D02*
X012732Y002416D01*
X012721Y002413D02*
X012759Y002423D01*
X012793Y002443D01*
X012821Y002470D01*
X012841Y002505D01*
X012851Y002543D01*
X012851Y003300D01*
X012436Y003300D01*
X012436Y002413D01*
X012721Y002413D01*
X012843Y002514D02*
X013853Y002514D01*
X013853Y002613D02*
X012851Y002613D01*
X012851Y002711D02*
X013853Y002711D01*
X013853Y002810D02*
X012851Y002810D01*
X012851Y002908D02*
X013853Y002908D01*
X013853Y003007D02*
X012851Y003007D01*
X012851Y003105D02*
X013853Y003105D01*
X013853Y003204D02*
X012851Y003204D01*
X012851Y003400D02*
X012851Y004157D01*
X012841Y004195D01*
X012821Y004230D01*
X012793Y004257D01*
X012759Y004277D01*
X012721Y004287D01*
X012436Y004287D01*
X012336Y004287D01*
X012052Y004287D01*
X012013Y004277D01*
X011979Y004257D01*
X011951Y004230D01*
X011931Y004195D01*
X011921Y004157D01*
X011921Y003400D01*
X012336Y003400D01*
X012336Y003300D01*
X011921Y003300D01*
X011921Y002543D01*
X011931Y002505D01*
X011951Y002470D01*
X011979Y002443D01*
X012013Y002423D01*
X012052Y002413D01*
X012336Y002413D01*
X012336Y003300D01*
X012436Y003300D01*
X012436Y003400D01*
X012336Y003400D01*
X012336Y004287D01*
X012336Y004189D02*
X012436Y004189D01*
X012436Y004287D02*
X012436Y003400D01*
X012851Y003400D01*
X012851Y003401D02*
X013853Y003401D01*
X013853Y003499D02*
X012851Y003499D01*
X012851Y003598D02*
X013853Y003598D01*
X013853Y003696D02*
X012851Y003696D01*
X012851Y003795D02*
X013853Y003795D01*
X013853Y003893D02*
X012851Y003893D01*
X012851Y003992D02*
X013853Y003992D01*
X013853Y004090D02*
X012851Y004090D01*
X012843Y004189D02*
X013853Y004189D01*
X013916Y004287D02*
X012722Y004287D01*
X012451Y004484D02*
X018643Y004484D01*
X018643Y004386D02*
X012352Y004386D01*
X012549Y004583D02*
X018643Y004583D01*
X018643Y004681D02*
X012648Y004681D01*
X012746Y004780D02*
X018643Y004780D01*
X018643Y004878D02*
X012845Y004878D01*
X012943Y004977D02*
X013991Y004977D01*
X013931Y005036D02*
X014053Y004914D01*
X016508Y004914D01*
X016630Y005036D01*
X016630Y008436D01*
X016508Y008557D01*
X016393Y008557D01*
X016393Y009702D01*
X017139Y010447D01*
X017289Y010447D01*
X017578Y010736D01*
X017578Y010569D01*
X017699Y010447D01*
X018462Y010447D01*
X018583Y010569D01*
X018583Y011331D01*
X018462Y011453D01*
X017699Y011453D01*
X017578Y011331D01*
X017578Y011164D01*
X017289Y011453D01*
X016872Y011453D01*
X016578Y011158D01*
X016578Y010742D01*
X016670Y010650D01*
X016057Y010037D01*
X015918Y009898D01*
X015918Y008557D01*
X014053Y008557D01*
X013931Y008436D01*
X013931Y005036D01*
X013931Y005075D02*
X013042Y005075D01*
X013140Y005174D02*
X013931Y005174D01*
X013931Y005272D02*
X013239Y005272D01*
X013318Y005371D02*
X013931Y005371D01*
X013931Y005469D02*
X013318Y005469D01*
X013318Y005568D02*
X013931Y005568D01*
X013931Y005666D02*
X013318Y005666D01*
X013318Y005765D02*
X013931Y005765D01*
X013931Y005863D02*
X013318Y005863D01*
X013318Y005962D02*
X013931Y005962D01*
X013931Y006060D02*
X013318Y006060D01*
X013318Y006159D02*
X013931Y006159D01*
X013931Y006257D02*
X013318Y006257D01*
X013318Y006356D02*
X013931Y006356D01*
X013931Y006454D02*
X013318Y006454D01*
X013318Y006553D02*
X013931Y006553D01*
X013931Y006651D02*
X013318Y006651D01*
X013318Y006750D02*
X013931Y006750D01*
X013931Y006848D02*
X013318Y006848D01*
X013318Y006947D02*
X013931Y006947D01*
X013931Y007045D02*
X013318Y007045D01*
X013318Y007144D02*
X013931Y007144D01*
X013931Y007242D02*
X013318Y007242D01*
X013318Y007341D02*
X013931Y007341D01*
X013931Y007439D02*
X013318Y007439D01*
X013318Y007538D02*
X013931Y007538D01*
X013931Y007636D02*
X013318Y007636D01*
X013318Y007735D02*
X013931Y007735D01*
X013931Y007833D02*
X013318Y007833D01*
X013318Y007932D02*
X013931Y007932D01*
X013931Y008030D02*
X013318Y008030D01*
X013318Y008129D02*
X013931Y008129D01*
X013931Y008227D02*
X013318Y008227D01*
X013318Y008326D02*
X013931Y008326D01*
X013931Y008424D02*
X013318Y008424D01*
X013318Y008523D02*
X014018Y008523D01*
X013318Y008621D02*
X015918Y008621D01*
X015918Y008720D02*
X013243Y008720D01*
X013243Y008818D02*
X015918Y008818D01*
X015918Y008917D02*
X013243Y008917D01*
X013243Y009015D02*
X015918Y009015D01*
X015918Y009114D02*
X013243Y009114D01*
X013243Y009212D02*
X015918Y009212D01*
X015854Y009255D02*
X015820Y009235D01*
X015782Y009225D01*
X014631Y009225D01*
X014631Y010900D01*
X014631Y011000D01*
X015912Y011000D01*
X015912Y012545D01*
X015902Y012583D01*
X015882Y012617D01*
X015854Y012645D01*
X015820Y012665D01*
X015782Y012675D01*
X014631Y012675D01*
X014631Y011000D01*
X014531Y011000D01*
X014531Y012675D01*
X013380Y012675D01*
X013342Y012665D01*
X013308Y012645D01*
X013280Y012617D01*
X013260Y012583D01*
X013250Y012545D01*
X013250Y011000D01*
X014531Y011000D01*
X014531Y010900D01*
X014631Y010900D01*
X015912Y010900D01*
X015912Y009355D01*
X015902Y009317D01*
X015882Y009283D01*
X015854Y009255D01*
X015898Y009311D02*
X015918Y009311D01*
X015912Y009409D02*
X015918Y009409D01*
X015912Y009508D02*
X015918Y009508D01*
X015912Y009606D02*
X015918Y009606D01*
X015912Y009705D02*
X015918Y009705D01*
X015912Y009803D02*
X015918Y009803D01*
X015912Y009902D02*
X015921Y009902D01*
X015912Y010000D02*
X016020Y010000D01*
X016118Y010099D02*
X015912Y010099D01*
X015912Y010197D02*
X016217Y010197D01*
X016315Y010296D02*
X015912Y010296D01*
X015912Y010394D02*
X016414Y010394D01*
X016512Y010493D02*
X015912Y010493D01*
X015912Y010591D02*
X016611Y010591D01*
X016630Y010690D02*
X015912Y010690D01*
X015912Y010788D02*
X016578Y010788D01*
X016578Y010887D02*
X015912Y010887D01*
X015912Y011084D02*
X016578Y011084D01*
X016578Y010985D02*
X014631Y010985D01*
X014631Y010887D02*
X014531Y010887D01*
X014531Y010900D02*
X014531Y009225D01*
X013380Y009225D01*
X013342Y009235D01*
X013308Y009255D01*
X013280Y009283D01*
X013260Y009317D01*
X013250Y009355D01*
X013250Y010900D01*
X014531Y010900D01*
X014531Y010985D02*
X013243Y010985D01*
X013243Y010887D02*
X013250Y010887D01*
X013243Y010788D02*
X013250Y010788D01*
X013243Y010690D02*
X013250Y010690D01*
X013243Y010591D02*
X013250Y010591D01*
X013243Y010493D02*
X013250Y010493D01*
X013243Y010394D02*
X013250Y010394D01*
X013243Y010296D02*
X013250Y010296D01*
X013243Y010197D02*
X013250Y010197D01*
X013243Y010099D02*
X013250Y010099D01*
X013243Y010000D02*
X013250Y010000D01*
X013243Y009902D02*
X013250Y009902D01*
X013243Y009803D02*
X013250Y009803D01*
X013243Y009705D02*
X013250Y009705D01*
X013243Y009606D02*
X013250Y009606D01*
X013243Y009508D02*
X013250Y009508D01*
X013243Y009409D02*
X013250Y009409D01*
X013243Y009311D02*
X013264Y009311D01*
X012768Y009311D02*
X012263Y009311D01*
X012263Y009409D02*
X012768Y009409D01*
X012768Y009508D02*
X012263Y009508D01*
X012263Y009606D02*
X012768Y009606D01*
X012768Y009705D02*
X012263Y009705D01*
X012263Y009803D02*
X012768Y009803D01*
X012768Y009902D02*
X012263Y009902D01*
X012254Y010000D02*
X012768Y010000D01*
X012768Y010099D02*
X012155Y010099D01*
X011968Y010197D02*
X012768Y010197D01*
X012768Y010296D02*
X011968Y010296D01*
X011968Y010394D02*
X012768Y010394D01*
X012768Y010493D02*
X011968Y010493D01*
X011968Y010591D02*
X012768Y010591D01*
X012768Y010690D02*
X011968Y010690D01*
X012142Y010788D02*
X012768Y010788D01*
X012768Y010887D02*
X012240Y010887D01*
X012263Y010985D02*
X012768Y010985D01*
X012768Y011084D02*
X012263Y011084D01*
X012263Y011182D02*
X012768Y011182D01*
X012768Y011281D02*
X012263Y011281D01*
X012263Y011379D02*
X012768Y011379D01*
X012768Y011478D02*
X012263Y011478D01*
X012263Y011576D02*
X012768Y011576D01*
X012768Y011675D02*
X012263Y011675D01*
X012263Y011773D02*
X012768Y011773D01*
X012768Y011872D02*
X012182Y011872D01*
X011968Y011970D02*
X012768Y011970D01*
X012768Y012069D02*
X011968Y012069D01*
X011968Y012167D02*
X012768Y012167D01*
X012768Y012266D02*
X011968Y012266D01*
X011968Y012364D02*
X012768Y012364D01*
X012768Y012463D02*
X011968Y012463D01*
X011968Y012561D02*
X012768Y012561D01*
X012768Y012660D02*
X011968Y012660D01*
X012212Y012758D02*
X012768Y012758D01*
X012826Y012857D02*
X012263Y012857D01*
X012263Y012955D02*
X012925Y012955D01*
X013023Y013054D02*
X012263Y013054D01*
X012371Y013152D02*
X013122Y013152D01*
X013192Y013251D02*
X012516Y013251D01*
X012574Y013349D02*
X013192Y013349D01*
X013192Y013448D02*
X012598Y013448D01*
X012597Y013546D02*
X013192Y013546D01*
X013192Y013645D02*
X012556Y013645D01*
X012472Y013743D02*
X013192Y013743D01*
X013192Y013842D02*
X011675Y013842D01*
X011577Y013940D02*
X013192Y013940D01*
X013192Y014039D02*
X011478Y014039D01*
X011380Y014137D02*
X013192Y014137D01*
X013192Y014236D02*
X011281Y014236D01*
X011183Y014334D02*
X012099Y014334D01*
X011964Y014433D02*
X011084Y014433D01*
X010986Y014531D02*
X011909Y014531D01*
X011888Y014630D02*
X010887Y014630D01*
X010803Y014735D02*
X010831Y014763D01*
X010850Y014797D01*
X010861Y014835D01*
X010861Y015100D01*
X010505Y015100D01*
X010505Y014705D01*
X010730Y014705D01*
X010769Y014715D01*
X010803Y014735D01*
X010791Y014728D02*
X011284Y014728D01*
X011243Y014827D02*
X010858Y014827D01*
X010861Y014925D02*
X011243Y014925D01*
X011243Y015024D02*
X010861Y015024D01*
X010861Y015221D02*
X011243Y015221D01*
X011243Y015319D02*
X010861Y015319D01*
X010861Y015418D02*
X011243Y015418D01*
X011243Y015516D02*
X010843Y015516D01*
X010582Y015713D02*
X010080Y015713D01*
X010029Y015663D02*
X010029Y015663D01*
X010087Y015615D02*
X011327Y015615D01*
X011243Y015122D02*
X010505Y015122D01*
X010505Y015024D02*
X010405Y015024D01*
X010405Y014925D02*
X010505Y014925D01*
X010505Y014827D02*
X010405Y014827D01*
X010405Y014728D02*
X010505Y014728D01*
X010505Y015221D02*
X010405Y015221D01*
X010405Y015319D02*
X010505Y015319D01*
X010505Y015418D02*
X010405Y015418D01*
X010405Y015516D02*
X010505Y015516D01*
X010483Y015812D02*
X010168Y015812D01*
X010168Y015910D02*
X010385Y015910D01*
X010286Y016009D02*
X010168Y016009D01*
X010168Y016107D02*
X010188Y016107D01*
X009693Y016107D02*
X009688Y016107D01*
X009688Y016206D02*
X009693Y016206D01*
X009688Y016304D02*
X009693Y016304D01*
X009680Y016009D02*
X009693Y016009D01*
X009632Y015937D02*
X009632Y015937D01*
X009605Y015910D02*
X009582Y015910D01*
X009506Y015812D02*
X005930Y015812D01*
X005930Y015910D02*
X008789Y015910D01*
X008861Y015615D02*
X005930Y015615D01*
X005930Y015713D02*
X009493Y015713D01*
X009327Y015615D02*
X009301Y015615D01*
X009243Y015024D02*
X009188Y015024D01*
X009243Y014925D02*
X008917Y014925D01*
X008974Y015024D02*
X008818Y015024D01*
X009015Y014827D02*
X009243Y014827D01*
X009284Y014728D02*
X009114Y014728D01*
X008836Y014334D02*
X008663Y014334D01*
X008663Y014236D02*
X008934Y014236D01*
X008737Y014433D02*
X008663Y014433D01*
X008663Y014137D02*
X010708Y014137D01*
X010806Y014039D02*
X008592Y014039D01*
X008368Y013940D02*
X010905Y013940D01*
X011003Y013842D02*
X008368Y013842D01*
X008368Y013743D02*
X010151Y013743D01*
X010098Y013645D02*
X008368Y013645D01*
X008368Y013546D02*
X010098Y013546D01*
X010098Y013448D02*
X008368Y013448D01*
X008368Y013349D02*
X010098Y013349D01*
X010098Y013251D02*
X008603Y013251D01*
X008663Y013152D02*
X010098Y013152D01*
X010098Y013054D02*
X008663Y013054D01*
X008663Y012955D02*
X010098Y012955D01*
X010098Y012857D02*
X008663Y012857D01*
X008663Y012758D02*
X010150Y012758D01*
X010393Y012660D02*
X008663Y012660D01*
X008663Y012561D02*
X010393Y012561D01*
X010393Y012463D02*
X008663Y012463D01*
X008663Y012364D02*
X010393Y012364D01*
X010393Y012266D02*
X008619Y012266D01*
X008293Y012167D02*
X010393Y012167D01*
X010393Y012069D02*
X008293Y012069D01*
X008293Y011970D02*
X010393Y011970D01*
X010179Y011872D02*
X008293Y011872D01*
X008293Y011773D02*
X010098Y011773D01*
X010098Y011675D02*
X008293Y011675D01*
X008478Y011576D02*
X010098Y011576D01*
X010098Y011478D02*
X008563Y011478D01*
X008563Y011379D02*
X010098Y011379D01*
X010098Y011281D02*
X008563Y011281D01*
X008563Y011182D02*
X010098Y011182D01*
X010098Y011084D02*
X008563Y011084D01*
X008563Y010985D02*
X010098Y010985D01*
X010121Y010887D02*
X008563Y010887D01*
X008563Y010788D02*
X010220Y010788D01*
X010393Y010690D02*
X008563Y010690D01*
X008545Y010591D02*
X010393Y010591D01*
X010393Y010493D02*
X008446Y010493D01*
X008268Y010394D02*
X010393Y010394D01*
X010393Y010296D02*
X008268Y010296D01*
X008268Y010197D02*
X010393Y010197D01*
X010206Y010099D02*
X008268Y010099D01*
X008268Y010000D02*
X010108Y010000D01*
X010098Y009902D02*
X008268Y009902D01*
X008268Y009803D02*
X010098Y009803D01*
X010098Y009705D02*
X008268Y009705D01*
X008268Y009606D02*
X010098Y009606D01*
X010098Y009508D02*
X008268Y009508D01*
X008268Y009409D02*
X010098Y009409D01*
X010098Y009311D02*
X008268Y009311D01*
X008268Y009212D02*
X010098Y009212D01*
X010098Y009114D02*
X008268Y009114D01*
X008268Y009015D02*
X010193Y009015D01*
X010393Y008917D02*
X008268Y008917D01*
X008268Y008818D02*
X010393Y008818D01*
X010393Y008720D02*
X008268Y008720D01*
X008268Y008621D02*
X010393Y008621D01*
X010218Y008523D02*
X009143Y008523D01*
X009230Y008424D02*
X010131Y008424D01*
X010131Y008326D02*
X009230Y008326D01*
X009230Y008227D02*
X010131Y008227D01*
X010131Y008129D02*
X009230Y008129D01*
X009230Y008030D02*
X010131Y008030D01*
X010131Y007932D02*
X009230Y007932D01*
X009230Y007833D02*
X010131Y007833D01*
X010131Y007735D02*
X009230Y007735D01*
X009230Y007636D02*
X010131Y007636D01*
X010131Y007538D02*
X009230Y007538D01*
X009230Y007439D02*
X010131Y007439D01*
X010131Y007341D02*
X009230Y007341D01*
X009230Y007242D02*
X010131Y007242D01*
X010131Y007144D02*
X009230Y007144D01*
X009230Y007045D02*
X010131Y007045D01*
X010131Y006947D02*
X009230Y006947D01*
X009230Y006848D02*
X010131Y006848D01*
X010131Y006750D02*
X009230Y006750D01*
X009230Y006651D02*
X010131Y006651D01*
X010131Y006553D02*
X009230Y006553D01*
X009230Y006454D02*
X010131Y006454D01*
X010131Y006356D02*
X009230Y006356D01*
X009230Y006257D02*
X010131Y006257D01*
X010131Y006159D02*
X009230Y006159D01*
X009230Y006060D02*
X010131Y006060D01*
X010131Y005962D02*
X009230Y005962D01*
X009230Y005863D02*
X010131Y005863D01*
X010131Y005765D02*
X009230Y005765D01*
X009230Y005666D02*
X010131Y005666D01*
X010131Y005568D02*
X009230Y005568D01*
X009230Y005469D02*
X010131Y005469D01*
X010131Y005371D02*
X009230Y005371D01*
X009230Y005272D02*
X010131Y005272D01*
X010131Y005174D02*
X009230Y005174D01*
X009230Y005075D02*
X010131Y005075D01*
X010191Y004977D02*
X009171Y004977D01*
X011034Y004287D02*
X011307Y004287D01*
X011405Y004386D02*
X000688Y004386D01*
X000688Y004484D02*
X011504Y004484D01*
X011602Y004583D02*
X000688Y004583D01*
X000688Y004681D02*
X011701Y004681D01*
X011880Y004189D02*
X011930Y004189D01*
X011921Y004090D02*
X011782Y004090D01*
X011683Y003992D02*
X011921Y003992D01*
X011921Y003893D02*
X011585Y003893D01*
X011486Y003795D02*
X011921Y003795D01*
X011921Y003696D02*
X011388Y003696D01*
X011289Y003598D02*
X011921Y003598D01*
X011921Y003499D02*
X011191Y003499D01*
X011098Y003401D02*
X011921Y003401D01*
X011921Y003204D02*
X011098Y003204D01*
X011098Y003302D02*
X012336Y003302D01*
X012336Y003204D02*
X012436Y003204D01*
X012436Y003302D02*
X013853Y003302D01*
X012436Y003401D02*
X012336Y003401D01*
X012336Y003499D02*
X012436Y003499D01*
X012436Y003598D02*
X012336Y003598D01*
X012336Y003696D02*
X012436Y003696D01*
X012436Y003795D02*
X012336Y003795D01*
X012336Y003893D02*
X012436Y003893D01*
X012436Y003992D02*
X012336Y003992D01*
X012336Y004090D02*
X012436Y004090D01*
X012050Y004287D02*
X011979Y004287D01*
X012074Y004780D02*
X000688Y004780D01*
X000688Y004878D02*
X012173Y004878D01*
X012830Y005568D02*
X012843Y005568D01*
X012830Y005666D02*
X012843Y005666D01*
X012830Y005765D02*
X012843Y005765D01*
X012830Y005863D02*
X012843Y005863D01*
X012830Y005962D02*
X012843Y005962D01*
X012830Y006060D02*
X012843Y006060D01*
X012830Y006159D02*
X012843Y006159D01*
X012830Y006257D02*
X012843Y006257D01*
X012830Y006356D02*
X012843Y006356D01*
X012830Y006454D02*
X012843Y006454D01*
X012830Y006553D02*
X012843Y006553D01*
X012830Y006651D02*
X012843Y006651D01*
X012830Y006750D02*
X012843Y006750D01*
X012830Y006848D02*
X012843Y006848D01*
X012830Y006947D02*
X012843Y006947D01*
X012830Y007045D02*
X012843Y007045D01*
X012830Y007144D02*
X012843Y007144D01*
X012830Y007242D02*
X012843Y007242D01*
X012830Y007341D02*
X012843Y007341D01*
X012830Y007439D02*
X012843Y007439D01*
X012830Y007538D02*
X012843Y007538D01*
X012830Y007636D02*
X012843Y007636D01*
X012830Y007735D02*
X012843Y007735D01*
X012830Y007833D02*
X012843Y007833D01*
X012830Y007932D02*
X012843Y007932D01*
X012830Y008030D02*
X012843Y008030D01*
X012830Y008129D02*
X012843Y008129D01*
X012830Y008227D02*
X012843Y008227D01*
X012830Y008326D02*
X012843Y008326D01*
X012830Y008424D02*
X012843Y008424D01*
X012768Y008523D02*
X012743Y008523D01*
X012768Y008621D02*
X010868Y008621D01*
X010868Y008720D02*
X012768Y008720D01*
X012768Y008818D02*
X010868Y008818D01*
X010868Y008917D02*
X012768Y008917D01*
X012768Y009015D02*
X012169Y009015D01*
X012263Y009114D02*
X012768Y009114D01*
X012768Y009212D02*
X012263Y009212D01*
X011493Y010197D02*
X010868Y010197D01*
X010868Y010296D02*
X011493Y010296D01*
X011493Y010394D02*
X010868Y010394D01*
X010868Y010493D02*
X011493Y010493D01*
X011493Y010591D02*
X010868Y010591D01*
X010868Y010690D02*
X011493Y010690D01*
X011218Y010985D02*
X011143Y010985D01*
X011143Y010909D02*
X011022Y010788D01*
X011143Y011084D02*
X011218Y011084D01*
X011218Y011182D02*
X011143Y011182D01*
X011143Y011281D02*
X011218Y011281D01*
X011218Y011379D02*
X011143Y011379D01*
X011143Y011478D02*
X011218Y011478D01*
X011218Y011576D02*
X011143Y011576D01*
X011143Y011675D02*
X011218Y011675D01*
X011218Y011773D02*
X011143Y011773D01*
X011063Y011872D02*
X011299Y011872D01*
X011493Y011970D02*
X010868Y011970D01*
X010868Y012069D02*
X011493Y012069D01*
X011493Y012167D02*
X010868Y012167D01*
X010868Y012266D02*
X011493Y012266D01*
X011493Y012364D02*
X010868Y012364D01*
X010868Y012463D02*
X011493Y012463D01*
X011493Y012561D02*
X010868Y012561D01*
X010868Y012660D02*
X011493Y012660D01*
X011269Y012758D02*
X011092Y012758D01*
X011143Y012857D02*
X011218Y012857D01*
X011218Y012955D02*
X011143Y012955D01*
X011143Y013054D02*
X011218Y013054D01*
X011218Y013152D02*
X011143Y013152D01*
X011143Y013251D02*
X011218Y013251D01*
X011218Y013349D02*
X011143Y013349D01*
X011143Y013448D02*
X011218Y013448D01*
X011218Y013546D02*
X011143Y013546D01*
X011143Y013645D02*
X011200Y013645D01*
X011102Y013743D02*
X011091Y013743D01*
X012363Y014334D02*
X013192Y014334D01*
X013192Y014433D02*
X012498Y014433D01*
X012552Y014531D02*
X013192Y014531D01*
X013192Y014630D02*
X012573Y014630D01*
X012877Y014728D02*
X013192Y014728D01*
X013168Y014827D02*
X012918Y014827D01*
X012918Y014925D02*
X013070Y014925D01*
X012971Y015024D02*
X012918Y015024D01*
X013407Y015910D02*
X015602Y015910D01*
X015577Y016600D02*
X015578Y016600D01*
X015653Y016698D02*
X014611Y016698D01*
X014569Y016994D02*
X014511Y016994D01*
X014569Y017092D02*
X012373Y017092D01*
X012427Y016994D02*
X013824Y016994D01*
X013725Y016895D02*
X012895Y016895D01*
X012914Y016403D02*
X013728Y016403D01*
X013826Y016304D02*
X013013Y016304D01*
X013111Y016206D02*
X014511Y016206D01*
X014508Y016304D02*
X014511Y016304D01*
X014511Y016107D02*
X013210Y016107D01*
X013308Y016009D02*
X014535Y016009D01*
X014114Y015319D02*
X013998Y015319D01*
X013899Y015418D02*
X018643Y015418D01*
X018643Y015516D02*
X013801Y015516D01*
X013702Y015615D02*
X018643Y015615D01*
X018643Y015713D02*
X013604Y015713D01*
X013505Y015812D02*
X018643Y015812D01*
X018643Y015910D02*
X016559Y015910D01*
X016583Y016009D02*
X018643Y016009D01*
X018643Y016107D02*
X016583Y016107D01*
X016583Y016206D02*
X018643Y016206D01*
X018643Y016304D02*
X016583Y016304D01*
X016583Y016403D02*
X018643Y016403D01*
X018643Y016501D02*
X016583Y016501D01*
X016583Y016600D02*
X018643Y016600D01*
X018643Y016698D02*
X016509Y016698D01*
X016526Y016797D02*
X018643Y016797D01*
X018643Y016895D02*
X016526Y016895D01*
X016526Y017092D02*
X018643Y017092D01*
X018643Y016994D02*
X016131Y016994D01*
X016131Y017092D02*
X016031Y017092D01*
X016031Y016994D02*
X015341Y016994D01*
X015341Y017053D02*
X015341Y017201D01*
X015331Y017239D01*
X015311Y017274D01*
X015283Y017302D01*
X015249Y017321D01*
X015211Y017331D01*
X014983Y017331D01*
X014983Y017053D01*
X015341Y017053D01*
X015341Y017092D02*
X015635Y017092D01*
X015635Y017191D02*
X015341Y017191D01*
X015296Y017289D02*
X015635Y017289D01*
X015681Y017388D02*
X010079Y017388D01*
X009981Y017486D02*
X018643Y017486D01*
X018643Y017388D02*
X016480Y017388D01*
X016526Y017289D02*
X018643Y017289D01*
X018643Y017191D02*
X016526Y017191D01*
X016131Y017191D02*
X016031Y017191D01*
X016031Y017289D02*
X016131Y017289D01*
X016131Y017388D02*
X016031Y017388D01*
X015635Y016895D02*
X015341Y016895D01*
X015324Y016797D02*
X015635Y016797D01*
X014983Y016797D02*
X014926Y016797D01*
X014926Y016895D02*
X014983Y016895D01*
X014983Y016994D02*
X014926Y016994D01*
X014926Y017092D02*
X014983Y017092D01*
X014983Y017191D02*
X014926Y017191D01*
X014926Y017289D02*
X014983Y017289D01*
X014614Y017289D02*
X010651Y017289D01*
X010260Y017289D02*
X010178Y017289D01*
X009882Y017585D02*
X018643Y017585D01*
X018643Y017683D02*
X009784Y017683D01*
X009748Y017782D02*
X018643Y017782D01*
X018643Y017880D02*
X009712Y017880D01*
X009637Y017979D02*
X018643Y017979D01*
X018643Y018077D02*
X007115Y018077D01*
X007213Y017979D02*
X009175Y017979D01*
X009099Y017880D02*
X007312Y017880D01*
X007410Y017782D02*
X009063Y017782D01*
X009063Y017683D02*
X007509Y017683D01*
X007607Y017585D02*
X009093Y017585D01*
X009160Y017486D02*
X007706Y017486D01*
X007804Y017388D02*
X009325Y017388D01*
X009506Y017289D02*
X007903Y017289D01*
X008001Y017191D02*
X008777Y017191D01*
X008683Y017092D02*
X008100Y017092D01*
X008198Y016994D02*
X008683Y016994D01*
X008683Y016895D02*
X008297Y016895D01*
X008395Y016797D02*
X008683Y016797D01*
X008683Y016698D02*
X008494Y016698D01*
X008592Y016600D02*
X008690Y016600D01*
X008691Y016501D02*
X008740Y016501D01*
X008413Y016107D02*
X005930Y016107D01*
X005930Y016009D02*
X008511Y016009D01*
X008314Y016206D02*
X005930Y016206D01*
X005930Y016304D02*
X008216Y016304D01*
X008117Y016403D02*
X005930Y016403D01*
X005865Y016501D02*
X008019Y016501D01*
X007920Y016600D02*
X002993Y016600D01*
X002993Y016698D02*
X007822Y016698D01*
X007723Y016797D02*
X002993Y016797D01*
X002993Y016895D02*
X007625Y016895D01*
X007526Y016994D02*
X002993Y016994D01*
X002993Y017092D02*
X007428Y017092D01*
X007329Y017191D02*
X002993Y017191D01*
X002993Y017289D02*
X007231Y017289D01*
X007132Y017388D02*
X002993Y017388D01*
X002993Y017486D02*
X007034Y017486D01*
X006935Y017585D02*
X002993Y017585D01*
X002993Y017683D02*
X006837Y017683D01*
X006738Y017782D02*
X002993Y017782D01*
X002993Y017880D02*
X006640Y017880D01*
X006541Y017979D02*
X002993Y017979D01*
X002993Y018077D02*
X006443Y018077D01*
X006344Y018176D02*
X002993Y018176D01*
X002993Y018274D02*
X006246Y018274D01*
X006147Y018373D02*
X002993Y018373D01*
X002993Y018471D02*
X006049Y018471D01*
X005950Y018570D02*
X002993Y018570D01*
X002993Y018668D02*
X005918Y018668D01*
X005918Y018767D02*
X002993Y018767D01*
X002993Y018865D02*
X005918Y018865D01*
X005918Y018964D02*
X002993Y018964D01*
X002993Y019062D02*
X004749Y019062D01*
X004597Y019125D02*
X004905Y018998D01*
X005238Y018998D01*
X005546Y019125D01*
X005781Y019361D01*
X005909Y019668D01*
X005909Y020002D01*
X005781Y020309D01*
X005546Y020545D01*
X005238Y020672D01*
X004905Y020672D01*
X004597Y020545D01*
X004361Y020309D01*
X004234Y020002D01*
X004234Y019668D01*
X004361Y019361D01*
X004597Y019125D01*
X004561Y019161D02*
X002993Y019161D01*
X002993Y019259D02*
X004463Y019259D01*
X004364Y019358D02*
X002993Y019358D01*
X002993Y019456D02*
X004322Y019456D01*
X004281Y019555D02*
X002993Y019555D01*
X002993Y019653D02*
X004240Y019653D01*
X004234Y019752D02*
X002993Y019752D01*
X002993Y019850D02*
X004234Y019850D01*
X004234Y019949D02*
X002993Y019949D01*
X002993Y020047D02*
X004253Y020047D01*
X004293Y020146D02*
X002993Y020146D01*
X002993Y020244D02*
X004334Y020244D01*
X004395Y020343D02*
X002993Y020343D01*
X002993Y020441D02*
X004493Y020441D01*
X004592Y020540D02*
X002993Y020540D01*
X002993Y020638D02*
X004822Y020638D01*
X004497Y020947D02*
X004618Y021069D01*
X004618Y021831D01*
X004497Y021953D01*
X004368Y021953D01*
X004368Y023548D01*
X004249Y023667D01*
X004283Y023750D01*
X004283Y023950D01*
X004207Y024135D01*
X004065Y024276D01*
X003881Y024353D01*
X003681Y024353D01*
X003496Y024276D01*
X003354Y024135D01*
X003278Y023950D01*
X003278Y023750D01*
X003354Y023565D01*
X003496Y023424D01*
X003681Y023347D01*
X003881Y023347D01*
X003893Y023352D01*
X003893Y023352D01*
X003893Y021953D01*
X003813Y021953D01*
X003736Y021876D01*
X003720Y021885D01*
X003682Y021895D01*
X003457Y021895D01*
X003457Y021500D01*
X003357Y021500D01*
X003357Y021895D01*
X003131Y021895D01*
X003093Y021885D01*
X003059Y021865D01*
X003031Y021837D01*
X003011Y021803D01*
X003001Y021765D01*
X003001Y021500D01*
X003357Y021500D01*
X003357Y021400D01*
X003457Y021400D01*
X003457Y021005D01*
X003682Y021005D01*
X003720Y021015D01*
X003736Y021024D01*
X003813Y020947D01*
X004497Y020947D01*
X004581Y021032D02*
X005918Y021032D01*
X005918Y020934D02*
X002993Y020934D01*
X002993Y021032D02*
X003063Y021032D01*
X003059Y021035D02*
X003093Y021015D01*
X003131Y021005D01*
X003357Y021005D01*
X003357Y021400D01*
X003001Y021400D01*
X003001Y021135D01*
X003011Y021097D01*
X003031Y021063D01*
X003059Y021035D01*
X003002Y021131D02*
X002993Y021131D01*
X002993Y021229D02*
X003001Y021229D01*
X002993Y021328D02*
X003001Y021328D01*
X002993Y021426D02*
X003357Y021426D01*
X003357Y021328D02*
X003457Y021328D01*
X003457Y021229D02*
X003357Y021229D01*
X003357Y021131D02*
X003457Y021131D01*
X003457Y021032D02*
X003357Y021032D01*
X002993Y020835D02*
X005918Y020835D01*
X005918Y020737D02*
X002993Y020737D01*
X002518Y020737D02*
X000688Y020737D01*
X000688Y020835D02*
X002518Y020835D01*
X002518Y020934D02*
X000688Y020934D01*
X000688Y021032D02*
X002518Y021032D01*
X002518Y021131D02*
X000688Y021131D01*
X000688Y021229D02*
X002518Y021229D01*
X002518Y021328D02*
X000688Y021328D01*
X000688Y021426D02*
X002518Y021426D01*
X002518Y021525D02*
X000688Y021525D01*
X000688Y021623D02*
X002518Y021623D01*
X002518Y021722D02*
X000688Y021722D01*
X000688Y021820D02*
X002518Y021820D01*
X002518Y021919D02*
X000688Y021919D01*
X000688Y022017D02*
X002518Y022017D01*
X002518Y022116D02*
X000688Y022116D01*
X000688Y022214D02*
X002518Y022214D01*
X002518Y022313D02*
X000688Y022313D01*
X000688Y022411D02*
X002518Y022411D01*
X002518Y022510D02*
X000688Y022510D01*
X000688Y022608D02*
X002518Y022608D01*
X002518Y022707D02*
X000688Y022707D01*
X000688Y022805D02*
X002518Y022805D01*
X002518Y022904D02*
X000688Y022904D01*
X000688Y023002D02*
X002518Y023002D01*
X002518Y023101D02*
X000688Y023101D01*
X000688Y023199D02*
X002518Y023199D01*
X002518Y023298D02*
X000688Y023298D01*
X000688Y023396D02*
X002518Y023396D01*
X002518Y023495D02*
X000688Y023495D01*
X000688Y023593D02*
X002518Y023593D01*
X002518Y023692D02*
X000688Y023692D01*
X000688Y023790D02*
X002518Y023790D01*
X002518Y023889D02*
X000688Y023889D01*
X000688Y023987D02*
X002518Y023987D01*
X002518Y024086D02*
X000688Y024086D01*
X000688Y024184D02*
X002518Y024184D01*
X002518Y024283D02*
X000688Y024283D01*
X000688Y024381D02*
X002518Y024381D01*
X002518Y024480D02*
X000688Y024480D01*
X000688Y024578D02*
X002518Y024578D01*
X002518Y024677D02*
X000688Y024677D01*
X000688Y024775D02*
X002518Y024775D01*
X002518Y024874D02*
X000688Y024874D01*
X000688Y024972D02*
X002592Y024972D01*
X002657Y025037D02*
X002518Y024898D01*
X002518Y012952D01*
X002857Y012612D01*
X002232Y011987D01*
X001999Y011987D01*
X001878Y011866D01*
X001878Y011182D01*
X000688Y011182D01*
X000688Y011084D02*
X001878Y011084D01*
X001878Y011118D02*
X001878Y010434D01*
X001999Y010313D01*
X002762Y010313D01*
X002883Y010434D01*
X002883Y010563D01*
X003153Y010563D01*
X003153Y010477D01*
X003274Y010355D01*
X004076Y010355D01*
X004198Y010477D01*
X004198Y011531D01*
X004199Y011533D01*
X004274Y011533D01*
X004400Y011585D01*
X004496Y011681D01*
X004548Y011807D01*
X004548Y011943D01*
X004546Y011949D01*
X004881Y011614D01*
X004964Y011531D01*
X004964Y010477D01*
X005085Y010355D01*
X005887Y010355D01*
X006009Y010477D01*
X006009Y012119D01*
X006046Y012156D01*
X006098Y012282D01*
X006098Y012418D01*
X006046Y012544D01*
X005950Y012640D01*
X005824Y012692D01*
X005688Y012692D01*
X005562Y012640D01*
X005465Y012544D01*
X005413Y012418D01*
X005413Y012345D01*
X005085Y012345D01*
X004964Y012223D01*
X004964Y012203D01*
X004329Y012837D01*
X003304Y012837D01*
X003279Y012862D01*
X002993Y013148D01*
X002993Y024702D01*
X003639Y025347D01*
X004162Y025347D01*
X004283Y025469D01*
X004283Y026231D01*
X004162Y026353D01*
X003668Y026353D01*
X003668Y027747D01*
X003749Y027747D01*
X003825Y027824D01*
X003841Y027815D01*
X003879Y027805D01*
X004105Y027805D01*
X004105Y028200D01*
X004205Y028200D01*
X004205Y028300D01*
X004561Y028300D01*
X004561Y028565D01*
X004550Y028603D01*
X004531Y028637D01*
X004503Y028665D01*
X004469Y028685D01*
X004430Y028695D01*
X004205Y028695D01*
X004205Y028300D01*
X004105Y028300D01*
X004105Y028695D01*
X003879Y028695D01*
X003841Y028685D01*
X003825Y028676D01*
X003749Y028753D01*
X003065Y028753D01*
X002943Y028631D01*
X002943Y027869D01*
X003065Y027747D01*
X003193Y027747D01*
X003193Y026127D01*
X003278Y026042D01*
X003278Y025658D01*
X002657Y025037D01*
X002690Y025071D02*
X000688Y025071D01*
X000688Y025169D02*
X002789Y025169D01*
X002887Y025268D02*
X000688Y025268D01*
X000688Y025366D02*
X002986Y025366D01*
X003084Y025465D02*
X000688Y025465D01*
X000688Y025563D02*
X003183Y025563D01*
X003278Y025662D02*
X000688Y025662D01*
X000688Y025760D02*
X003278Y025760D01*
X003278Y025859D02*
X000688Y025859D01*
X000688Y025957D02*
X003278Y025957D01*
X003264Y026056D02*
X000688Y026056D01*
X000688Y026154D02*
X003193Y026154D01*
X003193Y026253D02*
X000688Y026253D01*
X000688Y026351D02*
X003193Y026351D01*
X003193Y026450D02*
X000688Y026450D01*
X000688Y026548D02*
X003193Y026548D01*
X003193Y026647D02*
X000688Y026647D01*
X000688Y026745D02*
X003193Y026745D01*
X003193Y026844D02*
X000688Y026844D01*
X000688Y026942D02*
X003193Y026942D01*
X003193Y027041D02*
X000688Y027041D01*
X000688Y027139D02*
X003193Y027139D01*
X003193Y027238D02*
X000688Y027238D01*
X000688Y027336D02*
X003193Y027336D01*
X003193Y027435D02*
X000688Y027435D01*
X000688Y027533D02*
X001319Y027533D01*
X001405Y027498D02*
X001097Y027625D01*
X000861Y027861D01*
X000734Y028168D01*
X000734Y028502D01*
X000861Y028809D01*
X001097Y029045D01*
X001405Y029172D01*
X001738Y029172D01*
X002046Y029045D01*
X002281Y028809D01*
X002409Y028502D01*
X002409Y028168D01*
X002281Y027861D01*
X002046Y027625D01*
X001738Y027498D01*
X001405Y027498D01*
X001090Y027632D02*
X000688Y027632D01*
X000688Y027730D02*
X000992Y027730D01*
X000893Y027829D02*
X000688Y027829D01*
X000688Y027927D02*
X000834Y027927D01*
X000793Y028026D02*
X000688Y028026D01*
X000688Y028124D02*
X000752Y028124D01*
X000734Y028223D02*
X000688Y028223D01*
X000688Y028321D02*
X000734Y028321D01*
X000734Y028420D02*
X000688Y028420D01*
X000688Y028518D02*
X000741Y028518D01*
X000781Y028617D02*
X000688Y028617D01*
X000688Y028715D02*
X000822Y028715D01*
X000866Y028814D02*
X000688Y028814D01*
X000688Y028912D02*
X000964Y028912D01*
X001063Y029011D02*
X000688Y029011D01*
X000688Y029109D02*
X001252Y029109D01*
X000688Y029208D02*
X006827Y029208D01*
X006729Y029109D02*
X001891Y029109D01*
X002080Y029011D02*
X006630Y029011D01*
X006578Y028912D02*
X002178Y028912D01*
X002277Y028814D02*
X006578Y028814D01*
X006578Y028715D02*
X003786Y028715D01*
X004105Y028617D02*
X004205Y028617D01*
X004205Y028518D02*
X004105Y028518D01*
X004105Y028420D02*
X004205Y028420D01*
X004205Y028321D02*
X004105Y028321D01*
X004205Y028223D02*
X006842Y028223D01*
X006799Y028321D02*
X004561Y028321D01*
X004561Y028420D02*
X006700Y028420D01*
X006602Y028518D02*
X004561Y028518D01*
X004543Y028617D02*
X006578Y028617D01*
X006744Y028124D02*
X004561Y028124D01*
X004561Y028200D02*
X004205Y028200D01*
X004205Y027805D01*
X004430Y027805D01*
X004469Y027815D01*
X004503Y027835D01*
X004531Y027863D01*
X004550Y027897D01*
X004561Y027935D01*
X004561Y028200D01*
X004561Y028026D02*
X006645Y028026D01*
X006578Y027927D02*
X004559Y027927D01*
X004492Y027829D02*
X006578Y027829D01*
X006578Y027730D02*
X003668Y027730D01*
X003668Y027632D02*
X006578Y027632D01*
X006528Y027533D02*
X003668Y027533D01*
X003668Y027435D02*
X006429Y027435D01*
X006331Y027336D02*
X003668Y027336D01*
X003668Y027238D02*
X006232Y027238D01*
X006134Y027139D02*
X003668Y027139D01*
X003668Y027041D02*
X006035Y027041D01*
X005937Y026942D02*
X003668Y026942D01*
X003668Y026844D02*
X005838Y026844D01*
X005740Y026745D02*
X003668Y026745D01*
X003668Y026647D02*
X005641Y026647D01*
X005543Y026548D02*
X003668Y026548D01*
X003668Y026450D02*
X005493Y026450D01*
X005493Y026351D02*
X004164Y026351D01*
X004262Y026253D02*
X005493Y026253D01*
X005493Y026154D02*
X004283Y026154D01*
X004283Y026056D02*
X005493Y026056D01*
X005493Y025957D02*
X004283Y025957D01*
X004283Y025859D02*
X005493Y025859D01*
X005493Y025760D02*
X004283Y025760D01*
X004283Y025662D02*
X005493Y025662D01*
X005493Y025563D02*
X004283Y025563D01*
X004279Y025465D02*
X005493Y025465D01*
X005493Y025366D02*
X004181Y025366D01*
X004071Y025190D02*
X004014Y025231D01*
X003952Y025263D01*
X003885Y025284D01*
X003829Y025293D01*
X003829Y024898D01*
X004224Y024898D01*
X004215Y024954D01*
X004193Y025021D01*
X004162Y025083D01*
X004120Y025140D01*
X004071Y025190D01*
X004091Y025169D02*
X005493Y025169D01*
X005493Y025071D02*
X004168Y025071D01*
X004209Y024972D02*
X005493Y024972D01*
X005493Y024874D02*
X003829Y024874D01*
X003829Y024898D02*
X003829Y024802D01*
X004224Y024802D01*
X004215Y024746D01*
X004193Y024679D01*
X004162Y024617D01*
X004120Y024560D01*
X004071Y024510D01*
X004014Y024469D01*
X003952Y024437D01*
X003885Y024416D01*
X003829Y024407D01*
X003829Y024802D01*
X003732Y024802D01*
X003338Y024802D01*
X003346Y024746D01*
X003368Y024679D01*
X003400Y024617D01*
X003441Y024560D01*
X003491Y024510D01*
X003547Y024469D01*
X003610Y024437D01*
X003676Y024416D01*
X003732Y024407D01*
X003732Y024802D01*
X003732Y024898D01*
X003338Y024898D01*
X003346Y024954D01*
X003368Y025021D01*
X003400Y025083D01*
X003441Y025140D01*
X003491Y025190D01*
X003547Y025231D01*
X003610Y025263D01*
X003676Y025284D01*
X003732Y025293D01*
X003732Y024898D01*
X003829Y024898D01*
X003829Y024972D02*
X003732Y024972D01*
X003732Y024874D02*
X003165Y024874D01*
X003264Y024972D02*
X003352Y024972D01*
X003362Y025071D02*
X003393Y025071D01*
X003461Y025169D02*
X003470Y025169D01*
X003559Y025268D02*
X003625Y025268D01*
X003732Y025268D02*
X003829Y025268D01*
X003829Y025169D02*
X003732Y025169D01*
X003732Y025071D02*
X003829Y025071D01*
X003937Y025268D02*
X005493Y025268D01*
X005493Y024775D02*
X004220Y024775D01*
X004192Y024677D02*
X005493Y024677D01*
X005493Y024578D02*
X004134Y024578D01*
X004028Y024480D02*
X005493Y024480D01*
X005493Y024381D02*
X002993Y024381D01*
X002993Y024283D02*
X003511Y024283D01*
X003404Y024184D02*
X002993Y024184D01*
X002993Y024086D02*
X003334Y024086D01*
X003293Y023987D02*
X002993Y023987D01*
X002993Y023889D02*
X003278Y023889D01*
X003278Y023790D02*
X002993Y023790D01*
X002993Y023692D02*
X003302Y023692D01*
X003343Y023593D02*
X002993Y023593D01*
X002993Y023495D02*
X003425Y023495D01*
X003563Y023396D02*
X002993Y023396D01*
X002993Y023298D02*
X003893Y023298D01*
X003893Y023199D02*
X002993Y023199D01*
X002993Y023101D02*
X003893Y023101D01*
X003893Y023002D02*
X002993Y023002D01*
X002993Y022904D02*
X003893Y022904D01*
X003893Y022805D02*
X002993Y022805D01*
X002993Y022707D02*
X003893Y022707D01*
X003893Y022608D02*
X002993Y022608D01*
X002993Y022510D02*
X003893Y022510D01*
X003893Y022411D02*
X002993Y022411D01*
X002993Y022313D02*
X003893Y022313D01*
X003893Y022214D02*
X002993Y022214D01*
X002993Y022116D02*
X003893Y022116D01*
X003893Y022017D02*
X002993Y022017D01*
X002993Y021919D02*
X003779Y021919D01*
X003457Y021820D02*
X003357Y021820D01*
X003357Y021722D02*
X003457Y021722D01*
X003457Y021623D02*
X003357Y021623D01*
X003357Y021525D02*
X003457Y021525D01*
X003001Y021525D02*
X002993Y021525D01*
X002993Y021623D02*
X003001Y021623D01*
X002993Y021722D02*
X003001Y021722D01*
X002993Y021820D02*
X003021Y021820D01*
X002518Y020638D02*
X000688Y020638D01*
X000688Y020540D02*
X002518Y020540D01*
X002518Y020441D02*
X000688Y020441D01*
X000688Y020343D02*
X002518Y020343D01*
X002518Y020244D02*
X000688Y020244D01*
X000688Y020146D02*
X002518Y020146D01*
X002518Y020047D02*
X000688Y020047D01*
X000688Y019949D02*
X002518Y019949D01*
X002518Y019850D02*
X000688Y019850D01*
X000688Y019752D02*
X002518Y019752D01*
X002518Y019653D02*
X000688Y019653D01*
X000688Y019555D02*
X002518Y019555D01*
X002518Y019456D02*
X000688Y019456D01*
X000688Y019358D02*
X002518Y019358D01*
X002518Y019259D02*
X000688Y019259D01*
X000688Y019161D02*
X002518Y019161D01*
X002518Y019062D02*
X000688Y019062D01*
X000688Y018964D02*
X002518Y018964D01*
X002518Y018865D02*
X000688Y018865D01*
X000688Y018767D02*
X002518Y018767D01*
X002518Y018668D02*
X000688Y018668D01*
X000688Y018570D02*
X002518Y018570D01*
X002518Y018471D02*
X000688Y018471D01*
X000688Y018373D02*
X002518Y018373D01*
X002518Y018274D02*
X000688Y018274D01*
X000688Y018176D02*
X002518Y018176D01*
X002518Y018077D02*
X000688Y018077D01*
X000688Y017979D02*
X002518Y017979D01*
X002518Y017880D02*
X000688Y017880D01*
X000688Y017782D02*
X002518Y017782D01*
X002518Y017683D02*
X000688Y017683D01*
X000688Y017585D02*
X002518Y017585D01*
X002518Y017486D02*
X000688Y017486D01*
X000688Y017388D02*
X002518Y017388D01*
X002518Y017289D02*
X000688Y017289D01*
X000688Y017191D02*
X002518Y017191D01*
X002518Y017092D02*
X000688Y017092D01*
X000688Y016994D02*
X002518Y016994D01*
X002518Y016895D02*
X000688Y016895D01*
X000688Y016797D02*
X002518Y016797D01*
X002518Y016698D02*
X000688Y016698D01*
X000688Y016600D02*
X002518Y016600D01*
X002518Y016501D02*
X000688Y016501D01*
X000688Y016403D02*
X002518Y016403D01*
X002518Y016304D02*
X000688Y016304D01*
X000688Y016206D02*
X002518Y016206D01*
X002518Y016107D02*
X000688Y016107D01*
X000688Y016009D02*
X002518Y016009D01*
X002518Y015910D02*
X000688Y015910D01*
X000688Y015812D02*
X002518Y015812D01*
X002518Y015713D02*
X000688Y015713D01*
X000688Y015615D02*
X002518Y015615D01*
X002518Y015516D02*
X000688Y015516D01*
X000688Y015418D02*
X002518Y015418D01*
X002518Y015319D02*
X000688Y015319D01*
X000688Y015221D02*
X002518Y015221D01*
X002518Y015122D02*
X000688Y015122D01*
X000688Y015024D02*
X002518Y015024D01*
X002518Y014925D02*
X000688Y014925D01*
X000688Y014827D02*
X002518Y014827D01*
X002518Y014728D02*
X000688Y014728D01*
X000688Y014630D02*
X002518Y014630D01*
X002518Y014531D02*
X000688Y014531D01*
X000688Y014433D02*
X002518Y014433D01*
X002518Y014334D02*
X000688Y014334D01*
X000688Y014236D02*
X002518Y014236D01*
X002518Y014137D02*
X000688Y014137D01*
X000688Y014039D02*
X002518Y014039D01*
X002518Y013940D02*
X000688Y013940D01*
X000688Y013842D02*
X002518Y013842D01*
X002518Y013743D02*
X000688Y013743D01*
X000688Y013645D02*
X002518Y013645D01*
X002518Y013546D02*
X000688Y013546D01*
X000688Y013448D02*
X002518Y013448D01*
X002518Y013349D02*
X000688Y013349D01*
X000688Y013251D02*
X002518Y013251D01*
X002518Y013152D02*
X000688Y013152D01*
X000688Y013054D02*
X002518Y013054D01*
X002518Y012955D02*
X000688Y012955D01*
X000688Y012857D02*
X002613Y012857D01*
X002712Y012758D02*
X000688Y012758D01*
X000688Y012660D02*
X002810Y012660D01*
X002806Y012561D02*
X000688Y012561D01*
X000688Y012463D02*
X002707Y012463D01*
X002609Y012364D02*
X000688Y012364D01*
X000688Y012266D02*
X002510Y012266D01*
X002412Y012167D02*
X000688Y012167D01*
X000688Y012069D02*
X002313Y012069D01*
X001982Y011970D02*
X000688Y011970D01*
X000688Y011872D02*
X001884Y011872D01*
X001878Y011773D02*
X000688Y011773D01*
X000688Y011675D02*
X001878Y011675D01*
X001878Y011576D02*
X000688Y011576D01*
X000688Y011478D02*
X001878Y011478D01*
X001878Y011379D02*
X000688Y011379D01*
X000688Y011281D02*
X001878Y011281D01*
X001878Y011182D02*
X001910Y011150D01*
X001878Y011118D01*
X001878Y010985D02*
X000688Y010985D01*
X000688Y010887D02*
X001878Y010887D01*
X001878Y010788D02*
X000688Y010788D01*
X000688Y010690D02*
X001878Y010690D01*
X001878Y010591D02*
X000688Y010591D01*
X000688Y010493D02*
X001878Y010493D01*
X001918Y010394D02*
X000688Y010394D01*
X000688Y010296D02*
X006668Y010296D01*
X006668Y010394D02*
X005926Y010394D01*
X006009Y010493D02*
X006515Y010493D01*
X006417Y010591D02*
X006009Y010591D01*
X006009Y010690D02*
X006398Y010690D01*
X006398Y010788D02*
X006009Y010788D01*
X006009Y010887D02*
X006398Y010887D01*
X006398Y010985D02*
X006009Y010985D01*
X006009Y011084D02*
X006398Y011084D01*
X006398Y011182D02*
X006009Y011182D01*
X006009Y011281D02*
X006398Y011281D01*
X006398Y011379D02*
X006009Y011379D01*
X006009Y011478D02*
X006398Y011478D01*
X006484Y011576D02*
X006009Y011576D01*
X006009Y011675D02*
X006693Y011675D01*
X006693Y011773D02*
X006009Y011773D01*
X006009Y011872D02*
X006693Y011872D01*
X006693Y011970D02*
X006009Y011970D01*
X006009Y012069D02*
X006693Y012069D01*
X006693Y012167D02*
X006051Y012167D01*
X006091Y012266D02*
X006542Y012266D01*
X006498Y012364D02*
X006098Y012364D01*
X006080Y012463D02*
X006498Y012463D01*
X006498Y012561D02*
X006029Y012561D01*
X005903Y012660D02*
X006498Y012660D01*
X006498Y012758D02*
X004409Y012758D01*
X004507Y012660D02*
X005608Y012660D01*
X005482Y012561D02*
X004606Y012561D01*
X004704Y012463D02*
X005432Y012463D01*
X005413Y012364D02*
X004803Y012364D01*
X004901Y012266D02*
X005006Y012266D01*
X004623Y011872D02*
X004548Y011872D01*
X004534Y011773D02*
X004722Y011773D01*
X004820Y011675D02*
X004490Y011675D01*
X004379Y011576D02*
X004919Y011576D01*
X004881Y011614D02*
X004881Y011614D01*
X004964Y011478D02*
X004198Y011478D01*
X004198Y011379D02*
X004964Y011379D01*
X004964Y011281D02*
X004198Y011281D01*
X004198Y011182D02*
X004964Y011182D01*
X004964Y011084D02*
X004198Y011084D01*
X004198Y010985D02*
X004964Y010985D01*
X004964Y010887D02*
X004198Y010887D01*
X004198Y010788D02*
X004964Y010788D01*
X004964Y010690D02*
X004198Y010690D01*
X004198Y010591D02*
X004964Y010591D01*
X004964Y010493D02*
X004198Y010493D01*
X004115Y010394D02*
X005046Y010394D01*
X006010Y009015D02*
X000688Y009015D01*
X000688Y008917D02*
X005911Y008917D01*
X005813Y008818D02*
X000688Y008818D01*
X000688Y008720D02*
X005714Y008720D01*
X005616Y008621D02*
X000688Y008621D01*
X000688Y008523D02*
X002818Y008523D01*
X002731Y008424D02*
X000688Y008424D01*
X000688Y008326D02*
X002731Y008326D01*
X002731Y008227D02*
X000688Y008227D01*
X000688Y008129D02*
X002731Y008129D01*
X002731Y008030D02*
X000688Y008030D01*
X000688Y007932D02*
X002731Y007932D01*
X002731Y007833D02*
X000688Y007833D01*
X000688Y007735D02*
X002731Y007735D01*
X002731Y007636D02*
X000688Y007636D01*
X000688Y007538D02*
X002731Y007538D01*
X002731Y007439D02*
X000688Y007439D01*
X000688Y007341D02*
X002731Y007341D01*
X002731Y007242D02*
X000688Y007242D01*
X000688Y007144D02*
X002731Y007144D01*
X002731Y007045D02*
X000688Y007045D01*
X000688Y006947D02*
X002731Y006947D01*
X002731Y006848D02*
X000688Y006848D01*
X000688Y006750D02*
X002731Y006750D01*
X002731Y006651D02*
X000688Y006651D01*
X000688Y006553D02*
X002731Y006553D01*
X002731Y006454D02*
X000688Y006454D01*
X000688Y006356D02*
X002731Y006356D01*
X002731Y006257D02*
X000688Y006257D01*
X000688Y006159D02*
X002731Y006159D01*
X002731Y006060D02*
X000688Y006060D01*
X000688Y005962D02*
X002731Y005962D01*
X002731Y005863D02*
X000688Y005863D01*
X000688Y005765D02*
X002731Y005765D01*
X002731Y005666D02*
X000688Y005666D01*
X000688Y005568D02*
X002731Y005568D01*
X002731Y005469D02*
X000688Y005469D01*
X000688Y005371D02*
X002731Y005371D01*
X002731Y005272D02*
X000688Y005272D01*
X000688Y005174D02*
X002731Y005174D01*
X002731Y005075D02*
X000688Y005075D01*
X000688Y004977D02*
X002791Y004977D01*
X002716Y004287D02*
X000688Y004287D01*
X000688Y004189D02*
X002653Y004189D01*
X002653Y004090D02*
X000688Y004090D01*
X000688Y003992D02*
X002653Y003992D01*
X002653Y003893D02*
X000688Y003893D01*
X000688Y003795D02*
X002653Y003795D01*
X002653Y003696D02*
X000688Y003696D01*
X000688Y003598D02*
X002653Y003598D01*
X002653Y003499D02*
X000688Y003499D01*
X000688Y003401D02*
X002653Y003401D01*
X002653Y003302D02*
X000688Y003302D01*
X000688Y003204D02*
X002653Y003204D01*
X002653Y003105D02*
X000688Y003105D01*
X000688Y003007D02*
X002653Y003007D01*
X002653Y002908D02*
X000688Y002908D01*
X000688Y002810D02*
X002653Y002810D01*
X002653Y002711D02*
X000688Y002711D01*
X000688Y002613D02*
X002653Y002613D01*
X002653Y002514D02*
X000688Y002514D01*
X000688Y002416D02*
X002714Y002416D01*
X002281Y001809D02*
X002046Y002045D01*
X001738Y002172D01*
X001405Y002172D01*
X001097Y002045D01*
X000861Y001809D01*
X000734Y001502D01*
X000734Y001168D01*
X000861Y000861D01*
X001097Y000625D01*
X001405Y000498D01*
X001738Y000498D01*
X002046Y000625D01*
X002281Y000861D01*
X002409Y001168D01*
X002409Y001502D01*
X002281Y001809D01*
X002266Y001825D02*
X004295Y001825D01*
X004197Y001923D02*
X002168Y001923D01*
X002069Y002022D02*
X004098Y002022D01*
X004000Y002120D02*
X001864Y002120D01*
X001278Y002120D02*
X000688Y002120D01*
X000688Y002022D02*
X001073Y002022D01*
X000975Y001923D02*
X000688Y001923D01*
X000688Y001825D02*
X000876Y001825D01*
X000827Y001726D02*
X000688Y001726D01*
X000688Y001628D02*
X000786Y001628D01*
X000745Y001529D02*
X000688Y001529D01*
X000688Y001431D02*
X000734Y001431D01*
X000734Y001332D02*
X000688Y001332D01*
X000688Y001234D02*
X000734Y001234D01*
X000748Y001135D02*
X000688Y001135D01*
X000688Y001037D02*
X000789Y001037D01*
X000829Y000938D02*
X000688Y000938D01*
X000688Y000840D02*
X000883Y000840D01*
X000981Y000741D02*
X000688Y000741D01*
X000688Y000643D02*
X001080Y000643D01*
X001293Y000544D02*
X000688Y000544D01*
X001850Y000544D02*
X017293Y000544D01*
X017080Y000643D02*
X002063Y000643D01*
X002161Y000741D02*
X016981Y000741D01*
X016532Y002416D02*
X018643Y002416D01*
X018643Y002514D02*
X016643Y002514D01*
X016651Y002613D02*
X018643Y002613D01*
X018643Y002711D02*
X016651Y002711D01*
X016651Y002810D02*
X018643Y002810D01*
X018643Y002908D02*
X016651Y002908D01*
X016651Y003007D02*
X018643Y003007D01*
X018643Y003105D02*
X016651Y003105D01*
X016651Y003204D02*
X018643Y003204D01*
X018643Y003302D02*
X016236Y003302D01*
X016236Y003204D02*
X016136Y003204D01*
X016136Y003105D02*
X016236Y003105D01*
X016236Y003007D02*
X016136Y003007D01*
X016136Y002908D02*
X016236Y002908D01*
X016236Y002810D02*
X016136Y002810D01*
X016136Y002711D02*
X016236Y002711D01*
X016236Y002613D02*
X016136Y002613D01*
X016136Y002514D02*
X016236Y002514D01*
X016236Y002416D02*
X016136Y002416D01*
X016651Y003401D02*
X018643Y003401D01*
X018643Y003499D02*
X016651Y003499D01*
X016651Y003598D02*
X018643Y003598D01*
X018643Y003696D02*
X016651Y003696D01*
X016651Y003795D02*
X018643Y003795D01*
X018643Y003893D02*
X016651Y003893D01*
X016651Y003992D02*
X018643Y003992D01*
X018643Y004090D02*
X016651Y004090D01*
X016643Y004189D02*
X018643Y004189D01*
X018643Y004287D02*
X016522Y004287D01*
X016571Y004977D02*
X018643Y004977D01*
X018643Y005075D02*
X016630Y005075D01*
X016630Y005174D02*
X018643Y005174D01*
X018643Y005272D02*
X016630Y005272D01*
X016630Y005371D02*
X018643Y005371D01*
X018643Y005469D02*
X016630Y005469D01*
X016630Y005568D02*
X018643Y005568D01*
X018643Y005666D02*
X016630Y005666D01*
X016630Y005765D02*
X018643Y005765D01*
X018643Y005863D02*
X016630Y005863D01*
X016630Y005962D02*
X018643Y005962D01*
X018643Y006060D02*
X016630Y006060D01*
X016630Y006159D02*
X018643Y006159D01*
X018643Y006257D02*
X016630Y006257D01*
X016630Y006356D02*
X018643Y006356D01*
X018643Y006454D02*
X016630Y006454D01*
X016630Y006553D02*
X018643Y006553D01*
X018643Y006651D02*
X016630Y006651D01*
X016630Y006750D02*
X018643Y006750D01*
X018643Y006848D02*
X016630Y006848D01*
X016630Y006947D02*
X018643Y006947D01*
X018643Y007045D02*
X016630Y007045D01*
X016630Y007144D02*
X018643Y007144D01*
X018643Y007242D02*
X016630Y007242D01*
X016630Y007341D02*
X018643Y007341D01*
X018643Y007439D02*
X016630Y007439D01*
X016630Y007538D02*
X018643Y007538D01*
X018643Y007636D02*
X016630Y007636D01*
X016630Y007735D02*
X018643Y007735D01*
X018643Y007833D02*
X016630Y007833D01*
X016630Y007932D02*
X018643Y007932D01*
X018643Y008030D02*
X016630Y008030D01*
X016630Y008129D02*
X018643Y008129D01*
X018643Y008227D02*
X016630Y008227D01*
X016630Y008326D02*
X018643Y008326D01*
X018643Y008424D02*
X016630Y008424D01*
X016543Y008523D02*
X018643Y008523D01*
X018643Y008621D02*
X016393Y008621D01*
X016393Y008720D02*
X018643Y008720D01*
X018643Y008818D02*
X016393Y008818D01*
X016393Y008917D02*
X018643Y008917D01*
X018643Y009015D02*
X016393Y009015D01*
X016393Y009114D02*
X018643Y009114D01*
X018643Y009212D02*
X016393Y009212D01*
X016393Y009311D02*
X016890Y009311D01*
X016896Y009305D02*
X017032Y009305D01*
X017032Y009702D01*
X016635Y009702D01*
X016635Y009566D01*
X016896Y009305D01*
X017032Y009311D02*
X017129Y009311D01*
X017129Y009305D02*
X017265Y009305D01*
X017526Y009566D01*
X017526Y009702D01*
X017129Y009702D01*
X017129Y009798D01*
X017526Y009798D01*
X017526Y009934D01*
X017265Y010195D01*
X017129Y010195D01*
X017129Y009798D01*
X017032Y009798D01*
X017032Y009702D01*
X017129Y009702D01*
X017129Y009305D01*
X017129Y009409D02*
X017032Y009409D01*
X017032Y009508D02*
X017129Y009508D01*
X017129Y009606D02*
X017032Y009606D01*
X017032Y009705D02*
X016396Y009705D01*
X016393Y009606D02*
X016635Y009606D01*
X016693Y009508D02*
X016393Y009508D01*
X016393Y009409D02*
X016792Y009409D01*
X016635Y009798D02*
X017032Y009798D01*
X017032Y010195D01*
X016896Y010195D01*
X016635Y009934D01*
X016635Y009798D01*
X016635Y009803D02*
X016495Y009803D01*
X016593Y009902D02*
X016635Y009902D01*
X016692Y010000D02*
X016701Y010000D01*
X016790Y010099D02*
X016800Y010099D01*
X016889Y010197D02*
X017644Y010197D01*
X017699Y010253D02*
X017578Y010131D01*
X017578Y009369D01*
X017699Y009247D01*
X018462Y009247D01*
X018583Y009369D01*
X018583Y010131D01*
X018462Y010253D01*
X017699Y010253D01*
X017578Y010099D02*
X017362Y010099D01*
X017460Y010000D02*
X017578Y010000D01*
X017578Y009902D02*
X017526Y009902D01*
X017526Y009803D02*
X017578Y009803D01*
X017578Y009705D02*
X017129Y009705D01*
X017129Y009803D02*
X017032Y009803D01*
X017032Y009902D02*
X017129Y009902D01*
X017129Y010000D02*
X017032Y010000D01*
X017032Y010099D02*
X017129Y010099D01*
X016987Y010296D02*
X018643Y010296D01*
X018643Y010394D02*
X017086Y010394D01*
X017334Y010493D02*
X017654Y010493D01*
X017578Y010591D02*
X017433Y010591D01*
X017531Y010690D02*
X017578Y010690D01*
X017560Y011182D02*
X017578Y011182D01*
X017578Y011281D02*
X017461Y011281D01*
X017363Y011379D02*
X017626Y011379D01*
X017672Y011675D02*
X017316Y011675D01*
X017415Y011773D02*
X017578Y011773D01*
X017578Y011872D02*
X017513Y011872D01*
X017556Y012561D02*
X017608Y012561D01*
X017457Y012660D02*
X018643Y012660D01*
X018643Y012758D02*
X017359Y012758D01*
X017260Y012857D02*
X017690Y012857D01*
X017592Y012955D02*
X017162Y012955D01*
X017063Y013054D02*
X017578Y013054D01*
X017568Y013152D02*
X016965Y013152D01*
X016866Y013251D02*
X017469Y013251D01*
X017371Y013349D02*
X016768Y013349D01*
X016669Y013448D02*
X017272Y013448D01*
X017174Y013546D02*
X016571Y013546D01*
X016472Y013645D02*
X017075Y013645D01*
X016977Y013743D02*
X016374Y013743D01*
X016275Y013842D02*
X016878Y013842D01*
X016780Y013940D02*
X016177Y013940D01*
X016078Y014039D02*
X016681Y014039D01*
X016583Y014137D02*
X015980Y014137D01*
X015922Y014236D02*
X016484Y014236D01*
X016386Y014334D02*
X015922Y014334D01*
X015922Y014433D02*
X016287Y014433D01*
X016189Y014531D02*
X015922Y014531D01*
X015922Y014630D02*
X016090Y014630D01*
X015992Y014728D02*
X015922Y014728D01*
X015893Y014827D02*
X015872Y014827D01*
X016171Y015221D02*
X018643Y015221D01*
X018643Y015319D02*
X016073Y015319D01*
X016270Y015122D02*
X018643Y015122D01*
X018643Y015024D02*
X016368Y015024D01*
X016467Y014925D02*
X018643Y014925D01*
X018643Y014827D02*
X018315Y014827D01*
X018414Y014728D02*
X018643Y014728D01*
X018643Y014630D02*
X018512Y014630D01*
X018583Y014531D02*
X018643Y014531D01*
X018643Y014433D02*
X018583Y014433D01*
X018583Y014334D02*
X018643Y014334D01*
X018643Y014236D02*
X018583Y014236D01*
X018579Y014137D02*
X018643Y014137D01*
X018643Y014039D02*
X018480Y014039D01*
X018382Y013940D02*
X018643Y013940D01*
X018643Y013842D02*
X018473Y013842D01*
X018572Y013743D02*
X018643Y013743D01*
X018643Y013645D02*
X018583Y013645D01*
X018583Y013546D02*
X018643Y013546D01*
X018643Y013448D02*
X018583Y013448D01*
X018583Y013349D02*
X018643Y013349D01*
X018643Y013251D02*
X018583Y013251D01*
X018583Y013152D02*
X018643Y013152D01*
X018643Y013054D02*
X018583Y013054D01*
X018570Y012955D02*
X018643Y012955D01*
X018643Y012857D02*
X018471Y012857D01*
X018554Y012561D02*
X018643Y012561D01*
X018643Y012463D02*
X018583Y012463D01*
X018583Y012364D02*
X018643Y012364D01*
X018643Y012266D02*
X018583Y012266D01*
X018583Y012167D02*
X018643Y012167D01*
X018643Y012069D02*
X018583Y012069D01*
X018583Y011970D02*
X018643Y011970D01*
X018643Y011872D02*
X018583Y011872D01*
X018583Y011773D02*
X018643Y011773D01*
X018643Y011675D02*
X018489Y011675D01*
X018643Y011576D02*
X015912Y011576D01*
X015912Y011478D02*
X018643Y011478D01*
X018643Y011379D02*
X018536Y011379D01*
X018583Y011281D02*
X018643Y011281D01*
X018643Y011182D02*
X018583Y011182D01*
X018583Y011084D02*
X018643Y011084D01*
X018643Y010985D02*
X018583Y010985D01*
X018583Y010887D02*
X018643Y010887D01*
X018643Y010788D02*
X018583Y010788D01*
X018583Y010690D02*
X018643Y010690D01*
X018643Y010591D02*
X018583Y010591D01*
X018643Y010493D02*
X018507Y010493D01*
X018518Y010197D02*
X018643Y010197D01*
X018643Y010099D02*
X018583Y010099D01*
X018583Y010000D02*
X018643Y010000D01*
X018643Y009902D02*
X018583Y009902D01*
X018583Y009803D02*
X018643Y009803D01*
X018643Y009705D02*
X018583Y009705D01*
X018583Y009606D02*
X018643Y009606D01*
X018643Y009508D02*
X018583Y009508D01*
X018583Y009409D02*
X018643Y009409D01*
X018643Y009311D02*
X018525Y009311D01*
X017636Y009311D02*
X017271Y009311D01*
X017369Y009409D02*
X017578Y009409D01*
X017578Y009508D02*
X017468Y009508D01*
X017526Y009606D02*
X017578Y009606D01*
X016602Y011182D02*
X015912Y011182D01*
X015912Y011281D02*
X016700Y011281D01*
X016799Y011379D02*
X015912Y011379D01*
X015912Y011675D02*
X016845Y011675D01*
X016747Y011773D02*
X015912Y011773D01*
X015912Y011872D02*
X016648Y011872D01*
X016578Y011970D02*
X015912Y011970D01*
X015912Y012069D02*
X016578Y012069D01*
X016578Y012167D02*
X015912Y012167D01*
X015912Y012266D02*
X016578Y012266D01*
X016584Y012364D02*
X015912Y012364D01*
X015912Y012463D02*
X016682Y012463D01*
X016781Y012561D02*
X015907Y012561D01*
X015828Y012660D02*
X016785Y012660D01*
X016687Y012758D02*
X013625Y012758D01*
X013723Y012857D02*
X016588Y012857D01*
X016490Y012955D02*
X013822Y012955D01*
X013920Y013054D02*
X016391Y013054D01*
X016293Y013152D02*
X015848Y013152D01*
X015922Y013251D02*
X016194Y013251D01*
X016096Y013349D02*
X015922Y013349D01*
X015922Y013448D02*
X015997Y013448D01*
X016861Y014531D02*
X017578Y014531D01*
X017578Y014433D02*
X016959Y014433D01*
X017058Y014334D02*
X017578Y014334D01*
X017578Y014236D02*
X017156Y014236D01*
X017255Y014137D02*
X017583Y014137D01*
X017681Y014039D02*
X017353Y014039D01*
X017452Y013940D02*
X017780Y013940D01*
X017688Y013842D02*
X017550Y013842D01*
X017649Y014630D02*
X016762Y014630D01*
X016664Y014728D02*
X017748Y014728D01*
X017846Y014827D02*
X016565Y014827D01*
X014692Y014137D02*
X014422Y014137D01*
X014422Y014039D02*
X014692Y014039D01*
X014692Y013940D02*
X014422Y013940D01*
X014422Y013842D02*
X014692Y013842D01*
X014692Y013743D02*
X014422Y013743D01*
X014422Y013645D02*
X014692Y013645D01*
X014692Y013546D02*
X014422Y013546D01*
X014422Y013448D02*
X014692Y013448D01*
X014692Y013349D02*
X014422Y013349D01*
X014422Y013251D02*
X014692Y013251D01*
X014766Y013152D02*
X014348Y013152D01*
X014531Y012660D02*
X014631Y012660D01*
X014631Y012561D02*
X014531Y012561D01*
X014531Y012463D02*
X014631Y012463D01*
X014631Y012364D02*
X014531Y012364D01*
X014531Y012266D02*
X014631Y012266D01*
X014631Y012167D02*
X014531Y012167D01*
X014531Y012069D02*
X014631Y012069D01*
X014631Y011970D02*
X014531Y011970D01*
X014531Y011872D02*
X014631Y011872D01*
X014631Y011773D02*
X014531Y011773D01*
X014531Y011675D02*
X014631Y011675D01*
X014631Y011576D02*
X014531Y011576D01*
X014531Y011478D02*
X014631Y011478D01*
X014631Y011379D02*
X014531Y011379D01*
X014531Y011281D02*
X014631Y011281D01*
X014631Y011182D02*
X014531Y011182D01*
X014531Y011084D02*
X014631Y011084D01*
X014631Y010788D02*
X014531Y010788D01*
X014531Y010690D02*
X014631Y010690D01*
X014631Y010591D02*
X014531Y010591D01*
X014531Y010493D02*
X014631Y010493D01*
X014631Y010394D02*
X014531Y010394D01*
X014531Y010296D02*
X014631Y010296D01*
X014631Y010197D02*
X014531Y010197D01*
X014531Y010099D02*
X014631Y010099D01*
X014631Y010000D02*
X014531Y010000D01*
X014531Y009902D02*
X014631Y009902D01*
X014631Y009803D02*
X014531Y009803D01*
X014531Y009705D02*
X014631Y009705D01*
X014631Y009606D02*
X014531Y009606D01*
X014531Y009508D02*
X014631Y009508D01*
X014631Y009409D02*
X014531Y009409D01*
X014531Y009311D02*
X014631Y009311D01*
X013250Y011084D02*
X013243Y011084D01*
X013243Y011182D02*
X013250Y011182D01*
X013243Y011281D02*
X013250Y011281D01*
X013243Y011379D02*
X013250Y011379D01*
X013243Y011478D02*
X013250Y011478D01*
X013243Y011576D02*
X013250Y011576D01*
X013243Y011675D02*
X013250Y011675D01*
X013243Y011773D02*
X013250Y011773D01*
X013243Y011872D02*
X013250Y011872D01*
X013243Y011970D02*
X013250Y011970D01*
X013243Y012069D02*
X013250Y012069D01*
X013243Y012167D02*
X013250Y012167D01*
X013243Y012266D02*
X013250Y012266D01*
X013243Y012364D02*
X013250Y012364D01*
X013243Y012463D02*
X013250Y012463D01*
X013243Y012561D02*
X013254Y012561D01*
X013301Y012660D02*
X013333Y012660D01*
X014422Y014236D02*
X014545Y014236D01*
X014422Y014776D02*
X014422Y014776D01*
X014372Y014827D02*
X014473Y014827D01*
X014569Y017191D02*
X012239Y017191D01*
X011973Y017191D02*
X011365Y017191D01*
X011575Y017092D02*
X011838Y017092D01*
X011784Y016994D02*
X011673Y016994D01*
X011719Y018471D02*
X011739Y018471D01*
X012309Y018471D02*
X012329Y018471D01*
X012900Y018471D02*
X012920Y018471D01*
X013490Y018471D02*
X013510Y018471D01*
X014081Y018471D02*
X014101Y018471D01*
X014672Y018471D02*
X014691Y018471D01*
X015262Y018471D02*
X015282Y018471D01*
X015853Y018471D02*
X016083Y018471D01*
X016083Y018373D02*
X010284Y018373D01*
X010239Y018274D02*
X016163Y018274D01*
X016083Y018570D02*
X015951Y018570D01*
X015972Y018668D02*
X016083Y018668D01*
X016083Y018767D02*
X015972Y018767D01*
X015972Y018865D02*
X016083Y018865D01*
X016083Y018964D02*
X015972Y018964D01*
X015972Y019062D02*
X016083Y019062D01*
X016083Y019161D02*
X015972Y019161D01*
X015972Y019259D02*
X016083Y019259D01*
X016083Y019358D02*
X015972Y019358D01*
X015972Y019456D02*
X016083Y019456D01*
X016083Y019555D02*
X015927Y019555D01*
X016083Y019653D02*
X010470Y019653D01*
X010568Y019752D02*
X016083Y019752D01*
X016083Y019850D02*
X010667Y019850D01*
X010765Y019949D02*
X016083Y019949D01*
X016083Y020047D02*
X010864Y020047D01*
X010962Y020146D02*
X016083Y020146D01*
X016083Y020244D02*
X011061Y020244D01*
X011159Y020343D02*
X016083Y020343D01*
X016083Y020441D02*
X011258Y020441D01*
X011356Y020540D02*
X016083Y020540D01*
X016083Y020638D02*
X011455Y020638D01*
X011553Y020737D02*
X016083Y020737D01*
X016083Y020835D02*
X011652Y020835D01*
X011750Y020934D02*
X016083Y020934D01*
X016083Y021032D02*
X011849Y021032D01*
X011947Y021131D02*
X016083Y021131D01*
X016083Y021229D02*
X011968Y021229D01*
X011968Y021328D02*
X016083Y021328D01*
X016083Y021426D02*
X011968Y021426D01*
X011968Y021525D02*
X016083Y021525D01*
X016083Y021623D02*
X011968Y021623D01*
X011968Y021722D02*
X016083Y021722D01*
X016083Y021820D02*
X011968Y021820D01*
X011968Y021919D02*
X016083Y021919D01*
X016083Y022017D02*
X011968Y022017D01*
X011968Y022116D02*
X016083Y022116D01*
X016083Y022214D02*
X011968Y022214D01*
X011968Y022313D02*
X016083Y022313D01*
X016083Y022411D02*
X011968Y022411D01*
X011968Y022510D02*
X016083Y022510D01*
X016083Y022608D02*
X011968Y022608D01*
X011968Y022707D02*
X016083Y022707D01*
X016083Y022805D02*
X011968Y022805D01*
X011968Y022904D02*
X016083Y022904D01*
X016083Y023002D02*
X011968Y023002D01*
X011968Y023101D02*
X016083Y023101D01*
X016083Y023199D02*
X011968Y023199D01*
X011968Y023298D02*
X016083Y023298D01*
X016083Y023396D02*
X011968Y023396D01*
X011968Y023495D02*
X016083Y023495D01*
X016083Y023593D02*
X011968Y023593D01*
X012231Y024789D02*
X012318Y024877D01*
X012318Y027276D01*
X012583Y027542D01*
X012583Y027958D01*
X012417Y028125D01*
X012619Y028328D01*
X012699Y028247D01*
X013462Y028247D01*
X013583Y028369D01*
X013583Y028636D01*
X013593Y028627D01*
X013593Y027427D01*
X013732Y027288D01*
X015318Y025702D01*
X015318Y024789D01*
X015298Y024789D01*
X015298Y024868D01*
X015246Y024994D01*
X015150Y025090D01*
X015024Y025142D01*
X014888Y025142D01*
X014762Y025090D01*
X014665Y024994D01*
X014613Y024868D01*
X014613Y024789D01*
X014103Y024789D01*
X014091Y024776D01*
X014078Y024789D01*
X013513Y024789D01*
X013500Y024776D01*
X013488Y024789D01*
X012922Y024789D01*
X012910Y024776D01*
X012897Y024789D01*
X012332Y024789D01*
X012319Y024776D01*
X012307Y024789D01*
X012231Y024789D01*
X012315Y024874D02*
X014615Y024874D01*
X014656Y024972D02*
X012318Y024972D01*
X012318Y025071D02*
X014742Y025071D01*
X015169Y025071D02*
X015318Y025071D01*
X015318Y025169D02*
X012318Y025169D01*
X012318Y025268D02*
X015318Y025268D01*
X015318Y025366D02*
X012318Y025366D01*
X012318Y025465D02*
X015318Y025465D01*
X015318Y025563D02*
X012318Y025563D01*
X012318Y025662D02*
X015318Y025662D01*
X015260Y025760D02*
X012318Y025760D01*
X012318Y025859D02*
X015161Y025859D01*
X015063Y025957D02*
X012318Y025957D01*
X012318Y026056D02*
X014964Y026056D01*
X014866Y026154D02*
X012318Y026154D01*
X012318Y026253D02*
X014767Y026253D01*
X014669Y026351D02*
X012318Y026351D01*
X012318Y026450D02*
X014570Y026450D01*
X014472Y026548D02*
X012318Y026548D01*
X012318Y026647D02*
X014373Y026647D01*
X014275Y026745D02*
X012318Y026745D01*
X012318Y026844D02*
X014176Y026844D01*
X014078Y026942D02*
X012318Y026942D01*
X012318Y027041D02*
X013979Y027041D01*
X013881Y027139D02*
X012318Y027139D01*
X012318Y027238D02*
X013782Y027238D01*
X013684Y027336D02*
X013296Y027336D01*
X013265Y027305D02*
X013526Y027566D01*
X013526Y027702D01*
X013129Y027702D01*
X013129Y027798D01*
X013526Y027798D01*
X013526Y027934D01*
X013265Y028195D01*
X013129Y028195D01*
X013129Y027798D01*
X013032Y027798D01*
X013032Y027702D01*
X012635Y027702D01*
X012635Y027566D01*
X012896Y027305D01*
X013032Y027305D01*
X013032Y027702D01*
X013129Y027702D01*
X013129Y027305D01*
X013265Y027305D01*
X013129Y027336D02*
X013032Y027336D01*
X013032Y027435D02*
X013129Y027435D01*
X013129Y027533D02*
X013032Y027533D01*
X013032Y027632D02*
X013129Y027632D01*
X013129Y027730D02*
X013593Y027730D01*
X013593Y027632D02*
X013526Y027632D01*
X013493Y027533D02*
X013593Y027533D01*
X013593Y027435D02*
X013395Y027435D01*
X013526Y027829D02*
X013593Y027829D01*
X013593Y027927D02*
X013526Y027927D01*
X013593Y028026D02*
X013435Y028026D01*
X013336Y028124D02*
X013593Y028124D01*
X013593Y028223D02*
X012514Y028223D01*
X012418Y028124D02*
X012825Y028124D01*
X012896Y028195D02*
X012635Y027934D01*
X012635Y027798D01*
X013032Y027798D01*
X013032Y028195D01*
X012896Y028195D01*
X013032Y028124D02*
X013129Y028124D01*
X013129Y028026D02*
X013032Y028026D01*
X013032Y027927D02*
X013129Y027927D01*
X013129Y027829D02*
X013032Y027829D01*
X013032Y027730D02*
X012583Y027730D01*
X012583Y027632D02*
X012635Y027632D01*
X012668Y027533D02*
X012575Y027533D01*
X012476Y027435D02*
X012766Y027435D01*
X012865Y027336D02*
X012378Y027336D01*
X012583Y027829D02*
X012635Y027829D01*
X012635Y027927D02*
X012583Y027927D01*
X012516Y028026D02*
X012727Y028026D01*
X012626Y028321D02*
X012613Y028321D01*
X012477Y029208D02*
X012334Y029208D01*
X012576Y029306D02*
X009560Y029306D01*
X009659Y029208D02*
X009827Y029208D01*
X010334Y029208D02*
X010827Y029208D01*
X010729Y029109D02*
X010433Y029109D01*
X010531Y029011D02*
X010630Y029011D01*
X011334Y029208D02*
X011827Y029208D01*
X011729Y029109D02*
X011433Y029109D01*
X011531Y029011D02*
X011630Y029011D01*
X013585Y029306D02*
X018643Y029306D01*
X018643Y029208D02*
X016407Y029208D01*
X016362Y029253D02*
X015599Y029253D01*
X015478Y029131D01*
X015478Y028369D01*
X015599Y028247D01*
X016362Y028247D01*
X016483Y028369D01*
X016483Y029131D01*
X016362Y029253D01*
X016483Y029109D02*
X017252Y029109D01*
X017405Y029172D02*
X017097Y029045D01*
X016861Y028809D01*
X016734Y028502D01*
X016734Y028168D01*
X016861Y027861D01*
X017097Y027625D01*
X017405Y027498D01*
X017738Y027498D01*
X018046Y027625D01*
X018281Y027861D01*
X018409Y028168D01*
X018409Y028502D01*
X018281Y028809D01*
X018046Y029045D01*
X017738Y029172D01*
X017405Y029172D01*
X017063Y029011D02*
X016483Y029011D01*
X016483Y028912D02*
X016964Y028912D01*
X016866Y028814D02*
X016483Y028814D01*
X016483Y028715D02*
X016822Y028715D01*
X016781Y028617D02*
X016483Y028617D01*
X016483Y028518D02*
X016741Y028518D01*
X016734Y028420D02*
X016483Y028420D01*
X016436Y028321D02*
X016734Y028321D01*
X016734Y028223D02*
X014068Y028223D01*
X014068Y028321D02*
X014126Y028321D01*
X014078Y028369D02*
X014199Y028247D01*
X014962Y028247D01*
X015083Y028369D01*
X015083Y029131D01*
X014962Y029253D01*
X014199Y029253D01*
X014078Y029131D01*
X014078Y028369D01*
X014068Y028420D02*
X014078Y028420D01*
X014068Y028518D02*
X014078Y028518D01*
X014068Y028617D02*
X014078Y028617D01*
X014068Y028715D02*
X014078Y028715D01*
X014068Y028814D02*
X014078Y028814D01*
X014078Y028912D02*
X013979Y028912D01*
X013881Y029011D02*
X014078Y029011D01*
X014078Y029109D02*
X013782Y029109D01*
X013684Y029208D02*
X014154Y029208D01*
X013593Y028617D02*
X013583Y028617D01*
X013583Y028518D02*
X013593Y028518D01*
X013583Y028420D02*
X013593Y028420D01*
X013593Y028321D02*
X013536Y028321D01*
X014068Y028124D02*
X014325Y028124D01*
X014396Y028195D02*
X014135Y027934D01*
X014135Y027798D01*
X014532Y027798D01*
X014532Y027702D01*
X014135Y027702D01*
X014135Y027566D01*
X014396Y027305D01*
X014532Y027305D01*
X014532Y027702D01*
X014629Y027702D01*
X014629Y027798D01*
X015026Y027798D01*
X015026Y027934D01*
X014765Y028195D01*
X014629Y028195D01*
X014629Y027798D01*
X014532Y027798D01*
X014532Y028195D01*
X014396Y028195D01*
X014532Y028124D02*
X014629Y028124D01*
X014629Y028026D02*
X014532Y028026D01*
X014532Y027927D02*
X014629Y027927D01*
X014629Y027829D02*
X014532Y027829D01*
X014532Y027730D02*
X014068Y027730D01*
X014068Y027632D02*
X014135Y027632D01*
X014158Y027533D02*
X014168Y027533D01*
X014257Y027435D02*
X014266Y027435D01*
X014355Y027336D02*
X014365Y027336D01*
X014454Y027238D02*
X018643Y027238D01*
X018643Y027336D02*
X016196Y027336D01*
X016165Y027305D02*
X016426Y027566D01*
X016426Y027702D01*
X016029Y027702D01*
X016029Y027798D01*
X016426Y027798D01*
X016426Y027934D01*
X016165Y028195D01*
X016029Y028195D01*
X016029Y027798D01*
X015932Y027798D01*
X015932Y027702D01*
X015535Y027702D01*
X015535Y027566D01*
X015796Y027305D01*
X015932Y027305D01*
X015932Y027702D01*
X016029Y027702D01*
X016029Y027305D01*
X016165Y027305D01*
X016029Y027336D02*
X015932Y027336D01*
X015932Y027435D02*
X016029Y027435D01*
X016029Y027533D02*
X015932Y027533D01*
X015932Y027632D02*
X016029Y027632D01*
X016029Y027730D02*
X016992Y027730D01*
X017090Y027632D02*
X016426Y027632D01*
X016393Y027533D02*
X017319Y027533D01*
X017823Y027533D02*
X018643Y027533D01*
X018643Y027435D02*
X016295Y027435D01*
X016426Y027829D02*
X016893Y027829D01*
X016834Y027927D02*
X016426Y027927D01*
X016335Y028026D02*
X016793Y028026D01*
X016752Y028124D02*
X016236Y028124D01*
X016029Y028124D02*
X015932Y028124D01*
X015932Y028195D02*
X015796Y028195D01*
X015535Y027934D01*
X015535Y027798D01*
X015932Y027798D01*
X015932Y028195D01*
X015932Y028026D02*
X016029Y028026D01*
X016029Y027927D02*
X015932Y027927D01*
X015932Y027829D02*
X016029Y027829D01*
X015932Y027730D02*
X014629Y027730D01*
X014629Y027702D02*
X015026Y027702D01*
X015026Y027566D01*
X014765Y027305D01*
X014629Y027305D01*
X014629Y027702D01*
X014629Y027632D02*
X014532Y027632D01*
X014532Y027533D02*
X014629Y027533D01*
X014629Y027435D02*
X014532Y027435D01*
X014532Y027336D02*
X014629Y027336D01*
X014796Y027336D02*
X015765Y027336D01*
X015666Y027435D02*
X014895Y027435D01*
X014993Y027533D02*
X015568Y027533D01*
X015535Y027632D02*
X015026Y027632D01*
X015026Y027829D02*
X015535Y027829D01*
X015535Y027927D02*
X015026Y027927D01*
X014935Y028026D02*
X015627Y028026D01*
X015725Y028124D02*
X014836Y028124D01*
X015036Y028321D02*
X015526Y028321D01*
X015478Y028420D02*
X015083Y028420D01*
X015083Y028518D02*
X015478Y028518D01*
X015478Y028617D02*
X015083Y028617D01*
X015083Y028715D02*
X015478Y028715D01*
X015478Y028814D02*
X015083Y028814D01*
X015083Y028912D02*
X015478Y028912D01*
X015478Y029011D02*
X015083Y029011D01*
X015083Y029109D02*
X015478Y029109D01*
X015554Y029208D02*
X015007Y029208D01*
X014227Y028026D02*
X014068Y028026D01*
X014068Y027927D02*
X014135Y027927D01*
X014135Y027829D02*
X014068Y027829D01*
X014552Y027139D02*
X018643Y027139D01*
X018643Y027041D02*
X014651Y027041D01*
X014749Y026942D02*
X018643Y026942D01*
X018643Y026844D02*
X014848Y026844D01*
X014946Y026745D02*
X018643Y026745D01*
X018643Y026647D02*
X015045Y026647D01*
X015143Y026548D02*
X018643Y026548D01*
X018643Y026450D02*
X015242Y026450D01*
X015340Y026351D02*
X018643Y026351D01*
X018643Y026253D02*
X015439Y026253D01*
X015537Y026154D02*
X018643Y026154D01*
X018643Y026056D02*
X015636Y026056D01*
X015734Y025957D02*
X018643Y025957D01*
X018643Y025859D02*
X015793Y025859D01*
X015793Y025760D02*
X018643Y025760D01*
X018643Y025662D02*
X015793Y025662D01*
X015793Y025563D02*
X018643Y025563D01*
X018643Y025465D02*
X015793Y025465D01*
X015793Y025366D02*
X018643Y025366D01*
X018643Y025268D02*
X015793Y025268D01*
X015793Y025169D02*
X018643Y025169D01*
X018643Y025071D02*
X015793Y025071D01*
X015793Y024972D02*
X016129Y024972D01*
X016083Y024874D02*
X015793Y024874D01*
X015864Y024775D02*
X016083Y024775D01*
X016083Y024677D02*
X015963Y024677D01*
X015972Y024578D02*
X016083Y024578D01*
X016083Y024480D02*
X015972Y024480D01*
X015972Y024381D02*
X016083Y024381D01*
X016083Y024283D02*
X015972Y024283D01*
X015972Y024184D02*
X016083Y024184D01*
X016083Y024086D02*
X015972Y024086D01*
X015972Y023987D02*
X016083Y023987D01*
X016083Y023889D02*
X015972Y023889D01*
X015972Y023790D02*
X016083Y023790D01*
X016083Y023692D02*
X015916Y023692D01*
X015318Y024874D02*
X015296Y024874D01*
X015318Y024972D02*
X015255Y024972D01*
X017891Y029109D02*
X018643Y029109D01*
X018643Y029011D02*
X018080Y029011D01*
X018178Y028912D02*
X018643Y028912D01*
X018643Y028814D02*
X018277Y028814D01*
X018320Y028715D02*
X018643Y028715D01*
X018643Y028617D02*
X018361Y028617D01*
X018402Y028518D02*
X018643Y028518D01*
X018643Y028420D02*
X018409Y028420D01*
X018409Y028321D02*
X018643Y028321D01*
X018643Y028223D02*
X018409Y028223D01*
X018390Y028124D02*
X018643Y028124D01*
X018643Y028026D02*
X018349Y028026D01*
X018309Y027927D02*
X018643Y027927D01*
X018643Y027829D02*
X018249Y027829D01*
X018151Y027730D02*
X018643Y027730D01*
X018643Y027632D02*
X018052Y027632D01*
X018643Y029405D02*
X000688Y029405D01*
X000688Y029306D02*
X008751Y029306D01*
X008652Y029208D02*
X008334Y029208D01*
X008433Y029109D02*
X008554Y029109D01*
X007827Y029208D02*
X007334Y029208D01*
X007433Y029109D02*
X007729Y029109D01*
X007630Y029011D02*
X007531Y029011D01*
X007668Y027452D02*
X007820Y027300D01*
X007518Y026998D01*
X007518Y025877D01*
X007657Y025738D01*
X007657Y025738D01*
X008543Y024852D01*
X008543Y024731D01*
X008529Y024731D01*
X008529Y024256D01*
X008432Y024256D01*
X008432Y024731D01*
X008264Y024731D01*
X008226Y024721D01*
X008198Y024705D01*
X008171Y024769D01*
X008075Y024865D01*
X007949Y024917D01*
X007813Y024917D01*
X007687Y024865D01*
X007634Y024812D01*
X006983Y024812D01*
X006983Y024918D01*
X006951Y024950D01*
X006983Y024982D01*
X006983Y025666D01*
X006862Y025787D01*
X006718Y025787D01*
X006718Y026502D01*
X007668Y027452D01*
X007651Y027435D02*
X007685Y027435D01*
X007784Y027336D02*
X007553Y027336D01*
X007454Y027238D02*
X007757Y027238D01*
X007659Y027139D02*
X007356Y027139D01*
X007257Y027041D02*
X007560Y027041D01*
X007518Y026942D02*
X007159Y026942D01*
X007060Y026844D02*
X007518Y026844D01*
X007518Y026745D02*
X006962Y026745D01*
X006863Y026647D02*
X007518Y026647D01*
X007518Y026548D02*
X006765Y026548D01*
X006718Y026450D02*
X007518Y026450D01*
X007518Y026351D02*
X006718Y026351D01*
X006718Y026253D02*
X007518Y026253D01*
X007518Y026154D02*
X006718Y026154D01*
X006718Y026056D02*
X007518Y026056D01*
X007518Y025957D02*
X006718Y025957D01*
X006718Y025859D02*
X007536Y025859D01*
X007635Y025760D02*
X006889Y025760D01*
X006983Y025662D02*
X007733Y025662D01*
X007832Y025563D02*
X006983Y025563D01*
X006983Y025465D02*
X007930Y025465D01*
X008029Y025366D02*
X006983Y025366D01*
X006983Y025268D02*
X008127Y025268D01*
X008226Y025169D02*
X006983Y025169D01*
X006983Y025071D02*
X008324Y025071D01*
X008423Y024972D02*
X006973Y024972D01*
X006983Y024874D02*
X007707Y024874D01*
X008055Y024874D02*
X008521Y024874D01*
X008543Y024775D02*
X008165Y024775D01*
X008432Y024677D02*
X008529Y024677D01*
X008529Y024578D02*
X008432Y024578D01*
X008432Y024480D02*
X008529Y024480D01*
X008529Y024381D02*
X008432Y024381D01*
X008432Y024283D02*
X008529Y024283D01*
X008432Y024184D02*
X006933Y024184D01*
X006983Y024283D02*
X007692Y024283D01*
X007708Y024062D02*
X007363Y024062D01*
X007324Y024052D01*
X007290Y024032D01*
X007262Y024004D01*
X007243Y023970D01*
X007232Y023932D01*
X007232Y023764D01*
X007708Y023764D01*
X007708Y024062D01*
X007708Y023987D02*
X007805Y023987D01*
X007805Y023889D02*
X007708Y023889D01*
X007708Y023790D02*
X007805Y023790D01*
X007805Y023764D02*
X007708Y023764D01*
X007708Y023667D01*
X007232Y023667D01*
X007232Y023499D01*
X007239Y023472D01*
X007175Y023408D01*
X007175Y022842D01*
X007187Y022830D01*
X007175Y022817D01*
X007175Y022251D01*
X007187Y022239D01*
X007175Y022226D01*
X007175Y021661D01*
X007187Y021648D01*
X007175Y021636D01*
X007175Y021070D01*
X007187Y021058D01*
X007175Y021045D01*
X007175Y020480D01*
X007187Y020467D01*
X007175Y020455D01*
X007175Y019889D01*
X007239Y019825D01*
X007232Y019798D01*
X007232Y019630D01*
X007708Y019630D01*
X007708Y019533D01*
X007805Y019533D01*
X007805Y019630D01*
X008280Y019630D01*
X008280Y019798D01*
X008273Y019825D01*
X008338Y019889D01*
X008338Y020455D01*
X008325Y020467D01*
X008338Y020480D01*
X008338Y021045D01*
X008325Y021058D01*
X008338Y021070D01*
X008338Y021636D01*
X008325Y021648D01*
X008338Y021661D01*
X008338Y022226D01*
X008325Y022239D01*
X008338Y022251D01*
X008338Y022817D01*
X008325Y022830D01*
X008338Y022842D01*
X008338Y023408D01*
X008273Y023472D01*
X008280Y023499D01*
X008280Y023667D01*
X007805Y023667D01*
X007805Y023764D01*
X007805Y023692D02*
X008234Y023692D01*
X008280Y023593D02*
X008627Y023593D01*
X008529Y023692D02*
X008432Y023692D01*
X008432Y023790D02*
X008529Y023790D01*
X008529Y023889D02*
X008432Y023889D01*
X008432Y023987D02*
X008529Y023987D01*
X008529Y024086D02*
X008432Y024086D01*
X008134Y024086D02*
X006106Y024086D01*
X006028Y024184D02*
X006007Y024184D01*
X006204Y023987D02*
X007252Y023987D01*
X007232Y023889D02*
X006303Y023889D01*
X006393Y023790D02*
X007232Y023790D01*
X007232Y023593D02*
X006393Y023593D01*
X006393Y023495D02*
X007233Y023495D01*
X007175Y023396D02*
X006393Y023396D01*
X006393Y023298D02*
X007175Y023298D01*
X007175Y023199D02*
X006393Y023199D01*
X006393Y023101D02*
X007175Y023101D01*
X007175Y023002D02*
X006393Y023002D01*
X006393Y022904D02*
X007175Y022904D01*
X007175Y022805D02*
X006393Y022805D01*
X006393Y022707D02*
X007175Y022707D01*
X007175Y022608D02*
X006393Y022608D01*
X006393Y022510D02*
X007175Y022510D01*
X007175Y022411D02*
X006393Y022411D01*
X006393Y022313D02*
X007175Y022313D01*
X007175Y022214D02*
X006393Y022214D01*
X006393Y022116D02*
X007175Y022116D01*
X007175Y022017D02*
X006393Y022017D01*
X006393Y021919D02*
X007175Y021919D01*
X007175Y021820D02*
X006393Y021820D01*
X006393Y021722D02*
X007175Y021722D01*
X007175Y021623D02*
X006393Y021623D01*
X006393Y021525D02*
X007175Y021525D01*
X007175Y021426D02*
X006393Y021426D01*
X006393Y021328D02*
X007175Y021328D01*
X007175Y021229D02*
X006393Y021229D01*
X006393Y021131D02*
X007175Y021131D01*
X007175Y021032D02*
X006393Y021032D01*
X006393Y020934D02*
X007175Y020934D01*
X007175Y020835D02*
X006393Y020835D01*
X006393Y020737D02*
X007175Y020737D01*
X007175Y020638D02*
X006393Y020638D01*
X006393Y020540D02*
X007175Y020540D01*
X007175Y020441D02*
X006393Y020441D01*
X006393Y020343D02*
X007175Y020343D01*
X007175Y020244D02*
X006393Y020244D01*
X006393Y020146D02*
X007175Y020146D01*
X007175Y020047D02*
X006393Y020047D01*
X006393Y019949D02*
X007175Y019949D01*
X007214Y019850D02*
X006393Y019850D01*
X006393Y019752D02*
X007232Y019752D01*
X007232Y019653D02*
X006393Y019653D01*
X006393Y019555D02*
X007708Y019555D01*
X007708Y019533D02*
X007232Y019533D01*
X007232Y019365D01*
X007243Y019327D01*
X007262Y019293D01*
X007290Y019265D01*
X007324Y019245D01*
X007363Y019235D01*
X007708Y019235D01*
X007708Y019533D01*
X007708Y019456D02*
X007805Y019456D01*
X007805Y019533D02*
X007805Y019235D01*
X008134Y019235D01*
X008134Y019098D01*
X008432Y019098D01*
X008432Y019574D01*
X008264Y019574D01*
X008226Y019564D01*
X008192Y019544D01*
X008181Y019533D01*
X007805Y019533D01*
X007805Y019555D02*
X008210Y019555D01*
X008280Y019653D02*
X008818Y019653D01*
X008818Y019752D02*
X008280Y019752D01*
X008299Y019850D02*
X008818Y019850D01*
X008818Y019949D02*
X008338Y019949D01*
X008338Y020047D02*
X008818Y020047D01*
X008818Y020146D02*
X008338Y020146D01*
X008338Y020244D02*
X008818Y020244D01*
X008818Y020343D02*
X008338Y020343D01*
X008338Y020441D02*
X008818Y020441D01*
X008818Y020540D02*
X008338Y020540D01*
X008338Y020638D02*
X008818Y020638D01*
X008818Y020737D02*
X008338Y020737D01*
X008338Y020835D02*
X008818Y020835D01*
X008818Y020934D02*
X008338Y020934D01*
X008338Y021032D02*
X008818Y021032D01*
X008818Y021131D02*
X008338Y021131D01*
X008338Y021229D02*
X008818Y021229D01*
X008818Y021328D02*
X008338Y021328D01*
X008338Y021426D02*
X008818Y021426D01*
X008818Y021525D02*
X008338Y021525D01*
X008338Y021623D02*
X008818Y021623D01*
X008818Y021722D02*
X008338Y021722D01*
X008338Y021820D02*
X008818Y021820D01*
X008818Y021919D02*
X008338Y021919D01*
X008338Y022017D02*
X008818Y022017D01*
X008818Y022116D02*
X008338Y022116D01*
X008338Y022214D02*
X008818Y022214D01*
X008818Y022313D02*
X008338Y022313D01*
X008338Y022411D02*
X008818Y022411D01*
X008818Y022510D02*
X008338Y022510D01*
X008338Y022608D02*
X008818Y022608D01*
X008818Y022707D02*
X008338Y022707D01*
X008338Y022805D02*
X008818Y022805D01*
X008818Y022904D02*
X008338Y022904D01*
X008338Y023002D02*
X008818Y023002D01*
X008818Y023101D02*
X008338Y023101D01*
X008338Y023199D02*
X008818Y023199D01*
X008818Y023298D02*
X008338Y023298D01*
X008338Y023396D02*
X008818Y023396D01*
X008725Y023495D02*
X008279Y023495D01*
X007708Y023692D02*
X006393Y023692D01*
X005918Y023593D02*
X004323Y023593D01*
X004368Y023495D02*
X005918Y023495D01*
X005918Y023396D02*
X004368Y023396D01*
X004368Y023298D02*
X005918Y023298D01*
X005918Y023199D02*
X004368Y023199D01*
X004368Y023101D02*
X005918Y023101D01*
X005918Y023002D02*
X004368Y023002D01*
X004368Y022904D02*
X005918Y022904D01*
X005918Y022805D02*
X004368Y022805D01*
X004368Y022707D02*
X005918Y022707D01*
X005918Y022608D02*
X004368Y022608D01*
X004368Y022510D02*
X005918Y022510D01*
X005918Y022411D02*
X004368Y022411D01*
X004368Y022313D02*
X005918Y022313D01*
X005918Y022214D02*
X004368Y022214D01*
X004368Y022116D02*
X005918Y022116D01*
X005918Y022017D02*
X004368Y022017D01*
X004531Y021919D02*
X005918Y021919D01*
X005918Y021820D02*
X004618Y021820D01*
X004618Y021722D02*
X005918Y021722D01*
X005918Y021623D02*
X004618Y021623D01*
X004618Y021525D02*
X005918Y021525D01*
X005918Y021426D02*
X004618Y021426D01*
X004618Y021328D02*
X005918Y021328D01*
X005918Y021229D02*
X004618Y021229D01*
X004618Y021131D02*
X005918Y021131D01*
X005918Y020638D02*
X005321Y020638D01*
X005551Y020540D02*
X005918Y020540D01*
X005918Y020441D02*
X005650Y020441D01*
X005748Y020343D02*
X005918Y020343D01*
X005918Y020244D02*
X005808Y020244D01*
X005849Y020146D02*
X005918Y020146D01*
X005918Y020047D02*
X005890Y020047D01*
X005909Y019949D02*
X005918Y019949D01*
X005909Y019850D02*
X005918Y019850D01*
X005909Y019752D02*
X005918Y019752D01*
X005918Y019653D02*
X005902Y019653D01*
X005918Y019555D02*
X005861Y019555D01*
X005821Y019456D02*
X005918Y019456D01*
X005918Y019358D02*
X005778Y019358D01*
X005680Y019259D02*
X005918Y019259D01*
X005918Y019161D02*
X005581Y019161D01*
X005393Y019062D02*
X005918Y019062D01*
X006393Y019062D02*
X008432Y019062D01*
X008432Y018964D02*
X008529Y018964D01*
X008529Y018865D02*
X008432Y018865D01*
X008432Y018767D02*
X008529Y018767D01*
X008529Y018668D02*
X008432Y018668D01*
X008432Y018570D02*
X008529Y018570D01*
X008178Y018570D02*
X006622Y018570D01*
X006524Y018668D02*
X008134Y018668D01*
X008134Y018767D02*
X006425Y018767D01*
X006393Y018865D02*
X008134Y018865D01*
X008134Y018964D02*
X006393Y018964D01*
X006393Y019161D02*
X008134Y019161D01*
X007805Y019259D02*
X007708Y019259D01*
X007708Y019358D02*
X007805Y019358D01*
X007300Y019259D02*
X006393Y019259D01*
X006393Y019358D02*
X007234Y019358D01*
X007232Y019456D02*
X006393Y019456D01*
X006721Y018471D02*
X008786Y018471D01*
X009357Y018471D02*
X009376Y018471D01*
X009627Y018373D02*
X006819Y018373D01*
X006918Y018274D02*
X009672Y018274D01*
X009784Y018176D02*
X007016Y018176D01*
X008432Y019161D02*
X008529Y019161D01*
X008529Y019259D02*
X008432Y019259D01*
X008432Y019358D02*
X008529Y019358D01*
X008529Y019456D02*
X008432Y019456D01*
X008432Y019555D02*
X008529Y019555D01*
X009594Y017191D02*
X009604Y017191D01*
X010128Y018176D02*
X018643Y018176D01*
X011326Y010099D02*
X011036Y010099D01*
X011134Y010000D02*
X011227Y010000D01*
X011218Y009902D02*
X011143Y009902D01*
X011143Y009803D02*
X011218Y009803D01*
X011218Y009705D02*
X011143Y009705D01*
X011143Y009606D02*
X011218Y009606D01*
X011218Y009508D02*
X011143Y009508D01*
X011143Y009409D02*
X011218Y009409D01*
X011218Y009311D02*
X011143Y009311D01*
X011143Y009212D02*
X011218Y009212D01*
X011218Y009114D02*
X011143Y009114D01*
X011049Y009015D02*
X011312Y009015D01*
X011208Y004189D02*
X011098Y004189D01*
X011098Y004090D02*
X011110Y004090D01*
X011162Y003105D02*
X011921Y003105D01*
X011921Y003007D02*
X011260Y003007D01*
X011359Y002908D02*
X011921Y002908D01*
X011921Y002810D02*
X011457Y002810D01*
X011556Y002711D02*
X011921Y002711D01*
X011921Y002613D02*
X011654Y002613D01*
X011753Y002514D02*
X011929Y002514D01*
X011851Y002416D02*
X012041Y002416D01*
X012336Y002416D02*
X012436Y002416D01*
X012436Y002514D02*
X012336Y002514D01*
X012336Y002613D02*
X012436Y002613D01*
X012436Y002711D02*
X012336Y002711D01*
X012336Y002810D02*
X012436Y002810D01*
X012436Y002908D02*
X012336Y002908D01*
X012336Y003007D02*
X012436Y003007D01*
X012436Y003105D02*
X012336Y003105D01*
X011179Y002416D02*
X011036Y002416D01*
X012705Y001234D02*
X012805Y001234D01*
X012805Y001135D02*
X012705Y001135D01*
X012705Y001037D02*
X012805Y001037D01*
X012805Y000938D02*
X012705Y000938D01*
X007793Y008621D02*
X006288Y008621D01*
X006386Y008720D02*
X007793Y008720D01*
X007793Y008818D02*
X006485Y008818D01*
X006583Y008917D02*
X007793Y008917D01*
X007793Y009015D02*
X006682Y009015D01*
X006780Y009114D02*
X007793Y009114D01*
X007793Y009212D02*
X006879Y009212D01*
X006977Y009311D02*
X007793Y009311D01*
X007793Y009409D02*
X007076Y009409D01*
X007143Y009508D02*
X007793Y009508D01*
X007793Y009606D02*
X007143Y009606D01*
X007143Y009705D02*
X007793Y009705D01*
X007793Y009803D02*
X007143Y009803D01*
X007143Y009902D02*
X007793Y009902D01*
X007793Y010000D02*
X007143Y010000D01*
X007143Y010099D02*
X007793Y010099D01*
X007793Y010197D02*
X007143Y010197D01*
X007143Y010296D02*
X007793Y010296D01*
X007793Y010394D02*
X007143Y010394D01*
X007327Y010493D02*
X007635Y010493D01*
X007536Y010591D02*
X007425Y010591D01*
X007443Y010690D02*
X007518Y010690D01*
X007518Y010788D02*
X007443Y010788D01*
X007443Y010887D02*
X007518Y010887D01*
X007518Y010985D02*
X007443Y010985D01*
X007443Y011084D02*
X007518Y011084D01*
X007518Y011182D02*
X007443Y011182D01*
X007443Y011281D02*
X007518Y011281D01*
X007518Y011379D02*
X007443Y011379D01*
X007443Y011478D02*
X007518Y011478D01*
X007603Y011576D02*
X007358Y011576D01*
X007168Y011675D02*
X007818Y011675D01*
X007818Y011773D02*
X007168Y011773D01*
X007168Y011872D02*
X007818Y011872D01*
X007818Y011970D02*
X007168Y011970D01*
X007168Y012069D02*
X007818Y012069D01*
X007818Y012167D02*
X007168Y012167D01*
X007500Y012266D02*
X007662Y012266D01*
X007618Y012364D02*
X007543Y012364D01*
X007543Y012463D02*
X007618Y012463D01*
X007618Y012561D02*
X007543Y012561D01*
X007543Y012660D02*
X007618Y012660D01*
X007618Y012758D02*
X007543Y012758D01*
X007543Y012857D02*
X007618Y012857D01*
X007618Y012955D02*
X007543Y012955D01*
X007543Y013054D02*
X007618Y013054D01*
X007618Y013152D02*
X007543Y013152D01*
X007484Y013251D02*
X007678Y013251D01*
X007893Y013349D02*
X007268Y013349D01*
X007268Y013448D02*
X007893Y013448D01*
X007893Y013546D02*
X007268Y013546D01*
X007268Y013645D02*
X007893Y013645D01*
X007893Y013743D02*
X007268Y013743D01*
X007268Y013842D02*
X007893Y013842D01*
X007893Y013940D02*
X007268Y013940D01*
X007473Y014039D02*
X007689Y014039D01*
X007618Y014137D02*
X007543Y014137D01*
X007543Y014236D02*
X007618Y014236D01*
X007618Y014334D02*
X007543Y014334D01*
X007549Y014433D02*
X007618Y014433D01*
X006793Y013940D02*
X005930Y013940D01*
X005930Y013842D02*
X006793Y013842D01*
X006793Y013743D02*
X005930Y013743D01*
X005930Y013645D02*
X006793Y013645D01*
X006793Y013546D02*
X005930Y013546D01*
X005930Y013448D02*
X006793Y013448D01*
X006793Y013349D02*
X005930Y013349D01*
X005930Y013251D02*
X006558Y013251D01*
X006498Y013152D02*
X005930Y013152D01*
X005930Y013054D02*
X006498Y013054D01*
X006498Y012955D02*
X005849Y012955D01*
X006498Y012857D02*
X003285Y012857D01*
X003312Y012955D02*
X003187Y012955D01*
X003231Y013054D02*
X003088Y013054D01*
X002993Y013152D02*
X003231Y013152D01*
X003231Y013251D02*
X002993Y013251D01*
X002993Y013349D02*
X003231Y013349D01*
X003231Y013448D02*
X002993Y013448D01*
X002993Y013546D02*
X003231Y013546D01*
X003231Y013645D02*
X002993Y013645D01*
X002993Y013743D02*
X003231Y013743D01*
X003231Y013842D02*
X002993Y013842D01*
X002993Y013940D02*
X003231Y013940D01*
X003231Y014039D02*
X002993Y014039D01*
X002993Y014137D02*
X003231Y014137D01*
X003231Y014236D02*
X002993Y014236D01*
X002993Y014334D02*
X003231Y014334D01*
X003231Y014433D02*
X002993Y014433D01*
X002993Y014531D02*
X003231Y014531D01*
X003231Y014630D02*
X002993Y014630D01*
X002993Y014728D02*
X003231Y014728D01*
X003231Y014827D02*
X002993Y014827D01*
X002993Y014925D02*
X003231Y014925D01*
X003231Y015024D02*
X002993Y015024D01*
X002993Y015122D02*
X003231Y015122D01*
X003231Y015221D02*
X002993Y015221D01*
X002993Y015319D02*
X003231Y015319D01*
X003231Y015418D02*
X002993Y015418D01*
X002993Y015516D02*
X003231Y015516D01*
X003231Y015615D02*
X002993Y015615D01*
X002993Y015713D02*
X003231Y015713D01*
X003231Y015812D02*
X002993Y015812D01*
X002993Y015910D02*
X003231Y015910D01*
X003231Y016009D02*
X002993Y016009D01*
X002993Y016107D02*
X003231Y016107D01*
X003231Y016206D02*
X002993Y016206D01*
X002993Y016304D02*
X003231Y016304D01*
X003231Y016403D02*
X002993Y016403D01*
X002993Y016501D02*
X003297Y016501D01*
X005930Y015516D02*
X006336Y015516D01*
X006237Y015418D02*
X005930Y015418D01*
X005930Y015319D02*
X006139Y015319D01*
X006040Y015221D02*
X005930Y015221D01*
X005930Y015122D02*
X005942Y015122D01*
X006220Y014728D02*
X006498Y014728D01*
X006498Y014630D02*
X006121Y014630D01*
X006023Y014531D02*
X006498Y014531D01*
X006498Y014433D02*
X005930Y014433D01*
X005930Y014334D02*
X006498Y014334D01*
X006498Y014236D02*
X005930Y014236D01*
X005930Y014137D02*
X006498Y014137D01*
X006569Y014039D02*
X005930Y014039D01*
X006318Y014827D02*
X006498Y014827D01*
X006498Y014925D02*
X006417Y014925D01*
X006515Y015024D02*
X006531Y015024D01*
X006668Y010197D02*
X000688Y010197D01*
X000688Y010099D02*
X006668Y010099D01*
X006668Y010000D02*
X000688Y010000D01*
X000688Y009902D02*
X006668Y009902D01*
X006668Y009803D02*
X000688Y009803D01*
X000688Y009705D02*
X006668Y009705D01*
X006601Y009606D02*
X000688Y009606D01*
X000688Y009508D02*
X006502Y009508D01*
X006404Y009409D02*
X000688Y009409D01*
X000688Y009311D02*
X006305Y009311D01*
X006207Y009212D02*
X000688Y009212D01*
X000688Y009114D02*
X006108Y009114D01*
X006189Y008523D02*
X006618Y008523D01*
X006531Y008424D02*
X006091Y008424D01*
X005992Y008326D02*
X006531Y008326D01*
X006531Y008227D02*
X005894Y008227D01*
X005795Y008129D02*
X006531Y008129D01*
X006531Y008030D02*
X005697Y008030D01*
X005598Y007932D02*
X006531Y007932D01*
X006531Y007833D02*
X005500Y007833D01*
X005430Y007735D02*
X006531Y007735D01*
X006531Y007636D02*
X005430Y007636D01*
X005430Y007538D02*
X006531Y007538D01*
X006531Y007439D02*
X005430Y007439D01*
X005430Y007341D02*
X006531Y007341D01*
X006531Y007242D02*
X005430Y007242D01*
X005430Y007144D02*
X006531Y007144D01*
X006531Y007045D02*
X005430Y007045D01*
X005430Y006947D02*
X006531Y006947D01*
X006531Y006848D02*
X005430Y006848D01*
X005430Y006750D02*
X006531Y006750D01*
X006531Y006651D02*
X005430Y006651D01*
X005430Y006553D02*
X006531Y006553D01*
X006531Y006454D02*
X005430Y006454D01*
X005430Y006356D02*
X006531Y006356D01*
X006531Y006257D02*
X005430Y006257D01*
X005430Y006159D02*
X006531Y006159D01*
X006531Y006060D02*
X005430Y006060D01*
X005430Y005962D02*
X006531Y005962D01*
X006531Y005863D02*
X005430Y005863D01*
X005430Y005765D02*
X006531Y005765D01*
X006531Y005666D02*
X005430Y005666D01*
X005430Y005568D02*
X006531Y005568D01*
X006531Y005469D02*
X005430Y005469D01*
X005430Y005371D02*
X006531Y005371D01*
X006531Y005272D02*
X005430Y005272D01*
X005430Y005174D02*
X006531Y005174D01*
X006531Y005075D02*
X005430Y005075D01*
X005371Y004977D02*
X006591Y004977D01*
X006516Y004287D02*
X005322Y004287D01*
X005321Y004287D02*
X005036Y004287D01*
X004936Y004287D01*
X004652Y004287D01*
X004613Y004277D01*
X004579Y004257D01*
X004551Y004230D01*
X004531Y004195D01*
X004521Y004157D01*
X004521Y003400D01*
X004936Y003400D01*
X004936Y003300D01*
X004521Y003300D01*
X004521Y002543D01*
X004531Y002505D01*
X004551Y002470D01*
X004579Y002443D01*
X004613Y002423D01*
X004652Y002413D01*
X004936Y002413D01*
X004936Y003300D01*
X005036Y003300D01*
X005036Y002413D01*
X005321Y002413D01*
X005359Y002423D01*
X005393Y002443D01*
X005421Y002470D01*
X005441Y002505D01*
X005451Y002543D01*
X005451Y003300D01*
X005036Y003300D01*
X005036Y003400D01*
X004936Y003400D01*
X004936Y004287D01*
X004936Y004189D02*
X005036Y004189D01*
X005036Y004287D02*
X005036Y003400D01*
X005451Y003400D01*
X005451Y004157D01*
X005441Y004195D01*
X005421Y004230D01*
X005393Y004257D01*
X005359Y004277D01*
X005321Y004287D01*
X005443Y004189D02*
X006453Y004189D01*
X006453Y004090D02*
X005451Y004090D01*
X005451Y003992D02*
X006453Y003992D01*
X006453Y003893D02*
X005451Y003893D01*
X005451Y003795D02*
X006453Y003795D01*
X006453Y003696D02*
X005451Y003696D01*
X005451Y003598D02*
X006453Y003598D01*
X006453Y003499D02*
X005451Y003499D01*
X005451Y003401D02*
X006453Y003401D01*
X006453Y003302D02*
X005036Y003302D01*
X005036Y003204D02*
X004936Y003204D01*
X004936Y003302D02*
X003698Y003302D01*
X003698Y003204D02*
X004521Y003204D01*
X004521Y003105D02*
X003698Y003105D01*
X003785Y003007D02*
X004521Y003007D01*
X004521Y002908D02*
X003884Y002908D01*
X003982Y002810D02*
X004521Y002810D01*
X004521Y002711D02*
X004081Y002711D01*
X004179Y002613D02*
X004521Y002613D01*
X004529Y002514D02*
X004278Y002514D01*
X004376Y002416D02*
X004641Y002416D01*
X004936Y002416D02*
X005036Y002416D01*
X005036Y002514D02*
X004936Y002514D01*
X004936Y002613D02*
X005036Y002613D01*
X005036Y002711D02*
X004936Y002711D01*
X004936Y002810D02*
X005036Y002810D01*
X005036Y002908D02*
X004936Y002908D01*
X004936Y003007D02*
X005036Y003007D01*
X005036Y003105D02*
X004936Y003105D01*
X004936Y003401D02*
X005036Y003401D01*
X005036Y003499D02*
X004936Y003499D01*
X004936Y003598D02*
X005036Y003598D01*
X005036Y003696D02*
X004936Y003696D01*
X004936Y003795D02*
X005036Y003795D01*
X005036Y003893D02*
X004936Y003893D01*
X004936Y003992D02*
X005036Y003992D01*
X005036Y004090D02*
X004936Y004090D01*
X004650Y004287D02*
X003634Y004287D01*
X003902Y004189D02*
X004530Y004189D01*
X004521Y004090D02*
X003998Y004090D01*
X004039Y003992D02*
X004521Y003992D01*
X004521Y003893D02*
X004048Y003893D01*
X004033Y003795D02*
X004521Y003795D01*
X004521Y003696D02*
X003986Y003696D01*
X003870Y003598D02*
X004521Y003598D01*
X004521Y003499D02*
X003698Y003499D01*
X003698Y003401D02*
X004521Y003401D01*
X003704Y002416D02*
X003636Y002416D01*
X003803Y002317D02*
X000688Y002317D01*
X000688Y002219D02*
X003901Y002219D01*
X004394Y001726D02*
X002316Y001726D01*
X002357Y001628D02*
X004492Y001628D01*
X004591Y001529D02*
X002397Y001529D01*
X002409Y001431D02*
X004689Y001431D01*
X004743Y001332D02*
X002409Y001332D01*
X002409Y001234D02*
X004743Y001234D01*
X004743Y001135D02*
X002395Y001135D01*
X002354Y001037D02*
X004743Y001037D01*
X004743Y000938D02*
X002313Y000938D01*
X002260Y000840D02*
X004773Y000840D01*
X005905Y000840D02*
X006005Y000840D01*
X006005Y000938D02*
X005905Y000938D01*
X005905Y001037D02*
X006005Y001037D01*
X006005Y001135D02*
X005905Y001135D01*
X005332Y002416D02*
X006514Y002416D01*
X006453Y002514D02*
X005443Y002514D01*
X005451Y002613D02*
X006453Y002613D01*
X006453Y002711D02*
X005451Y002711D01*
X005451Y002810D02*
X006453Y002810D01*
X006453Y002908D02*
X005451Y002908D01*
X005451Y003007D02*
X006453Y003007D01*
X006453Y003105D02*
X005451Y003105D01*
X005451Y003204D02*
X006453Y003204D01*
X005517Y008523D02*
X005343Y008523D01*
X003235Y010394D02*
X002843Y010394D01*
X002883Y010493D02*
X003153Y010493D01*
X010538Y018471D02*
X010558Y018471D01*
X011128Y018471D02*
X011148Y018471D01*
X008134Y024283D02*
X008070Y024283D01*
X008444Y025623D02*
X007993Y026073D01*
X007993Y026802D01*
X008304Y027113D01*
X008329Y027113D01*
X008668Y027452D01*
X008872Y027247D01*
X009289Y027247D01*
X009581Y027539D01*
X009832Y027287D01*
X009497Y026952D01*
X009497Y026953D01*
X008813Y026953D01*
X008736Y026876D01*
X008720Y026885D01*
X008682Y026895D01*
X008457Y026895D01*
X008457Y026500D01*
X008357Y026500D01*
X008357Y026895D01*
X008131Y026895D01*
X008093Y026885D01*
X008059Y026865D01*
X008031Y026837D01*
X008011Y026803D01*
X008001Y026765D01*
X008001Y026500D01*
X008357Y026500D01*
X008357Y026400D01*
X008457Y026400D01*
X008457Y026005D01*
X008682Y026005D01*
X008720Y026015D01*
X008736Y026024D01*
X008813Y025947D01*
X008893Y025947D01*
X008893Y025647D01*
X008875Y025665D01*
X008749Y025717D01*
X008613Y025717D01*
X008487Y025665D01*
X008444Y025623D01*
X008405Y025662D02*
X008483Y025662D01*
X008306Y025760D02*
X008893Y025760D01*
X008893Y025662D02*
X008878Y025662D01*
X008893Y025859D02*
X008208Y025859D01*
X008109Y025957D02*
X008803Y025957D01*
X008457Y026056D02*
X008357Y026056D01*
X008357Y026005D02*
X008357Y026400D01*
X008001Y026400D01*
X008001Y026135D01*
X008011Y026097D01*
X008031Y026063D01*
X008059Y026035D01*
X008093Y026015D01*
X008131Y026005D01*
X008357Y026005D01*
X008357Y026154D02*
X008457Y026154D01*
X008457Y026253D02*
X008357Y026253D01*
X008357Y026351D02*
X008457Y026351D01*
X008357Y026450D02*
X007993Y026450D01*
X007993Y026548D02*
X008001Y026548D01*
X007993Y026647D02*
X008001Y026647D01*
X007993Y026745D02*
X008001Y026745D01*
X008035Y026844D02*
X008037Y026844D01*
X008134Y026942D02*
X008802Y026942D01*
X008784Y027336D02*
X008553Y027336D01*
X008651Y027435D02*
X008685Y027435D01*
X008454Y027238D02*
X009782Y027238D01*
X009784Y027336D02*
X009378Y027336D01*
X009476Y027435D02*
X009685Y027435D01*
X009587Y027533D02*
X009575Y027533D01*
X009684Y027139D02*
X008356Y027139D01*
X008232Y027041D02*
X009585Y027041D01*
X008457Y026844D02*
X008357Y026844D01*
X008357Y026745D02*
X008457Y026745D01*
X008457Y026647D02*
X008357Y026647D01*
X008357Y026548D02*
X008457Y026548D01*
X008001Y026351D02*
X007993Y026351D01*
X007993Y026253D02*
X008001Y026253D01*
X007993Y026154D02*
X008001Y026154D01*
X008011Y026056D02*
X008038Y026056D01*
X005730Y023790D02*
X004283Y023790D01*
X004283Y023889D02*
X005631Y023889D01*
X005533Y023987D02*
X004268Y023987D01*
X004227Y024086D02*
X005493Y024086D01*
X005493Y024184D02*
X004158Y024184D01*
X004050Y024283D02*
X005493Y024283D01*
X005828Y023692D02*
X004259Y023692D01*
X003829Y024480D02*
X003732Y024480D01*
X003732Y024578D02*
X003829Y024578D01*
X003829Y024677D02*
X003732Y024677D01*
X003732Y024775D02*
X003829Y024775D01*
X003533Y024480D02*
X002993Y024480D01*
X002993Y024578D02*
X003428Y024578D01*
X003369Y024677D02*
X002993Y024677D01*
X003067Y024775D02*
X003342Y024775D01*
X003193Y027533D02*
X001823Y027533D01*
X002052Y027632D02*
X003193Y027632D01*
X003193Y027730D02*
X002151Y027730D01*
X002249Y027829D02*
X002984Y027829D01*
X002943Y027927D02*
X002309Y027927D01*
X002349Y028026D02*
X002943Y028026D01*
X002943Y028124D02*
X002390Y028124D01*
X002409Y028223D02*
X002943Y028223D01*
X002943Y028321D02*
X002409Y028321D01*
X002409Y028420D02*
X002943Y028420D01*
X002943Y028518D02*
X002402Y028518D01*
X002361Y028617D02*
X002943Y028617D01*
X003027Y028715D02*
X002320Y028715D01*
X004105Y028124D02*
X004205Y028124D01*
X004205Y028026D02*
X004105Y028026D01*
X004105Y027927D02*
X004205Y027927D01*
X004205Y027829D02*
X004105Y027829D01*
M02*
