M48
INCH,LZ
T01F00S00C0.008
T02F00S00C0.012
T03F00S00C0.014
T04F00S00C0.020
T05F00S00C0.125
%
T01
X+0408Y+1113
Y+1141
Y+0993
Y+1021
Y+0901
Y+0873
X+041Y+11325
Y+11015
Y+1104
Y+11305
Y+10125
Y+09815
Y+0984
Y+10105
Y+08905
Y+0864
Y+08615
Y+08925
X+04105Y+1113
Y+11375
Y+0993
Y+10175
Y+08975
Y+0873
X+0411Y+1134
Y+1014
Y+0894
X+04125Y+1095
Y+0975
Y+0855
X+0413Y+1134
Y+1014
Y+0894
X+04165Y+11755
Y+10555
Y+09355
X+0418Y+10985
Y+1104
Y+1106
Y+1108
Y+111
Y+1112
Y+1114
Y+1116
Y+1118
Y+11215
Y+09785
Y+0984
Y+0986
Y+0988
Y+099
Y+0992
Y+0994
Y+0996
Y+0998
Y+10015
Y+08815
Y+0878
Y+0876
Y+0874
Y+0872
Y+087
Y+0868
Y+0866
Y+0864
Y+08585
X+0419Y+11275
Y+11755
Y+10075
Y+10555
Y+09355
Y+08875
X+04195Y+11195
Y+1123
Y+09995
Y+1003
Y+0883
Y+08795
X+042Y+11405
Y+10205
Y+09005
X+04205Y+11005
Y+1138
Y+09805
Y+1018
Y+0898
Y+08605
X+0421Y+1134
Y+1014
Y+0894
X+04215Y+1123
Y+1003
Y+0883
X+04225Y+11005
Y+11635
Y+09805
Y+10435
Y+09235
Y+08605
X+04235Y+1099
Y+0979
Y+0859
X+0424Y+11275
Y+10075
Y+08875
X+04245Y+1121
Y+1117
Y+1105
Y+1109
Y+1113
Y+1001
Y+0997
Y+0985
Y+0989
Y+0993
Y+0873
Y+0869
Y+0865
Y+0877
Y+0881
X+0425Y+1102
Y+0982
Y+0862
X+04255Y+1152
Y+1032
Y+0912
X+0426Y+11275
Y+10075
Y+08875
X+04265Y+10995
Y+11345
Y+09795
Y+10145
Y+08945
Y+08595
X+0427Y+1102
Y+116
Y+1156
Y+1162
Y+0982
Y+104
Y+1036
Y+1042
Y+0922
Y+0916
Y+092
Y+0862
X+0428Y+11275
Y+1125
Y+10075
Y+1005
Y+0885
Y+08875
X+04285Y+1173
Y+1117
Y+1121
Y+1105
Y+1109
Y+1113
Y+1053
Y+0997
Y+1001
Y+0985
Y+0989
Y+0993
Y+0873
Y+0869
Y+0865
Y+0881
Y+0877
Y+0933
X+04295Y+11345
Y+10145
Y+08945
X+043Y+1102
Y+1158
Y+1154
Y+115
Y+1147
Y+0982
Y+1038
Y+1034
Y+103
Y+1027
Y+0907
Y+091
Y+0914
Y+0918
Y+0862
X+04305Y+1125
Y+1005
Y+0885
X+0432Y+1102
Y+0982
Y+0862
X+04325Y+1121
Y+1117
Y+1105
Y+1109
Y+1113
Y+1128
Y+1175
Y+1001
Y+0997
Y+0985
Y+0989
Y+0993
Y+1008
Y+1055
Y+0935
Y+0888
Y+0873
Y+0869
Y+0865
Y+0877
Y+0881
X+04335Y+10995
Y+09795
Y+08595
X+04345Y+1168
Y+1048
Y+0928
X+0435Y+1102
Y+0982
Y+0862
X+0436Y+1177
Y+1057
Y+0937
X+04365Y+11005
Y+1113
Y+1117
Y+1121
Y+1105
Y+1109
Y+09805
Y+0993
Y+0997
Y+1001
Y+0985
Y+0989
Y+0869
Y+0865
Y+0881
Y+0877
Y+0873
Y+08605
X+04375Y+1138
Y+11275
Y+1018
Y+10075
Y+08875
Y+0898
X+0438Y+1102
Y+0982
Y+0862
X+04385Y+1172
Y+1052
Y+0932
X+0439Y+1135
Y+1015
Y+0895
X+04395Y+11005
Y+1138
Y+09805
Y+1018
Y+0898
Y+08605
X+044Y+11625
Y+1155
Y+11475
Y+10425
Y+1035
Y+10275
Y+09075
Y+0915
Y+09225
X+04405Y+1121
Y+1117
Y+1113
Y+1105
Y+1109
Y+1001
Y+0997
Y+0993
Y+0985
Y+0989
Y+0869
Y+0865
Y+0873
Y+0877
Y+0881
X+0441Y+1102
Y+0982
Y+0862
X+04415Y+1138
Y+1018
Y+0898
X+04425Y+1172
Y+1101
Y+1052
Y+0981
Y+0861
Y+0932
X+0443Y+1103
Y+1128
Y+0983
Y+1008
Y+0888
Y+0863
X+04445Y+11005
Y+1116
Y+09805
Y+0996
Y+0876
Y+08605
X+04446Y+11219
Y+10019
Y+08819
X+04455Y+1128
Y+111
Y+1112
Y+1008
Y+099
Y+0992
Y+0872
Y+087
Y+0888
X+0446Y+1124
Y+1004
Y+0884
X+04465Y+11005
Y+09805
Y+08605
X+0447Y+1172
Y+1052
Y+0932
X+04475Y+112
Y+11625
Y+1155
Y+11475
Y+1128
Y+1
Y+10425
Y+1035
Y+10275
Y+1008
Y+0888
Y+09075
Y+0915
Y+09225
Y+088
X+04485Y+1138
Y+1018
Y+0898
X+0449Y+11301
Y+10101
Y+08901
X+04505Y+11765
Y+10565
Y+09365
X+0453Y+1098
Y+0978
Y+0858
X+04535Y+11281
Y+1138
Y+10081
Y+1018
Y+0898
Y+08881
X+04545Y+11155
Y+11185
Y+1122
Y+09955
Y+09985
Y+1002
Y+0882
Y+08785
Y+08755
X+0455Y+11475
Y+1155
Y+11625
Y+10275
Y+1035
Y+10425
Y+09225
Y+0915
Y+09075
X+04555Y+1138
Y+1018
Y+0898
X+04575Y+1138
Y+1018
Y+0898
X+0459Y+1106
Y+1103
Y+0986
Y+0983
Y+0863
Y+0866
X+04625Y+1175
Y+1055
Y+0935
X+04635Y+11185
Y+1114
Y+1095
Y+09985
Y+0994
Y+0975
Y+0855
Y+0874
Y+08785
X+04675Y+11015
Y+09815
Y+08615
X+0469Y+1139
Y+1156
Y+1019
Y+1036
Y+0916
Y+0899
X+047Y+10975
Y+11195
Y+11705
Y+09775
Y+09995
Y+10505
Y+09305
Y+08795
Y+08575
X+04725Y+11025
Y+09825
Y+08625
X+04732Y+11664
Y+10464
Y+09264
X+04735Y+11475
Y+11435
Y+10275
Y+10235
Y+09035
Y+09075
X+0475Y+1093
Y+0973
Y+0853
X+04775Y+11005
Y+09805
Y+08605
X+0479Y+1125
Y+1005
Y+0885
X+04795Y+1134
Y+1014
Y+0894
X+048Y+1119
Y+11045
Y+1115
Y+0999
Y+09845
Y+0995
Y+0875
Y+08645
Y+0879
X+04818Y+1156
Y+1036
Y+0916
X+04825Y+1148
Y+11105
Y+11305
Y+11135
Y+1028
Y+09905
Y+10105
Y+09935
Y+08735
Y+08905
Y+08705
Y+0908
X+0485Y+11395
Y+11415
Y+11435
Y+10195
Y+10215
Y+10235
Y+09035
Y+09015
Y+08995
X+04865Y+1093
Y+0973
Y+0853
X+0487Y+1115
Y+1095
Y+0995
Y+0975
Y+0855
Y+0875
X+049Y+1102
Y+11115
Y+0982
Y+09915
Y+08715
Y+0862
X+0492Y+1112
Y+0992
Y+0872
X+0528Y+1113
Y+1141
Y+0993
Y+1021
Y+0873
Y+0901
X+053Y+11325
Y+11015
Y+1104
Y+11305
Y+10125
Y+09815
Y+0984
Y+10105
Y+08925
Y+08615
Y+0864
Y+08905
X+05305Y+1113
Y+11375
Y+0993
Y+10175
Y+0873
Y+08975
X+0531Y+1134
Y+1014
Y+0894
X+05325Y+1095
Y+0975
Y+0855
X+0533Y+1134
Y+1014
Y+0894
X+05365Y+11755
Y+10555
Y+09355
X+0538Y+10985
Y+1104
Y+1106
Y+1108
Y+111
Y+1112
Y+1114
Y+1116
Y+1118
Y+11215
Y+09785
Y+0984
Y+0986
Y+0988
Y+099
Y+0992
Y+0994
Y+0996
Y+0998
Y+10015
Y+08585
Y+0864
Y+0866
Y+0868
Y+087
Y+0872
Y+0874
Y+0876
Y+0878
Y+08815
X+0539Y+11275
Y+11755
Y+10075
Y+10555
Y+08875
Y+09355
X+05395Y+11195
Y+1123
Y+09995
Y+1003
Y+08795
Y+0883
X+054Y+11405
Y+10205
Y+09005
X+05405Y+11005
Y+1138
Y+09805
Y+1018
Y+08605
Y+0898
X+0541Y+1134
Y+1014
Y+0894
X+05415Y+1123
Y+1003
Y+0883
X+05425Y+11005
Y+11635
Y+09805
Y+10435
Y+08605
Y+09235
X+05435Y+1099
Y+0979
Y+0859
X+0544Y+11275
Y+10075
Y+08875
X+05445Y+1121
Y+1117
Y+1105
Y+1109
Y+1113
Y+1001
Y+0997
Y+0985
Y+0989
Y+0993
Y+0881
Y+0877
Y+0865
Y+0869
Y+0873
X+0545Y+1102
Y+0982
Y+0862
X+05455Y+1152
Y+1032
Y+0912
X+0546Y+11275
Y+10075
Y+08875
X+05465Y+10995
Y+11345
Y+09795
Y+10145
Y+08595
Y+08945
X+0547Y+1102
Y+116
Y+1156
Y+1162
Y+0982
Y+104
Y+1036
Y+1042
Y+0862
Y+092
Y+0916
Y+0922
X+0548Y+11275
Y+1125
Y+10075
Y+1005
Y+08875
Y+0885
X+05485Y+1173
Y+1117
Y+1121
Y+1105
Y+1109
Y+1113
Y+1053
Y+0997
Y+1001
Y+0985
Y+0989
Y+0993
Y+0933
Y+0877
Y+0881
Y+0865
Y+0869
Y+0873
X+05495Y+11345
Y+10145
Y+08945
X+055Y+1102
Y+1158
Y+1154
Y+115
Y+1147
Y+0982
Y+1038
Y+1034
Y+103
Y+1027
Y+0862
Y+0918
Y+0914
Y+091
Y+0907
X+05505Y+1125
Y+1005
Y+0885
X+0552Y+1102
Y+0982
Y+0862
X+05525Y+1121
Y+1117
Y+1105
Y+1109
Y+1113
Y+1128
Y+1175
Y+1001
Y+0997
Y+0985
Y+0989
Y+0993
Y+1008
Y+1055
Y+0881
Y+0877
Y+0865
Y+0869
Y+0873
Y+0888
Y+0935
X+05535Y+10995
Y+09795
Y+08595
X+05545Y+1168
Y+1048
Y+0928
X+0555Y+1102
Y+0982
Y+0862
X+0556Y+1177
Y+1057
Y+0937
X+05565Y+11005
Y+1113
Y+1117
Y+1121
Y+1105
Y+1109
Y+09805
Y+0993
Y+0997
Y+1001
Y+0985
Y+0989
Y+08605
Y+0873
Y+0877
Y+0881
Y+0865
Y+0869
X+05575Y+1138
Y+11275
Y+1018
Y+10075
Y+0898
Y+08875
X+0558Y+1102
Y+0982
Y+0862
X+05585Y+1172
Y+1052
Y+0932
X+0559Y+1135
Y+1015
Y+0895
X+05595Y+11005
Y+1138
Y+09805
Y+1018
Y+08605
Y+0898
X+056Y+11625
Y+1155
Y+11475
Y+10425
Y+1035
Y+10275
Y+09225
Y+0915
Y+09075
X+05605Y+1121
Y+1117
Y+1113
Y+1105
Y+1109
Y+1001
Y+0997
Y+0993
Y+0985
Y+0989
Y+0881
Y+0877
Y+0873
Y+0865
Y+0869
X+0561Y+1102
Y+0982
Y+0862
X+05615Y+1138
Y+1018
Y+0898
X+05625Y+1172
Y+1101
Y+1052
Y+0981
Y+0932
Y+0861
X+0563Y+1103
Y+1128
Y+0983
Y+1008
Y+0863
Y+0888
X+05645Y+11005
Y+1116
Y+09805
Y+0996
Y+08605
Y+0876
X+05646Y+11219
Y+10019
Y+08819
X+05655Y+1128
Y+111
Y+1112
Y+1008
Y+099
Y+0992
Y+0888
Y+087
Y+0872
X+0566Y+1124
Y+1004
Y+0884
X+05665Y+11005
Y+09805
Y+08605
X+0567Y+1172
Y+1052
Y+0932
X+05675Y+112
Y+11625
Y+1155
Y+11475
Y+1128
Y+1
Y+10425
Y+1035
Y+10275
Y+1008
Y+088
Y+09225
Y+0915
Y+09075
Y+0888
X+05685Y+1138
Y+1018
Y+0898
X+0569Y+11301
Y+10101
Y+08901
X+05705Y+11765
Y+10565
Y+09365
X+0573Y+1098
Y+0978
Y+0858
X+05735Y+11281
Y+1138
Y+10081
Y+1018
Y+08881
Y+0898
X+05745Y+11155
Y+11185
Y+1122
Y+09955
Y+09985
Y+1002
Y+08755
Y+08785
Y+0882
X+0575Y+11475
Y+1155
Y+11625
Y+10275
Y+1035
Y+10425
Y+09075
Y+0915
Y+09225
X+05755Y+1138
Y+1018
Y+0898
X+05775Y+1138
Y+1018
Y+0898
X+0579Y+1106
Y+1103
Y+0986
Y+0983
Y+0866
Y+0863
X+05825Y+1175
Y+1055
Y+0935
X+05835Y+11185
Y+1114
Y+1095
Y+09985
Y+0994
Y+0975
Y+08785
Y+0874
Y+0855
X+05875Y+11015
Y+09815
Y+08615
X+0589Y+1139
Y+1156
Y+1019
Y+1036
Y+0899
Y+0916
X+059Y+10975
Y+11195
Y+11705
Y+09775
Y+09995
Y+10505
Y+08575
Y+08795
Y+09305
X+05925Y+11025
Y+09825
Y+08625
X+05932Y+11664
Y+10464
Y+09264
X+05935Y+11475
Y+11435
Y+10275
Y+10235
Y+09075
Y+09035
X+0595Y+1093
Y+0973
Y+0853
X+05975Y+11005
Y+09805
Y+08605
X+0599Y+1125
Y+1005
Y+0885
X+05995Y+1134
Y+1014
Y+0894
X+06Y+1119
Y+11045
Y+1115
Y+0999
Y+09845
Y+0995
Y+0879
Y+08645
Y+0875
X+06018Y+1156
Y+1036
Y+0916
X+06025Y+1148
Y+11105
Y+11305
Y+11135
Y+1028
Y+09905
Y+10105
Y+09935
Y+0908
Y+08705
Y+08905
Y+08735
X+0605Y+11395
Y+11415
Y+11435
Y+10195
Y+10215
Y+10235
Y+08995
Y+09015
Y+09035
X+06065Y+1093
Y+0973
Y+0853
X+0607Y+1115
Y+1095
Y+0995
Y+0975
Y+0875
Y+0855
X+061Y+1102
Y+11115
Y+0982
Y+09915
Y+0862
Y+08715
X+0612Y+1112
Y+0992
Y+0872
X+0648Y+1113
Y+1141
Y+0993
Y+1021
Y+0873
Y+0901
X+065Y+11325
Y+11015
Y+1104
Y+11305
Y+10125
Y+09815
Y+0984
Y+10105
Y+08925
Y+08615
Y+0864
Y+08905
X+06505Y+1113
Y+11375
Y+0993
Y+10175
Y+0873
Y+08975
X+0651Y+1134
Y+1014
Y+0894
X+06525Y+1095
Y+0975
Y+0855
X+0653Y+1134
Y+1014
Y+0894
X+06565Y+11755
Y+10555
Y+09355
X+0658Y+10985
Y+1104
Y+1106
Y+1108
Y+111
Y+1112
Y+1114
Y+1116
Y+1118
Y+11215
Y+09785
Y+0984
Y+0986
Y+0988
Y+099
Y+0992
Y+0994
Y+0996
Y+0998
Y+10015
Y+08585
Y+0864
Y+0866
Y+0868
Y+087
Y+0872
Y+0874
Y+0876
Y+0878
Y+08815
X+0659Y+11275
Y+11755
Y+10075
Y+10555
Y+08875
Y+09355
X+06595Y+11195
Y+1123
Y+09995
Y+1003
Y+08795
Y+0883
X+066Y+11405
Y+10205
Y+09005
X+06605Y+11005
Y+1138
Y+09805
Y+1018
Y+08605
Y+0898
X+0661Y+1134
Y+1014
Y+0894
X+06615Y+1123
Y+1003
Y+0883
X+06625Y+11005
Y+11635
Y+09805
Y+10435
Y+08605
Y+09235
X+06635Y+1099
Y+0979
Y+0859
X+0664Y+11275
Y+10075
Y+08875
X+06645Y+1121
Y+1117
Y+1105
Y+1109
Y+1113
Y+1001
Y+0997
Y+0985
Y+0989
Y+0993
Y+0881
Y+0877
Y+0865
Y+0869
Y+0873
X+0665Y+1102
Y+0982
Y+0862
X+06655Y+1152
Y+1032
Y+0912
X+0666Y+11275
Y+10075
Y+08875
X+06665Y+10995
Y+11345
Y+09795
Y+10145
Y+08595
Y+08945
X+0667Y+1102
Y+116
Y+1156
Y+1162
Y+0982
Y+104
Y+1036
Y+1042
Y+0862
Y+092
Y+0916
Y+0922
X+0668Y+11275
Y+1125
Y+10075
Y+1005
Y+08875
Y+0885
X+06685Y+1173
Y+1117
Y+1121
Y+1105
Y+1109
Y+1113
Y+1053
Y+0997
Y+1001
Y+0985
Y+0989
Y+0993
Y+0933
Y+0877
Y+0881
Y+0865
Y+0869
Y+0873
X+06695Y+11345
Y+10145
Y+08945
X+067Y+1102
Y+1158
Y+1154
Y+115
Y+1147
Y+0982
Y+1038
Y+1034
Y+103
Y+1027
Y+0862
Y+0918
Y+0914
Y+091
Y+0907
X+06705Y+1125
Y+1005
Y+0885
X+0672Y+1102
Y+0982
Y+0862
X+06725Y+1121
Y+1117
Y+1105
Y+1109
Y+1113
Y+1128
Y+1175
Y+1001
Y+0997
Y+0985
Y+0989
Y+0993
Y+1008
Y+1055
Y+0881
Y+0877
Y+0865
Y+0869
Y+0873
Y+0888
Y+0935
X+06735Y+10995
Y+09795
Y+08595
X+06745Y+1168
Y+1048
Y+0928
X+0675Y+1102
Y+0982
Y+0862
X+0676Y+1177
Y+1057
Y+0937
X+06765Y+11005
Y+1113
Y+1117
Y+1121
Y+1105
Y+1109
Y+09805
Y+0993
Y+0997
Y+1001
Y+0985
Y+0989
Y+08605
Y+0873
Y+0877
Y+0881
Y+0865
Y+0869
X+06775Y+1138
Y+11275
Y+1018
Y+10075
Y+0898
Y+08875
X+0678Y+1102
Y+0982
Y+0862
X+06785Y+1172
Y+1052
Y+0932
X+0679Y+1135
Y+1015
Y+0895
X+06795Y+11005
Y+1138
Y+09805
Y+1018
Y+08605
Y+0898
X+068Y+11625
Y+1155
Y+11475
Y+10425
Y+1035
Y+10275
Y+09225
Y+0915
Y+09075
X+06805Y+1121
Y+1117
Y+1113
Y+1105
Y+1109
Y+1001
Y+0997
Y+0993
Y+0985
Y+0989
Y+0881
Y+0877
Y+0873
Y+0865
Y+0869
X+0681Y+1102
Y+0982
Y+0862
X+06815Y+1138
Y+1018
Y+0898
X+06825Y+1172
Y+1101
Y+1052
Y+0981
Y+0932
Y+0861
X+0683Y+1103
Y+1128
Y+0983
Y+1008
Y+0863
Y+0888
X+06845Y+11005
Y+1116
Y+09805
Y+0996
Y+08605
Y+0876
X+06846Y+11219
Y+10019
Y+08819
X+06855Y+1128
Y+111
Y+1112
Y+1008
Y+099
Y+0992
Y+0888
Y+087
Y+0872
X+0686Y+1124
Y+1004
Y+0884
X+06865Y+11005
Y+09805
Y+08605
X+0687Y+1172
Y+1052
Y+0932
X+06875Y+112
Y+11625
Y+1155
Y+11475
Y+1128
Y+1
Y+10425
Y+1035
Y+10275
Y+1008
Y+088
Y+09225
Y+0915
Y+09075
Y+0888
X+06885Y+1138
Y+1018
Y+0898
X+0689Y+11301
Y+10101
Y+08901
X+06905Y+11765
Y+10565
Y+09365
X+0693Y+1098
Y+0978
Y+0858
X+06935Y+11281
Y+1138
Y+10081
Y+1018
Y+08881
Y+0898
X+06945Y+11155
Y+11185
Y+1122
Y+09955
Y+09985
Y+1002
Y+08755
Y+08785
Y+0882
X+0695Y+11475
Y+1155
Y+11625
Y+10275
Y+1035
Y+10425
Y+09075
Y+0915
Y+09225
X+06955Y+1138
Y+1018
Y+0898
X+06975Y+1138
Y+1018
Y+0898
X+0699Y+1106
Y+1103
Y+0986
Y+0983
Y+0866
Y+0863
X+07025Y+1175
Y+1055
Y+0935
X+07035Y+11185
Y+1114
Y+1095
Y+09985
Y+0994
Y+0975
Y+08785
Y+0874
Y+0855
X+07075Y+11015
Y+09815
Y+08615
X+0709Y+1139
Y+1156
Y+1019
Y+1036
Y+0899
Y+0916
X+071Y+10975
Y+11195
Y+11705
Y+09775
Y+09995
Y+10505
Y+08575
Y+08795
Y+09305
X+07125Y+11025
Y+09825
Y+08625
X+07132Y+11664
Y+10464
Y+09264
X+07135Y+11475
Y+11435
Y+10275
Y+10235
Y+09075
Y+09035
X+0715Y+1093
Y+0973
Y+0853
X+07175Y+11005
Y+09805
Y+08605
X+0719Y+1125
Y+1005
Y+0885
X+07195Y+1134
Y+1014
Y+0894
X+072Y+1119
Y+11045
Y+1115
Y+0999
Y+09845
Y+0995
Y+0879
Y+08645
Y+0875
X+07218Y+1156
Y+1036
Y+0916
X+07225Y+1148
Y+11105
Y+11305
Y+11135
Y+1028
Y+09905
Y+10105
Y+09935
Y+0908
Y+08705
Y+08905
Y+08735
X+0725Y+11395
Y+11415
Y+11435
Y+10195
Y+10215
Y+10235
Y+08995
Y+09015
Y+09035
X+07265Y+1093
Y+0973
Y+0853
X+0727Y+1115
Y+1095
Y+0995
Y+0975
Y+0875
Y+0855
X+073Y+1102
Y+11115
Y+0982
Y+09915
Y+0862
Y+08715
X+0732Y+1112
Y+0992
Y+0872
T02
X+04155Y+11595
Y+11565
Y+10395
Y+10365
Y+09165
Y+09195
X+04665Y+1134
Y+1014
Y+0894
X+04695Y+1124
Y+1004
Y+0884
X+0479Y+11655
Y+10455
Y+09255
X+04875Y+1122
Y+1002
Y+0882
X+0489Y+1134
Y+1014
Y+0894
X+049Y+11655
Y+10455
Y+09255
X+04905Y+1122
Y+1002
Y+0882
X+0491Y+1132
Y+1012
Y+0892
X+05355Y+11595
Y+11565
Y+10395
Y+10365
Y+09195
Y+09165
X+05865Y+1134
Y+1014
Y+0894
X+05895Y+1124
Y+1004
Y+0884
X+0599Y+11655
Y+10455
Y+09255
X+06075Y+1122
Y+1002
Y+0882
X+0609Y+1134
Y+1014
Y+0894
X+061Y+11655
Y+10455
Y+09255
X+06105Y+1122
Y+1002
Y+0882
X+0611Y+1132
Y+1012
Y+0892
X+06555Y+11595
Y+11565
Y+10395
Y+10365
Y+09195
Y+09165
X+07065Y+1134
Y+1014
Y+0894
X+07095Y+1124
Y+1004
Y+0884
X+0719Y+11655
Y+10455
Y+09255
X+07275Y+1122
Y+1002
Y+0882
X+0729Y+1134
Y+1014
Y+0894
X+073Y+11655
Y+10455
Y+09255
X+07305Y+1122
Y+1002
Y+0882
X+0731Y+1132
Y+1012
Y+0892
T03
X+04044Y+11822
Y+10878
Y+10622
Y+09678
Y+08478
Y+09422
X+04956Y+10878
Y+11822
Y+09678
Y+10622
Y+09422
Y+08478
X+05244Y+11822
Y+10878
Y+10622
Y+09678
Y+09422
Y+08478
X+06156Y+10878
Y+11822
Y+09678
Y+10622
Y+08478
Y+09422
X+06444Y+11822
Y+10878
Y+10622
Y+09678
Y+09422
Y+08478
X+07356Y+10878
Y+11822
Y+09678
Y+10622
Y+08478
Y+09422
T04
X+04025Y+1095
Y+11
Y+1105
Y+111
Y+1115
Y+112
Y+1125
Y+113
Y+1135
Y+114
Y+1145
Y+115
Y+1155
Y+116
Y+1165
Y+117
Y+1175
Y+0975
Y+098
Y+0985
Y+099
Y+0995
Y+1
Y+1005
Y+101
Y+1015
Y+102
Y+1025
Y+103
Y+1035
Y+104
Y+1045
Y+105
Y+1055
Y+0935
Y+093
Y+0925
Y+092
Y+0915
Y+091
Y+0905
Y+09
Y+0895
Y+089
Y+0885
Y+088
Y+0875
Y+087
Y+0865
Y+086
Y+0855
X+041Y+10875
Y+11825
Y+09675
Y+10625
Y+09425
Y+08475
X+0415Y+10875
Y+11825
Y+09675
Y+10625
Y+09425
Y+08475
X+042Y+10875
Y+11825
Y+09675
Y+10625
Y+09425
Y+08475
X+0425Y+10875
Y+11825
Y+09675
Y+10625
Y+09425
Y+08475
X+043Y+10875
Y+11825
Y+09675
Y+10625
Y+09425
Y+08475
X+0435Y+10875
Y+11825
Y+09675
Y+10625
Y+09425
Y+08475
X+044Y+10875
Y+11825
Y+09675
Y+10625
Y+09425
Y+08475
X+0445Y+10875
Y+11825
Y+09675
Y+10625
Y+09425
Y+08475
X+045Y+10875
Y+11825
Y+09675
Y+10625
Y+09425
Y+08475
X+0455Y+10875
Y+11825
Y+09675
Y+10625
Y+09425
Y+08475
X+046Y+10875
Y+11825
Y+09675
Y+10625
Y+09425
Y+08475
X+0465Y+10875
Y+11825
Y+09675
Y+10625
Y+09425
Y+08475
X+047Y+10875
Y+11825
Y+09675
Y+10625
Y+09425
Y+08475
X+0475Y+10875
Y+11825
Y+09675
Y+10625
Y+09425
Y+08475
X+048Y+10875
Y+11825
Y+09675
Y+10625
Y+09425
Y+08475
X+0485Y+10875
Y+11825
Y+09675
Y+10625
Y+09425
Y+08475
X+049Y+10875
Y+11825
Y+09675
Y+10625
Y+09425
Y+08475
X+04975Y+1175
Y+117
Y+1165
Y+116
Y+1155
Y+115
Y+1145
Y+114
Y+1135
Y+113
Y+1125
Y+112
Y+1115
Y+111
Y+1105
Y+11
Y+1095
Y+1055
Y+105
Y+1045
Y+104
Y+1035
Y+103
Y+1025
Y+102
Y+1015
Y+101
Y+1005
Y+1
Y+0995
Y+099
Y+0985
Y+098
Y+0975
Y+0855
Y+086
Y+0865
Y+087
Y+0875
Y+088
Y+0885
Y+089
Y+0895
Y+09
Y+0905
Y+091
Y+0915
Y+092
Y+0925
Y+093
Y+0935
X+05225Y+1095
Y+11
Y+1105
Y+111
Y+1115
Y+112
Y+1125
Y+113
Y+1135
Y+114
Y+1145
Y+115
Y+1155
Y+116
Y+1165
Y+117
Y+1175
Y+0975
Y+098
Y+0985
Y+099
Y+0995
Y+1
Y+1005
Y+101
Y+1015
Y+102
Y+1025
Y+103
Y+1035
Y+104
Y+1045
Y+105
Y+1055
Y+0855
Y+086
Y+0865
Y+087
Y+0875
Y+088
Y+0885
Y+089
Y+0895
Y+09
Y+0905
Y+091
Y+0915
Y+092
Y+0925
Y+093
Y+0935
X+053Y+10875
Y+11825
Y+09675
Y+10625
Y+08475
Y+09425
X+0535Y+10875
Y+11825
Y+09675
Y+10625
Y+08475
Y+09425
X+054Y+10875
Y+11825
Y+09675
Y+10625
Y+08475
Y+09425
X+0545Y+10875
Y+11825
Y+09675
Y+10625
Y+08475
Y+09425
X+055Y+10875
Y+11825
Y+09675
Y+10625
Y+08475
Y+09425
X+0555Y+10875
Y+11825
Y+09675
Y+10625
Y+08475
Y+09425
X+056Y+10875
Y+11825
Y+09675
Y+10625
Y+08475
Y+09425
X+0565Y+10875
Y+11825
Y+09675
Y+10625
Y+08475
Y+09425
X+057Y+10875
Y+11825
Y+09675
Y+10625
Y+08475
Y+09425
X+0575Y+10875
Y+11825
Y+09675
Y+10625
Y+08475
Y+09425
X+058Y+10875
Y+11825
Y+09675
Y+10625
Y+08475
Y+09425
X+0585Y+10875
Y+11825
Y+09675
Y+10625
Y+08475
Y+09425
X+059Y+10875
Y+11825
Y+09675
Y+10625
Y+08475
Y+09425
X+0595Y+10875
Y+11825
Y+09675
Y+10625
Y+08475
Y+09425
X+06Y+10875
Y+11825
Y+09675
Y+10625
Y+08475
Y+09425
X+0605Y+10875
Y+11825
Y+09675
Y+10625
Y+08475
Y+09425
X+061Y+10875
Y+11825
Y+09675
Y+10625
Y+08475
Y+09425
X+06175Y+1175
Y+117
Y+1165
Y+116
Y+1155
Y+115
Y+1145
Y+114
Y+1135
Y+113
Y+1125
Y+112
Y+1115
Y+111
Y+1105
Y+11
Y+1095
Y+1055
Y+105
Y+1045
Y+104
Y+1035
Y+103
Y+1025
Y+102
Y+1015
Y+101
Y+1005
Y+1
Y+0995
Y+099
Y+0985
Y+098
Y+0975
Y+0935
Y+093
Y+0925
Y+092
Y+0915
Y+091
Y+0905
Y+09
Y+0895
Y+089
Y+0885
Y+088
Y+0875
Y+087
Y+0865
Y+086
Y+0855
X+06425Y+1095
Y+11
Y+1105
Y+111
Y+1115
Y+112
Y+1125
Y+113
Y+1135
Y+114
Y+1145
Y+115
Y+1155
Y+116
Y+1165
Y+117
Y+1175
Y+0975
Y+098
Y+0985
Y+099
Y+0995
Y+1
Y+1005
Y+101
Y+1015
Y+102
Y+1025
Y+103
Y+1035
Y+104
Y+1045
Y+105
Y+1055
Y+0855
Y+086
Y+0865
Y+087
Y+0875
Y+088
Y+0885
Y+089
Y+0895
Y+09
Y+0905
Y+091
Y+0915
Y+092
Y+0925
Y+093
Y+0935
X+065Y+10875
Y+11825
Y+09675
Y+10625
Y+08475
Y+09425
X+0655Y+10875
Y+11825
Y+09675
Y+10625
Y+08475
Y+09425
X+066Y+10875
Y+11825
Y+09675
Y+10625
Y+08475
Y+09425
X+0665Y+10875
Y+11825
Y+09675
Y+10625
Y+08475
Y+09425
X+067Y+10875
Y+11825
Y+09675
Y+10625
Y+08475
Y+09425
X+0675Y+10875
Y+11825
Y+09675
Y+10625
Y+08475
Y+09425
X+068Y+10875
Y+11825
Y+09675
Y+10625
Y+08475
Y+09425
X+0685Y+10875
Y+11825
Y+09675
Y+10625
Y+08475
Y+09425
X+069Y+10875
Y+11825
Y+09675
Y+10625
Y+08475
Y+09425
X+0695Y+10875
Y+11825
Y+09675
Y+10625
Y+08475
Y+09425
X+07Y+10875
Y+11825
Y+09675
Y+10625
Y+08475
Y+09425
X+0705Y+10875
Y+11825
Y+09675
Y+10625
Y+08475
Y+09425
X+071Y+10875
Y+11825
Y+09675
Y+10625
Y+08475
Y+09425
X+0715Y+10875
Y+11825
Y+09675
Y+10625
Y+08475
Y+09425
X+072Y+10875
Y+11825
Y+09675
Y+10625
Y+08475
Y+09425
X+0725Y+10875
Y+11825
Y+09675
Y+10625
Y+08475
Y+09425
X+073Y+10875
Y+11825
Y+09675
Y+10625
Y+08475
Y+09425
X+07375Y+1175
Y+117
Y+1165
Y+116
Y+1155
Y+115
Y+1145
Y+114
Y+1135
Y+113
Y+1125
Y+112
Y+1115
Y+111
Y+1105
Y+11
Y+1095
Y+1055
Y+105
Y+1045
Y+104
Y+1035
Y+103
Y+1025
Y+102
Y+1015
Y+101
Y+1005
Y+1
Y+0995
Y+099
Y+0985
Y+098
Y+0975
Y+0935
Y+093
Y+0925
Y+092
Y+0915
Y+091
Y+0905
Y+09
Y+0895
Y+089
Y+0885
Y+088
Y+0875
Y+087
Y+0865
Y+086
Y+0855
T05
X+03875Y+08325
X+051Y+11975
X+063
X+07525Y+08325
T00
M30
