G75*
G70*
%OFA0B0*%
%FSLAX24Y24*%
%IPPOS*%
%LPD*%
%AMOC8*
5,1,8,0,0,1.08239X$1,22.5*
%
%ADD10C,0.0000*%
D10*
X000100Y000837D02*
X000100Y045719D01*
X023722Y045719D01*
X023722Y000837D01*
X000100Y000837D01*
X021950Y015010D02*
X021952Y015058D01*
X021958Y015106D01*
X021968Y015153D01*
X021981Y015199D01*
X021999Y015244D01*
X022019Y015288D01*
X022044Y015330D01*
X022072Y015369D01*
X022102Y015406D01*
X022136Y015440D01*
X022173Y015472D01*
X022211Y015501D01*
X022252Y015526D01*
X022295Y015548D01*
X022340Y015566D01*
X022386Y015580D01*
X022433Y015591D01*
X022481Y015598D01*
X022529Y015601D01*
X022577Y015600D01*
X022625Y015595D01*
X022673Y015586D01*
X022719Y015574D01*
X022764Y015557D01*
X022808Y015537D01*
X022850Y015514D01*
X022890Y015487D01*
X022928Y015457D01*
X022963Y015424D01*
X022995Y015388D01*
X023025Y015350D01*
X023051Y015309D01*
X023073Y015266D01*
X023093Y015222D01*
X023108Y015177D01*
X023120Y015130D01*
X023128Y015082D01*
X023132Y015034D01*
X023132Y014986D01*
X023128Y014938D01*
X023120Y014890D01*
X023108Y014843D01*
X023093Y014798D01*
X023073Y014754D01*
X023051Y014711D01*
X023025Y014670D01*
X022995Y014632D01*
X022963Y014596D01*
X022928Y014563D01*
X022890Y014533D01*
X022850Y014506D01*
X022808Y014483D01*
X022764Y014463D01*
X022719Y014446D01*
X022673Y014434D01*
X022625Y014425D01*
X022577Y014420D01*
X022529Y014419D01*
X022481Y014422D01*
X022433Y014429D01*
X022386Y014440D01*
X022340Y014454D01*
X022295Y014472D01*
X022252Y014494D01*
X022211Y014519D01*
X022173Y014548D01*
X022136Y014580D01*
X022102Y014614D01*
X022072Y014651D01*
X022044Y014690D01*
X022019Y014732D01*
X021999Y014776D01*
X021981Y014821D01*
X021968Y014867D01*
X021958Y014914D01*
X021952Y014962D01*
X021950Y015010D01*
X000690Y044538D02*
X000692Y044586D01*
X000698Y044634D01*
X000708Y044681D01*
X000721Y044727D01*
X000739Y044772D01*
X000759Y044816D01*
X000784Y044858D01*
X000812Y044897D01*
X000842Y044934D01*
X000876Y044968D01*
X000913Y045000D01*
X000951Y045029D01*
X000992Y045054D01*
X001035Y045076D01*
X001080Y045094D01*
X001126Y045108D01*
X001173Y045119D01*
X001221Y045126D01*
X001269Y045129D01*
X001317Y045128D01*
X001365Y045123D01*
X001413Y045114D01*
X001459Y045102D01*
X001504Y045085D01*
X001548Y045065D01*
X001590Y045042D01*
X001630Y045015D01*
X001668Y044985D01*
X001703Y044952D01*
X001735Y044916D01*
X001765Y044878D01*
X001791Y044837D01*
X001813Y044794D01*
X001833Y044750D01*
X001848Y044705D01*
X001860Y044658D01*
X001868Y044610D01*
X001872Y044562D01*
X001872Y044514D01*
X001868Y044466D01*
X001860Y044418D01*
X001848Y044371D01*
X001833Y044326D01*
X001813Y044282D01*
X001791Y044239D01*
X001765Y044198D01*
X001735Y044160D01*
X001703Y044124D01*
X001668Y044091D01*
X001630Y044061D01*
X001590Y044034D01*
X001548Y044011D01*
X001504Y043991D01*
X001459Y043974D01*
X001413Y043962D01*
X001365Y043953D01*
X001317Y043948D01*
X001269Y043947D01*
X001221Y043950D01*
X001173Y043957D01*
X001126Y043968D01*
X001080Y043982D01*
X001035Y044000D01*
X000992Y044022D01*
X000951Y044047D01*
X000913Y044076D01*
X000876Y044108D01*
X000842Y044142D01*
X000812Y044179D01*
X000784Y044218D01*
X000759Y044260D01*
X000739Y044304D01*
X000721Y044349D01*
X000708Y044395D01*
X000698Y044442D01*
X000692Y044490D01*
X000690Y044538D01*
M02*
