G75*
G70*
%OFA0B0*%
%FSLAX24Y24*%
%IPPOS*%
%LPD*%
%AMOC8*
5,1,8,0,0,1.08239X$1,22.5*
%
%ADD10R,0.0591X0.0591*%
%ADD11C,0.0591*%
%ADD12OC8,0.0591*%
%ADD13R,0.0531X0.0531*%
%ADD14C,0.0531*%
%ADD15C,0.1345*%
%ADD16C,0.0650*%
%ADD17R,0.0748X0.0748*%
%ADD18C,0.0748*%
%ADD19C,0.0160*%
%ADD20C,0.0260*%
%ADD21C,0.0120*%
%ADD22C,0.0080*%
D10*
X001408Y002006D03*
X014598Y002006D03*
X013563Y013313D03*
X007983Y018293D03*
X001358Y021331D03*
X004778Y023330D03*
X004758Y025530D03*
X002258Y025931D03*
X001358Y013318D03*
X005888Y013308D03*
X022448Y026198D03*
D11*
X002258Y024931D03*
X002258Y023931D03*
D12*
X004778Y024330D03*
X004758Y026530D03*
X001358Y020331D03*
X008983Y018293D03*
X009983Y018293D03*
X010983Y018293D03*
X011983Y018293D03*
X012983Y018293D03*
X013563Y014313D03*
X014563Y014313D03*
X014563Y013313D03*
X015563Y013313D03*
X015563Y014313D03*
X010888Y014308D03*
X009888Y014308D03*
X008888Y014308D03*
X007888Y014308D03*
X006888Y014308D03*
X005888Y014308D03*
X006888Y013308D03*
X007888Y013308D03*
X008888Y013308D03*
X009888Y013308D03*
X010888Y013308D03*
X003358Y013318D03*
X002358Y013318D03*
X002358Y014318D03*
X003358Y014318D03*
X001358Y014318D03*
X002408Y002006D03*
X015598Y002006D03*
X021448Y026198D03*
X021448Y027198D03*
X022448Y027198D03*
X022448Y028198D03*
X021448Y028198D03*
X021448Y029198D03*
X022448Y029198D03*
X022448Y030198D03*
X021448Y030198D03*
X021448Y031198D03*
X022448Y031198D03*
X022448Y032198D03*
X021448Y032198D03*
D13*
X018000Y028974D03*
D14*
X018000Y029761D03*
X018788Y029761D03*
X019575Y029761D03*
X019575Y028974D03*
X018788Y028974D03*
D15*
X017751Y004176D03*
X022491Y004176D03*
D16*
X020613Y005243D03*
X020613Y006031D03*
X019629Y006031D03*
X019629Y005243D03*
D17*
X001408Y016593D03*
X009533Y025306D03*
D18*
X010533Y025306D03*
X011533Y025306D03*
X012533Y025306D03*
X013533Y025306D03*
X014533Y025306D03*
X006408Y016593D03*
X005408Y016593D03*
X004408Y016593D03*
X003408Y016593D03*
X002408Y016593D03*
D19*
X001358Y013318D02*
X000771Y013318D01*
X000758Y013306D01*
X000758Y002756D01*
X000808Y002806D01*
X002658Y002806D01*
X003458Y002006D01*
X014598Y002006D01*
X001408Y002006D02*
X000758Y002656D01*
X000758Y002756D01*
X000758Y013306D02*
X000758Y020906D01*
X001183Y021331D01*
X001358Y021331D01*
D20*
X006033Y019281D03*
X006533Y019781D03*
X007033Y020031D03*
X008183Y020381D03*
X009408Y020881D03*
X010358Y020356D03*
X011758Y020606D03*
X012008Y020356D03*
X011908Y019806D03*
X011683Y019556D03*
X013933Y019306D03*
X014583Y019406D03*
X014883Y019231D03*
X015208Y019206D03*
X015533Y019181D03*
X016733Y019406D03*
X017683Y019406D03*
X018008Y019556D03*
X017358Y020381D03*
X017308Y020881D03*
X018308Y020956D03*
X018858Y020956D03*
X019183Y020931D03*
X019858Y021956D03*
X020583Y021056D03*
X021433Y021656D03*
X022433Y022256D03*
X019583Y023156D03*
X017533Y021956D03*
X017033Y021956D03*
X020083Y019806D03*
X021083Y018831D03*
X021333Y018531D03*
X020083Y017906D03*
X020083Y017581D03*
X019158Y018306D03*
X017058Y017381D03*
X016433Y017331D03*
X015533Y017906D03*
X014608Y018606D03*
X010983Y016681D03*
X009533Y014956D03*
X007858Y017081D03*
X014233Y015781D03*
X015883Y015781D03*
X016608Y014506D03*
X016358Y013756D03*
X017658Y013031D03*
X016108Y012106D03*
X015008Y011506D03*
X013808Y010406D03*
X012708Y011531D03*
X012608Y012331D03*
X010908Y012106D03*
X009533Y011681D03*
X008708Y011506D03*
X007658Y010756D03*
X007908Y010406D03*
X010858Y010356D03*
X004808Y010356D03*
X004558Y010706D03*
X001758Y010356D03*
X001458Y010706D03*
X018133Y011256D03*
X020258Y010781D03*
X019858Y009781D03*
X020783Y012231D03*
X021533Y013631D03*
X021008Y015206D03*
X020308Y015606D03*
X020058Y015356D03*
X019508Y015706D03*
X019008Y016206D03*
X018208Y016231D03*
X018308Y015181D03*
X017808Y015031D03*
X018908Y014931D03*
X018533Y007481D03*
X021608Y007506D03*
X008233Y022106D03*
X007758Y023331D03*
X011383Y022606D03*
X016358Y026031D03*
X015808Y027281D03*
X013833Y027956D03*
X012008Y026631D03*
X011433Y028206D03*
X010683Y028331D03*
X009033Y029181D03*
X007033Y029181D03*
X006533Y029181D03*
X006033Y029181D03*
X002783Y030081D03*
X006883Y031681D03*
X003283Y033431D03*
X010933Y033181D03*
X012783Y032931D03*
X012783Y032431D03*
X012783Y031931D03*
X013383Y031681D03*
X012783Y031081D03*
X011808Y031181D03*
X014033Y032681D03*
X012808Y033656D03*
X015583Y035131D03*
X016883Y035681D03*
X014858Y036831D03*
X012783Y036931D03*
X012783Y037431D03*
X012783Y036431D03*
X011733Y038431D03*
X011958Y040306D03*
X012958Y040306D03*
X013958Y040306D03*
X014958Y040306D03*
X015958Y040306D03*
X015958Y041306D03*
X015958Y042306D03*
X014958Y042306D03*
X013958Y042306D03*
X012958Y042306D03*
X011958Y042306D03*
X010958Y042306D03*
X009958Y042306D03*
X008958Y042306D03*
X008158Y042306D03*
X008158Y041306D03*
X006958Y041306D03*
X006958Y042306D03*
X005658Y042306D03*
X004458Y042306D03*
X003458Y042306D03*
X002458Y042306D03*
X001458Y042306D03*
X001458Y041306D03*
X001458Y040306D03*
X002458Y040306D03*
X003458Y040306D03*
X004458Y040306D03*
X005658Y040306D03*
X006958Y040306D03*
X008158Y040306D03*
X008958Y040306D03*
X009958Y040306D03*
X010958Y040306D03*
X018033Y041131D03*
X021008Y036981D03*
X022033Y036806D03*
X023233Y035606D03*
X018183Y033156D03*
X018183Y030856D03*
X018008Y028506D03*
X009533Y026981D03*
X003183Y039181D03*
D21*
X000458Y039806D02*
X000458Y042666D01*
X016458Y042666D01*
X016458Y039806D01*
X000458Y039806D01*
X000458Y039896D02*
X016458Y039896D01*
X016458Y040015D02*
X000458Y040015D01*
X000458Y040133D02*
X016458Y040133D01*
X016458Y040252D02*
X000458Y040252D01*
X000458Y040370D02*
X016458Y040370D01*
X016458Y040489D02*
X000458Y040489D01*
X000458Y040607D02*
X016458Y040607D01*
X016458Y040726D02*
X000458Y040726D01*
X000458Y040844D02*
X016458Y040844D01*
X016458Y040963D02*
X000458Y040963D01*
X000458Y041081D02*
X016458Y041081D01*
X016458Y041200D02*
X000458Y041200D01*
X000458Y041318D02*
X016458Y041318D01*
X016458Y041437D02*
X000458Y041437D01*
X000458Y041555D02*
X016458Y041555D01*
X016458Y041674D02*
X000458Y041674D01*
X000458Y041792D02*
X016458Y041792D01*
X016458Y041911D02*
X000458Y041911D01*
X000458Y042029D02*
X016458Y042029D01*
X016458Y042148D02*
X000458Y042148D01*
X000458Y042266D02*
X016458Y042266D01*
X016458Y042385D02*
X000458Y042385D01*
X000458Y042503D02*
X016458Y042503D01*
X016458Y042622D02*
X000458Y042622D01*
D22*
X009133Y039631D02*
X016533Y039631D01*
X018033Y041131D01*
X013883Y037081D02*
X013533Y037431D01*
X012783Y037431D01*
X012783Y036931D02*
X014408Y036931D01*
X018183Y033156D01*
X017933Y033131D02*
X017933Y033056D01*
X020233Y030756D01*
X021883Y030756D01*
X022433Y030206D01*
X022448Y030198D01*
X022033Y030181D02*
X022033Y029606D01*
X022433Y029206D01*
X022448Y029198D01*
X022033Y029181D02*
X022033Y028606D01*
X022433Y028206D01*
X022448Y028198D01*
X022433Y027781D02*
X021858Y027781D01*
X021458Y028181D01*
X021448Y028198D01*
X022433Y027781D02*
X022858Y027356D01*
X022858Y027031D01*
X022458Y026631D01*
X019133Y026631D01*
X014083Y031681D01*
X013383Y031681D01*
X012783Y031931D02*
X014033Y031931D01*
X019183Y026781D01*
X022033Y026781D01*
X022433Y027181D01*
X022448Y027198D01*
X021448Y027198D02*
X021433Y027206D01*
X018958Y027206D01*
X013733Y032431D01*
X012783Y032431D01*
X012783Y032931D02*
X014283Y032931D01*
X017083Y030131D01*
X020933Y030131D01*
X021458Y029606D01*
X021608Y029606D01*
X022033Y029181D01*
X021448Y029198D02*
X021433Y029206D01*
X021283Y029356D01*
X017658Y029356D01*
X014333Y032681D01*
X014033Y032681D01*
X013758Y033656D02*
X012808Y033656D01*
X012708Y033906D02*
X015133Y033906D01*
X018183Y030856D01*
X016808Y030606D02*
X021608Y030606D01*
X022033Y030181D01*
X022448Y031198D02*
X022433Y031206D01*
X022033Y031606D01*
X021458Y031606D01*
X015983Y037081D01*
X013883Y037081D01*
X014633Y036431D02*
X017933Y033131D01*
X021008Y031206D02*
X021433Y031206D01*
X021448Y031198D01*
X021008Y031206D02*
X015383Y036831D01*
X014858Y036831D01*
X014633Y036431D02*
X012783Y036431D01*
X012708Y033906D02*
X012233Y033431D01*
X003283Y033431D01*
X003033Y033531D02*
X009133Y039631D01*
X013758Y033656D02*
X016808Y030606D01*
X018858Y028506D02*
X019308Y028956D01*
X019558Y028956D01*
X019575Y028974D01*
X018858Y028506D02*
X018008Y028506D01*
X015808Y027281D02*
X019858Y023231D01*
X019858Y021956D01*
X020583Y021056D02*
X020558Y021031D01*
X020558Y016206D01*
X019283Y014931D01*
X018908Y014931D01*
X019333Y015181D02*
X018308Y015181D01*
X017808Y015031D02*
X018608Y015831D01*
X018608Y016156D01*
X020033Y017581D01*
X020083Y017581D01*
X020158Y017831D02*
X020183Y017831D01*
X020333Y017681D01*
X020333Y016181D01*
X019333Y015181D01*
X019508Y015706D02*
X019008Y016206D01*
X018458Y016331D02*
X018458Y016031D01*
X016858Y014431D01*
X016858Y014256D01*
X016358Y013756D01*
X015983Y013731D02*
X015583Y013331D01*
X015563Y013313D01*
X015983Y013731D02*
X015983Y014231D01*
X016733Y014981D01*
X016733Y019406D01*
X015783Y019281D02*
X015783Y017681D01*
X012858Y014756D01*
X012858Y011681D01*
X012708Y011531D01*
X012808Y011281D02*
X012558Y011281D01*
X011083Y012756D01*
X004908Y012756D01*
X003358Y014306D01*
X003358Y014318D01*
X003333Y013906D02*
X002758Y013906D01*
X002358Y014306D01*
X002358Y014318D01*
X003333Y013906D02*
X004633Y012606D01*
X009508Y012606D01*
X010983Y011131D01*
X012858Y011131D01*
X014383Y012656D01*
X015808Y012656D01*
X017033Y013881D01*
X018933Y013881D01*
X020308Y015256D01*
X020308Y015606D01*
X020058Y015356D02*
X019908Y015356D01*
X018583Y014031D01*
X016983Y014031D01*
X015758Y012806D01*
X014333Y012806D01*
X012808Y011281D01*
X012908Y010981D02*
X010233Y010981D01*
X009533Y011681D01*
X008708Y011506D02*
X009383Y010831D01*
X016483Y010831D01*
X020858Y015206D01*
X021008Y015206D01*
X021083Y015831D02*
X017608Y012356D01*
X014283Y012356D01*
X012908Y010981D01*
X012608Y012331D02*
X011708Y012331D01*
X011133Y012906D01*
X007708Y012906D01*
X007308Y013306D01*
X007308Y013906D01*
X006908Y014306D01*
X006888Y014308D01*
X008888Y014308D02*
X008908Y014331D01*
X009533Y014956D01*
X009483Y014481D02*
X009483Y013731D01*
X009883Y013331D01*
X009888Y013308D01*
X009888Y014308D02*
X009908Y014331D01*
X014808Y019231D01*
X014883Y019231D01*
X014708Y019406D02*
X014583Y019406D01*
X014708Y019406D02*
X014783Y019481D01*
X015583Y019481D01*
X015783Y019281D01*
X015208Y019206D02*
X014608Y018606D01*
X013933Y019306D02*
X013433Y019306D01*
X012383Y018256D01*
X012383Y017381D01*
X009483Y014481D01*
X007183Y016681D02*
X006608Y016106D01*
X002208Y016106D01*
X001933Y016381D01*
X001933Y023031D01*
X003033Y024131D01*
X003033Y033531D01*
X006883Y031681D02*
X011758Y026806D01*
X011758Y026531D01*
X012233Y026056D01*
X016333Y026056D01*
X016358Y026031D01*
X016358Y021256D01*
X017233Y020381D01*
X017358Y020381D01*
X017308Y020881D02*
X019583Y023156D01*
X020583Y023631D02*
X011033Y033181D01*
X010933Y033181D01*
X011808Y031181D02*
X012008Y030981D01*
X012008Y026631D01*
X011508Y025356D02*
X011508Y025306D01*
X011533Y025306D01*
X011508Y025356D02*
X009033Y027831D01*
X009033Y029181D01*
X007033Y029181D02*
X007033Y020031D01*
X006533Y019781D02*
X006533Y029181D01*
X006033Y029181D02*
X006033Y019281D01*
X006383Y019031D02*
X005158Y019031D01*
X002733Y016606D01*
X002408Y016606D01*
X002408Y016593D01*
X004408Y016606D02*
X004408Y016593D01*
X004408Y016606D02*
X008183Y020381D01*
X007983Y020631D02*
X007983Y022206D01*
X008133Y022356D01*
X010008Y022356D01*
X011758Y020606D01*
X012108Y020606D01*
X012583Y020131D01*
X017833Y020131D01*
X018658Y020956D01*
X018858Y020956D01*
X019183Y020931D02*
X018233Y019981D01*
X012383Y019981D01*
X012008Y020356D01*
X011908Y019806D02*
X020083Y019806D01*
X020583Y021056D02*
X020583Y023631D01*
X021433Y024431D02*
X023008Y026006D01*
X023008Y034981D01*
X021008Y036981D01*
X022033Y036806D02*
X023233Y035606D01*
X012783Y031081D02*
X012783Y029956D01*
X017033Y025706D01*
X017033Y021956D01*
X017783Y019656D02*
X012108Y019656D01*
X012008Y019556D01*
X011683Y019556D01*
X009133Y022106D01*
X008233Y022106D01*
X007983Y020631D02*
X006383Y019031D01*
X007183Y016681D02*
X010983Y016681D01*
X015563Y014313D02*
X015583Y014331D01*
X016433Y015181D01*
X016433Y017331D01*
X017058Y017381D02*
X018208Y016231D01*
X018458Y016331D02*
X017683Y017106D01*
X017683Y019406D01*
X017883Y019556D02*
X017783Y019656D01*
X017883Y019556D02*
X018008Y019556D01*
X020083Y017906D02*
X020158Y017831D01*
X021333Y018531D02*
X021333Y015881D01*
X017558Y012106D01*
X016108Y012106D01*
X018133Y011256D02*
X018133Y008506D01*
X020608Y006031D01*
X020613Y006031D01*
X021083Y015831D02*
X021083Y018831D01*
X021433Y021656D02*
X021433Y024431D01*
X010533Y025306D02*
X010508Y025306D01*
X009533Y026281D01*
X009533Y026981D01*
M02*
