G75*
%MOIN*%
%OFA0B0*%
%FSLAX24Y24*%
%IPPOS*%
%LPD*%
%AMOC8*
5,1,8,0,0,1.08239X$1,22.5*
%
%ADD10C,0.0000*%
D10*
X000481Y000150D02*
X000481Y031646D01*
X018851Y031646D01*
X018851Y000150D01*
X000481Y000150D01*
X004441Y019835D02*
X004443Y019885D01*
X004449Y019935D01*
X004459Y019984D01*
X004473Y020032D01*
X004490Y020079D01*
X004511Y020124D01*
X004536Y020168D01*
X004564Y020209D01*
X004596Y020248D01*
X004630Y020285D01*
X004667Y020319D01*
X004707Y020349D01*
X004749Y020376D01*
X004793Y020400D01*
X004839Y020421D01*
X004886Y020437D01*
X004934Y020450D01*
X004984Y020459D01*
X005033Y020464D01*
X005084Y020465D01*
X005134Y020462D01*
X005183Y020455D01*
X005232Y020444D01*
X005280Y020429D01*
X005326Y020411D01*
X005371Y020389D01*
X005414Y020363D01*
X005455Y020334D01*
X005494Y020302D01*
X005530Y020267D01*
X005562Y020229D01*
X005592Y020189D01*
X005619Y020146D01*
X005642Y020102D01*
X005661Y020056D01*
X005677Y020008D01*
X005689Y019959D01*
X005697Y019910D01*
X005701Y019860D01*
X005701Y019810D01*
X005697Y019760D01*
X005689Y019711D01*
X005677Y019662D01*
X005661Y019614D01*
X005642Y019568D01*
X005619Y019524D01*
X005592Y019481D01*
X005562Y019441D01*
X005530Y019403D01*
X005494Y019368D01*
X005455Y019336D01*
X005414Y019307D01*
X005371Y019281D01*
X005326Y019259D01*
X005280Y019241D01*
X005232Y019226D01*
X005183Y019215D01*
X005134Y019208D01*
X005084Y019205D01*
X005033Y019206D01*
X004984Y019211D01*
X004934Y019220D01*
X004886Y019233D01*
X004839Y019249D01*
X004793Y019270D01*
X004749Y019294D01*
X004707Y019321D01*
X004667Y019351D01*
X004630Y019385D01*
X004596Y019422D01*
X004564Y019461D01*
X004536Y019502D01*
X004511Y019546D01*
X004490Y019591D01*
X004473Y019638D01*
X004459Y019686D01*
X004449Y019735D01*
X004443Y019785D01*
X004441Y019835D01*
M02*
