G75*
%MOIN*%
%OFA0B0*%
%FSLAX24Y24*%
%IPPOS*%
%LPD*%
%AMOC8*
5,1,8,0,0,1.08239X$1,22.5*
%
%ADD10C,0.1320*%
%ADD11R,0.2422X0.3210*%
%ADD12R,0.0375X0.1438*%
%ADD13R,0.0651X0.0651*%
%ADD14C,0.0651*%
%ADD15R,0.0572X0.0651*%
%ADD16R,0.0180X0.0651*%
%ADD17R,0.2343X0.3288*%
%ADD18R,0.0690X0.1635*%
%ADD19R,0.0532X0.0375*%
%ADD20R,0.0651X0.0572*%
%ADD21R,0.0690X0.0770*%
%ADD22R,0.0454X0.0808*%
%ADD23R,0.0808X0.0454*%
%ADD24OC8,0.0651*%
%ADD25C,0.0330*%
D10*
X005071Y019835D03*
D11*
X014581Y010950D03*
D12*
X015057Y014001D03*
X015557Y014001D03*
X014057Y014001D03*
X013557Y014001D03*
D13*
X018081Y013350D03*
X018081Y012150D03*
X018081Y010950D03*
X018081Y009750D03*
X017981Y030750D03*
X016581Y030750D03*
X015081Y030750D03*
X002781Y027850D03*
D14*
X002781Y026850D03*
X002781Y025850D03*
D15*
X003155Y023450D03*
X002407Y023450D03*
X002407Y030250D03*
X003155Y030250D03*
X008407Y026450D03*
X009155Y026450D03*
X009707Y015150D03*
X010455Y015150D03*
X011707Y015150D03*
X012455Y015150D03*
X012755Y001350D03*
X012007Y001350D03*
X008455Y001250D03*
X007707Y001250D03*
X003455Y001250D03*
X002707Y001250D03*
X016407Y001350D03*
X017155Y001350D03*
D16*
X011468Y016355D03*
X011271Y016355D03*
X011074Y016355D03*
X010878Y016355D03*
X010681Y016355D03*
X010681Y018126D03*
X010878Y018126D03*
X011074Y018126D03*
X011271Y018126D03*
X011468Y018126D03*
D17*
X004581Y014736D03*
X003081Y006736D03*
X007881Y006736D03*
X012481Y006736D03*
X016781Y006736D03*
D18*
X002175Y003350D03*
X003986Y003350D03*
X006975Y003350D03*
X008786Y003350D03*
X011575Y003350D03*
X013386Y003350D03*
X015875Y003350D03*
X017686Y003350D03*
X005486Y011350D03*
X003675Y011350D03*
D19*
X014167Y016650D03*
X014955Y016276D03*
X014955Y017024D03*
D20*
X016081Y017024D03*
X016081Y016276D03*
X006481Y024576D03*
X006481Y025324D03*
X002381Y011524D03*
X002381Y010776D03*
D21*
X006921Y011050D03*
X008041Y011050D03*
X008141Y012750D03*
X008141Y014550D03*
X007021Y014550D03*
X007021Y012750D03*
X010621Y013250D03*
X011741Y013250D03*
X011741Y011350D03*
X011741Y009550D03*
X010621Y009550D03*
X010621Y011350D03*
D22*
X010843Y020050D03*
X011433Y020050D03*
X012024Y020050D03*
X012615Y020050D03*
X013205Y020050D03*
X013796Y020050D03*
X014386Y020050D03*
X014977Y020050D03*
X015567Y020050D03*
X015567Y025207D03*
X014977Y025207D03*
X014386Y025207D03*
X013796Y025207D03*
X013205Y025207D03*
X012615Y025207D03*
X012024Y025207D03*
X011433Y025207D03*
X010843Y025207D03*
X010252Y025207D03*
X009662Y025207D03*
X009071Y025207D03*
X008481Y025207D03*
X008481Y020050D03*
X009071Y020050D03*
X009662Y020050D03*
X010252Y020050D03*
D23*
X007756Y020581D03*
X007756Y021172D03*
X007756Y021763D03*
X007756Y022353D03*
X007756Y022944D03*
X007756Y023534D03*
X007756Y024125D03*
X007756Y024715D03*
D24*
X009081Y029750D03*
X009081Y030750D03*
X010081Y030750D03*
X010081Y029750D03*
X011081Y029750D03*
X011081Y030750D03*
X012081Y030750D03*
X012081Y029750D03*
X013081Y029750D03*
X013081Y030750D03*
X014081Y030750D03*
X014081Y029750D03*
X015081Y029750D03*
X016581Y029750D03*
X017981Y029750D03*
X018081Y014350D03*
X017081Y012150D03*
X017081Y010950D03*
X017081Y009750D03*
D25*
X018556Y015100D03*
X015406Y016300D03*
X013556Y015750D03*
X012431Y015650D03*
X011981Y016650D03*
X012206Y017100D03*
X011481Y016875D03*
X010756Y017050D03*
X010156Y016400D03*
X010406Y016150D03*
X009606Y017050D03*
X010681Y018625D03*
X011056Y019225D03*
X011281Y018675D03*
X012081Y021400D03*
X009956Y025775D03*
X009306Y024625D03*
X009081Y024075D03*
X007931Y025300D03*
X010606Y028175D03*
X011356Y028925D03*
X013806Y028925D03*
X014956Y027125D03*
X015556Y026850D03*
X012256Y013475D03*
X010381Y006375D03*
X011056Y003900D03*
X016406Y003900D03*
X004431Y012425D03*
X004206Y011875D03*
X002906Y023950D03*
M02*
