G75*
%MOIN*%
%OFA0B0*%
%FSLAX24Y24*%
%IPPOS*%
%LPD*%
%AMOC8*
5,1,8,0,0,1.08239X$1,22.5*
%
%ADD10R,0.0591X0.0591*%
%ADD11C,0.0591*%
%ADD12OC8,0.0591*%
%ADD13C,0.0060*%
%ADD14C,0.0270*%
%ADD15C,0.0100*%
D10*
X002781Y027850D03*
X015081Y030750D03*
X016581Y030750D03*
X017981Y030750D03*
X018081Y013350D03*
X018081Y012150D03*
X018081Y010950D03*
X018081Y009750D03*
D11*
X002781Y025850D03*
X002781Y026850D03*
D12*
X009081Y029750D03*
X009081Y030750D03*
X010081Y030750D03*
X010081Y029750D03*
X011081Y029750D03*
X011081Y030750D03*
X012081Y030750D03*
X012081Y029750D03*
X013081Y029750D03*
X013081Y030750D03*
X014081Y030750D03*
X014081Y029750D03*
X015081Y029750D03*
X016581Y029750D03*
X017981Y029750D03*
X018081Y014350D03*
X017081Y012150D03*
X017081Y010950D03*
X017081Y009750D03*
D13*
X018081Y009750D02*
X018081Y010950D01*
X018081Y012150D01*
X018081Y013150D02*
X018081Y013350D01*
X018081Y013150D02*
X017081Y012150D01*
X017756Y013750D02*
X010381Y006375D01*
X010156Y004800D02*
X011056Y003900D01*
X010156Y004800D02*
X010156Y016400D01*
X010406Y016150D02*
X010906Y015650D01*
X012431Y015650D01*
X011981Y016650D02*
X008981Y016650D01*
X004206Y011875D01*
X004431Y012425D02*
X010656Y018650D01*
X010681Y018625D01*
X010681Y019800D01*
X002781Y027700D01*
X002781Y027850D01*
X002781Y025850D02*
X002781Y024075D01*
X002906Y023950D01*
X006631Y025175D02*
X006631Y028300D01*
X009081Y030750D01*
X010081Y029750D02*
X007656Y027325D01*
X007656Y024900D01*
X011281Y021275D01*
X011281Y018675D01*
X011506Y018575D02*
X011131Y018200D01*
X011131Y017525D01*
X011481Y017175D01*
X011481Y016875D01*
X010756Y017050D02*
X009606Y017050D01*
X011056Y019225D02*
X011056Y020750D01*
X006631Y025175D01*
X007931Y025300D02*
X008631Y025300D01*
X009306Y024625D01*
X009731Y024725D02*
X009081Y024075D01*
X009731Y024725D02*
X009731Y028625D01*
X010681Y029575D01*
X010681Y030350D01*
X011081Y030750D01*
X011481Y030150D02*
X011481Y029375D01*
X009956Y027850D01*
X009956Y025775D01*
X011506Y027275D02*
X010606Y028175D01*
X011356Y028925D02*
X011631Y028650D01*
X011631Y021525D01*
X015406Y017750D01*
X015406Y016300D01*
X014806Y014350D02*
X013931Y013475D01*
X012256Y013475D01*
X013556Y015750D02*
X012206Y017100D01*
X011506Y018575D02*
X011506Y027275D01*
X012081Y029750D02*
X012081Y021400D01*
X013081Y020250D02*
X018481Y014850D01*
X018481Y014200D01*
X018031Y013750D01*
X017756Y013750D01*
X018081Y014350D02*
X014806Y014350D01*
X013081Y020250D02*
X013081Y029750D01*
X013456Y029575D02*
X013481Y029600D01*
X013481Y030350D01*
X013081Y030750D01*
X013681Y030350D02*
X013681Y029625D01*
X013581Y029525D01*
X013581Y028825D01*
X015556Y026850D01*
X014956Y027125D02*
X014956Y027275D01*
X013456Y028775D01*
X013456Y029575D01*
X013681Y030350D02*
X014081Y030750D01*
X014481Y030000D02*
X014481Y029600D01*
X013806Y028925D01*
X014481Y030000D02*
X015081Y030600D01*
X015081Y030750D01*
X016581Y030750D01*
X017981Y030750D01*
X012081Y030750D02*
X011481Y030150D01*
X018556Y015100D02*
X018656Y015000D01*
X018656Y006150D01*
X016406Y003900D01*
D14*
X016406Y003900D03*
X011056Y003900D03*
X010381Y006375D03*
X012256Y013475D03*
X012431Y015650D03*
X011981Y016650D03*
X012206Y017100D03*
X011481Y016875D03*
X010756Y017050D03*
X010156Y016400D03*
X010406Y016150D03*
X009606Y017050D03*
X010681Y018625D03*
X011056Y019225D03*
X011281Y018675D03*
X012081Y021400D03*
X009956Y025775D03*
X009306Y024625D03*
X009081Y024075D03*
X007931Y025300D03*
X010606Y028175D03*
X011356Y028925D03*
X013806Y028925D03*
X014956Y027125D03*
X015556Y026850D03*
X015406Y016300D03*
X013556Y015750D03*
X018556Y015100D03*
X004431Y012425D03*
X004206Y011875D03*
X002906Y023950D03*
D15*
X000681Y031446D02*
X000681Y000350D01*
X018651Y000350D01*
X018651Y005947D01*
X016651Y003947D01*
X016651Y003851D01*
X016613Y003761D01*
X016544Y003692D01*
X016454Y003655D01*
X016357Y003655D01*
X016267Y003692D01*
X016198Y003761D01*
X016161Y003851D01*
X016161Y003949D01*
X016198Y004039D01*
X016267Y004108D01*
X016357Y004145D01*
X016453Y004145D01*
X018516Y006208D01*
X018516Y014037D01*
X018234Y013755D01*
X018422Y013755D01*
X018486Y013691D01*
X018486Y013009D01*
X018422Y012945D01*
X018073Y012945D01*
X017466Y012338D01*
X017486Y012318D01*
X017486Y011982D01*
X017249Y011745D01*
X016913Y011745D01*
X016675Y011982D01*
X016675Y012318D01*
X016913Y012555D01*
X017249Y012555D01*
X017268Y012536D01*
X017709Y012976D01*
X017675Y013009D01*
X017675Y013472D01*
X010626Y006422D01*
X010626Y006326D01*
X010588Y006236D01*
X010519Y006167D01*
X010429Y006130D01*
X010332Y006130D01*
X010296Y006145D01*
X010296Y004858D01*
X011009Y004145D01*
X011104Y004145D01*
X011194Y004108D01*
X011263Y004039D01*
X011301Y003949D01*
X011301Y003851D01*
X011263Y003761D01*
X011194Y003692D01*
X011104Y003655D01*
X011007Y003655D01*
X010917Y003692D01*
X010848Y003761D01*
X010811Y003851D01*
X010811Y003947D01*
X010016Y004742D01*
X010016Y016194D01*
X009948Y016261D01*
X009911Y016351D01*
X009911Y016449D01*
X009936Y016510D01*
X009039Y016510D01*
X004451Y011922D01*
X004451Y011826D01*
X004413Y011736D01*
X004344Y011667D01*
X004254Y011630D01*
X004157Y011630D01*
X004067Y011667D01*
X003998Y011736D01*
X003961Y011826D01*
X003961Y011924D01*
X003998Y012014D01*
X004067Y012083D01*
X004157Y012120D01*
X004253Y012120D01*
X004333Y012200D01*
X004292Y012217D01*
X004223Y012286D01*
X004186Y012376D01*
X004186Y012474D01*
X004223Y012564D01*
X004292Y012633D01*
X004382Y012670D01*
X004478Y012670D01*
X010436Y018628D01*
X010436Y018674D01*
X010473Y018764D01*
X010541Y018831D01*
X010541Y019742D01*
X002838Y027445D01*
X002440Y027445D01*
X002375Y027509D01*
X002375Y028191D01*
X002440Y028255D01*
X003122Y028255D01*
X003186Y028191D01*
X003186Y027509D01*
X003178Y027501D01*
X010739Y019940D01*
X010821Y019858D01*
X010821Y019298D01*
X010848Y019364D01*
X010916Y019431D01*
X010916Y020692D01*
X006573Y025035D01*
X006491Y025117D01*
X006491Y028358D01*
X008695Y030562D01*
X008675Y030582D01*
X008675Y030918D01*
X008913Y031155D01*
X009249Y031155D01*
X009486Y030918D01*
X009486Y030582D01*
X009249Y030345D01*
X008913Y030345D01*
X008893Y030364D01*
X006771Y028242D01*
X006771Y025233D01*
X011141Y020863D01*
X011141Y021217D01*
X007516Y024842D01*
X007516Y027383D01*
X009695Y029562D01*
X009675Y029582D01*
X009675Y029918D01*
X009913Y030155D01*
X010249Y030155D01*
X010486Y029918D01*
X010486Y029582D01*
X010249Y029345D01*
X009913Y029345D01*
X009893Y029364D01*
X007796Y027267D01*
X007796Y025509D01*
X007882Y025545D01*
X007979Y025545D01*
X008069Y025508D01*
X008137Y025440D01*
X008689Y025440D01*
X009259Y024870D01*
X009354Y024870D01*
X009444Y024833D01*
X009513Y024764D01*
X009530Y024723D01*
X009591Y024783D01*
X009591Y028683D01*
X010541Y029633D01*
X010541Y030408D01*
X010695Y030562D01*
X010675Y030582D01*
X010675Y030918D01*
X010913Y031155D01*
X011249Y031155D01*
X011486Y030918D01*
X011486Y030582D01*
X011249Y030345D01*
X010913Y030345D01*
X010893Y030364D01*
X010821Y030292D01*
X010821Y030063D01*
X010913Y030155D01*
X011249Y030155D01*
X011341Y030063D01*
X011341Y030208D01*
X011423Y030290D01*
X011695Y030562D01*
X011675Y030582D01*
X011675Y030918D01*
X011913Y031155D01*
X012249Y031155D01*
X012486Y030918D01*
X012486Y030582D01*
X012249Y030345D01*
X011913Y030345D01*
X011893Y030364D01*
X011621Y030092D01*
X011621Y029317D01*
X011453Y029150D01*
X011494Y029133D01*
X011563Y029064D01*
X011601Y028974D01*
X011601Y028878D01*
X011771Y028708D01*
X011771Y021583D01*
X011856Y021498D01*
X011873Y021539D01*
X011941Y021606D01*
X011941Y029345D01*
X011913Y029345D01*
X011675Y029582D01*
X011675Y029918D01*
X011913Y030155D01*
X012249Y030155D01*
X012486Y029918D01*
X012486Y029582D01*
X012249Y029345D01*
X012221Y029345D01*
X012221Y021606D01*
X012288Y021539D01*
X012326Y021449D01*
X012326Y021351D01*
X012288Y021261D01*
X012219Y021192D01*
X012178Y021175D01*
X012941Y020413D01*
X012941Y029345D01*
X012913Y029345D01*
X012675Y029582D01*
X012675Y029918D01*
X012913Y030155D01*
X013249Y030155D01*
X013341Y030063D01*
X013341Y030292D01*
X013268Y030364D01*
X013249Y030345D01*
X012913Y030345D01*
X012675Y030582D01*
X012675Y030918D01*
X012913Y031155D01*
X013249Y031155D01*
X013486Y030918D01*
X013486Y030582D01*
X013466Y030562D01*
X013581Y030448D01*
X013695Y030562D01*
X013675Y030582D01*
X013675Y030918D01*
X013913Y031155D01*
X014249Y031155D01*
X014486Y030918D01*
X014486Y030582D01*
X014249Y030345D01*
X013913Y030345D01*
X013893Y030364D01*
X013821Y030292D01*
X013821Y030063D01*
X013913Y030155D01*
X014249Y030155D01*
X014343Y030061D01*
X014423Y030140D01*
X014684Y030401D01*
X014675Y030409D01*
X014675Y031091D01*
X014740Y031155D01*
X015422Y031155D01*
X015486Y031091D01*
X015486Y030890D01*
X016175Y030890D01*
X016175Y031091D01*
X016240Y031155D01*
X016922Y031155D01*
X016986Y031091D01*
X016986Y030890D01*
X017575Y030890D01*
X017575Y031091D01*
X017640Y031155D01*
X018322Y031155D01*
X018386Y031091D01*
X018386Y030409D01*
X018322Y030345D01*
X017640Y030345D01*
X017575Y030409D01*
X017575Y030610D01*
X016986Y030610D01*
X016986Y030409D01*
X016922Y030345D01*
X016240Y030345D01*
X016175Y030409D01*
X016175Y030610D01*
X015486Y030610D01*
X015486Y030409D01*
X015422Y030345D01*
X015023Y030345D01*
X014621Y029942D01*
X014621Y029542D01*
X014051Y028972D01*
X014051Y028876D01*
X014013Y028786D01*
X013944Y028717D01*
X013903Y028700D01*
X015509Y027095D01*
X015604Y027095D01*
X015694Y027058D01*
X015763Y026989D01*
X015801Y026899D01*
X015801Y026801D01*
X015763Y026711D01*
X015694Y026642D01*
X015604Y026605D01*
X015507Y026605D01*
X015417Y026642D01*
X015348Y026711D01*
X015311Y026801D01*
X015311Y026897D01*
X015180Y027027D01*
X015163Y026986D01*
X015094Y026917D01*
X015004Y026880D01*
X014907Y026880D01*
X014817Y026917D01*
X014748Y026986D01*
X014711Y027076D01*
X014711Y027174D01*
X014748Y027264D01*
X014758Y027274D01*
X013398Y028635D01*
X013316Y028717D01*
X013316Y029412D01*
X013249Y029345D01*
X013221Y029345D01*
X013221Y020308D01*
X018331Y015198D01*
X018348Y015239D01*
X018417Y015308D01*
X018507Y015345D01*
X018604Y015345D01*
X018651Y015326D01*
X018651Y031446D01*
X000681Y031446D01*
X000681Y031375D02*
X018651Y031375D01*
X018651Y031276D02*
X000681Y031276D01*
X000681Y031178D02*
X018651Y031178D01*
X018651Y031079D02*
X018386Y031079D01*
X018386Y030981D02*
X018651Y030981D01*
X018651Y030882D02*
X018386Y030882D01*
X018386Y030784D02*
X018651Y030784D01*
X018651Y030685D02*
X018386Y030685D01*
X018386Y030587D02*
X018651Y030587D01*
X018651Y030488D02*
X018386Y030488D01*
X018366Y030390D02*
X018651Y030390D01*
X018651Y030291D02*
X014970Y030291D01*
X015032Y030195D02*
X014896Y030195D01*
X014635Y029934D01*
X014635Y029798D01*
X015032Y029798D01*
X015032Y029702D01*
X014635Y029702D01*
X014635Y029566D01*
X014896Y029305D01*
X015032Y029305D01*
X015032Y029702D01*
X015129Y029702D01*
X015129Y029798D01*
X015526Y029798D01*
X015526Y029934D01*
X015265Y030195D01*
X015129Y030195D01*
X015129Y029798D01*
X015032Y029798D01*
X015032Y030195D01*
X015032Y030193D02*
X015129Y030193D01*
X015129Y030094D02*
X015032Y030094D01*
X015032Y029996D02*
X015129Y029996D01*
X015129Y029897D02*
X015032Y029897D01*
X015032Y029799D02*
X015129Y029799D01*
X015129Y029702D02*
X015526Y029702D01*
X015526Y029566D01*
X015265Y029305D01*
X015129Y029305D01*
X015129Y029702D01*
X015129Y029700D02*
X015032Y029700D01*
X015032Y029602D02*
X015129Y029602D01*
X015129Y029503D02*
X015032Y029503D01*
X015032Y029405D02*
X015129Y029405D01*
X015129Y029306D02*
X015032Y029306D01*
X014895Y029306D02*
X014385Y029306D01*
X014483Y029405D02*
X014796Y029405D01*
X014698Y029503D02*
X014582Y029503D01*
X014621Y029602D02*
X014635Y029602D01*
X014621Y029700D02*
X014635Y029700D01*
X014621Y029799D02*
X014635Y029799D01*
X014621Y029897D02*
X014635Y029897D01*
X014674Y029996D02*
X014697Y029996D01*
X014773Y030094D02*
X014795Y030094D01*
X014871Y030193D02*
X014894Y030193D01*
X014672Y030390D02*
X014293Y030390D01*
X014392Y030488D02*
X014675Y030488D01*
X014675Y030587D02*
X014486Y030587D01*
X014486Y030685D02*
X014675Y030685D01*
X014675Y030784D02*
X014486Y030784D01*
X014486Y030882D02*
X014675Y030882D01*
X014675Y030981D02*
X014423Y030981D01*
X014325Y031079D02*
X014675Y031079D01*
X014574Y030291D02*
X013821Y030291D01*
X013821Y030193D02*
X014475Y030193D01*
X014377Y030094D02*
X014310Y030094D01*
X013852Y030094D02*
X013821Y030094D01*
X013621Y030488D02*
X013541Y030488D01*
X013486Y030587D02*
X013675Y030587D01*
X013675Y030685D02*
X013486Y030685D01*
X013486Y030784D02*
X013675Y030784D01*
X013675Y030882D02*
X013486Y030882D01*
X013423Y030981D02*
X013738Y030981D01*
X013837Y031079D02*
X013325Y031079D01*
X012837Y031079D02*
X012325Y031079D01*
X012423Y030981D02*
X012738Y030981D01*
X012675Y030882D02*
X012486Y030882D01*
X012486Y030784D02*
X012675Y030784D01*
X012675Y030685D02*
X012486Y030685D01*
X012486Y030587D02*
X012675Y030587D01*
X012769Y030488D02*
X012392Y030488D01*
X012293Y030390D02*
X012868Y030390D01*
X012852Y030094D02*
X012310Y030094D01*
X012408Y029996D02*
X012753Y029996D01*
X012675Y029897D02*
X012486Y029897D01*
X012486Y029799D02*
X012675Y029799D01*
X012675Y029700D02*
X012486Y029700D01*
X012486Y029602D02*
X012675Y029602D01*
X012754Y029503D02*
X012407Y029503D01*
X012308Y029405D02*
X012853Y029405D01*
X012941Y029306D02*
X012221Y029306D01*
X012221Y029208D02*
X012941Y029208D01*
X012941Y029109D02*
X012221Y029109D01*
X012221Y029011D02*
X012941Y029011D01*
X012941Y028912D02*
X012221Y028912D01*
X012221Y028814D02*
X012941Y028814D01*
X012941Y028715D02*
X012221Y028715D01*
X012221Y028617D02*
X012941Y028617D01*
X012941Y028518D02*
X012221Y028518D01*
X012221Y028420D02*
X012941Y028420D01*
X012941Y028321D02*
X012221Y028321D01*
X012221Y028223D02*
X012941Y028223D01*
X012941Y028124D02*
X012221Y028124D01*
X012221Y028026D02*
X012941Y028026D01*
X012941Y027927D02*
X012221Y027927D01*
X012221Y027829D02*
X012941Y027829D01*
X012941Y027730D02*
X012221Y027730D01*
X012221Y027632D02*
X012941Y027632D01*
X012941Y027533D02*
X012221Y027533D01*
X012221Y027435D02*
X012941Y027435D01*
X012941Y027336D02*
X012221Y027336D01*
X012221Y027238D02*
X012941Y027238D01*
X012941Y027139D02*
X012221Y027139D01*
X012221Y027041D02*
X012941Y027041D01*
X012941Y026942D02*
X012221Y026942D01*
X012221Y026844D02*
X012941Y026844D01*
X012941Y026745D02*
X012221Y026745D01*
X012221Y026647D02*
X012941Y026647D01*
X012941Y026548D02*
X012221Y026548D01*
X012221Y026450D02*
X012941Y026450D01*
X012941Y026351D02*
X012221Y026351D01*
X012221Y026253D02*
X012941Y026253D01*
X012941Y026154D02*
X012221Y026154D01*
X012221Y026056D02*
X012941Y026056D01*
X012941Y025957D02*
X012221Y025957D01*
X012221Y025859D02*
X012941Y025859D01*
X012941Y025760D02*
X012221Y025760D01*
X012221Y025662D02*
X012941Y025662D01*
X012941Y025563D02*
X012221Y025563D01*
X012221Y025465D02*
X012941Y025465D01*
X012941Y025366D02*
X012221Y025366D01*
X012221Y025268D02*
X012941Y025268D01*
X012941Y025169D02*
X012221Y025169D01*
X012221Y025071D02*
X012941Y025071D01*
X012941Y024972D02*
X012221Y024972D01*
X012221Y024874D02*
X012941Y024874D01*
X012941Y024775D02*
X012221Y024775D01*
X012221Y024677D02*
X012941Y024677D01*
X012941Y024578D02*
X012221Y024578D01*
X012221Y024480D02*
X012941Y024480D01*
X012941Y024381D02*
X012221Y024381D01*
X012221Y024283D02*
X012941Y024283D01*
X012941Y024184D02*
X012221Y024184D01*
X012221Y024086D02*
X012941Y024086D01*
X012941Y023987D02*
X012221Y023987D01*
X012221Y023889D02*
X012941Y023889D01*
X012941Y023790D02*
X012221Y023790D01*
X012221Y023692D02*
X012941Y023692D01*
X012941Y023593D02*
X012221Y023593D01*
X012221Y023495D02*
X012941Y023495D01*
X012941Y023396D02*
X012221Y023396D01*
X012221Y023298D02*
X012941Y023298D01*
X012941Y023199D02*
X012221Y023199D01*
X012221Y023101D02*
X012941Y023101D01*
X012941Y023002D02*
X012221Y023002D01*
X012221Y022904D02*
X012941Y022904D01*
X012941Y022805D02*
X012221Y022805D01*
X012221Y022707D02*
X012941Y022707D01*
X012941Y022608D02*
X012221Y022608D01*
X012221Y022510D02*
X012941Y022510D01*
X012941Y022411D02*
X012221Y022411D01*
X012221Y022313D02*
X012941Y022313D01*
X012941Y022214D02*
X012221Y022214D01*
X012221Y022116D02*
X012941Y022116D01*
X012941Y022017D02*
X012221Y022017D01*
X012221Y021919D02*
X012941Y021919D01*
X012941Y021820D02*
X012221Y021820D01*
X012221Y021722D02*
X012941Y021722D01*
X012941Y021623D02*
X012221Y021623D01*
X012294Y021525D02*
X012941Y021525D01*
X012941Y021426D02*
X012326Y021426D01*
X012316Y021328D02*
X012941Y021328D01*
X012941Y021229D02*
X012256Y021229D01*
X012223Y021131D02*
X012941Y021131D01*
X012941Y021032D02*
X012322Y021032D01*
X012420Y020934D02*
X012941Y020934D01*
X012941Y020835D02*
X012519Y020835D01*
X012617Y020737D02*
X012941Y020737D01*
X012941Y020638D02*
X012716Y020638D01*
X012814Y020540D02*
X012941Y020540D01*
X012941Y020441D02*
X012913Y020441D01*
X013221Y020441D02*
X016131Y020441D01*
X016131Y020343D02*
X013221Y020343D01*
X013285Y020244D02*
X016131Y020244D01*
X016131Y020146D02*
X013383Y020146D01*
X013482Y020047D02*
X016131Y020047D01*
X016131Y019949D02*
X013580Y019949D01*
X013679Y019850D02*
X016131Y019850D01*
X016131Y019752D02*
X013777Y019752D01*
X013876Y019653D02*
X016131Y019653D01*
X016131Y019555D02*
X013974Y019555D01*
X014073Y019456D02*
X016131Y019456D01*
X016131Y019429D02*
X016160Y019400D01*
X018501Y019400D01*
X018531Y019429D01*
X018531Y025871D01*
X018501Y025900D01*
X016160Y025900D01*
X016131Y025871D01*
X016131Y019429D01*
X016131Y020540D02*
X013221Y020540D01*
X013221Y020638D02*
X016131Y020638D01*
X016131Y020737D02*
X013221Y020737D01*
X013221Y020835D02*
X016131Y020835D01*
X016131Y020934D02*
X013221Y020934D01*
X013221Y021032D02*
X016131Y021032D01*
X016131Y021131D02*
X013221Y021131D01*
X013221Y021229D02*
X016131Y021229D01*
X016131Y021328D02*
X013221Y021328D01*
X013221Y021426D02*
X016131Y021426D01*
X016131Y021525D02*
X013221Y021525D01*
X013221Y021623D02*
X016131Y021623D01*
X016131Y021722D02*
X013221Y021722D01*
X013221Y021820D02*
X016131Y021820D01*
X016131Y021919D02*
X013221Y021919D01*
X013221Y022017D02*
X016131Y022017D01*
X016131Y022116D02*
X013221Y022116D01*
X013221Y022214D02*
X016131Y022214D01*
X016131Y022313D02*
X013221Y022313D01*
X013221Y022411D02*
X016131Y022411D01*
X016131Y022510D02*
X013221Y022510D01*
X013221Y022608D02*
X016131Y022608D01*
X016131Y022707D02*
X013221Y022707D01*
X013221Y022805D02*
X016131Y022805D01*
X016131Y022904D02*
X013221Y022904D01*
X013221Y023002D02*
X016131Y023002D01*
X016131Y023101D02*
X013221Y023101D01*
X013221Y023199D02*
X016131Y023199D01*
X016131Y023298D02*
X013221Y023298D01*
X013221Y023396D02*
X016131Y023396D01*
X016131Y023495D02*
X013221Y023495D01*
X013221Y023593D02*
X016131Y023593D01*
X016131Y023692D02*
X013221Y023692D01*
X013221Y023790D02*
X016131Y023790D01*
X016131Y023889D02*
X013221Y023889D01*
X013221Y023987D02*
X016131Y023987D01*
X016131Y024086D02*
X013221Y024086D01*
X013221Y024184D02*
X016131Y024184D01*
X016131Y024283D02*
X013221Y024283D01*
X013221Y024381D02*
X016131Y024381D01*
X016131Y024480D02*
X013221Y024480D01*
X013221Y024578D02*
X016131Y024578D01*
X016131Y024677D02*
X013221Y024677D01*
X013221Y024775D02*
X016131Y024775D01*
X016131Y024874D02*
X013221Y024874D01*
X013221Y024972D02*
X016131Y024972D01*
X016131Y025071D02*
X013221Y025071D01*
X013221Y025169D02*
X016131Y025169D01*
X016131Y025268D02*
X013221Y025268D01*
X013221Y025366D02*
X016131Y025366D01*
X016131Y025465D02*
X013221Y025465D01*
X013221Y025563D02*
X016131Y025563D01*
X016131Y025662D02*
X013221Y025662D01*
X013221Y025760D02*
X016131Y025760D01*
X016131Y025859D02*
X013221Y025859D01*
X013221Y025957D02*
X018651Y025957D01*
X018651Y025859D02*
X018531Y025859D01*
X018531Y025760D02*
X018651Y025760D01*
X018651Y025662D02*
X018531Y025662D01*
X018531Y025563D02*
X018651Y025563D01*
X018651Y025465D02*
X018531Y025465D01*
X018531Y025366D02*
X018651Y025366D01*
X018651Y025268D02*
X018531Y025268D01*
X018531Y025169D02*
X018651Y025169D01*
X018651Y025071D02*
X018531Y025071D01*
X018531Y024972D02*
X018651Y024972D01*
X018651Y024874D02*
X018531Y024874D01*
X018531Y024775D02*
X018651Y024775D01*
X018651Y024677D02*
X018531Y024677D01*
X018531Y024578D02*
X018651Y024578D01*
X018651Y024480D02*
X018531Y024480D01*
X018531Y024381D02*
X018651Y024381D01*
X018651Y024283D02*
X018531Y024283D01*
X018531Y024184D02*
X018651Y024184D01*
X018651Y024086D02*
X018531Y024086D01*
X018531Y023987D02*
X018651Y023987D01*
X018651Y023889D02*
X018531Y023889D01*
X018531Y023790D02*
X018651Y023790D01*
X018651Y023692D02*
X018531Y023692D01*
X018531Y023593D02*
X018651Y023593D01*
X018651Y023495D02*
X018531Y023495D01*
X018531Y023396D02*
X018651Y023396D01*
X018651Y023298D02*
X018531Y023298D01*
X018531Y023199D02*
X018651Y023199D01*
X018651Y023101D02*
X018531Y023101D01*
X018531Y023002D02*
X018651Y023002D01*
X018651Y022904D02*
X018531Y022904D01*
X018531Y022805D02*
X018651Y022805D01*
X018651Y022707D02*
X018531Y022707D01*
X018531Y022608D02*
X018651Y022608D01*
X018651Y022510D02*
X018531Y022510D01*
X018531Y022411D02*
X018651Y022411D01*
X018651Y022313D02*
X018531Y022313D01*
X018531Y022214D02*
X018651Y022214D01*
X018651Y022116D02*
X018531Y022116D01*
X018531Y022017D02*
X018651Y022017D01*
X018651Y021919D02*
X018531Y021919D01*
X018531Y021820D02*
X018651Y021820D01*
X018651Y021722D02*
X018531Y021722D01*
X018531Y021623D02*
X018651Y021623D01*
X018651Y021525D02*
X018531Y021525D01*
X018531Y021426D02*
X018651Y021426D01*
X018651Y021328D02*
X018531Y021328D01*
X018531Y021229D02*
X018651Y021229D01*
X018651Y021131D02*
X018531Y021131D01*
X018531Y021032D02*
X018651Y021032D01*
X018651Y020934D02*
X018531Y020934D01*
X018531Y020835D02*
X018651Y020835D01*
X018651Y020737D02*
X018531Y020737D01*
X018531Y020638D02*
X018651Y020638D01*
X018651Y020540D02*
X018531Y020540D01*
X018531Y020441D02*
X018651Y020441D01*
X018651Y020343D02*
X018531Y020343D01*
X018531Y020244D02*
X018651Y020244D01*
X018651Y020146D02*
X018531Y020146D01*
X018531Y020047D02*
X018651Y020047D01*
X018651Y019949D02*
X018531Y019949D01*
X018531Y019850D02*
X018651Y019850D01*
X018651Y019752D02*
X018531Y019752D01*
X018531Y019653D02*
X018651Y019653D01*
X018651Y019555D02*
X018531Y019555D01*
X018531Y019456D02*
X018651Y019456D01*
X018651Y019358D02*
X014171Y019358D01*
X014270Y019259D02*
X018651Y019259D01*
X018651Y019161D02*
X014368Y019161D01*
X014467Y019062D02*
X018651Y019062D01*
X018651Y018964D02*
X014565Y018964D01*
X014664Y018865D02*
X018651Y018865D01*
X018651Y018767D02*
X014762Y018767D01*
X014861Y018668D02*
X018651Y018668D01*
X018651Y018570D02*
X014959Y018570D01*
X015058Y018471D02*
X018651Y018471D01*
X018651Y018373D02*
X015156Y018373D01*
X015255Y018274D02*
X018651Y018274D01*
X018651Y018176D02*
X015353Y018176D01*
X015452Y018077D02*
X018651Y018077D01*
X018651Y017979D02*
X015550Y017979D01*
X015649Y017880D02*
X018651Y017880D01*
X018651Y017782D02*
X015747Y017782D01*
X015846Y017683D02*
X018651Y017683D01*
X018651Y017585D02*
X015944Y017585D01*
X016043Y017486D02*
X018651Y017486D01*
X018651Y017388D02*
X016141Y017388D01*
X016240Y017289D02*
X018651Y017289D01*
X018651Y017191D02*
X016338Y017191D01*
X016437Y017092D02*
X018651Y017092D01*
X018651Y016994D02*
X016535Y016994D01*
X016634Y016895D02*
X018651Y016895D01*
X018651Y016797D02*
X016732Y016797D01*
X016831Y016698D02*
X018651Y016698D01*
X018651Y016600D02*
X016929Y016600D01*
X017028Y016501D02*
X018651Y016501D01*
X018651Y016403D02*
X017126Y016403D01*
X017225Y016304D02*
X018651Y016304D01*
X018651Y016206D02*
X017323Y016206D01*
X017422Y016107D02*
X018651Y016107D01*
X018651Y016009D02*
X017520Y016009D01*
X017619Y015910D02*
X018651Y015910D01*
X018651Y015812D02*
X017717Y015812D01*
X017816Y015713D02*
X018651Y015713D01*
X018651Y015615D02*
X017914Y015615D01*
X018013Y015516D02*
X018651Y015516D01*
X018651Y015418D02*
X018111Y015418D01*
X018210Y015319D02*
X018444Y015319D01*
X018340Y015221D02*
X018308Y015221D01*
X018419Y013940D02*
X018516Y013940D01*
X018516Y013842D02*
X018320Y013842D01*
X018434Y013743D02*
X018516Y013743D01*
X018516Y013645D02*
X018486Y013645D01*
X018486Y013546D02*
X018516Y013546D01*
X018516Y013448D02*
X018486Y013448D01*
X018486Y013349D02*
X018516Y013349D01*
X018516Y013251D02*
X018486Y013251D01*
X018486Y013152D02*
X018516Y013152D01*
X018516Y013054D02*
X018486Y013054D01*
X018516Y012955D02*
X018432Y012955D01*
X018516Y012857D02*
X017985Y012857D01*
X017887Y012758D02*
X018516Y012758D01*
X018516Y012660D02*
X017788Y012660D01*
X017740Y012555D02*
X017675Y012491D01*
X017675Y011809D01*
X017740Y011745D01*
X017941Y011745D01*
X017941Y011355D01*
X017740Y011355D01*
X017675Y011291D01*
X017675Y010609D01*
X017740Y010545D01*
X017941Y010545D01*
X017941Y010155D01*
X017740Y010155D01*
X017675Y010091D01*
X017675Y009409D01*
X017740Y009345D01*
X018422Y009345D01*
X018486Y009409D01*
X018516Y009409D01*
X018486Y009409D02*
X018486Y010091D01*
X018422Y010155D01*
X018221Y010155D01*
X018221Y010545D01*
X018422Y010545D01*
X018486Y010609D01*
X018486Y011291D01*
X018422Y011355D01*
X018221Y011355D01*
X018221Y011745D01*
X018422Y011745D01*
X018486Y011809D01*
X018486Y012491D01*
X018422Y012555D01*
X017740Y012555D01*
X017690Y012561D02*
X018516Y012561D01*
X018516Y012463D02*
X018486Y012463D01*
X018486Y012364D02*
X018516Y012364D01*
X018516Y012266D02*
X018486Y012266D01*
X018486Y012167D02*
X018516Y012167D01*
X018516Y012069D02*
X018486Y012069D01*
X018486Y011970D02*
X018516Y011970D01*
X018516Y011872D02*
X018486Y011872D01*
X018516Y011773D02*
X018450Y011773D01*
X018516Y011675D02*
X018221Y011675D01*
X018221Y011576D02*
X018516Y011576D01*
X018516Y011478D02*
X018221Y011478D01*
X018221Y011379D02*
X018516Y011379D01*
X018516Y011281D02*
X018486Y011281D01*
X018486Y011182D02*
X018516Y011182D01*
X018516Y011084D02*
X018486Y011084D01*
X018486Y010985D02*
X018516Y010985D01*
X018516Y010887D02*
X018486Y010887D01*
X018486Y010788D02*
X018516Y010788D01*
X018516Y010690D02*
X018486Y010690D01*
X018468Y010591D02*
X018516Y010591D01*
X018516Y010493D02*
X018221Y010493D01*
X018221Y010394D02*
X018516Y010394D01*
X018516Y010296D02*
X018221Y010296D01*
X018221Y010197D02*
X018516Y010197D01*
X018516Y010099D02*
X018478Y010099D01*
X018486Y010000D02*
X018516Y010000D01*
X018516Y009902D02*
X018486Y009902D01*
X018486Y009803D02*
X018516Y009803D01*
X018516Y009705D02*
X018486Y009705D01*
X018486Y009606D02*
X018516Y009606D01*
X018516Y009508D02*
X018486Y009508D01*
X018516Y009311D02*
X017271Y009311D01*
X017265Y009305D02*
X017526Y009566D01*
X017526Y009702D01*
X017129Y009702D01*
X017129Y009798D01*
X017526Y009798D01*
X017526Y009934D01*
X017265Y010195D01*
X017129Y010195D01*
X017129Y009798D01*
X017032Y009798D01*
X017032Y009702D01*
X016635Y009702D01*
X016635Y009566D01*
X016896Y009305D01*
X017032Y009305D01*
X017032Y009702D01*
X017129Y009702D01*
X017129Y009305D01*
X017265Y009305D01*
X017129Y009311D02*
X017032Y009311D01*
X017032Y009409D02*
X017129Y009409D01*
X017129Y009508D02*
X017032Y009508D01*
X017032Y009606D02*
X017129Y009606D01*
X017129Y009705D02*
X017675Y009705D01*
X017675Y009803D02*
X017526Y009803D01*
X017526Y009902D02*
X017675Y009902D01*
X017675Y010000D02*
X017460Y010000D01*
X017362Y010099D02*
X017683Y010099D01*
X017675Y009606D02*
X017526Y009606D01*
X017468Y009508D02*
X017675Y009508D01*
X017676Y009409D02*
X017369Y009409D01*
X017032Y009705D02*
X013908Y009705D01*
X014007Y009803D02*
X016635Y009803D01*
X016635Y009798D02*
X017032Y009798D01*
X017032Y010195D01*
X016896Y010195D01*
X016635Y009934D01*
X016635Y009798D01*
X016635Y009902D02*
X014105Y009902D01*
X014204Y010000D02*
X016701Y010000D01*
X016800Y010099D02*
X014302Y010099D01*
X014401Y010197D02*
X017941Y010197D01*
X017941Y010296D02*
X014499Y010296D01*
X014598Y010394D02*
X017941Y010394D01*
X017941Y010493D02*
X014696Y010493D01*
X014795Y010591D02*
X016867Y010591D01*
X016913Y010545D02*
X017249Y010545D01*
X017486Y010782D01*
X017486Y011118D01*
X017249Y011355D01*
X016913Y011355D01*
X016675Y011118D01*
X016675Y010782D01*
X016913Y010545D01*
X016768Y010690D02*
X014893Y010690D01*
X014992Y010788D02*
X016675Y010788D01*
X016675Y010887D02*
X015090Y010887D01*
X015189Y010985D02*
X016675Y010985D01*
X016675Y011084D02*
X015287Y011084D01*
X015386Y011182D02*
X016740Y011182D01*
X016838Y011281D02*
X015484Y011281D01*
X015583Y011379D02*
X017941Y011379D01*
X017941Y011478D02*
X015681Y011478D01*
X015780Y011576D02*
X017941Y011576D01*
X017941Y011675D02*
X015878Y011675D01*
X015977Y011773D02*
X016885Y011773D01*
X016786Y011872D02*
X016075Y011872D01*
X016174Y011970D02*
X016688Y011970D01*
X016675Y012069D02*
X016272Y012069D01*
X016371Y012167D02*
X016675Y012167D01*
X016675Y012266D02*
X016469Y012266D01*
X016568Y012364D02*
X016722Y012364D01*
X016666Y012463D02*
X016820Y012463D01*
X016765Y012561D02*
X017294Y012561D01*
X017392Y012660D02*
X016863Y012660D01*
X016962Y012758D02*
X017491Y012758D01*
X017589Y012857D02*
X017060Y012857D01*
X017159Y012955D02*
X017688Y012955D01*
X017675Y013054D02*
X017257Y013054D01*
X017356Y013152D02*
X017675Y013152D01*
X017675Y013251D02*
X017454Y013251D01*
X017553Y013349D02*
X017675Y013349D01*
X017675Y013448D02*
X017651Y013448D01*
X017675Y012463D02*
X017591Y012463D01*
X017675Y012364D02*
X017493Y012364D01*
X017486Y012266D02*
X017675Y012266D01*
X017675Y012167D02*
X017486Y012167D01*
X017486Y012069D02*
X017675Y012069D01*
X017675Y011970D02*
X017474Y011970D01*
X017375Y011872D02*
X017675Y011872D01*
X017712Y011773D02*
X017277Y011773D01*
X017323Y011281D02*
X017675Y011281D01*
X017675Y011182D02*
X017422Y011182D01*
X017486Y011084D02*
X017675Y011084D01*
X017675Y010985D02*
X017486Y010985D01*
X017486Y010887D02*
X017675Y010887D01*
X017675Y010788D02*
X017486Y010788D01*
X017393Y010690D02*
X017675Y010690D01*
X017694Y010591D02*
X017295Y010591D01*
X017129Y010099D02*
X017032Y010099D01*
X017032Y010000D02*
X017129Y010000D01*
X017129Y009902D02*
X017032Y009902D01*
X017032Y009803D02*
X017129Y009803D01*
X016792Y009409D02*
X013613Y009409D01*
X013711Y009508D02*
X016693Y009508D01*
X016635Y009606D02*
X013810Y009606D01*
X013514Y009311D02*
X016890Y009311D01*
X018516Y009212D02*
X013416Y009212D01*
X013317Y009114D02*
X018516Y009114D01*
X018516Y009015D02*
X013219Y009015D01*
X013120Y008917D02*
X018516Y008917D01*
X018516Y008818D02*
X013022Y008818D01*
X012923Y008720D02*
X018516Y008720D01*
X018516Y008621D02*
X012825Y008621D01*
X012726Y008523D02*
X018516Y008523D01*
X018516Y008424D02*
X012628Y008424D01*
X012529Y008326D02*
X018516Y008326D01*
X018516Y008227D02*
X012431Y008227D01*
X012332Y008129D02*
X018516Y008129D01*
X018516Y008030D02*
X012234Y008030D01*
X012135Y007932D02*
X018516Y007932D01*
X018516Y007833D02*
X012037Y007833D01*
X011938Y007735D02*
X018516Y007735D01*
X018516Y007636D02*
X011840Y007636D01*
X011741Y007538D02*
X018516Y007538D01*
X018516Y007439D02*
X011643Y007439D01*
X011544Y007341D02*
X018516Y007341D01*
X018516Y007242D02*
X011446Y007242D01*
X011347Y007144D02*
X018516Y007144D01*
X018516Y007045D02*
X011249Y007045D01*
X011150Y006947D02*
X018516Y006947D01*
X018516Y006848D02*
X011052Y006848D01*
X010953Y006750D02*
X018516Y006750D01*
X018516Y006651D02*
X010855Y006651D01*
X010756Y006553D02*
X018516Y006553D01*
X018516Y006454D02*
X010658Y006454D01*
X010626Y006356D02*
X018516Y006356D01*
X018516Y006257D02*
X010597Y006257D01*
X010498Y006159D02*
X018466Y006159D01*
X018368Y006060D02*
X010296Y006060D01*
X010296Y005962D02*
X018269Y005962D01*
X018171Y005863D02*
X010296Y005863D01*
X010296Y005765D02*
X018072Y005765D01*
X017974Y005666D02*
X010296Y005666D01*
X010296Y005568D02*
X017875Y005568D01*
X017777Y005469D02*
X010296Y005469D01*
X010296Y005371D02*
X017678Y005371D01*
X017580Y005272D02*
X010296Y005272D01*
X010296Y005174D02*
X017481Y005174D01*
X017383Y005075D02*
X010296Y005075D01*
X010296Y004977D02*
X017284Y004977D01*
X017186Y004878D02*
X010296Y004878D01*
X010374Y004780D02*
X017087Y004780D01*
X016989Y004681D02*
X010473Y004681D01*
X010571Y004583D02*
X016890Y004583D01*
X016792Y004484D02*
X010670Y004484D01*
X010768Y004386D02*
X016693Y004386D01*
X016595Y004287D02*
X010867Y004287D01*
X010965Y004189D02*
X016496Y004189D01*
X016249Y004090D02*
X011212Y004090D01*
X011283Y003992D02*
X016178Y003992D01*
X016161Y003893D02*
X011301Y003893D01*
X011277Y003795D02*
X016184Y003795D01*
X016263Y003696D02*
X011198Y003696D01*
X010913Y003696D02*
X000681Y003696D01*
X000681Y003598D02*
X018651Y003598D01*
X018651Y003696D02*
X016548Y003696D01*
X016627Y003795D02*
X018651Y003795D01*
X018651Y003893D02*
X016651Y003893D01*
X016695Y003992D02*
X018651Y003992D01*
X018651Y004090D02*
X016794Y004090D01*
X016892Y004189D02*
X018651Y004189D01*
X018651Y004287D02*
X016991Y004287D01*
X017089Y004386D02*
X018651Y004386D01*
X018651Y004484D02*
X017188Y004484D01*
X017286Y004583D02*
X018651Y004583D01*
X018651Y004681D02*
X017385Y004681D01*
X017483Y004780D02*
X018651Y004780D01*
X018651Y004878D02*
X017582Y004878D01*
X017680Y004977D02*
X018651Y004977D01*
X018651Y005075D02*
X017779Y005075D01*
X017877Y005174D02*
X018651Y005174D01*
X018651Y005272D02*
X017976Y005272D01*
X018074Y005371D02*
X018651Y005371D01*
X018651Y005469D02*
X018173Y005469D01*
X018271Y005568D02*
X018651Y005568D01*
X018651Y005666D02*
X018370Y005666D01*
X018468Y005765D02*
X018651Y005765D01*
X018651Y005863D02*
X018567Y005863D01*
X018651Y003499D02*
X000681Y003499D01*
X000681Y003401D02*
X018651Y003401D01*
X018651Y003302D02*
X000681Y003302D01*
X000681Y003204D02*
X018651Y003204D01*
X018651Y003105D02*
X000681Y003105D01*
X000681Y003007D02*
X018651Y003007D01*
X018651Y002908D02*
X000681Y002908D01*
X000681Y002810D02*
X018651Y002810D01*
X018651Y002711D02*
X000681Y002711D01*
X000681Y002613D02*
X018651Y002613D01*
X018651Y002514D02*
X000681Y002514D01*
X000681Y002416D02*
X018651Y002416D01*
X018651Y002317D02*
X000681Y002317D01*
X000681Y002219D02*
X018651Y002219D01*
X018651Y002120D02*
X000681Y002120D01*
X000681Y002022D02*
X018651Y002022D01*
X018651Y001923D02*
X000681Y001923D01*
X000681Y001825D02*
X018651Y001825D01*
X018651Y001726D02*
X000681Y001726D01*
X000681Y001628D02*
X018651Y001628D01*
X018651Y001529D02*
X000681Y001529D01*
X000681Y001431D02*
X018651Y001431D01*
X018651Y001332D02*
X000681Y001332D01*
X000681Y001234D02*
X018651Y001234D01*
X018651Y001135D02*
X000681Y001135D01*
X000681Y001037D02*
X018651Y001037D01*
X018651Y000938D02*
X000681Y000938D01*
X000681Y000840D02*
X018651Y000840D01*
X018651Y000741D02*
X000681Y000741D01*
X000681Y000643D02*
X018651Y000643D01*
X018651Y000544D02*
X000681Y000544D01*
X000681Y000446D02*
X018651Y000446D01*
X010834Y003795D02*
X000681Y003795D01*
X000681Y003893D02*
X010811Y003893D01*
X010766Y003992D02*
X000681Y003992D01*
X000681Y004090D02*
X010668Y004090D01*
X010569Y004189D02*
X000681Y004189D01*
X000681Y004287D02*
X010471Y004287D01*
X010372Y004386D02*
X000681Y004386D01*
X000681Y004484D02*
X010274Y004484D01*
X010175Y004583D02*
X000681Y004583D01*
X000681Y004681D02*
X010077Y004681D01*
X010016Y004780D02*
X000681Y004780D01*
X000681Y004878D02*
X010016Y004878D01*
X010016Y004977D02*
X000681Y004977D01*
X000681Y005075D02*
X010016Y005075D01*
X010016Y005174D02*
X000681Y005174D01*
X000681Y005272D02*
X010016Y005272D01*
X010016Y005371D02*
X000681Y005371D01*
X000681Y005469D02*
X010016Y005469D01*
X010016Y005568D02*
X000681Y005568D01*
X000681Y005666D02*
X010016Y005666D01*
X010016Y005765D02*
X000681Y005765D01*
X000681Y005863D02*
X010016Y005863D01*
X010016Y005962D02*
X000681Y005962D01*
X000681Y006060D02*
X010016Y006060D01*
X010016Y006159D02*
X000681Y006159D01*
X000681Y006257D02*
X010016Y006257D01*
X010016Y006356D02*
X000681Y006356D01*
X000681Y006454D02*
X010016Y006454D01*
X010016Y006553D02*
X000681Y006553D01*
X000681Y006651D02*
X010016Y006651D01*
X010016Y006750D02*
X000681Y006750D01*
X000681Y006848D02*
X010016Y006848D01*
X010016Y006947D02*
X000681Y006947D01*
X000681Y007045D02*
X010016Y007045D01*
X010016Y007144D02*
X000681Y007144D01*
X000681Y007242D02*
X010016Y007242D01*
X010016Y007341D02*
X000681Y007341D01*
X000681Y007439D02*
X010016Y007439D01*
X010016Y007538D02*
X000681Y007538D01*
X000681Y007636D02*
X010016Y007636D01*
X010016Y007735D02*
X000681Y007735D01*
X000681Y007833D02*
X010016Y007833D01*
X010016Y007932D02*
X000681Y007932D01*
X000681Y008030D02*
X010016Y008030D01*
X010016Y008129D02*
X000681Y008129D01*
X000681Y008227D02*
X010016Y008227D01*
X010016Y008326D02*
X000681Y008326D01*
X000681Y008424D02*
X010016Y008424D01*
X010016Y008523D02*
X000681Y008523D01*
X000681Y008621D02*
X010016Y008621D01*
X010016Y008720D02*
X000681Y008720D01*
X000681Y008818D02*
X010016Y008818D01*
X010016Y008917D02*
X000681Y008917D01*
X000681Y009015D02*
X010016Y009015D01*
X010016Y009114D02*
X000681Y009114D01*
X000681Y009212D02*
X010016Y009212D01*
X010016Y009311D02*
X000681Y009311D01*
X000681Y009409D02*
X010016Y009409D01*
X010016Y009508D02*
X000681Y009508D01*
X000681Y009606D02*
X010016Y009606D01*
X010016Y009705D02*
X000681Y009705D01*
X000681Y009803D02*
X010016Y009803D01*
X010016Y009902D02*
X000681Y009902D01*
X000681Y010000D02*
X010016Y010000D01*
X010016Y010099D02*
X000681Y010099D01*
X000681Y010197D02*
X010016Y010197D01*
X010016Y010296D02*
X000681Y010296D01*
X000681Y010394D02*
X010016Y010394D01*
X010016Y010493D02*
X000681Y010493D01*
X000681Y010591D02*
X010016Y010591D01*
X010016Y010690D02*
X000681Y010690D01*
X000681Y010788D02*
X010016Y010788D01*
X010016Y010887D02*
X000681Y010887D01*
X000681Y010985D02*
X010016Y010985D01*
X010016Y011084D02*
X000681Y011084D01*
X000681Y011182D02*
X010016Y011182D01*
X010016Y011281D02*
X000681Y011281D01*
X000681Y011379D02*
X010016Y011379D01*
X010016Y011478D02*
X000681Y011478D01*
X000681Y011576D02*
X010016Y011576D01*
X010016Y011675D02*
X004352Y011675D01*
X004429Y011773D02*
X010016Y011773D01*
X010016Y011872D02*
X004451Y011872D01*
X004499Y011970D02*
X010016Y011970D01*
X010016Y012069D02*
X004597Y012069D01*
X004696Y012167D02*
X010016Y012167D01*
X010016Y012266D02*
X004794Y012266D01*
X004893Y012364D02*
X010016Y012364D01*
X010016Y012463D02*
X004991Y012463D01*
X005090Y012561D02*
X010016Y012561D01*
X010016Y012660D02*
X005188Y012660D01*
X005287Y012758D02*
X010016Y012758D01*
X010016Y012857D02*
X005385Y012857D01*
X005484Y012955D02*
X010016Y012955D01*
X010016Y013054D02*
X005582Y013054D01*
X005681Y013152D02*
X010016Y013152D01*
X010016Y013251D02*
X005779Y013251D01*
X005878Y013349D02*
X010016Y013349D01*
X010016Y013448D02*
X005976Y013448D01*
X006075Y013546D02*
X010016Y013546D01*
X010016Y013645D02*
X006173Y013645D01*
X006272Y013743D02*
X010016Y013743D01*
X010016Y013842D02*
X006370Y013842D01*
X006469Y013940D02*
X010016Y013940D01*
X010016Y014039D02*
X006567Y014039D01*
X006666Y014137D02*
X010016Y014137D01*
X010016Y014236D02*
X006764Y014236D01*
X006863Y014334D02*
X010016Y014334D01*
X010016Y014433D02*
X006961Y014433D01*
X007060Y014531D02*
X010016Y014531D01*
X010016Y014630D02*
X007158Y014630D01*
X007257Y014728D02*
X010016Y014728D01*
X010016Y014827D02*
X007355Y014827D01*
X007454Y014925D02*
X010016Y014925D01*
X010016Y015024D02*
X007552Y015024D01*
X007651Y015122D02*
X010016Y015122D01*
X010016Y015221D02*
X007749Y015221D01*
X007848Y015319D02*
X010016Y015319D01*
X010016Y015418D02*
X007946Y015418D01*
X008045Y015516D02*
X010016Y015516D01*
X010016Y015615D02*
X008143Y015615D01*
X008242Y015713D02*
X010016Y015713D01*
X010016Y015812D02*
X008340Y015812D01*
X008439Y015910D02*
X010016Y015910D01*
X010016Y016009D02*
X008537Y016009D01*
X008636Y016107D02*
X010016Y016107D01*
X010004Y016206D02*
X008734Y016206D01*
X008833Y016304D02*
X009930Y016304D01*
X009911Y016403D02*
X008931Y016403D01*
X009030Y016501D02*
X009932Y016501D01*
X009394Y017191D02*
X011267Y017191D01*
X011341Y017117D02*
X011341Y017081D01*
X011273Y017014D01*
X011236Y016924D01*
X011236Y016826D01*
X011251Y016790D01*
X008994Y016790D01*
X010598Y018394D01*
X010632Y018380D01*
X010729Y018380D01*
X010819Y018417D01*
X010888Y018486D01*
X010926Y018576D01*
X010926Y018674D01*
X010888Y018764D01*
X010821Y018831D01*
X010821Y019152D01*
X010848Y019086D01*
X010917Y019017D01*
X011007Y018980D01*
X011104Y018980D01*
X011141Y018995D01*
X011141Y018881D01*
X011073Y018814D01*
X011036Y018724D01*
X011036Y018626D01*
X011073Y018536D01*
X011142Y018467D01*
X011183Y018450D01*
X010991Y018258D01*
X010991Y017467D01*
X011073Y017385D01*
X011341Y017117D01*
X011341Y017092D02*
X009296Y017092D01*
X009197Y016994D02*
X011265Y016994D01*
X011236Y016895D02*
X009099Y016895D01*
X009000Y016797D02*
X011248Y016797D01*
X011169Y017289D02*
X009493Y017289D01*
X009591Y017388D02*
X011070Y017388D01*
X010991Y017486D02*
X009690Y017486D01*
X009788Y017585D02*
X010991Y017585D01*
X010991Y017683D02*
X009887Y017683D01*
X009985Y017782D02*
X010991Y017782D01*
X010991Y017880D02*
X010084Y017880D01*
X010182Y017979D02*
X010991Y017979D01*
X010991Y018077D02*
X010281Y018077D01*
X010379Y018176D02*
X010991Y018176D01*
X011007Y018274D02*
X010478Y018274D01*
X010576Y018373D02*
X011105Y018373D01*
X011138Y018471D02*
X010873Y018471D01*
X010923Y018570D02*
X011059Y018570D01*
X011036Y018668D02*
X010926Y018668D01*
X010886Y018767D02*
X011053Y018767D01*
X011124Y018865D02*
X010821Y018865D01*
X010821Y018964D02*
X011141Y018964D01*
X010872Y019062D02*
X010821Y019062D01*
X010541Y019062D02*
X005374Y019062D01*
X005236Y019005D02*
X005541Y019131D01*
X005775Y019365D01*
X005901Y019670D01*
X005901Y020000D01*
X005775Y020305D01*
X005541Y020539D01*
X005236Y020665D01*
X004906Y020665D01*
X004601Y020539D01*
X004368Y020305D01*
X004241Y020000D01*
X004241Y019670D01*
X004368Y019365D01*
X004601Y019131D01*
X004906Y019005D01*
X005236Y019005D01*
X005570Y019161D02*
X010541Y019161D01*
X010541Y019259D02*
X005669Y019259D01*
X005767Y019358D02*
X010541Y019358D01*
X010541Y019456D02*
X005813Y019456D01*
X005853Y019555D02*
X010541Y019555D01*
X010541Y019653D02*
X005894Y019653D01*
X005901Y019752D02*
X010531Y019752D01*
X010433Y019850D02*
X005901Y019850D01*
X005901Y019949D02*
X010334Y019949D01*
X010236Y020047D02*
X005882Y020047D01*
X005841Y020146D02*
X010137Y020146D01*
X010039Y020244D02*
X005800Y020244D01*
X005737Y020343D02*
X009940Y020343D01*
X009842Y020441D02*
X005639Y020441D01*
X005539Y020540D02*
X009743Y020540D01*
X009645Y020638D02*
X005301Y020638D01*
X004841Y020638D02*
X000681Y020638D01*
X000681Y020540D02*
X004603Y020540D01*
X004504Y020441D02*
X000681Y020441D01*
X000681Y020343D02*
X004405Y020343D01*
X004342Y020244D02*
X000681Y020244D01*
X000681Y020146D02*
X004302Y020146D01*
X004261Y020047D02*
X000681Y020047D01*
X000681Y019949D02*
X004241Y019949D01*
X004241Y019850D02*
X000681Y019850D01*
X000681Y019752D02*
X004241Y019752D01*
X004248Y019653D02*
X000681Y019653D01*
X000681Y019555D02*
X004289Y019555D01*
X004330Y019456D02*
X000681Y019456D01*
X000681Y019358D02*
X004375Y019358D01*
X004474Y019259D02*
X000681Y019259D01*
X000681Y019161D02*
X004572Y019161D01*
X004769Y019062D02*
X000681Y019062D01*
X000681Y018964D02*
X010541Y018964D01*
X010541Y018865D02*
X000681Y018865D01*
X000681Y018767D02*
X010476Y018767D01*
X010436Y018668D02*
X000681Y018668D01*
X000681Y018570D02*
X010377Y018570D01*
X010279Y018471D02*
X000681Y018471D01*
X000681Y018373D02*
X010180Y018373D01*
X010082Y018274D02*
X000681Y018274D01*
X000681Y018176D02*
X009983Y018176D01*
X009885Y018077D02*
X000681Y018077D01*
X000681Y017979D02*
X009786Y017979D01*
X009688Y017880D02*
X000681Y017880D01*
X000681Y017782D02*
X009589Y017782D01*
X009491Y017683D02*
X000681Y017683D01*
X000681Y017585D02*
X009392Y017585D01*
X009294Y017486D02*
X000681Y017486D01*
X000681Y017388D02*
X009195Y017388D01*
X009097Y017289D02*
X000681Y017289D01*
X000681Y017191D02*
X008998Y017191D01*
X008900Y017092D02*
X000681Y017092D01*
X000681Y016994D02*
X008801Y016994D01*
X008703Y016895D02*
X000681Y016895D01*
X000681Y016797D02*
X008604Y016797D01*
X008506Y016698D02*
X000681Y016698D01*
X000681Y016600D02*
X008407Y016600D01*
X008309Y016501D02*
X000681Y016501D01*
X000681Y016403D02*
X008210Y016403D01*
X008112Y016304D02*
X000681Y016304D01*
X000681Y016206D02*
X008013Y016206D01*
X007915Y016107D02*
X000681Y016107D01*
X000681Y016009D02*
X007816Y016009D01*
X007718Y015910D02*
X000681Y015910D01*
X000681Y015812D02*
X007619Y015812D01*
X007521Y015713D02*
X000681Y015713D01*
X000681Y015615D02*
X007422Y015615D01*
X007324Y015516D02*
X000681Y015516D01*
X000681Y015418D02*
X007225Y015418D01*
X007127Y015319D02*
X000681Y015319D01*
X000681Y015221D02*
X007028Y015221D01*
X006930Y015122D02*
X000681Y015122D01*
X000681Y015024D02*
X006831Y015024D01*
X006733Y014925D02*
X000681Y014925D01*
X000681Y014827D02*
X006634Y014827D01*
X006536Y014728D02*
X000681Y014728D01*
X000681Y014630D02*
X006437Y014630D01*
X006339Y014531D02*
X000681Y014531D01*
X000681Y014433D02*
X006240Y014433D01*
X006142Y014334D02*
X000681Y014334D01*
X000681Y014236D02*
X006043Y014236D01*
X005945Y014137D02*
X000681Y014137D01*
X000681Y014039D02*
X005846Y014039D01*
X005748Y013940D02*
X000681Y013940D01*
X000681Y013842D02*
X005649Y013842D01*
X005551Y013743D02*
X000681Y013743D01*
X000681Y013645D02*
X005452Y013645D01*
X005354Y013546D02*
X000681Y013546D01*
X000681Y013448D02*
X005255Y013448D01*
X005157Y013349D02*
X000681Y013349D01*
X000681Y013251D02*
X005058Y013251D01*
X004960Y013152D02*
X000681Y013152D01*
X000681Y013054D02*
X004861Y013054D01*
X004763Y012955D02*
X000681Y012955D01*
X000681Y012857D02*
X004664Y012857D01*
X004566Y012758D02*
X000681Y012758D01*
X000681Y012660D02*
X004357Y012660D01*
X004222Y012561D02*
X000681Y012561D01*
X000681Y012463D02*
X004186Y012463D01*
X004191Y012364D02*
X000681Y012364D01*
X000681Y012266D02*
X004244Y012266D01*
X004300Y012167D02*
X000681Y012167D01*
X000681Y012069D02*
X004053Y012069D01*
X003980Y011970D02*
X000681Y011970D01*
X000681Y011872D02*
X003961Y011872D01*
X003983Y011773D02*
X000681Y011773D01*
X000681Y011675D02*
X004060Y011675D01*
X000681Y020737D02*
X009546Y020737D01*
X009448Y020835D02*
X000681Y020835D01*
X000681Y020934D02*
X009349Y020934D01*
X009251Y021032D02*
X000681Y021032D01*
X000681Y021131D02*
X009152Y021131D01*
X009054Y021229D02*
X000681Y021229D01*
X000681Y021328D02*
X008955Y021328D01*
X008857Y021426D02*
X000681Y021426D01*
X000681Y021525D02*
X008758Y021525D01*
X008660Y021623D02*
X000681Y021623D01*
X000681Y021722D02*
X008561Y021722D01*
X008463Y021820D02*
X000681Y021820D01*
X000681Y021919D02*
X008364Y021919D01*
X008266Y022017D02*
X000681Y022017D01*
X000681Y022116D02*
X008167Y022116D01*
X008069Y022214D02*
X000681Y022214D01*
X000681Y022313D02*
X007970Y022313D01*
X007872Y022411D02*
X000681Y022411D01*
X000681Y022510D02*
X007773Y022510D01*
X007675Y022608D02*
X000681Y022608D01*
X000681Y022707D02*
X007576Y022707D01*
X007478Y022805D02*
X000681Y022805D01*
X000681Y022904D02*
X007379Y022904D01*
X007281Y023002D02*
X000681Y023002D01*
X000681Y023101D02*
X007182Y023101D01*
X007084Y023199D02*
X000681Y023199D01*
X000681Y023298D02*
X006985Y023298D01*
X006887Y023396D02*
X000681Y023396D01*
X000681Y023495D02*
X006788Y023495D01*
X006690Y023593D02*
X000681Y023593D01*
X000681Y023692D02*
X006591Y023692D01*
X006493Y023790D02*
X003092Y023790D01*
X003113Y023811D02*
X003151Y023901D01*
X003151Y023999D01*
X003113Y024089D01*
X003044Y024158D01*
X002954Y024195D01*
X002921Y024195D01*
X002921Y025469D01*
X003010Y025506D01*
X003124Y025620D01*
X003186Y025769D01*
X003186Y025931D01*
X003124Y026080D01*
X003010Y026194D01*
X002861Y026255D01*
X002700Y026255D01*
X002551Y026194D01*
X002437Y026080D01*
X002375Y025931D01*
X002375Y025769D01*
X002437Y025620D01*
X002551Y025506D01*
X002641Y025469D01*
X002641Y024017D01*
X002661Y023997D01*
X002661Y023901D01*
X002698Y023811D01*
X002767Y023742D01*
X002857Y023705D01*
X002954Y023705D01*
X003044Y023742D01*
X003113Y023811D01*
X003145Y023889D02*
X006394Y023889D01*
X006296Y023987D02*
X003151Y023987D01*
X003115Y024086D02*
X006197Y024086D01*
X006099Y024184D02*
X002981Y024184D01*
X002921Y024283D02*
X006000Y024283D01*
X005902Y024381D02*
X002921Y024381D01*
X002921Y024480D02*
X005803Y024480D01*
X005705Y024578D02*
X002921Y024578D01*
X002921Y024677D02*
X005606Y024677D01*
X005508Y024775D02*
X002921Y024775D01*
X002921Y024874D02*
X005409Y024874D01*
X005311Y024972D02*
X002921Y024972D01*
X002921Y025071D02*
X005212Y025071D01*
X005114Y025169D02*
X002921Y025169D01*
X002921Y025268D02*
X005015Y025268D01*
X004917Y025366D02*
X002921Y025366D01*
X002921Y025465D02*
X004818Y025465D01*
X004720Y025563D02*
X003067Y025563D01*
X003141Y025662D02*
X004621Y025662D01*
X004523Y025760D02*
X003182Y025760D01*
X003186Y025859D02*
X004424Y025859D01*
X004326Y025957D02*
X003175Y025957D01*
X003134Y026056D02*
X004227Y026056D01*
X004129Y026154D02*
X003050Y026154D01*
X002868Y026253D02*
X004030Y026253D01*
X003932Y026351D02*
X000681Y026351D01*
X000681Y026253D02*
X002694Y026253D01*
X002732Y026407D02*
X002732Y026802D01*
X002338Y026802D01*
X002346Y026746D01*
X002368Y026679D01*
X002400Y026617D01*
X002441Y026560D01*
X002491Y026510D01*
X002547Y026469D01*
X002610Y026437D01*
X002676Y026416D01*
X002732Y026407D01*
X002732Y026450D02*
X002829Y026450D01*
X002829Y026407D02*
X002885Y026416D01*
X002952Y026437D01*
X003014Y026469D01*
X003071Y026510D01*
X003120Y026560D01*
X003162Y026617D01*
X003193Y026679D01*
X003215Y026746D01*
X003224Y026802D01*
X002829Y026802D01*
X002829Y026898D01*
X003224Y026898D01*
X003215Y026954D01*
X003193Y027021D01*
X003162Y027083D01*
X003120Y027140D01*
X003071Y027190D01*
X003014Y027231D01*
X002952Y027263D01*
X002885Y027284D01*
X002829Y027293D01*
X002829Y026898D01*
X002732Y026898D01*
X002732Y026802D01*
X002829Y026802D01*
X002829Y026407D01*
X002829Y026548D02*
X002732Y026548D01*
X002732Y026647D02*
X002829Y026647D01*
X002829Y026745D02*
X002732Y026745D01*
X002732Y026844D02*
X000681Y026844D01*
X000681Y026942D02*
X002344Y026942D01*
X002346Y026954D02*
X002338Y026898D01*
X002732Y026898D01*
X002732Y027293D01*
X002676Y027284D01*
X002610Y027263D01*
X002547Y027231D01*
X002491Y027190D01*
X002441Y027140D01*
X002400Y027083D01*
X002368Y027021D01*
X002346Y026954D01*
X002378Y027041D02*
X000681Y027041D01*
X000681Y027139D02*
X002440Y027139D01*
X002561Y027238D02*
X000681Y027238D01*
X000681Y027336D02*
X002947Y027336D01*
X003001Y027238D02*
X003045Y027238D01*
X003121Y027139D02*
X003144Y027139D01*
X003183Y027041D02*
X003242Y027041D01*
X003217Y026942D02*
X003341Y026942D01*
X003439Y026844D02*
X002829Y026844D01*
X002829Y026942D02*
X002732Y026942D01*
X002732Y027041D02*
X002829Y027041D01*
X002829Y027139D02*
X002732Y027139D01*
X002732Y027238D02*
X002829Y027238D01*
X002848Y027435D02*
X000681Y027435D01*
X000681Y027533D02*
X002375Y027533D01*
X002375Y027632D02*
X000681Y027632D01*
X000681Y027730D02*
X002375Y027730D01*
X002375Y027829D02*
X000681Y027829D01*
X000681Y027927D02*
X002375Y027927D01*
X002375Y028026D02*
X000681Y028026D01*
X000681Y028124D02*
X002375Y028124D01*
X002407Y028223D02*
X000681Y028223D01*
X000681Y028321D02*
X006491Y028321D01*
X006491Y028223D02*
X003154Y028223D01*
X003186Y028124D02*
X006491Y028124D01*
X006491Y028026D02*
X003186Y028026D01*
X003186Y027927D02*
X006491Y027927D01*
X006491Y027829D02*
X003186Y027829D01*
X003186Y027730D02*
X006491Y027730D01*
X006491Y027632D02*
X003186Y027632D01*
X003186Y027533D02*
X006491Y027533D01*
X006491Y027435D02*
X003244Y027435D01*
X003343Y027336D02*
X006491Y027336D01*
X006491Y027238D02*
X003441Y027238D01*
X003540Y027139D02*
X006491Y027139D01*
X006491Y027041D02*
X003638Y027041D01*
X003737Y026942D02*
X006491Y026942D01*
X006491Y026844D02*
X003835Y026844D01*
X003934Y026745D02*
X006491Y026745D01*
X006491Y026647D02*
X004032Y026647D01*
X004131Y026548D02*
X006491Y026548D01*
X006491Y026450D02*
X004229Y026450D01*
X004328Y026351D02*
X006491Y026351D01*
X006491Y026253D02*
X004426Y026253D01*
X004525Y026154D02*
X006491Y026154D01*
X006491Y026056D02*
X004623Y026056D01*
X004722Y025957D02*
X006491Y025957D01*
X006491Y025859D02*
X004820Y025859D01*
X004919Y025760D02*
X006491Y025760D01*
X006491Y025662D02*
X005017Y025662D01*
X005116Y025563D02*
X006491Y025563D01*
X006491Y025465D02*
X005214Y025465D01*
X005313Y025366D02*
X006491Y025366D01*
X006491Y025268D02*
X005411Y025268D01*
X005510Y025169D02*
X006491Y025169D01*
X006537Y025071D02*
X005608Y025071D01*
X005707Y024972D02*
X006636Y024972D01*
X006734Y024874D02*
X005805Y024874D01*
X005904Y024775D02*
X006833Y024775D01*
X006931Y024677D02*
X006002Y024677D01*
X006101Y024578D02*
X007030Y024578D01*
X007128Y024480D02*
X006199Y024480D01*
X006298Y024381D02*
X007227Y024381D01*
X007325Y024283D02*
X006396Y024283D01*
X006495Y024184D02*
X007424Y024184D01*
X007522Y024086D02*
X006593Y024086D01*
X006692Y023987D02*
X007621Y023987D01*
X007719Y023889D02*
X006790Y023889D01*
X006889Y023790D02*
X007818Y023790D01*
X007916Y023692D02*
X006987Y023692D01*
X007086Y023593D02*
X008015Y023593D01*
X008113Y023495D02*
X007184Y023495D01*
X007283Y023396D02*
X008212Y023396D01*
X008310Y023298D02*
X007381Y023298D01*
X007480Y023199D02*
X008409Y023199D01*
X008507Y023101D02*
X007578Y023101D01*
X007677Y023002D02*
X008606Y023002D01*
X008704Y022904D02*
X007775Y022904D01*
X007874Y022805D02*
X008803Y022805D01*
X008901Y022707D02*
X007972Y022707D01*
X008071Y022608D02*
X009000Y022608D01*
X009098Y022510D02*
X008169Y022510D01*
X008268Y022411D02*
X009197Y022411D01*
X009295Y022313D02*
X008366Y022313D01*
X008465Y022214D02*
X009394Y022214D01*
X009492Y022116D02*
X008563Y022116D01*
X008662Y022017D02*
X009591Y022017D01*
X009689Y021919D02*
X008760Y021919D01*
X008859Y021820D02*
X009788Y021820D01*
X009886Y021722D02*
X008957Y021722D01*
X009056Y021623D02*
X009985Y021623D01*
X010083Y021525D02*
X009154Y021525D01*
X009253Y021426D02*
X010182Y021426D01*
X010280Y021328D02*
X009351Y021328D01*
X009450Y021229D02*
X010379Y021229D01*
X010477Y021131D02*
X009548Y021131D01*
X009647Y021032D02*
X010576Y021032D01*
X010674Y020934D02*
X009745Y020934D01*
X009844Y020835D02*
X010773Y020835D01*
X010871Y020737D02*
X009942Y020737D01*
X010041Y020638D02*
X010916Y020638D01*
X010916Y020540D02*
X010139Y020540D01*
X010238Y020441D02*
X010916Y020441D01*
X010916Y020343D02*
X010336Y020343D01*
X010435Y020244D02*
X010916Y020244D01*
X010916Y020146D02*
X010533Y020146D01*
X010632Y020047D02*
X010916Y020047D01*
X010916Y019949D02*
X010730Y019949D01*
X010821Y019850D02*
X010916Y019850D01*
X010916Y019752D02*
X010821Y019752D01*
X010821Y019653D02*
X010916Y019653D01*
X010916Y019555D02*
X010821Y019555D01*
X010821Y019456D02*
X010916Y019456D01*
X010845Y019358D02*
X010821Y019358D01*
X011070Y020934D02*
X011141Y020934D01*
X011141Y021032D02*
X010972Y021032D01*
X010873Y021131D02*
X011141Y021131D01*
X011129Y021229D02*
X010775Y021229D01*
X010676Y021328D02*
X011030Y021328D01*
X010932Y021426D02*
X010578Y021426D01*
X010479Y021525D02*
X010833Y021525D01*
X010735Y021623D02*
X010381Y021623D01*
X010282Y021722D02*
X010636Y021722D01*
X010538Y021820D02*
X010184Y021820D01*
X010085Y021919D02*
X010439Y021919D01*
X010341Y022017D02*
X009987Y022017D01*
X009888Y022116D02*
X010242Y022116D01*
X010144Y022214D02*
X009790Y022214D01*
X009691Y022313D02*
X010045Y022313D01*
X009947Y022411D02*
X009593Y022411D01*
X009494Y022510D02*
X009848Y022510D01*
X009750Y022608D02*
X009396Y022608D01*
X009297Y022707D02*
X009651Y022707D01*
X009553Y022805D02*
X009199Y022805D01*
X009100Y022904D02*
X009454Y022904D01*
X009356Y023002D02*
X009002Y023002D01*
X008903Y023101D02*
X009257Y023101D01*
X009159Y023199D02*
X008805Y023199D01*
X008706Y023298D02*
X009060Y023298D01*
X008962Y023396D02*
X008608Y023396D01*
X008509Y023495D02*
X008863Y023495D01*
X008765Y023593D02*
X008411Y023593D01*
X008312Y023692D02*
X008666Y023692D01*
X008568Y023790D02*
X008214Y023790D01*
X008115Y023889D02*
X008469Y023889D01*
X008371Y023987D02*
X008017Y023987D01*
X007918Y024086D02*
X008272Y024086D01*
X008174Y024184D02*
X007820Y024184D01*
X007721Y024283D02*
X008075Y024283D01*
X007977Y024381D02*
X007623Y024381D01*
X007524Y024480D02*
X007878Y024480D01*
X007780Y024578D02*
X007426Y024578D01*
X007327Y024677D02*
X007681Y024677D01*
X007583Y024775D02*
X007229Y024775D01*
X007130Y024874D02*
X007516Y024874D01*
X007516Y024972D02*
X007032Y024972D01*
X006933Y025071D02*
X007516Y025071D01*
X007516Y025169D02*
X006835Y025169D01*
X006771Y025268D02*
X007516Y025268D01*
X007516Y025366D02*
X006771Y025366D01*
X006771Y025465D02*
X007516Y025465D01*
X007516Y025563D02*
X006771Y025563D01*
X006771Y025662D02*
X007516Y025662D01*
X007516Y025760D02*
X006771Y025760D01*
X006771Y025859D02*
X007516Y025859D01*
X007516Y025957D02*
X006771Y025957D01*
X006771Y026056D02*
X007516Y026056D01*
X007516Y026154D02*
X006771Y026154D01*
X006771Y026253D02*
X007516Y026253D01*
X007516Y026351D02*
X006771Y026351D01*
X006771Y026450D02*
X007516Y026450D01*
X007516Y026548D02*
X006771Y026548D01*
X006771Y026647D02*
X007516Y026647D01*
X007516Y026745D02*
X006771Y026745D01*
X006771Y026844D02*
X007516Y026844D01*
X007516Y026942D02*
X006771Y026942D01*
X006771Y027041D02*
X007516Y027041D01*
X007516Y027139D02*
X006771Y027139D01*
X006771Y027238D02*
X007516Y027238D01*
X007516Y027336D02*
X006771Y027336D01*
X006771Y027435D02*
X007567Y027435D01*
X007666Y027533D02*
X006771Y027533D01*
X006771Y027632D02*
X007764Y027632D01*
X007863Y027730D02*
X006771Y027730D01*
X006771Y027829D02*
X007961Y027829D01*
X008060Y027927D02*
X006771Y027927D01*
X006771Y028026D02*
X008158Y028026D01*
X008257Y028124D02*
X006771Y028124D01*
X006771Y028223D02*
X008355Y028223D01*
X008454Y028321D02*
X006850Y028321D01*
X006948Y028420D02*
X008552Y028420D01*
X008651Y028518D02*
X007047Y028518D01*
X007145Y028617D02*
X008749Y028617D01*
X008848Y028715D02*
X007244Y028715D01*
X007342Y028814D02*
X008946Y028814D01*
X009045Y028912D02*
X007441Y028912D01*
X007539Y029011D02*
X009143Y029011D01*
X009242Y029109D02*
X007638Y029109D01*
X007736Y029208D02*
X009340Y029208D01*
X009439Y029306D02*
X007835Y029306D01*
X007933Y029405D02*
X008853Y029405D01*
X008913Y029345D02*
X009249Y029345D01*
X009486Y029582D01*
X009486Y029918D01*
X009249Y030155D01*
X008913Y030155D01*
X008675Y029918D01*
X008675Y029582D01*
X008913Y029345D01*
X008754Y029503D02*
X008032Y029503D01*
X008130Y029602D02*
X008675Y029602D01*
X008675Y029700D02*
X008229Y029700D01*
X008327Y029799D02*
X008675Y029799D01*
X008675Y029897D02*
X008426Y029897D01*
X008524Y029996D02*
X008753Y029996D01*
X008852Y030094D02*
X008623Y030094D01*
X008721Y030193D02*
X010541Y030193D01*
X010541Y030291D02*
X008820Y030291D01*
X008621Y030488D02*
X000681Y030488D01*
X000681Y030390D02*
X008522Y030390D01*
X008424Y030291D02*
X000681Y030291D01*
X000681Y030193D02*
X008325Y030193D01*
X008227Y030094D02*
X000681Y030094D01*
X000681Y029996D02*
X008128Y029996D01*
X008030Y029897D02*
X000681Y029897D01*
X000681Y029799D02*
X007931Y029799D01*
X007833Y029700D02*
X000681Y029700D01*
X000681Y029602D02*
X007734Y029602D01*
X007636Y029503D02*
X000681Y029503D01*
X000681Y029405D02*
X007537Y029405D01*
X007439Y029306D02*
X000681Y029306D01*
X000681Y029208D02*
X007340Y029208D01*
X007242Y029109D02*
X000681Y029109D01*
X000681Y029011D02*
X007143Y029011D01*
X007045Y028912D02*
X000681Y028912D01*
X000681Y028814D02*
X006946Y028814D01*
X006848Y028715D02*
X000681Y028715D01*
X000681Y028617D02*
X006749Y028617D01*
X006651Y028518D02*
X000681Y028518D01*
X000681Y028420D02*
X006552Y028420D01*
X007796Y027238D02*
X009591Y027238D01*
X009591Y027336D02*
X007865Y027336D01*
X007963Y027435D02*
X009591Y027435D01*
X009591Y027533D02*
X008062Y027533D01*
X008160Y027632D02*
X009591Y027632D01*
X009591Y027730D02*
X008259Y027730D01*
X008357Y027829D02*
X009591Y027829D01*
X009591Y027927D02*
X008456Y027927D01*
X008554Y028026D02*
X009591Y028026D01*
X009591Y028124D02*
X008653Y028124D01*
X008751Y028223D02*
X009591Y028223D01*
X009591Y028321D02*
X008850Y028321D01*
X008948Y028420D02*
X009591Y028420D01*
X009591Y028518D02*
X009047Y028518D01*
X009145Y028617D02*
X009591Y028617D01*
X009623Y028715D02*
X009244Y028715D01*
X009342Y028814D02*
X009721Y028814D01*
X009820Y028912D02*
X009441Y028912D01*
X009539Y029011D02*
X009918Y029011D01*
X010017Y029109D02*
X009638Y029109D01*
X009736Y029208D02*
X010115Y029208D01*
X010214Y029306D02*
X009835Y029306D01*
X009636Y029503D02*
X009407Y029503D01*
X009486Y029602D02*
X009675Y029602D01*
X009675Y029700D02*
X009486Y029700D01*
X009486Y029799D02*
X009675Y029799D01*
X009675Y029897D02*
X009486Y029897D01*
X009408Y029996D02*
X009753Y029996D01*
X009852Y030094D02*
X009310Y030094D01*
X009293Y030390D02*
X009868Y030390D01*
X009913Y030345D02*
X009675Y030582D01*
X009675Y030918D01*
X009913Y031155D01*
X010249Y031155D01*
X010486Y030918D01*
X010486Y030582D01*
X010249Y030345D01*
X009913Y030345D01*
X009769Y030488D02*
X009392Y030488D01*
X009486Y030587D02*
X009675Y030587D01*
X009675Y030685D02*
X009486Y030685D01*
X009486Y030784D02*
X009675Y030784D01*
X009675Y030882D02*
X009486Y030882D01*
X009423Y030981D02*
X009738Y030981D01*
X009837Y031079D02*
X009325Y031079D01*
X008837Y031079D02*
X000681Y031079D01*
X000681Y030981D02*
X008738Y030981D01*
X008675Y030882D02*
X000681Y030882D01*
X000681Y030784D02*
X008675Y030784D01*
X008675Y030685D02*
X000681Y030685D01*
X000681Y030587D02*
X008675Y030587D01*
X009308Y029405D02*
X009537Y029405D01*
X010308Y029405D02*
X010312Y029405D01*
X010407Y029503D02*
X010411Y029503D01*
X010486Y029602D02*
X010509Y029602D01*
X010486Y029700D02*
X010541Y029700D01*
X010541Y029799D02*
X010486Y029799D01*
X010486Y029897D02*
X010541Y029897D01*
X010541Y029996D02*
X010408Y029996D01*
X010310Y030094D02*
X010541Y030094D01*
X010821Y030094D02*
X010852Y030094D01*
X010821Y030193D02*
X011341Y030193D01*
X011341Y030094D02*
X011310Y030094D01*
X011424Y030291D02*
X010821Y030291D01*
X010621Y030488D02*
X010392Y030488D01*
X010486Y030587D02*
X010675Y030587D01*
X010675Y030685D02*
X010486Y030685D01*
X010486Y030784D02*
X010675Y030784D01*
X010675Y030882D02*
X010486Y030882D01*
X010423Y030981D02*
X010738Y030981D01*
X010837Y031079D02*
X010325Y031079D01*
X010293Y030390D02*
X010541Y030390D01*
X011293Y030390D02*
X011522Y030390D01*
X011621Y030488D02*
X011392Y030488D01*
X011486Y030587D02*
X011675Y030587D01*
X011675Y030685D02*
X011486Y030685D01*
X011486Y030784D02*
X011675Y030784D01*
X011675Y030882D02*
X011486Y030882D01*
X011423Y030981D02*
X011738Y030981D01*
X011837Y031079D02*
X011325Y031079D01*
X011820Y030291D02*
X013341Y030291D01*
X013341Y030193D02*
X011721Y030193D01*
X011623Y030094D02*
X011852Y030094D01*
X011753Y029996D02*
X011621Y029996D01*
X011621Y029897D02*
X011675Y029897D01*
X011675Y029799D02*
X011621Y029799D01*
X011621Y029700D02*
X011675Y029700D01*
X011675Y029602D02*
X011621Y029602D01*
X011621Y029503D02*
X011754Y029503D01*
X011853Y029405D02*
X011621Y029405D01*
X011610Y029306D02*
X011941Y029306D01*
X011941Y029208D02*
X011511Y029208D01*
X011518Y029109D02*
X011941Y029109D01*
X011941Y029011D02*
X011585Y029011D01*
X011601Y028912D02*
X011941Y028912D01*
X011941Y028814D02*
X011665Y028814D01*
X011764Y028715D02*
X011941Y028715D01*
X011941Y028617D02*
X011771Y028617D01*
X011771Y028518D02*
X011941Y028518D01*
X011941Y028420D02*
X011771Y028420D01*
X011771Y028321D02*
X011941Y028321D01*
X011941Y028223D02*
X011771Y028223D01*
X011771Y028124D02*
X011941Y028124D01*
X011941Y028026D02*
X011771Y028026D01*
X011771Y027927D02*
X011941Y027927D01*
X011941Y027829D02*
X011771Y027829D01*
X011771Y027730D02*
X011941Y027730D01*
X011941Y027632D02*
X011771Y027632D01*
X011771Y027533D02*
X011941Y027533D01*
X011941Y027435D02*
X011771Y027435D01*
X011771Y027336D02*
X011941Y027336D01*
X011941Y027238D02*
X011771Y027238D01*
X011771Y027139D02*
X011941Y027139D01*
X011941Y027041D02*
X011771Y027041D01*
X011771Y026942D02*
X011941Y026942D01*
X011941Y026844D02*
X011771Y026844D01*
X011771Y026745D02*
X011941Y026745D01*
X011941Y026647D02*
X011771Y026647D01*
X011771Y026548D02*
X011941Y026548D01*
X011941Y026450D02*
X011771Y026450D01*
X011771Y026351D02*
X011941Y026351D01*
X011941Y026253D02*
X011771Y026253D01*
X011771Y026154D02*
X011941Y026154D01*
X011941Y026056D02*
X011771Y026056D01*
X011771Y025957D02*
X011941Y025957D01*
X011941Y025859D02*
X011771Y025859D01*
X011771Y025760D02*
X011941Y025760D01*
X011941Y025662D02*
X011771Y025662D01*
X011771Y025563D02*
X011941Y025563D01*
X011941Y025465D02*
X011771Y025465D01*
X011771Y025366D02*
X011941Y025366D01*
X011941Y025268D02*
X011771Y025268D01*
X011771Y025169D02*
X011941Y025169D01*
X011941Y025071D02*
X011771Y025071D01*
X011771Y024972D02*
X011941Y024972D01*
X011941Y024874D02*
X011771Y024874D01*
X011771Y024775D02*
X011941Y024775D01*
X011941Y024677D02*
X011771Y024677D01*
X011771Y024578D02*
X011941Y024578D01*
X011941Y024480D02*
X011771Y024480D01*
X011771Y024381D02*
X011941Y024381D01*
X011941Y024283D02*
X011771Y024283D01*
X011771Y024184D02*
X011941Y024184D01*
X011941Y024086D02*
X011771Y024086D01*
X011771Y023987D02*
X011941Y023987D01*
X011941Y023889D02*
X011771Y023889D01*
X011771Y023790D02*
X011941Y023790D01*
X011941Y023692D02*
X011771Y023692D01*
X011771Y023593D02*
X011941Y023593D01*
X011941Y023495D02*
X011771Y023495D01*
X011771Y023396D02*
X011941Y023396D01*
X011941Y023298D02*
X011771Y023298D01*
X011771Y023199D02*
X011941Y023199D01*
X011941Y023101D02*
X011771Y023101D01*
X011771Y023002D02*
X011941Y023002D01*
X011941Y022904D02*
X011771Y022904D01*
X011771Y022805D02*
X011941Y022805D01*
X011941Y022707D02*
X011771Y022707D01*
X011771Y022608D02*
X011941Y022608D01*
X011941Y022510D02*
X011771Y022510D01*
X011771Y022411D02*
X011941Y022411D01*
X011941Y022313D02*
X011771Y022313D01*
X011771Y022214D02*
X011941Y022214D01*
X011941Y022116D02*
X011771Y022116D01*
X011771Y022017D02*
X011941Y022017D01*
X011941Y021919D02*
X011771Y021919D01*
X011771Y021820D02*
X011941Y021820D01*
X011941Y021722D02*
X011771Y021722D01*
X011771Y021623D02*
X011941Y021623D01*
X011867Y021525D02*
X011829Y021525D01*
X009583Y024775D02*
X009502Y024775D01*
X009591Y024874D02*
X009255Y024874D01*
X009157Y024972D02*
X009591Y024972D01*
X009591Y025071D02*
X009058Y025071D01*
X008960Y025169D02*
X009591Y025169D01*
X009591Y025268D02*
X008861Y025268D01*
X008763Y025366D02*
X009591Y025366D01*
X009591Y025465D02*
X008113Y025465D01*
X007796Y025563D02*
X009591Y025563D01*
X009591Y025662D02*
X007796Y025662D01*
X007796Y025760D02*
X009591Y025760D01*
X009591Y025859D02*
X007796Y025859D01*
X007796Y025957D02*
X009591Y025957D01*
X009591Y026056D02*
X007796Y026056D01*
X007796Y026154D02*
X009591Y026154D01*
X009591Y026253D02*
X007796Y026253D01*
X007796Y026351D02*
X009591Y026351D01*
X009591Y026450D02*
X007796Y026450D01*
X007796Y026548D02*
X009591Y026548D01*
X009591Y026647D02*
X007796Y026647D01*
X007796Y026745D02*
X009591Y026745D01*
X009591Y026844D02*
X007796Y026844D01*
X007796Y026942D02*
X009591Y026942D01*
X009591Y027041D02*
X007796Y027041D01*
X007796Y027139D02*
X009591Y027139D01*
X013221Y027139D02*
X014711Y027139D01*
X014725Y027041D02*
X013221Y027041D01*
X013221Y026942D02*
X014792Y026942D01*
X014737Y027238D02*
X013221Y027238D01*
X013221Y027336D02*
X014697Y027336D01*
X014598Y027435D02*
X013221Y027435D01*
X013221Y027533D02*
X014500Y027533D01*
X014401Y027632D02*
X013221Y027632D01*
X013221Y027730D02*
X014303Y027730D01*
X014204Y027829D02*
X013221Y027829D01*
X013221Y027927D02*
X014106Y027927D01*
X014007Y028026D02*
X013221Y028026D01*
X013221Y028124D02*
X013909Y028124D01*
X013810Y028223D02*
X013221Y028223D01*
X013221Y028321D02*
X013712Y028321D01*
X013613Y028420D02*
X013221Y028420D01*
X013221Y028518D02*
X013515Y028518D01*
X013416Y028617D02*
X013221Y028617D01*
X013221Y028715D02*
X013318Y028715D01*
X013316Y028814D02*
X013221Y028814D01*
X013221Y028912D02*
X013316Y028912D01*
X013316Y029011D02*
X013221Y029011D01*
X013221Y029109D02*
X013316Y029109D01*
X013316Y029208D02*
X013221Y029208D01*
X013221Y029306D02*
X013316Y029306D01*
X013308Y029405D02*
X013316Y029405D01*
X013310Y030094D02*
X013341Y030094D01*
X014089Y029011D02*
X018651Y029011D01*
X018651Y029109D02*
X014188Y029109D01*
X014286Y029208D02*
X018651Y029208D01*
X018651Y029306D02*
X018166Y029306D01*
X018165Y029305D02*
X018426Y029566D01*
X018426Y029702D01*
X018029Y029702D01*
X018029Y029798D01*
X018426Y029798D01*
X018426Y029934D01*
X018165Y030195D01*
X018029Y030195D01*
X018029Y029798D01*
X017932Y029798D01*
X017932Y029702D01*
X017535Y029702D01*
X017535Y029566D01*
X017796Y029305D01*
X017932Y029305D01*
X017932Y029702D01*
X018029Y029702D01*
X018029Y029305D01*
X018165Y029305D01*
X018029Y029306D02*
X017932Y029306D01*
X017932Y029405D02*
X018029Y029405D01*
X018029Y029503D02*
X017932Y029503D01*
X017932Y029602D02*
X018029Y029602D01*
X018029Y029700D02*
X017932Y029700D01*
X017932Y029798D02*
X017535Y029798D01*
X017535Y029934D01*
X017796Y030195D01*
X017932Y030195D01*
X017932Y029798D01*
X017932Y029799D02*
X018029Y029799D01*
X018029Y029897D02*
X017932Y029897D01*
X017932Y029996D02*
X018029Y029996D01*
X018029Y030094D02*
X017932Y030094D01*
X017932Y030193D02*
X018029Y030193D01*
X018168Y030193D02*
X018651Y030193D01*
X018651Y030094D02*
X018266Y030094D01*
X018365Y029996D02*
X018651Y029996D01*
X018651Y029897D02*
X018426Y029897D01*
X018426Y029799D02*
X018651Y029799D01*
X018651Y029700D02*
X018426Y029700D01*
X018426Y029602D02*
X018651Y029602D01*
X018651Y029503D02*
X018363Y029503D01*
X018265Y029405D02*
X018651Y029405D01*
X018651Y028912D02*
X014051Y028912D01*
X014025Y028814D02*
X018651Y028814D01*
X018651Y028715D02*
X013939Y028715D01*
X013987Y028617D02*
X018651Y028617D01*
X018651Y028518D02*
X014086Y028518D01*
X014184Y028420D02*
X018651Y028420D01*
X018651Y028321D02*
X014283Y028321D01*
X014381Y028223D02*
X018651Y028223D01*
X018651Y028124D02*
X014480Y028124D01*
X014578Y028026D02*
X018651Y028026D01*
X018651Y027927D02*
X014677Y027927D01*
X014775Y027829D02*
X018651Y027829D01*
X018651Y027730D02*
X014874Y027730D01*
X014972Y027632D02*
X018651Y027632D01*
X018651Y027533D02*
X015071Y027533D01*
X015169Y027435D02*
X018651Y027435D01*
X018651Y027336D02*
X015268Y027336D01*
X015366Y027238D02*
X018651Y027238D01*
X018651Y027139D02*
X015465Y027139D01*
X015712Y027041D02*
X018651Y027041D01*
X018651Y026942D02*
X015783Y026942D01*
X015801Y026844D02*
X018651Y026844D01*
X018651Y026745D02*
X015777Y026745D01*
X015699Y026647D02*
X018651Y026647D01*
X018651Y026548D02*
X013221Y026548D01*
X013221Y026450D02*
X018651Y026450D01*
X018651Y026351D02*
X013221Y026351D01*
X013221Y026253D02*
X018651Y026253D01*
X018651Y026154D02*
X013221Y026154D01*
X013221Y026056D02*
X018651Y026056D01*
X017795Y029306D02*
X016766Y029306D01*
X016765Y029305D02*
X017026Y029566D01*
X017026Y029702D01*
X016629Y029702D01*
X016629Y029798D01*
X017026Y029798D01*
X017026Y029934D01*
X016765Y030195D01*
X016629Y030195D01*
X016629Y029798D01*
X016532Y029798D01*
X016532Y029702D01*
X016135Y029702D01*
X016135Y029566D01*
X016396Y029305D01*
X016532Y029305D01*
X016532Y029702D01*
X016629Y029702D01*
X016629Y029305D01*
X016765Y029305D01*
X016629Y029306D02*
X016532Y029306D01*
X016532Y029405D02*
X016629Y029405D01*
X016629Y029503D02*
X016532Y029503D01*
X016532Y029602D02*
X016629Y029602D01*
X016629Y029700D02*
X016532Y029700D01*
X016532Y029798D02*
X016135Y029798D01*
X016135Y029934D01*
X016396Y030195D01*
X016532Y030195D01*
X016532Y029798D01*
X016532Y029799D02*
X016629Y029799D01*
X016629Y029897D02*
X016532Y029897D01*
X016532Y029996D02*
X016629Y029996D01*
X016629Y030094D02*
X016532Y030094D01*
X016532Y030193D02*
X016629Y030193D01*
X016768Y030193D02*
X017794Y030193D01*
X017695Y030094D02*
X016866Y030094D01*
X016965Y029996D02*
X017597Y029996D01*
X017535Y029897D02*
X017026Y029897D01*
X017026Y029799D02*
X017535Y029799D01*
X017535Y029700D02*
X017026Y029700D01*
X017026Y029602D02*
X017535Y029602D01*
X017598Y029503D02*
X016963Y029503D01*
X016865Y029405D02*
X017696Y029405D01*
X017595Y030390D02*
X016966Y030390D01*
X016986Y030488D02*
X017575Y030488D01*
X017575Y030587D02*
X016986Y030587D01*
X016986Y030981D02*
X017575Y030981D01*
X017575Y031079D02*
X016986Y031079D01*
X016394Y030193D02*
X015268Y030193D01*
X015366Y030094D02*
X016295Y030094D01*
X016197Y029996D02*
X015465Y029996D01*
X015526Y029897D02*
X016135Y029897D01*
X016135Y029799D02*
X015526Y029799D01*
X015526Y029700D02*
X016135Y029700D01*
X016135Y029602D02*
X015526Y029602D01*
X015463Y029503D02*
X016198Y029503D01*
X016296Y029405D02*
X015365Y029405D01*
X015266Y029306D02*
X016395Y029306D01*
X016195Y030390D02*
X015466Y030390D01*
X015486Y030488D02*
X016175Y030488D01*
X016175Y030587D02*
X015486Y030587D01*
X015486Y030981D02*
X016175Y030981D01*
X016175Y031079D02*
X015486Y031079D01*
X015266Y026942D02*
X015119Y026942D01*
X015311Y026844D02*
X013221Y026844D01*
X013221Y026745D02*
X015334Y026745D01*
X015413Y026647D02*
X013221Y026647D01*
X003833Y026450D02*
X002976Y026450D01*
X003108Y026548D02*
X003735Y026548D01*
X003636Y026647D02*
X003177Y026647D01*
X003215Y026745D02*
X003538Y026745D01*
X002586Y026450D02*
X000681Y026450D01*
X000681Y026548D02*
X002453Y026548D01*
X002385Y026647D02*
X000681Y026647D01*
X000681Y026745D02*
X002347Y026745D01*
X002512Y026154D02*
X000681Y026154D01*
X000681Y026056D02*
X002427Y026056D01*
X002386Y025957D02*
X000681Y025957D01*
X000681Y025859D02*
X002375Y025859D01*
X002379Y025760D02*
X000681Y025760D01*
X000681Y025662D02*
X002420Y025662D01*
X002494Y025563D02*
X000681Y025563D01*
X000681Y025465D02*
X002641Y025465D01*
X002641Y025366D02*
X000681Y025366D01*
X000681Y025268D02*
X002641Y025268D01*
X002641Y025169D02*
X000681Y025169D01*
X000681Y025071D02*
X002641Y025071D01*
X002641Y024972D02*
X000681Y024972D01*
X000681Y024874D02*
X002641Y024874D01*
X002641Y024775D02*
X000681Y024775D01*
X000681Y024677D02*
X002641Y024677D01*
X002641Y024578D02*
X000681Y024578D01*
X000681Y024480D02*
X002641Y024480D01*
X002641Y024381D02*
X000681Y024381D01*
X000681Y024283D02*
X002641Y024283D01*
X002641Y024184D02*
X000681Y024184D01*
X000681Y024086D02*
X002641Y024086D01*
X002661Y023987D02*
X000681Y023987D01*
X000681Y023889D02*
X002666Y023889D01*
X002719Y023790D02*
X000681Y023790D01*
M02*
