G75*
%MOIN*%
%OFA0B0*%
%FSLAX24Y24*%
%IPPOS*%
%LPD*%
%AMOC8*
5,1,8,0,0,1.08239X$1,22.5*
%
%ADD10C,0.1320*%
%ADD11R,0.0651X0.0651*%
%ADD12C,0.0651*%
%ADD13OC8,0.0651*%
%ADD14C,0.0330*%
D10*
X005071Y019835D03*
D11*
X002781Y027850D03*
X015081Y030750D03*
X016581Y030750D03*
X017981Y030750D03*
X018081Y013350D03*
X018081Y012150D03*
X018081Y010950D03*
X018081Y009750D03*
D12*
X002781Y025850D03*
X002781Y026850D03*
D13*
X009081Y029750D03*
X009081Y030750D03*
X010081Y030750D03*
X010081Y029750D03*
X011081Y029750D03*
X011081Y030750D03*
X012081Y030750D03*
X012081Y029750D03*
X013081Y029750D03*
X013081Y030750D03*
X014081Y030750D03*
X014081Y029750D03*
X015081Y029750D03*
X016581Y029750D03*
X017981Y029750D03*
X018081Y014350D03*
X017081Y012150D03*
X017081Y010950D03*
X017081Y009750D03*
D14*
X004206Y011875D03*
X004431Y012425D03*
X009606Y017050D03*
X010156Y016400D03*
X010406Y016150D03*
X010756Y017050D03*
X011481Y016875D03*
X011981Y016650D03*
X012206Y017100D03*
X012431Y015650D03*
X013556Y015750D03*
X012256Y013475D03*
X015406Y016300D03*
X018556Y015100D03*
X012081Y021400D03*
X011056Y019225D03*
X011281Y018675D03*
X010681Y018625D03*
X009081Y024075D03*
X009306Y024625D03*
X009956Y025775D03*
X010606Y028175D03*
X011356Y028925D03*
X013806Y028925D03*
X014956Y027125D03*
X015556Y026850D03*
X007931Y025300D03*
X002906Y023950D03*
X010381Y006375D03*
X011056Y003900D03*
X016406Y003900D03*
M02*
