G75*
%MOIN*%
%OFA0B0*%
%FSLAX24Y24*%
%IPPOS*%
%LPD*%
%AMOC8*
5,1,8,0,0,1.08239X$1,22.5*
%
%ADD10C,0.0000*%
%ADD11C,0.0080*%
%ADD12C,0.0050*%
%ADD13C,0.0040*%
D10*
X000481Y000150D02*
X000481Y031646D01*
X018851Y031646D01*
X018851Y000150D01*
X000481Y000150D01*
X004441Y019835D02*
X004443Y019885D01*
X004449Y019935D01*
X004459Y019984D01*
X004473Y020032D01*
X004490Y020079D01*
X004511Y020124D01*
X004536Y020168D01*
X004564Y020209D01*
X004596Y020248D01*
X004630Y020285D01*
X004667Y020319D01*
X004707Y020349D01*
X004749Y020376D01*
X004793Y020400D01*
X004839Y020421D01*
X004886Y020437D01*
X004934Y020450D01*
X004984Y020459D01*
X005033Y020464D01*
X005084Y020465D01*
X005134Y020462D01*
X005183Y020455D01*
X005232Y020444D01*
X005280Y020429D01*
X005326Y020411D01*
X005371Y020389D01*
X005414Y020363D01*
X005455Y020334D01*
X005494Y020302D01*
X005530Y020267D01*
X005562Y020229D01*
X005592Y020189D01*
X005619Y020146D01*
X005642Y020102D01*
X005661Y020056D01*
X005677Y020008D01*
X005689Y019959D01*
X005697Y019910D01*
X005701Y019860D01*
X005701Y019810D01*
X005697Y019760D01*
X005689Y019711D01*
X005677Y019662D01*
X005661Y019614D01*
X005642Y019568D01*
X005619Y019524D01*
X005592Y019481D01*
X005562Y019441D01*
X005530Y019403D01*
X005494Y019368D01*
X005455Y019336D01*
X005414Y019307D01*
X005371Y019281D01*
X005326Y019259D01*
X005280Y019241D01*
X005232Y019226D01*
X005183Y019215D01*
X005134Y019208D01*
X005084Y019205D01*
X005033Y019206D01*
X004984Y019211D01*
X004934Y019220D01*
X004886Y019233D01*
X004839Y019249D01*
X004793Y019270D01*
X004749Y019294D01*
X004707Y019321D01*
X004667Y019351D01*
X004630Y019385D01*
X004596Y019422D01*
X004564Y019461D01*
X004536Y019502D01*
X004511Y019546D01*
X004490Y019591D01*
X004473Y019638D01*
X004459Y019686D01*
X004449Y019735D01*
X004443Y019785D01*
X004441Y019835D01*
D11*
X001553Y018718D02*
X001346Y018924D01*
X001346Y018821D01*
X001243Y018821D01*
X001243Y018924D01*
X001346Y018924D01*
X001346Y018487D02*
X000726Y018487D01*
X000726Y018073D02*
X001346Y018487D01*
X001346Y018073D02*
X000726Y018073D01*
X000726Y017842D02*
X000726Y017429D01*
X001346Y017429D01*
X001346Y017842D01*
X001036Y017635D02*
X001036Y017429D01*
X001139Y017198D02*
X001243Y017198D01*
X001346Y017094D01*
X001346Y016887D01*
X001243Y016784D01*
X001036Y016887D02*
X001036Y017094D01*
X001139Y017198D01*
X000829Y017198D02*
X000726Y017094D01*
X000726Y016887D01*
X000829Y016784D01*
X000933Y016784D01*
X001036Y016887D01*
X001036Y016553D02*
X000829Y016553D01*
X000726Y016450D01*
X000726Y016139D01*
X001346Y016139D01*
X001346Y015909D02*
X001346Y015495D01*
X000726Y015495D01*
X000726Y015909D01*
X001036Y015702D02*
X001036Y015495D01*
X001243Y015264D02*
X000829Y015264D01*
X000726Y015161D01*
X000726Y014850D01*
X001346Y014850D01*
X001346Y015161D01*
X001243Y015264D01*
X001139Y016139D02*
X001139Y016450D01*
X001036Y016553D01*
X001139Y016346D02*
X001346Y016553D01*
X001346Y014619D02*
X000726Y014619D01*
X000726Y014206D02*
X001346Y014619D01*
X001346Y014206D02*
X000726Y014206D01*
X000933Y013975D02*
X000726Y013768D01*
X000933Y013561D01*
X001346Y013561D01*
X001346Y013975D02*
X000933Y013975D01*
X001036Y013975D02*
X001036Y013561D01*
X001139Y012686D02*
X001243Y012686D01*
X001346Y012582D01*
X001346Y012376D01*
X001243Y012272D01*
X001346Y012041D02*
X001346Y011628D01*
X001346Y011834D02*
X000726Y011834D01*
X000933Y011628D01*
X000829Y011397D02*
X000726Y011293D01*
X000726Y011086D01*
X000829Y010983D01*
X001243Y010983D01*
X000829Y011397D01*
X001243Y011397D01*
X001346Y011293D01*
X001346Y011086D01*
X001243Y010983D01*
X001346Y010752D02*
X001346Y010338D01*
X000933Y010752D01*
X000829Y010752D01*
X000726Y010649D01*
X000726Y010442D01*
X000829Y010338D01*
X000933Y009471D02*
X000726Y009264D01*
X000829Y009033D02*
X000726Y008930D01*
X000726Y008723D01*
X000829Y008620D01*
X001243Y008620D01*
X001346Y008723D01*
X001346Y008930D01*
X001243Y009033D01*
X001346Y009264D02*
X001139Y009471D01*
X000933Y009471D01*
X000726Y008397D02*
X000933Y008190D01*
X001139Y008190D01*
X001346Y008397D01*
X000829Y012272D02*
X000726Y012376D01*
X000726Y012582D01*
X000829Y012686D01*
X000933Y012686D01*
X001036Y012582D01*
X001139Y012686D01*
X001036Y012582D02*
X001036Y012479D01*
X001036Y019792D02*
X001036Y020102D01*
X001139Y020206D01*
X001243Y020206D01*
X001346Y020102D01*
X001346Y019792D01*
X000726Y019792D01*
X000726Y020102D01*
X000829Y020206D01*
X000933Y020206D01*
X001036Y020102D01*
X000829Y020436D02*
X001036Y020643D01*
X001346Y020643D01*
X001036Y020643D02*
X000829Y020850D01*
X000726Y020850D01*
X000726Y021081D02*
X001346Y021495D01*
X000726Y021495D01*
X000829Y021726D02*
X000726Y021829D01*
X000726Y022036D01*
X000829Y022139D01*
X001243Y022139D01*
X001346Y022036D01*
X001346Y021829D01*
X001243Y021726D01*
X000829Y021726D01*
X000726Y022370D02*
X001346Y022370D01*
X001346Y022784D01*
X001036Y022577D02*
X001036Y022370D01*
X000726Y022370D02*
X000726Y022784D01*
X000726Y021081D02*
X001346Y021081D01*
X000829Y020436D02*
X000726Y020436D01*
D12*
X002031Y023075D02*
X002031Y023825D01*
X003531Y023825D01*
X003531Y023075D01*
X002031Y023075D01*
X001381Y024750D02*
X001381Y028950D01*
X004381Y028950D01*
X004381Y024750D01*
X001381Y024750D01*
X002031Y029875D02*
X002031Y030625D01*
X003531Y030625D01*
X003531Y029875D01*
X002031Y029875D01*
X006106Y025700D02*
X006106Y024200D01*
X006856Y024200D01*
X006856Y025700D01*
X006106Y025700D01*
X007103Y025759D02*
X018520Y025759D01*
X018520Y019459D01*
X007103Y019459D01*
X007103Y025759D01*
X008031Y026075D02*
X008031Y026825D01*
X009531Y026825D01*
X009531Y026075D01*
X008031Y026075D01*
X008581Y029250D02*
X015581Y029250D01*
X015581Y031250D01*
X008581Y031250D01*
X008581Y029250D01*
X010484Y018028D02*
X010484Y016650D01*
X010287Y016650D01*
X010287Y016453D01*
X010484Y016453D01*
X010484Y016650D01*
X010831Y015525D02*
X010831Y014775D01*
X009331Y014775D01*
X009331Y015525D01*
X010831Y015525D01*
X011331Y015525D02*
X011331Y014775D01*
X012831Y014775D01*
X012831Y015525D01*
X011331Y015525D01*
X011665Y016453D02*
X011665Y018028D01*
X013203Y014887D02*
X015959Y014887D01*
X015959Y009178D01*
X013203Y009178D01*
X013203Y014887D01*
X014187Y015863D02*
X014187Y016453D01*
X014187Y016847D02*
X014187Y017437D01*
X014974Y017437D01*
X014974Y017241D01*
X014974Y016847D02*
X014974Y016453D01*
X014974Y016059D02*
X014974Y015863D01*
X014187Y015863D01*
X015706Y015900D02*
X016456Y015900D01*
X016456Y017400D01*
X015706Y017400D01*
X015706Y015900D01*
X017581Y014850D02*
X017581Y012850D01*
X018581Y012850D01*
X018581Y014850D01*
X017581Y014850D01*
X016581Y012650D02*
X018581Y012650D01*
X018581Y011650D01*
X016581Y011650D01*
X016581Y012650D01*
X016581Y011450D02*
X018581Y011450D01*
X018581Y010450D01*
X016581Y010450D01*
X016581Y011450D01*
X016581Y010250D02*
X018581Y010250D01*
X018581Y009250D01*
X016581Y009250D01*
X016581Y010250D01*
X015363Y008547D02*
X018198Y008547D01*
X018198Y002405D01*
X015363Y002405D01*
X015363Y008547D01*
X013898Y008547D02*
X011063Y008547D01*
X011063Y002405D01*
X013898Y002405D01*
X013898Y008547D01*
X012181Y009050D02*
X012181Y010050D01*
X010181Y010050D01*
X010181Y009050D01*
X012181Y009050D01*
X012181Y010850D02*
X012181Y011850D01*
X010181Y011850D01*
X010181Y010850D01*
X012181Y010850D01*
X012181Y012750D02*
X012181Y013750D01*
X010181Y013750D01*
X010181Y012750D01*
X012181Y012750D01*
X009298Y008547D02*
X006463Y008547D01*
X006463Y002405D01*
X009298Y002405D01*
X009298Y008547D01*
X008481Y010550D02*
X006481Y010550D01*
X006481Y011550D01*
X008481Y011550D01*
X008481Y010550D01*
X008581Y012250D02*
X006581Y012250D01*
X006581Y013250D01*
X008581Y013250D01*
X008581Y012250D01*
X008581Y014050D02*
X006581Y014050D01*
X006581Y015050D01*
X008581Y015050D01*
X008581Y014050D01*
X005998Y016547D02*
X005998Y010405D01*
X003163Y010405D01*
X003163Y016547D01*
X005998Y016547D01*
X002756Y011900D02*
X002006Y011900D01*
X002006Y010400D01*
X002756Y010400D01*
X002756Y011900D01*
X001663Y008547D02*
X004498Y008547D01*
X004498Y002405D01*
X001663Y002405D01*
X001663Y008547D01*
X002331Y001625D02*
X002331Y000875D01*
X003831Y000875D01*
X003831Y001625D01*
X002331Y001625D01*
X007331Y001625D02*
X007331Y000875D01*
X008831Y000875D01*
X008831Y001625D01*
X007331Y001625D01*
X011631Y001725D02*
X011631Y000975D01*
X013131Y000975D01*
X013131Y001725D01*
X011631Y001725D01*
X016031Y001725D02*
X016031Y000975D01*
X017531Y000975D01*
X017531Y001725D01*
X016031Y001725D01*
X016081Y029250D02*
X016081Y031250D01*
X017081Y031250D01*
X017081Y029250D01*
X016081Y029250D01*
X017481Y029250D02*
X017481Y031250D01*
X018481Y031250D01*
X018481Y029250D01*
X017481Y029250D01*
D13*
X017613Y028747D02*
X017690Y028670D01*
X017767Y028670D01*
X017844Y028747D01*
X017844Y029130D01*
X017920Y029130D02*
X017767Y029130D01*
X018074Y028900D02*
X018381Y028900D01*
X018304Y028670D02*
X018304Y029130D01*
X018074Y028900D01*
X016967Y028894D02*
X016967Y028740D01*
X016891Y028664D01*
X016737Y028664D01*
X016660Y028740D01*
X016660Y028894D02*
X016814Y028971D01*
X016891Y028971D01*
X016967Y028894D01*
X016967Y029124D02*
X016660Y029124D01*
X016660Y028894D01*
X016507Y029124D02*
X016353Y029124D01*
X016430Y029124D02*
X016430Y028740D01*
X016353Y028664D01*
X016277Y028664D01*
X016200Y028740D01*
X016770Y026378D02*
X017000Y026378D01*
X017077Y026302D01*
X017077Y026225D01*
X017000Y026148D01*
X016770Y026148D01*
X016770Y025918D02*
X016770Y026378D01*
X016770Y025918D02*
X017000Y025918D01*
X017077Y025995D01*
X017077Y026071D01*
X017000Y026148D01*
X017230Y025918D02*
X017537Y025918D01*
X017691Y025918D02*
X017998Y025918D01*
X018151Y025918D02*
X018458Y025918D01*
X018305Y025918D02*
X018305Y026378D01*
X018151Y026225D01*
X017998Y026378D02*
X017691Y026378D01*
X017691Y025918D01*
X017691Y026148D02*
X017844Y026148D01*
X017230Y026378D02*
X017230Y025918D01*
X016424Y017971D02*
X016193Y017740D01*
X016500Y017740D01*
X016424Y017510D02*
X016424Y017971D01*
X016040Y017894D02*
X016040Y017740D01*
X015963Y017664D01*
X015733Y017664D01*
X015886Y017664D02*
X016040Y017510D01*
X016040Y017894D02*
X015963Y017971D01*
X015733Y017971D01*
X015733Y017510D01*
X014977Y017561D02*
X014670Y017561D01*
X014977Y017868D01*
X014977Y017945D01*
X014900Y018022D01*
X014746Y018022D01*
X014670Y017945D01*
X014516Y017945D02*
X014516Y017638D01*
X014440Y017561D01*
X014286Y017561D01*
X014209Y017638D01*
X014209Y017945D01*
X014286Y018022D01*
X014440Y018022D01*
X014516Y017945D01*
X014363Y017715D02*
X014516Y017561D01*
X015184Y015430D02*
X015184Y015047D01*
X015261Y014970D01*
X015414Y014970D01*
X015491Y015047D01*
X015491Y015430D01*
X015644Y015277D02*
X015798Y015430D01*
X015798Y014970D01*
X015951Y014970D02*
X015644Y014970D01*
X016522Y013229D02*
X016676Y013229D01*
X016599Y013229D02*
X016599Y012845D01*
X016522Y012768D01*
X016446Y012768D01*
X016369Y012845D01*
X016829Y012845D02*
X016829Y012768D01*
X016829Y012845D02*
X017136Y013152D01*
X017136Y013229D01*
X016829Y013229D01*
X017779Y014959D02*
X017703Y015036D01*
X017779Y014959D02*
X017856Y014959D01*
X017933Y015036D01*
X017933Y015419D01*
X017856Y015419D02*
X018010Y015419D01*
X018163Y015343D02*
X018240Y015419D01*
X018393Y015419D01*
X018470Y015343D01*
X018470Y015266D01*
X018163Y014959D01*
X018470Y014959D01*
X016454Y011278D02*
X016377Y011278D01*
X016301Y011201D01*
X016301Y010971D01*
X016454Y010971D01*
X016531Y011048D01*
X016531Y011201D01*
X016454Y011278D01*
X016147Y011124D02*
X016301Y010971D01*
X016147Y011124D02*
X016070Y011278D01*
X016070Y010818D02*
X016070Y010664D01*
X016070Y010741D02*
X016454Y010741D01*
X016531Y010664D01*
X016531Y010587D01*
X016454Y010511D01*
X016426Y010120D02*
X016349Y010120D01*
X016272Y010044D01*
X016272Y009967D01*
X016272Y010044D02*
X016196Y010120D01*
X016119Y010120D01*
X016042Y010044D01*
X016042Y009890D01*
X016119Y009814D01*
X016042Y009660D02*
X016042Y009507D01*
X016042Y009583D02*
X016426Y009583D01*
X016502Y009507D01*
X016502Y009430D01*
X016426Y009353D01*
X016426Y009814D02*
X016502Y009890D01*
X016502Y010044D01*
X016426Y010120D01*
X012837Y014229D02*
X012530Y014229D01*
X012377Y014229D02*
X012223Y014383D01*
X012300Y014383D02*
X012070Y014383D01*
X012070Y014229D02*
X012070Y014689D01*
X012300Y014689D01*
X012377Y014613D01*
X012377Y014459D01*
X012300Y014383D01*
X012530Y014536D02*
X012684Y014689D01*
X012684Y014229D01*
X011348Y012399D02*
X011424Y012323D01*
X011118Y012016D01*
X011194Y011939D01*
X011348Y011939D01*
X011424Y012016D01*
X011424Y012323D01*
X011348Y012399D02*
X011194Y012399D01*
X011118Y012323D01*
X011118Y012016D01*
X010964Y011939D02*
X010657Y011939D01*
X010504Y011939D02*
X010350Y012092D01*
X010427Y012092D02*
X010197Y012092D01*
X010197Y011939D02*
X010197Y012399D01*
X010427Y012399D01*
X010504Y012323D01*
X010504Y012169D01*
X010427Y012092D01*
X010657Y012246D02*
X010811Y012399D01*
X010811Y011939D01*
X010673Y010591D02*
X010980Y010591D01*
X010980Y010515D01*
X010673Y010208D01*
X010673Y010131D01*
X010519Y010131D02*
X010366Y010284D01*
X010443Y010284D02*
X010213Y010284D01*
X010213Y010131D02*
X010213Y010591D01*
X010443Y010591D01*
X010519Y010515D01*
X010519Y010361D01*
X010443Y010284D01*
X009355Y010857D02*
X009278Y010781D01*
X009125Y010781D01*
X009048Y010857D01*
X009048Y011011D02*
X009202Y011088D01*
X009278Y011088D01*
X009355Y011011D01*
X009355Y010857D01*
X009355Y011241D02*
X009048Y011241D01*
X009048Y011011D01*
X008895Y011011D02*
X008895Y011164D01*
X008818Y011241D01*
X008588Y011241D01*
X008588Y010781D01*
X008588Y010934D02*
X008818Y010934D01*
X008895Y011011D01*
X008741Y010934D02*
X008895Y010781D01*
X008995Y012532D02*
X008841Y012685D01*
X008918Y012685D02*
X008688Y012685D01*
X008688Y012532D02*
X008688Y012992D01*
X008918Y012992D01*
X008995Y012915D01*
X008995Y012762D01*
X008918Y012685D01*
X009148Y012762D02*
X009148Y012609D01*
X009225Y012532D01*
X009378Y012532D01*
X009455Y012609D01*
X009455Y012685D01*
X009378Y012762D01*
X009148Y012762D01*
X009302Y012915D01*
X009455Y012992D01*
X009367Y014068D02*
X009213Y014068D01*
X009136Y014145D01*
X008983Y014068D02*
X008829Y014221D01*
X008906Y014221D02*
X008676Y014221D01*
X008676Y014068D02*
X008676Y014528D01*
X008906Y014528D01*
X008983Y014452D01*
X008983Y014298D01*
X008906Y014221D01*
X009136Y014375D02*
X009213Y014298D01*
X009443Y014298D01*
X009443Y014145D02*
X009443Y014452D01*
X009367Y014528D01*
X009213Y014528D01*
X009136Y014452D01*
X009136Y014375D01*
X009443Y014145D02*
X009367Y014068D01*
X010189Y013984D02*
X010419Y013984D01*
X010496Y014061D01*
X010496Y014215D01*
X010419Y014291D01*
X010189Y014291D01*
X010189Y013831D01*
X010342Y013984D02*
X010496Y013831D01*
X010649Y013908D02*
X010649Y013984D01*
X010726Y014061D01*
X010879Y014061D01*
X010956Y013984D01*
X010956Y013908D01*
X010879Y013831D01*
X010726Y013831D01*
X010649Y013908D01*
X010726Y014061D02*
X010649Y014138D01*
X010649Y014215D01*
X010726Y014291D01*
X010879Y014291D01*
X010956Y014215D01*
X010956Y014138D01*
X010879Y014061D01*
X010097Y015611D02*
X009790Y015611D01*
X010097Y015918D01*
X010097Y015995D01*
X010020Y016071D01*
X009867Y016071D01*
X009790Y015995D01*
X009636Y015995D02*
X009636Y015841D01*
X009560Y015764D01*
X009330Y015764D01*
X009483Y015764D02*
X009636Y015611D01*
X009636Y015995D02*
X009560Y016071D01*
X009330Y016071D01*
X009330Y015611D01*
X006711Y023524D02*
X006557Y023524D01*
X006480Y023601D01*
X006480Y023755D02*
X006634Y023831D01*
X006711Y023831D01*
X006787Y023755D01*
X006787Y023601D01*
X006711Y023524D01*
X006480Y023755D02*
X006480Y023985D01*
X006787Y023985D01*
X006327Y023524D02*
X006020Y023524D01*
X005867Y023524D02*
X005713Y023678D01*
X005790Y023678D02*
X005560Y023678D01*
X005560Y023524D02*
X005560Y023985D01*
X005790Y023985D01*
X005867Y023908D01*
X005867Y023755D01*
X005790Y023678D01*
X006020Y023831D02*
X006174Y023985D01*
X006174Y023524D01*
X004552Y023493D02*
X004552Y023570D01*
X004476Y023647D01*
X004322Y023647D01*
X004245Y023570D01*
X004092Y023570D02*
X004015Y023647D01*
X003862Y023647D01*
X003785Y023570D01*
X003785Y023263D01*
X003862Y023187D01*
X004015Y023187D01*
X004092Y023263D01*
X004245Y023187D02*
X004552Y023493D01*
X004552Y023187D02*
X004245Y023187D01*
X004232Y029999D02*
X004539Y029999D01*
X004385Y029999D02*
X004385Y030460D01*
X004232Y030306D01*
X004079Y030383D02*
X004002Y030460D01*
X003848Y030460D01*
X003772Y030383D01*
X003772Y030076D01*
X003848Y029999D01*
X004002Y029999D01*
X004079Y030076D01*
X009683Y026633D02*
X009683Y026326D01*
X009759Y026250D01*
X009913Y026250D01*
X009990Y026326D01*
X010143Y026326D02*
X010220Y026250D01*
X010373Y026250D01*
X010450Y026326D01*
X010450Y026403D01*
X010373Y026480D01*
X010296Y026480D01*
X010373Y026480D02*
X010450Y026556D01*
X010450Y026633D01*
X010373Y026710D01*
X010220Y026710D01*
X010143Y026633D01*
X009990Y026633D02*
X009913Y026710D01*
X009759Y026710D01*
X009683Y026633D01*
X003856Y010334D02*
X003703Y010181D01*
X003549Y010258D02*
X003549Y009951D01*
X003473Y009874D01*
X003319Y009874D01*
X003242Y009951D01*
X003242Y010258D01*
X003319Y010334D01*
X003473Y010334D01*
X003549Y010258D01*
X003396Y010027D02*
X003549Y009874D01*
X003703Y009874D02*
X004010Y009874D01*
X003856Y009874D02*
X003856Y010334D01*
X002753Y010210D02*
X002753Y010133D01*
X002676Y010056D01*
X002753Y009979D01*
X002753Y009903D01*
X002676Y009826D01*
X002523Y009826D01*
X002446Y009903D01*
X002292Y009826D02*
X002139Y009979D01*
X002216Y009979D02*
X001985Y009979D01*
X001985Y009826D02*
X001985Y010286D01*
X002216Y010286D01*
X002292Y010210D01*
X002292Y010056D01*
X002216Y009979D01*
X002446Y010210D02*
X002523Y010286D01*
X002676Y010286D01*
X002753Y010210D01*
X002676Y010056D02*
X002599Y010056D01*
X002394Y002307D02*
X002163Y002077D01*
X002470Y002077D01*
X002394Y002307D02*
X002394Y001846D01*
X002010Y001846D02*
X001857Y002000D01*
X002010Y001923D02*
X001933Y001846D01*
X001780Y001846D01*
X001703Y001923D01*
X001703Y002230D01*
X001780Y002307D01*
X001933Y002307D01*
X002010Y002230D01*
X002010Y001923D01*
X002597Y000758D02*
X002828Y000758D01*
X002904Y000681D01*
X002904Y000528D01*
X002828Y000451D01*
X002597Y000451D01*
X002597Y000298D02*
X002597Y000758D01*
X002751Y000451D02*
X002904Y000298D01*
X003058Y000298D02*
X003365Y000298D01*
X003518Y000298D02*
X003825Y000298D01*
X003672Y000298D02*
X003672Y000758D01*
X003518Y000604D01*
X003211Y000758D02*
X003211Y000298D01*
X003058Y000604D02*
X003211Y000758D01*
X006476Y001903D02*
X006552Y001827D01*
X006706Y001827D01*
X006782Y001903D01*
X006782Y002210D01*
X006706Y002287D01*
X006552Y002287D01*
X006476Y002210D01*
X006476Y001903D01*
X006629Y001980D02*
X006782Y001827D01*
X006936Y001903D02*
X007013Y001827D01*
X007166Y001827D01*
X007243Y001903D01*
X007243Y001980D01*
X007166Y002057D01*
X007089Y002057D01*
X007166Y002057D02*
X007243Y002134D01*
X007243Y002210D01*
X007166Y002287D01*
X007013Y002287D01*
X006936Y002210D01*
X007460Y000778D02*
X007690Y000778D01*
X007767Y000701D01*
X007767Y000547D01*
X007690Y000471D01*
X007460Y000471D01*
X007613Y000471D02*
X007767Y000317D01*
X007920Y000317D02*
X008227Y000317D01*
X008074Y000317D02*
X008074Y000778D01*
X007920Y000624D01*
X008380Y000701D02*
X008457Y000778D01*
X008611Y000778D01*
X008687Y000701D01*
X008687Y000624D01*
X008380Y000317D01*
X008687Y000317D01*
X007460Y000317D02*
X007460Y000778D01*
X011115Y001923D02*
X011192Y001846D01*
X011345Y001846D01*
X011422Y001923D01*
X011422Y002230D01*
X011345Y002307D01*
X011192Y002307D01*
X011115Y002230D01*
X011115Y001923D01*
X011268Y002000D02*
X011422Y001846D01*
X011575Y001923D02*
X011652Y001846D01*
X011805Y001846D01*
X011882Y001923D01*
X011882Y002077D01*
X011805Y002153D01*
X011729Y002153D01*
X011575Y002077D01*
X011575Y002307D01*
X011882Y002307D01*
X011850Y000878D02*
X012080Y000878D01*
X012157Y000801D01*
X012157Y000647D01*
X012080Y000571D01*
X011850Y000571D01*
X012004Y000571D02*
X012157Y000417D01*
X012311Y000417D02*
X012618Y000417D01*
X012464Y000417D02*
X012464Y000878D01*
X012311Y000724D01*
X011850Y000878D02*
X011850Y000417D01*
X012771Y000494D02*
X012848Y000417D01*
X013001Y000417D01*
X013078Y000494D01*
X013078Y000571D01*
X013001Y000647D01*
X012924Y000647D01*
X013001Y000647D02*
X013078Y000724D01*
X013078Y000801D01*
X013001Y000878D01*
X012848Y000878D01*
X012771Y000801D01*
X015411Y001935D02*
X015488Y001858D01*
X015641Y001858D01*
X015718Y001935D01*
X015718Y002242D01*
X015641Y002319D01*
X015488Y002319D01*
X015411Y002242D01*
X015411Y001935D01*
X015564Y002012D02*
X015718Y001858D01*
X015871Y001935D02*
X015948Y001858D01*
X016102Y001858D01*
X016178Y001935D01*
X016178Y002012D01*
X016102Y002088D01*
X015871Y002088D01*
X015871Y001935D01*
X015871Y002088D02*
X016025Y002242D01*
X016178Y002319D01*
X016207Y000858D02*
X016437Y000858D01*
X016514Y000781D01*
X016514Y000628D01*
X016437Y000551D01*
X016207Y000551D01*
X016360Y000551D02*
X016514Y000398D01*
X016667Y000398D02*
X016974Y000398D01*
X016821Y000398D02*
X016821Y000858D01*
X016667Y000704D01*
X017128Y000628D02*
X017435Y000628D01*
X017358Y000398D02*
X017358Y000858D01*
X017128Y000628D01*
X016207Y000398D02*
X016207Y000858D01*
M02*
