%
M48
M72
T01C0.0120
T02C0.0354
T03C0.0394
T04C0.0433
T05C0.0945
T06C0.1181
%
T01
X1758Y10356
X1458Y10706
X4558Y10706
X4808Y10356
X7658Y10756
X7908Y10406
X8708Y11506
X9533Y11681
X10908Y12106
X12608Y12331
X12708Y11531
X13808Y10406
X15008Y11506
X16108Y12106
X17658Y13031
X16358Y13756
X16608Y14506
X17808Y15031
X18308Y15181
X18908Y14931
X19508Y15706
X20058Y15356
X20308Y15606
X21008Y15206
X19008Y16206
X18208Y16231
X17058Y17381
X16433Y17331
X15533Y17906
X14608Y18606
X14883Y19231
X15208Y19206
X15533Y19181
X16733Y19406
X17683Y19406
X18008Y19556
X17358Y20381
X17308Y20881
X18308Y20956
X18858Y20956
X19183Y20931
X19858Y21956
X20583Y21056
X21433Y21656
X22433Y22256
X19583Y23156
X17533Y21956
X17033Y21956
X20083Y19806
X21083Y18831
X21333Y18531
X20083Y17906
X20083Y17581
X19158Y18306
X15883Y15781
X14233Y15781
X10983Y16681
X9533Y14956
X7858Y17081
X6033Y19281
X6533Y19781
X7033Y20031
X8183Y20381
X9408Y20881
X10358Y20356
X11758Y20606
X12008Y20356
X11908Y19806
X11683Y19556
X13933Y19306
X14583Y19406
X11383Y22606
X8233Y22106
X7758Y23331
X9533Y26981
X10683Y28331
X11433Y28206
X12008Y26631
X13833Y27956
X15808Y27281
X16358Y26031
X18008Y28506
X18183Y30856
X18183Y33156
X15583Y35131
X16883Y35681
X14858Y36831
X12783Y36931
X12783Y37431
X12783Y36431
X11733Y38431
X11958Y40306
X12958Y40306
X13958Y40306
X14958Y40306
X15958Y40306
X15958Y41306
X15958Y42306
X14958Y42306
X13958Y42306
X12958Y42306
X11958Y42306
X10958Y42306
X9958Y42306
X8958Y42306
X8158Y42306
X8158Y41306
X6958Y41306
X6958Y42306
X5658Y42306
X4458Y42306
X3458Y42306
X2458Y42306
X1458Y42306
X1458Y41306
X1458Y40306
X2458Y40306
X3458Y40306
X4458Y40306
X5658Y40306
X6958Y40306
X8158Y40306
X8958Y40306
X9958Y40306
X10958Y40306
X18033Y41131
X21008Y36981
X22033Y36806
X23233Y35606
X14033Y32681
X13383Y31681
X12783Y31931
X12783Y32431
X12783Y32931
X12808Y33656
X10933Y33181
X11808Y31181
X12783Y31081
X9033Y29181
X7033Y29181
X6533Y29181
X6033Y29181
X2783Y30081
X6883Y31681
X3283Y33431
X3183Y39181
X21533Y13631
X20783Y12231
X20258Y10781
X19858Y9781
X18133Y11256
X18533Y7481
X21608Y7506
X10858Y10356
T02
X18000Y28974
X18000Y29761
X18788Y29761
X19575Y29761
X19575Y28974
X18788Y28974
T03
X1408Y2006
X2408Y2006
X14598Y2006
X15598Y2006
X15563Y13313
X14563Y13313
X13563Y13313
X13563Y14313
X14563Y14313
X15563Y14313
X10888Y14308
X9888Y14308
X8888Y14308
X7888Y14308
X6888Y14308
X5888Y14308
X5888Y13308
X6888Y13308
X7888Y13308
X8888Y13308
X9888Y13308
X10888Y13308
X10983Y18293
X11983Y18293
X12983Y18293
X9983Y18293
X8983Y18293
X7983Y18293
X3358Y14318
X2358Y14318
X1358Y14318
X1358Y13318
X2358Y13318
X3358Y13318
X1358Y20331
X1358Y21331
X4778Y23330
X4778Y24330
X4758Y25530
X4758Y26530
X2258Y25931
X2258Y24931
X2258Y23931
X21448Y26198
X22448Y26198
X22448Y27198
X21448Y27198
X21448Y28198
X22448Y28198
X22448Y29198
X21448Y29198
X21448Y30198
X22448Y30198
X22448Y31198
X21448Y31198
X21448Y32198
X22448Y32198
T04
X14533Y25306
X13533Y25306
X12533Y25306
X11533Y25306
X10533Y25306
X9533Y25306
X6408Y16593
X5408Y16593
X4408Y16593
X3408Y16593
X2408Y16593
X1408Y16593
X19629Y6031
X19629Y5243
X20613Y5243
X20613Y6031
T05
X22491Y4176
X17751Y4176
T06
X22541Y15010
X1281Y44538
M30
