G75*
G70*
%OFA0B0*%
%FSLAX24Y24*%
%IPPOS*%
%LPD*%
%AMOC8*
5,1,8,0,0,1.08239X$1,22.5*
%
%ADD10C,0.0591*%
%ADD11C,0.0531*%
%ADD12C,0.1345*%
%ADD13C,0.0650*%
%ADD14C,0.0260*%
%ADD15C,0.0160*%
D10*
X001408Y002006D03*
X002408Y002006D03*
X014598Y002006D03*
X015598Y002006D03*
X015563Y013313D03*
X014563Y013313D03*
X013563Y013313D03*
X013563Y014313D03*
X014563Y014313D03*
X015563Y014313D03*
X010888Y014308D03*
X009888Y014308D03*
X008888Y014308D03*
X007888Y014308D03*
X006888Y014308D03*
X005888Y014308D03*
X005888Y013308D03*
X006888Y013308D03*
X007888Y013308D03*
X008888Y013308D03*
X009888Y013308D03*
X010888Y013308D03*
X010983Y018293D03*
X011983Y018293D03*
X012983Y018293D03*
X009983Y018293D03*
X008983Y018293D03*
X007983Y018293D03*
X003358Y014318D03*
X002358Y014318D03*
X001358Y014318D03*
X001358Y013318D03*
X002358Y013318D03*
X003358Y013318D03*
X001358Y020331D03*
X001358Y021331D03*
X004778Y023330D03*
X004778Y024330D03*
X004758Y025530D03*
X004758Y026530D03*
X002258Y025931D03*
X002258Y024931D03*
X002258Y023931D03*
X021448Y026198D03*
X022448Y026198D03*
X022448Y027198D03*
X021448Y027198D03*
X021448Y028198D03*
X022448Y028198D03*
X022448Y029198D03*
X021448Y029198D03*
X021448Y030198D03*
X022448Y030198D03*
X022448Y031198D03*
X021448Y031198D03*
X021448Y032198D03*
X022448Y032198D03*
D11*
X019575Y029761D03*
X018788Y029761D03*
X018788Y028974D03*
X019575Y028974D03*
X018000Y028974D03*
X018000Y029761D03*
D12*
X017751Y004176D03*
X022491Y004176D03*
D13*
X020613Y005243D03*
X020613Y006031D03*
X019629Y006031D03*
X019629Y005243D03*
X006408Y016593D03*
X005408Y016593D03*
X004408Y016593D03*
X003408Y016593D03*
X002408Y016593D03*
X001408Y016593D03*
X009533Y025306D03*
X010533Y025306D03*
X011533Y025306D03*
X012533Y025306D03*
X013533Y025306D03*
X014533Y025306D03*
D14*
X016358Y026031D03*
X015808Y027281D03*
X013833Y027956D03*
X012008Y026631D03*
X011433Y028206D03*
X010683Y028331D03*
X009033Y029181D03*
X007033Y029181D03*
X006533Y029181D03*
X006033Y029181D03*
X002783Y030081D03*
X006883Y031681D03*
X003283Y033431D03*
X010933Y033181D03*
X012783Y032931D03*
X012783Y032431D03*
X012783Y031931D03*
X013383Y031681D03*
X012783Y031081D03*
X011808Y031181D03*
X014033Y032681D03*
X012808Y033656D03*
X015583Y035131D03*
X016883Y035681D03*
X014858Y036831D03*
X012783Y036931D03*
X012783Y037431D03*
X012783Y036431D03*
X011733Y038431D03*
X011958Y040306D03*
X012958Y040306D03*
X013958Y040306D03*
X014958Y040306D03*
X015958Y040306D03*
X015958Y041306D03*
X015958Y042306D03*
X014958Y042306D03*
X013958Y042306D03*
X012958Y042306D03*
X011958Y042306D03*
X010958Y042306D03*
X009958Y042306D03*
X008958Y042306D03*
X008158Y042306D03*
X008158Y041306D03*
X006958Y041306D03*
X006958Y042306D03*
X005658Y042306D03*
X004458Y042306D03*
X003458Y042306D03*
X002458Y042306D03*
X001458Y042306D03*
X001458Y041306D03*
X001458Y040306D03*
X002458Y040306D03*
X003458Y040306D03*
X004458Y040306D03*
X005658Y040306D03*
X006958Y040306D03*
X008158Y040306D03*
X008958Y040306D03*
X009958Y040306D03*
X010958Y040306D03*
X018033Y041131D03*
X021008Y036981D03*
X022033Y036806D03*
X023233Y035606D03*
X018183Y033156D03*
X018183Y030856D03*
X018008Y028506D03*
X009533Y026981D03*
X007758Y023331D03*
X008233Y022106D03*
X009408Y020881D03*
X008183Y020381D03*
X007033Y020031D03*
X006533Y019781D03*
X006033Y019281D03*
X007858Y017081D03*
X009533Y014956D03*
X010983Y016681D03*
X014233Y015781D03*
X015883Y015781D03*
X016608Y014506D03*
X016358Y013756D03*
X017658Y013031D03*
X016108Y012106D03*
X015008Y011506D03*
X013808Y010406D03*
X012708Y011531D03*
X012608Y012331D03*
X010908Y012106D03*
X009533Y011681D03*
X008708Y011506D03*
X007658Y010756D03*
X007908Y010406D03*
X010858Y010356D03*
X004808Y010356D03*
X004558Y010706D03*
X001758Y010356D03*
X001458Y010706D03*
X014608Y018606D03*
X014883Y019231D03*
X015208Y019206D03*
X015533Y019181D03*
X016733Y019406D03*
X017683Y019406D03*
X018008Y019556D03*
X017358Y020381D03*
X017308Y020881D03*
X018308Y020956D03*
X018858Y020956D03*
X019183Y020931D03*
X019858Y021956D03*
X020583Y021056D03*
X021433Y021656D03*
X022433Y022256D03*
X019583Y023156D03*
X017533Y021956D03*
X017033Y021956D03*
X020083Y019806D03*
X021083Y018831D03*
X021333Y018531D03*
X020083Y017906D03*
X020083Y017581D03*
X019158Y018306D03*
X017058Y017381D03*
X016433Y017331D03*
X015533Y017906D03*
X014583Y019406D03*
X013933Y019306D03*
X011908Y019806D03*
X011683Y019556D03*
X012008Y020356D03*
X011758Y020606D03*
X010358Y020356D03*
X011383Y022606D03*
X018208Y016231D03*
X019008Y016206D03*
X019508Y015706D03*
X020058Y015356D03*
X020308Y015606D03*
X021008Y015206D03*
X018908Y014931D03*
X018308Y015181D03*
X017808Y015031D03*
X021533Y013631D03*
X020783Y012231D03*
X020258Y010781D03*
X019858Y009781D03*
X018133Y011256D03*
X018533Y007481D03*
X021608Y007506D03*
X003183Y039181D03*
D15*
X000458Y042306D02*
X000458Y001067D01*
X023492Y001067D01*
X023492Y035525D01*
X023462Y035453D01*
X023386Y035377D01*
X023287Y035336D01*
X023180Y035336D01*
X023080Y035377D01*
X023004Y035453D01*
X022963Y035552D01*
X022963Y035659D01*
X023004Y035758D01*
X023080Y035834D01*
X023180Y035876D01*
X023287Y035876D01*
X023386Y035834D01*
X023462Y035758D01*
X023492Y035686D01*
X023492Y042306D01*
X000458Y042306D01*
X000458Y042272D02*
X023492Y042272D01*
X023492Y042114D02*
X000458Y042114D01*
X000458Y041955D02*
X023492Y041955D01*
X023492Y041797D02*
X000458Y041797D01*
X000458Y041638D02*
X023492Y041638D01*
X023492Y041480D02*
X000458Y041480D01*
X000458Y041321D02*
X017842Y041321D01*
X017804Y041283D02*
X017763Y041184D01*
X017763Y041077D01*
X017804Y040978D01*
X017880Y040902D01*
X017980Y040861D01*
X018087Y040861D01*
X018186Y040902D01*
X018262Y040978D01*
X018303Y041077D01*
X018303Y041184D01*
X018262Y041283D01*
X018186Y041359D01*
X018087Y041401D01*
X017980Y041401D01*
X017880Y041359D01*
X017804Y041283D01*
X017763Y041163D02*
X000458Y041163D01*
X000458Y041004D02*
X017793Y041004D01*
X018273Y041004D02*
X023492Y041004D01*
X023492Y040846D02*
X000458Y040846D01*
X000458Y040687D02*
X023492Y040687D01*
X023492Y040529D02*
X000458Y040529D01*
X000458Y040370D02*
X023492Y040370D01*
X023492Y040212D02*
X000458Y040212D01*
X000458Y040053D02*
X023492Y040053D01*
X023492Y039895D02*
X000458Y039895D01*
X000458Y039736D02*
X023492Y039736D01*
X023492Y039578D02*
X000458Y039578D01*
X000458Y039419D02*
X003054Y039419D01*
X003030Y039409D02*
X002954Y039333D01*
X002913Y039234D01*
X002913Y039127D01*
X002954Y039028D01*
X003030Y038952D01*
X003130Y038911D01*
X003237Y038911D01*
X003336Y038952D01*
X003412Y039028D01*
X003453Y039127D01*
X003453Y039234D01*
X003412Y039333D01*
X003336Y039409D01*
X003237Y039451D01*
X003130Y039451D01*
X003030Y039409D01*
X002924Y039261D02*
X000458Y039261D01*
X000458Y039102D02*
X002924Y039102D01*
X003050Y038944D02*
X000458Y038944D01*
X000458Y038785D02*
X023492Y038785D01*
X023492Y038627D02*
X011919Y038627D01*
X011886Y038659D02*
X011787Y038701D01*
X011680Y038701D01*
X011580Y038659D01*
X011504Y038583D01*
X011463Y038484D01*
X011463Y038377D01*
X011504Y038278D01*
X011580Y038202D01*
X011680Y038161D01*
X011787Y038161D01*
X011886Y038202D01*
X011962Y038278D01*
X012003Y038377D01*
X012003Y038484D01*
X011962Y038583D01*
X011886Y038659D01*
X012003Y038468D02*
X023492Y038468D01*
X023492Y038310D02*
X011975Y038310D01*
X011491Y038310D02*
X000458Y038310D01*
X000458Y038468D02*
X011463Y038468D01*
X011547Y038627D02*
X000458Y038627D01*
X000458Y038151D02*
X023492Y038151D01*
X023492Y037993D02*
X000458Y037993D01*
X000458Y037834D02*
X023492Y037834D01*
X023492Y037676D02*
X012897Y037676D01*
X012936Y037659D02*
X012837Y037701D01*
X012730Y037701D01*
X012630Y037659D01*
X012554Y037583D01*
X012513Y037484D01*
X012513Y037377D01*
X012554Y037278D01*
X012630Y037202D01*
X012681Y037181D01*
X012630Y037159D01*
X012554Y037083D01*
X012513Y036984D01*
X012513Y036877D01*
X012554Y036778D01*
X012630Y036702D01*
X012681Y036681D01*
X012630Y036659D01*
X012554Y036583D01*
X012513Y036484D01*
X012513Y036377D01*
X012554Y036278D01*
X012630Y036202D01*
X012730Y036161D01*
X012837Y036161D01*
X012936Y036202D01*
X013012Y036278D01*
X013053Y036377D01*
X013053Y036484D01*
X013012Y036583D01*
X012936Y036659D01*
X012885Y036681D01*
X012936Y036702D01*
X013012Y036778D01*
X013053Y036877D01*
X013053Y036984D01*
X013012Y037083D01*
X012936Y037159D01*
X012885Y037181D01*
X012936Y037202D01*
X013012Y037278D01*
X013053Y037377D01*
X013053Y037484D01*
X013012Y037583D01*
X012936Y037659D01*
X013040Y037517D02*
X023492Y037517D01*
X023492Y037359D02*
X013046Y037359D01*
X012932Y037200D02*
X020846Y037200D01*
X020855Y037209D02*
X020779Y037133D01*
X020738Y037034D01*
X020738Y036927D01*
X020779Y036828D01*
X020855Y036752D01*
X020955Y036711D01*
X021062Y036711D01*
X021161Y036752D01*
X021237Y036828D01*
X021278Y036927D01*
X021278Y037034D01*
X021237Y037133D01*
X021161Y037209D01*
X021062Y037251D01*
X020955Y037251D01*
X020855Y037209D01*
X020741Y037042D02*
X015029Y037042D01*
X015011Y037059D02*
X014912Y037101D01*
X014805Y037101D01*
X014705Y037059D01*
X014629Y036983D01*
X014588Y036884D01*
X014588Y036777D01*
X014629Y036678D01*
X014705Y036602D01*
X014805Y036561D01*
X014912Y036561D01*
X015011Y036602D01*
X015087Y036678D01*
X015128Y036777D01*
X015128Y036884D01*
X015087Y036983D01*
X015011Y037059D01*
X015128Y036883D02*
X020756Y036883D01*
X020921Y036725D02*
X015107Y036725D01*
X014925Y036566D02*
X021906Y036566D01*
X021880Y036577D02*
X021980Y036536D01*
X022087Y036536D01*
X022186Y036577D01*
X022262Y036653D01*
X022303Y036752D01*
X022303Y036859D01*
X022262Y036958D01*
X022186Y037034D01*
X022087Y037076D01*
X021980Y037076D01*
X021880Y037034D01*
X021804Y036958D01*
X021763Y036859D01*
X021763Y036752D01*
X021804Y036653D01*
X021880Y036577D01*
X021775Y036725D02*
X021096Y036725D01*
X021260Y036883D02*
X021773Y036883D01*
X021898Y037042D02*
X021275Y037042D01*
X021171Y037200D02*
X023492Y037200D01*
X023492Y037042D02*
X022169Y037042D01*
X022293Y036883D02*
X023492Y036883D01*
X023492Y036725D02*
X022292Y036725D01*
X022161Y036566D02*
X023492Y036566D01*
X023492Y036408D02*
X013053Y036408D01*
X013019Y036566D02*
X014791Y036566D01*
X014610Y036725D02*
X012959Y036725D01*
X013053Y036883D02*
X014588Y036883D01*
X014687Y037042D02*
X013030Y037042D01*
X012634Y037200D02*
X000458Y037200D01*
X000458Y037042D02*
X012537Y037042D01*
X012513Y036883D02*
X000458Y036883D01*
X000458Y036725D02*
X012607Y036725D01*
X012547Y036566D02*
X000458Y036566D01*
X000458Y036408D02*
X012513Y036408D01*
X012583Y036249D02*
X000458Y036249D01*
X000458Y036091D02*
X023492Y036091D01*
X023492Y036249D02*
X012984Y036249D01*
X012521Y037359D02*
X000458Y037359D01*
X000458Y037517D02*
X012527Y037517D01*
X012669Y037676D02*
X000458Y037676D01*
X000458Y035932D02*
X016785Y035932D01*
X016830Y035951D02*
X016730Y035909D01*
X016654Y035833D01*
X016613Y035734D01*
X016613Y035627D01*
X016654Y035528D01*
X016730Y035452D01*
X016830Y035411D01*
X016937Y035411D01*
X017036Y035452D01*
X017112Y035528D01*
X017153Y035627D01*
X017153Y035734D01*
X017112Y035833D01*
X017036Y035909D01*
X016937Y035951D01*
X016830Y035951D01*
X016982Y035932D02*
X023492Y035932D01*
X023492Y035774D02*
X023447Y035774D01*
X023464Y035457D02*
X023492Y035457D01*
X023492Y035298D02*
X015798Y035298D01*
X015812Y035283D02*
X015736Y035359D01*
X015637Y035401D01*
X015530Y035401D01*
X015430Y035359D01*
X015354Y035283D01*
X015313Y035184D01*
X015313Y035077D01*
X015354Y034978D01*
X015430Y034902D01*
X015530Y034861D01*
X015637Y034861D01*
X015736Y034902D01*
X015812Y034978D01*
X015853Y035077D01*
X015853Y035184D01*
X015812Y035283D01*
X015853Y035140D02*
X023492Y035140D01*
X023492Y034981D02*
X015814Y034981D01*
X015353Y034981D02*
X000458Y034981D01*
X000458Y034823D02*
X023492Y034823D01*
X023492Y034664D02*
X000458Y034664D01*
X000458Y034506D02*
X023492Y034506D01*
X023492Y034347D02*
X000458Y034347D01*
X000458Y034189D02*
X023492Y034189D01*
X023492Y034030D02*
X000458Y034030D01*
X000458Y033872D02*
X012642Y033872D01*
X012655Y033884D02*
X012579Y033808D01*
X012538Y033709D01*
X012538Y033602D01*
X012579Y033503D01*
X012655Y033427D01*
X012755Y033386D01*
X012862Y033386D01*
X012961Y033427D01*
X013037Y033503D01*
X013078Y033602D01*
X013078Y033709D01*
X013037Y033808D01*
X012961Y033884D01*
X012862Y033926D01*
X012755Y033926D01*
X012655Y033884D01*
X012540Y033713D02*
X000458Y033713D01*
X000458Y033555D02*
X003042Y033555D01*
X003054Y033583D02*
X003013Y033484D01*
X003013Y033377D01*
X003054Y033278D01*
X003130Y033202D01*
X003230Y033161D01*
X003337Y033161D01*
X003436Y033202D01*
X003512Y033278D01*
X003553Y033377D01*
X003553Y033484D01*
X003512Y033583D01*
X003436Y033659D01*
X003337Y033701D01*
X003230Y033701D01*
X003130Y033659D01*
X003054Y033583D01*
X003013Y033396D02*
X000458Y033396D01*
X000458Y033238D02*
X003094Y033238D01*
X003472Y033238D02*
X010665Y033238D01*
X010663Y033234D02*
X010663Y033127D01*
X010704Y033028D01*
X010780Y032952D01*
X010880Y032911D01*
X010987Y032911D01*
X011086Y032952D01*
X011162Y033028D01*
X011203Y033127D01*
X011203Y033234D01*
X011162Y033333D01*
X011086Y033409D01*
X010987Y033451D01*
X010880Y033451D01*
X010780Y033409D01*
X010704Y033333D01*
X010663Y033234D01*
X010683Y033079D02*
X000458Y033079D01*
X000458Y032921D02*
X010855Y032921D01*
X011011Y032921D02*
X012513Y032921D01*
X012513Y032877D02*
X012554Y032778D01*
X012630Y032702D01*
X012681Y032681D01*
X012630Y032659D01*
X012554Y032583D01*
X012513Y032484D01*
X012513Y032377D01*
X012554Y032278D01*
X012630Y032202D01*
X012681Y032181D01*
X012630Y032159D01*
X012554Y032083D01*
X012513Y031984D01*
X012513Y031877D01*
X012554Y031778D01*
X012630Y031702D01*
X012730Y031661D01*
X012837Y031661D01*
X012936Y031702D01*
X013012Y031778D01*
X013053Y031877D01*
X013053Y031984D01*
X013012Y032083D01*
X012936Y032159D01*
X012885Y032181D01*
X012936Y032202D01*
X013012Y032278D01*
X013053Y032377D01*
X013053Y032484D01*
X013012Y032583D01*
X012936Y032659D01*
X012885Y032681D01*
X012936Y032702D01*
X013012Y032778D01*
X013053Y032877D01*
X013053Y032984D01*
X013012Y033083D01*
X012936Y033159D01*
X012837Y033201D01*
X012730Y033201D01*
X012630Y033159D01*
X012554Y033083D01*
X012513Y032984D01*
X012513Y032877D01*
X012570Y032762D02*
X000458Y032762D01*
X000458Y032604D02*
X012574Y032604D01*
X012513Y032445D02*
X000458Y032445D01*
X000458Y032287D02*
X012551Y032287D01*
X012599Y032128D02*
X000458Y032128D01*
X000458Y031970D02*
X012513Y031970D01*
X012541Y031811D02*
X007121Y031811D01*
X007112Y031833D02*
X007036Y031909D01*
X006937Y031951D01*
X006830Y031951D01*
X006730Y031909D01*
X006654Y031833D01*
X006613Y031734D01*
X006613Y031627D01*
X006654Y031528D01*
X006730Y031452D01*
X006830Y031411D01*
X006937Y031411D01*
X007036Y031452D01*
X007112Y031528D01*
X007153Y031627D01*
X007153Y031734D01*
X007112Y031833D01*
X007153Y031653D02*
X013113Y031653D01*
X013113Y031627D02*
X013154Y031528D01*
X013230Y031452D01*
X013330Y031411D01*
X013437Y031411D01*
X013536Y031452D01*
X013612Y031528D01*
X013653Y031627D01*
X013653Y031734D01*
X013612Y031833D01*
X013536Y031909D01*
X013437Y031951D01*
X013330Y031951D01*
X013230Y031909D01*
X013154Y031833D01*
X013113Y031734D01*
X013113Y031627D01*
X013188Y031494D02*
X007079Y031494D01*
X006688Y031494D02*
X000458Y031494D01*
X000458Y031336D02*
X011581Y031336D01*
X011579Y031333D02*
X011538Y031234D01*
X011538Y031127D01*
X011579Y031028D01*
X011655Y030952D01*
X011755Y030911D01*
X011862Y030911D01*
X011961Y030952D01*
X012037Y031028D01*
X012078Y031127D01*
X012078Y031234D01*
X012037Y031333D01*
X011961Y031409D01*
X011862Y031451D01*
X011755Y031451D01*
X011655Y031409D01*
X011579Y031333D01*
X011538Y031177D02*
X000458Y031177D01*
X000458Y031019D02*
X011588Y031019D01*
X012028Y031019D02*
X012517Y031019D01*
X012513Y031027D02*
X012554Y030928D01*
X012630Y030852D01*
X012730Y030811D01*
X012837Y030811D01*
X012936Y030852D01*
X013012Y030928D01*
X013053Y031027D01*
X013053Y031134D01*
X013012Y031233D01*
X012936Y031309D01*
X012837Y031351D01*
X012730Y031351D01*
X012630Y031309D01*
X012554Y031233D01*
X012513Y031134D01*
X012513Y031027D01*
X012531Y031177D02*
X012078Y031177D01*
X012035Y031336D02*
X012693Y031336D01*
X012873Y031336D02*
X021034Y031336D01*
X021013Y031285D02*
X021013Y031112D01*
X021079Y030952D01*
X021201Y030829D01*
X021361Y030763D01*
X021535Y030763D01*
X021695Y030829D01*
X021817Y030952D01*
X021883Y031112D01*
X021883Y031285D01*
X021817Y031445D01*
X021695Y031567D01*
X021535Y031634D01*
X021361Y031634D01*
X021201Y031567D01*
X021079Y031445D01*
X021013Y031285D01*
X021013Y031177D02*
X013036Y031177D01*
X013050Y031019D02*
X017964Y031019D01*
X017954Y031008D02*
X017913Y030909D01*
X017913Y030802D01*
X017954Y030703D01*
X018030Y030627D01*
X018130Y030586D01*
X018237Y030586D01*
X018336Y030627D01*
X018412Y030703D01*
X018453Y030802D01*
X018453Y030909D01*
X018412Y031008D01*
X018336Y031084D01*
X018237Y031126D01*
X018130Y031126D01*
X018030Y031084D01*
X017954Y031008D01*
X017913Y030860D02*
X012945Y030860D01*
X012622Y030860D02*
X000458Y030860D01*
X000458Y030702D02*
X017955Y030702D01*
X018411Y030702D02*
X023492Y030702D01*
X023492Y030860D02*
X022725Y030860D01*
X022695Y030829D02*
X022817Y030952D01*
X022883Y031112D01*
X022883Y031285D01*
X022817Y031445D01*
X022695Y031567D01*
X022535Y031634D01*
X022361Y031634D01*
X022201Y031567D01*
X022079Y031445D01*
X022013Y031285D01*
X022013Y031112D01*
X022079Y030952D01*
X022201Y030829D01*
X022361Y030763D01*
X022535Y030763D01*
X022695Y030829D01*
X022845Y031019D02*
X023492Y031019D01*
X023492Y031177D02*
X022883Y031177D01*
X022862Y031336D02*
X023492Y031336D01*
X023492Y031494D02*
X022768Y031494D01*
X022630Y031758D02*
X022697Y031792D01*
X022758Y031836D01*
X022811Y031889D01*
X022855Y031949D01*
X022888Y032016D01*
X022912Y032087D01*
X022923Y032161D01*
X022923Y032180D01*
X022466Y032180D01*
X022466Y031723D01*
X022485Y031723D01*
X022559Y031735D01*
X022630Y031758D01*
X022724Y031811D02*
X023492Y031811D01*
X023492Y031653D02*
X013653Y031653D01*
X013621Y031811D02*
X021245Y031811D01*
X021201Y031829D02*
X021361Y031763D01*
X021535Y031763D01*
X021695Y031829D01*
X021817Y031952D01*
X021883Y032112D01*
X021883Y032285D01*
X021817Y032445D01*
X021695Y032567D01*
X021535Y032634D01*
X021361Y032634D01*
X021201Y032567D01*
X021079Y032445D01*
X021013Y032285D01*
X021013Y032112D01*
X021079Y031952D01*
X021201Y031829D01*
X021072Y031970D02*
X013053Y031970D01*
X013026Y031811D02*
X013145Y031811D01*
X012968Y032128D02*
X021013Y032128D01*
X021013Y032287D02*
X013016Y032287D01*
X013053Y032445D02*
X013896Y032445D01*
X013880Y032452D02*
X013980Y032411D01*
X014087Y032411D01*
X014186Y032452D01*
X014262Y032528D01*
X014303Y032627D01*
X014303Y032734D01*
X014262Y032833D01*
X014186Y032909D01*
X014087Y032951D01*
X013980Y032951D01*
X013880Y032909D01*
X013804Y032833D01*
X013763Y032734D01*
X013763Y032627D01*
X013804Y032528D01*
X013880Y032452D01*
X013773Y032604D02*
X012992Y032604D01*
X012997Y032762D02*
X013775Y032762D01*
X013907Y032921D02*
X013053Y032921D01*
X013014Y033079D02*
X017923Y033079D01*
X017913Y033102D02*
X017954Y033003D01*
X018030Y032927D01*
X018130Y032886D01*
X018237Y032886D01*
X018336Y032927D01*
X018412Y033003D01*
X018453Y033102D01*
X018453Y033209D01*
X018412Y033308D01*
X018336Y033384D01*
X018237Y033426D01*
X018130Y033426D01*
X018030Y033384D01*
X017954Y033308D01*
X017913Y033209D01*
X017913Y033102D01*
X017925Y033238D02*
X011202Y033238D01*
X011183Y033079D02*
X012553Y033079D01*
X012729Y033396D02*
X011100Y033396D01*
X010767Y033396D02*
X003553Y033396D01*
X003524Y033555D02*
X012558Y033555D01*
X012887Y033396D02*
X018058Y033396D01*
X018308Y033396D02*
X023492Y033396D01*
X023492Y033238D02*
X018442Y033238D01*
X018444Y033079D02*
X023492Y033079D01*
X023492Y032921D02*
X018322Y032921D01*
X018045Y032921D02*
X014159Y032921D01*
X014292Y032762D02*
X023492Y032762D01*
X023492Y032604D02*
X022699Y032604D01*
X022697Y032605D02*
X022630Y032639D01*
X022559Y032662D01*
X022485Y032674D01*
X022466Y032674D01*
X022466Y032217D01*
X022430Y032217D01*
X022430Y032674D01*
X022411Y032674D01*
X022337Y032662D01*
X022266Y032639D01*
X022199Y032605D01*
X022138Y032561D01*
X022086Y032508D01*
X022042Y032447D01*
X022008Y032381D01*
X021984Y032310D01*
X021973Y032236D01*
X021973Y032217D01*
X022430Y032217D01*
X022430Y032180D01*
X022466Y032180D01*
X022466Y032217D01*
X022923Y032217D01*
X022923Y032236D01*
X022912Y032310D01*
X022888Y032381D01*
X022855Y032447D01*
X022811Y032508D01*
X022758Y032561D01*
X022697Y032605D01*
X022856Y032445D02*
X023492Y032445D01*
X023492Y032287D02*
X022915Y032287D01*
X022918Y032128D02*
X023492Y032128D01*
X023492Y031970D02*
X022865Y031970D01*
X022466Y031970D02*
X022430Y031970D01*
X022430Y032128D02*
X022466Y032128D01*
X022430Y032180D02*
X022430Y031723D01*
X022411Y031723D01*
X022337Y031735D01*
X022266Y031758D01*
X022199Y031792D01*
X022138Y031836D01*
X022086Y031889D01*
X022042Y031949D01*
X022008Y032016D01*
X021984Y032087D01*
X021973Y032161D01*
X021973Y032180D01*
X022430Y032180D01*
X022430Y032287D02*
X022466Y032287D01*
X022466Y032445D02*
X022430Y032445D01*
X022430Y032604D02*
X022466Y032604D01*
X022197Y032604D02*
X021607Y032604D01*
X021817Y032445D02*
X022040Y032445D01*
X021981Y032287D02*
X021883Y032287D01*
X021883Y032128D02*
X021978Y032128D01*
X022031Y031970D02*
X021824Y031970D01*
X021651Y031811D02*
X022172Y031811D01*
X022430Y031811D02*
X022466Y031811D01*
X022128Y031494D02*
X021768Y031494D01*
X021862Y031336D02*
X022034Y031336D01*
X022013Y031177D02*
X021883Y031177D01*
X021845Y031019D02*
X022051Y031019D01*
X022171Y030860D02*
X021725Y030860D01*
X021695Y030567D02*
X021535Y030634D01*
X021361Y030634D01*
X021201Y030567D01*
X021079Y030445D01*
X021013Y030285D01*
X021013Y030112D01*
X021079Y029952D01*
X021201Y029829D01*
X021361Y029763D01*
X021535Y029763D01*
X021695Y029829D01*
X021817Y029952D01*
X021883Y030112D01*
X021883Y030285D01*
X021817Y030445D01*
X021695Y030567D01*
X021719Y030543D02*
X022177Y030543D01*
X022201Y030567D02*
X022079Y030445D01*
X022013Y030285D01*
X022013Y030112D01*
X022079Y029952D01*
X022201Y029829D01*
X022361Y029763D01*
X022535Y029763D01*
X022695Y029829D01*
X022817Y029952D01*
X022883Y030112D01*
X022883Y030285D01*
X022817Y030445D01*
X022695Y030567D01*
X022535Y030634D01*
X022361Y030634D01*
X022201Y030567D01*
X022054Y030385D02*
X021842Y030385D01*
X021883Y030226D02*
X022013Y030226D01*
X022031Y030068D02*
X021865Y030068D01*
X021774Y029909D02*
X022122Y029909D01*
X022261Y029592D02*
X021635Y029592D01*
X021695Y029567D02*
X021535Y029634D01*
X021361Y029634D01*
X021201Y029567D01*
X021079Y029445D01*
X021013Y029285D01*
X021013Y029112D01*
X021079Y028952D01*
X021201Y028829D01*
X021361Y028763D01*
X021535Y028763D01*
X021695Y028829D01*
X021817Y028952D01*
X021883Y029112D01*
X021883Y029285D01*
X021817Y029445D01*
X021695Y029567D01*
X021822Y029434D02*
X022074Y029434D01*
X022079Y029445D02*
X022013Y029285D01*
X022013Y029112D01*
X022079Y028952D01*
X022201Y028829D01*
X022361Y028763D01*
X022535Y028763D01*
X022695Y028829D01*
X022817Y028952D01*
X022883Y029112D01*
X022883Y029285D01*
X022817Y029445D01*
X022695Y029567D01*
X022535Y029634D01*
X022361Y029634D01*
X022201Y029567D01*
X022079Y029445D01*
X022013Y029275D02*
X021883Y029275D01*
X021883Y029117D02*
X022013Y029117D01*
X022076Y028958D02*
X021820Y028958D01*
X021623Y028800D02*
X022273Y028800D01*
X022361Y028634D02*
X022201Y028567D01*
X022079Y028445D01*
X022013Y028285D01*
X022013Y028112D01*
X022079Y027952D01*
X022201Y027829D01*
X022361Y027763D01*
X022535Y027763D01*
X022695Y027829D01*
X022817Y027952D01*
X022883Y028112D01*
X022883Y028285D01*
X022817Y028445D01*
X022695Y028567D01*
X022535Y028634D01*
X022361Y028634D01*
X022117Y028483D02*
X021779Y028483D01*
X021817Y028445D02*
X021695Y028567D01*
X021535Y028634D01*
X021361Y028634D01*
X021201Y028567D01*
X021079Y028445D01*
X021013Y028285D01*
X021013Y028112D01*
X021079Y027952D01*
X021201Y027829D01*
X021361Y027763D01*
X021535Y027763D01*
X021695Y027829D01*
X021817Y027952D01*
X021883Y028112D01*
X021883Y028285D01*
X021817Y028445D01*
X021867Y028324D02*
X022029Y028324D01*
X022013Y028166D02*
X021883Y028166D01*
X021840Y028007D02*
X022056Y028007D01*
X022182Y027849D02*
X021714Y027849D01*
X021535Y027634D02*
X021361Y027634D01*
X021201Y027567D01*
X021079Y027445D01*
X021013Y027285D01*
X021013Y027112D01*
X021079Y026952D01*
X021201Y026829D01*
X021361Y026763D01*
X021535Y026763D01*
X021695Y026829D01*
X021817Y026952D01*
X021883Y027112D01*
X021883Y027285D01*
X021817Y027445D01*
X021695Y027567D01*
X021535Y027634D01*
X021730Y027532D02*
X022166Y027532D01*
X022201Y027567D02*
X022079Y027445D01*
X022013Y027285D01*
X022013Y027112D01*
X022079Y026952D01*
X022201Y026829D01*
X022361Y026763D01*
X022535Y026763D01*
X022695Y026829D01*
X022817Y026952D01*
X022883Y027112D01*
X022883Y027285D01*
X022817Y027445D01*
X022695Y027567D01*
X022535Y027634D01*
X022361Y027634D01*
X022201Y027567D01*
X022049Y027373D02*
X021847Y027373D01*
X021883Y027215D02*
X022013Y027215D01*
X022036Y027056D02*
X021860Y027056D01*
X021763Y026898D02*
X022133Y026898D01*
X022234Y026581D02*
X021730Y026581D01*
X021758Y026561D02*
X021697Y026605D01*
X021630Y026639D01*
X021559Y026662D01*
X021485Y026674D01*
X021466Y026674D01*
X021466Y026217D01*
X021430Y026217D01*
X021430Y026674D01*
X021411Y026674D01*
X021337Y026662D01*
X021266Y026639D01*
X021199Y026605D01*
X021138Y026561D01*
X021086Y026508D01*
X021042Y026447D01*
X021008Y026381D01*
X020984Y026310D01*
X020973Y026236D01*
X020973Y026217D01*
X021430Y026217D01*
X021430Y026180D01*
X021466Y026180D01*
X021466Y025723D01*
X021485Y025723D01*
X021559Y025735D01*
X021630Y025758D01*
X021697Y025792D01*
X021758Y025836D01*
X021811Y025889D01*
X021855Y025949D01*
X021888Y026016D01*
X021912Y026087D01*
X021923Y026161D01*
X021923Y026180D01*
X021466Y026180D01*
X021466Y026217D01*
X021923Y026217D01*
X021923Y026236D01*
X021912Y026310D01*
X021888Y026381D01*
X021855Y026447D01*
X021811Y026508D01*
X021758Y026561D01*
X021867Y026422D02*
X022070Y026422D01*
X022079Y026445D02*
X022013Y026285D01*
X022013Y026112D01*
X022079Y025952D01*
X022201Y025829D01*
X022361Y025763D01*
X022535Y025763D01*
X022695Y025829D01*
X022817Y025952D01*
X022883Y026112D01*
X022883Y026285D01*
X022817Y026445D01*
X022695Y026567D01*
X022535Y026634D01*
X022361Y026634D01*
X022201Y026567D01*
X022079Y026445D01*
X022013Y026264D02*
X021919Y026264D01*
X021914Y026105D02*
X022015Y026105D01*
X022084Y025947D02*
X021853Y025947D01*
X021690Y025788D02*
X022301Y025788D01*
X022595Y025788D02*
X023492Y025788D01*
X023492Y025630D02*
X014866Y025630D01*
X014927Y025569D02*
X014796Y025700D01*
X014626Y025770D01*
X014441Y025770D01*
X014270Y025700D01*
X014139Y025569D01*
X014068Y025398D01*
X014068Y025213D01*
X014139Y025042D01*
X014270Y024911D01*
X014441Y024841D01*
X014626Y024841D01*
X014796Y024911D01*
X014927Y025042D01*
X014998Y025213D01*
X014998Y025398D01*
X014927Y025569D01*
X014968Y025471D02*
X023492Y025471D01*
X023492Y025313D02*
X014998Y025313D01*
X014973Y025154D02*
X023492Y025154D01*
X023492Y024996D02*
X014880Y024996D01*
X014186Y024996D02*
X013932Y024996D01*
X013918Y024977D02*
X013965Y025041D01*
X014001Y025112D01*
X014025Y025187D01*
X014038Y025266D01*
X014038Y025277D01*
X013561Y025277D01*
X013561Y024801D01*
X013573Y024801D01*
X013651Y024813D01*
X013727Y024838D01*
X013798Y024874D01*
X013862Y024920D01*
X013918Y024977D01*
X014015Y025154D02*
X014093Y025154D01*
X014068Y025313D02*
X013561Y025313D01*
X013561Y025334D02*
X014038Y025334D01*
X014038Y025345D01*
X014025Y025424D01*
X014001Y025499D01*
X013965Y025570D01*
X013918Y025634D01*
X013862Y025691D01*
X013798Y025737D01*
X013727Y025773D01*
X013651Y025798D01*
X013573Y025810D01*
X013561Y025810D01*
X013561Y025334D01*
X013505Y025334D01*
X013505Y025810D01*
X013493Y025810D01*
X013415Y025798D01*
X013339Y025773D01*
X013268Y025737D01*
X013204Y025691D01*
X013148Y025634D01*
X013101Y025570D01*
X013065Y025499D01*
X013041Y025424D01*
X013028Y025345D01*
X013028Y025334D01*
X013505Y025334D01*
X013505Y025277D01*
X013561Y025277D01*
X013561Y025334D01*
X013505Y025313D02*
X012998Y025313D01*
X013028Y025277D02*
X013028Y025266D01*
X013041Y025187D01*
X013065Y025112D01*
X013101Y025041D01*
X013148Y024977D01*
X013204Y024920D01*
X013268Y024874D01*
X013339Y024838D01*
X013415Y024813D01*
X013493Y024801D01*
X013505Y024801D01*
X013505Y025277D01*
X013028Y025277D01*
X012998Y025213D02*
X012927Y025042D01*
X012796Y024911D01*
X012626Y024841D01*
X012441Y024841D01*
X012270Y024911D01*
X012139Y025042D01*
X012068Y025213D01*
X012068Y025398D01*
X012139Y025569D01*
X012270Y025700D01*
X012441Y025770D01*
X012626Y025770D01*
X012796Y025700D01*
X012927Y025569D01*
X012998Y025398D01*
X012998Y025213D01*
X012973Y025154D02*
X013052Y025154D01*
X013134Y024996D02*
X012880Y024996D01*
X012968Y025471D02*
X013056Y025471D01*
X013145Y025630D02*
X012866Y025630D01*
X013385Y025788D02*
X005116Y025788D01*
X005127Y025777D02*
X005005Y025899D01*
X004845Y025966D01*
X004672Y025966D01*
X004512Y025899D01*
X004389Y025777D01*
X004323Y025617D01*
X004323Y025444D01*
X004389Y025284D01*
X004512Y025161D01*
X004672Y025095D01*
X004845Y025095D01*
X005005Y025161D01*
X005127Y025284D01*
X005194Y025444D01*
X005194Y025617D01*
X005127Y025777D01*
X005188Y025630D02*
X009200Y025630D01*
X009139Y025569D02*
X009068Y025398D01*
X009068Y025213D01*
X009139Y025042D01*
X009270Y024911D01*
X009441Y024841D01*
X009626Y024841D01*
X009796Y024911D01*
X009927Y025042D01*
X009998Y025213D01*
X009998Y025398D01*
X009927Y025569D01*
X009796Y025700D01*
X009626Y025770D01*
X009441Y025770D01*
X009270Y025700D01*
X009139Y025569D01*
X009099Y025471D02*
X005194Y025471D01*
X005139Y025313D02*
X009068Y025313D01*
X009093Y025154D02*
X004987Y025154D01*
X004890Y024794D02*
X004816Y024806D01*
X004797Y024806D01*
X004797Y024349D01*
X005254Y024349D01*
X005254Y024368D01*
X005242Y024442D01*
X005219Y024513D01*
X005185Y024579D01*
X005141Y024640D01*
X005088Y024693D01*
X005027Y024737D01*
X004961Y024771D01*
X004890Y024794D01*
X004760Y024806D02*
X004741Y024806D01*
X004667Y024794D01*
X004596Y024771D01*
X004529Y024737D01*
X004469Y024693D01*
X004416Y024640D01*
X004372Y024579D01*
X004338Y024513D01*
X004315Y024442D01*
X004303Y024368D01*
X004303Y024349D01*
X004760Y024349D01*
X004760Y024806D01*
X004760Y024679D02*
X004797Y024679D01*
X004797Y024520D02*
X004760Y024520D01*
X004760Y024362D02*
X004797Y024362D01*
X004797Y024349D02*
X004760Y024349D01*
X004760Y024312D01*
X004797Y024312D01*
X004797Y024349D01*
X004797Y024312D02*
X005254Y024312D01*
X005254Y024293D01*
X005242Y024219D01*
X005219Y024148D01*
X005185Y024081D01*
X005141Y024021D01*
X005088Y023968D01*
X005027Y023924D01*
X004961Y023890D01*
X004890Y023867D01*
X004816Y023855D01*
X004797Y023855D01*
X004797Y024312D01*
X004760Y024312D02*
X004760Y023855D01*
X004741Y023855D01*
X004667Y023867D01*
X004596Y023890D01*
X004529Y023924D01*
X004469Y023968D01*
X004416Y024021D01*
X004372Y024081D01*
X004338Y024148D01*
X004315Y024219D01*
X004303Y024293D01*
X004303Y024312D01*
X004760Y024312D01*
X004760Y024203D02*
X004797Y024203D01*
X004797Y024045D02*
X004760Y024045D01*
X004760Y023886D02*
X004797Y023886D01*
X004865Y023766D02*
X004692Y023766D01*
X004532Y023699D01*
X004409Y023577D01*
X004343Y023417D01*
X004343Y023244D01*
X004409Y023084D01*
X004532Y022961D01*
X004692Y022895D01*
X004865Y022895D01*
X005025Y022961D01*
X005147Y023084D01*
X005214Y023244D01*
X005214Y023417D01*
X005147Y023577D01*
X005025Y023699D01*
X004865Y023766D01*
X004957Y023728D02*
X023492Y023728D01*
X023492Y023886D02*
X004949Y023886D01*
X005158Y024045D02*
X023492Y024045D01*
X023492Y024203D02*
X005237Y024203D01*
X005254Y024362D02*
X023492Y024362D01*
X023492Y024520D02*
X005215Y024520D01*
X005102Y024679D02*
X023492Y024679D01*
X023492Y024837D02*
X013725Y024837D01*
X013561Y024837D02*
X013505Y024837D01*
X013505Y024996D02*
X013561Y024996D01*
X013561Y025154D02*
X013505Y025154D01*
X013505Y025471D02*
X013561Y025471D01*
X013561Y025630D02*
X013505Y025630D01*
X013505Y025788D02*
X013561Y025788D01*
X013682Y025788D02*
X016238Y025788D01*
X016205Y025802D02*
X016305Y025761D01*
X016412Y025761D01*
X016511Y025802D01*
X016587Y025878D01*
X016628Y025977D01*
X016628Y026084D01*
X016587Y026183D01*
X016511Y026259D01*
X016412Y026301D01*
X016305Y026301D01*
X016205Y026259D01*
X016129Y026183D01*
X016088Y026084D01*
X016088Y025977D01*
X016129Y025878D01*
X016205Y025802D01*
X016101Y025947D02*
X004891Y025947D01*
X004870Y026067D02*
X004941Y026090D01*
X005007Y026124D01*
X005068Y026168D01*
X005121Y026221D01*
X005165Y026281D01*
X005199Y026348D01*
X005222Y026419D01*
X005234Y026493D01*
X005234Y026512D01*
X004777Y026512D01*
X004777Y026549D01*
X005234Y026549D01*
X005234Y026568D01*
X005222Y026642D01*
X005199Y026713D01*
X005165Y026779D01*
X005121Y026840D01*
X005068Y026893D01*
X005007Y026937D01*
X004941Y026971D01*
X004870Y026994D01*
X004796Y027006D01*
X004777Y027006D01*
X004777Y026549D01*
X004740Y026549D01*
X004740Y027006D01*
X004721Y027006D01*
X004647Y026994D01*
X004576Y026971D01*
X004509Y026937D01*
X004449Y026893D01*
X004396Y026840D01*
X004352Y026779D01*
X004318Y026713D01*
X004295Y026642D01*
X004283Y026568D01*
X004283Y026549D01*
X004740Y026549D01*
X004740Y026512D01*
X004777Y026512D01*
X004777Y026055D01*
X004796Y026055D01*
X004870Y026067D01*
X004777Y026105D02*
X004740Y026105D01*
X004740Y026055D02*
X004740Y026512D01*
X004283Y026512D01*
X004283Y026493D01*
X004295Y026419D01*
X004318Y026348D01*
X004352Y026281D01*
X004396Y026221D01*
X004449Y026168D01*
X004509Y026124D01*
X004576Y026090D01*
X004647Y026067D01*
X004721Y026055D01*
X004740Y026055D01*
X004626Y025947D02*
X002694Y025947D01*
X002694Y026017D02*
X002627Y026177D01*
X002505Y026300D01*
X002345Y026366D01*
X002172Y026366D01*
X002012Y026300D01*
X001889Y026177D01*
X001823Y026017D01*
X001823Y025844D01*
X001889Y025684D01*
X002012Y025562D01*
X002172Y025495D01*
X002345Y025495D01*
X002505Y025562D01*
X002627Y025684D01*
X002694Y025844D01*
X002694Y026017D01*
X002657Y026105D02*
X004546Y026105D01*
X004365Y026264D02*
X002541Y026264D01*
X002670Y025788D02*
X004400Y025788D01*
X004328Y025630D02*
X002573Y025630D01*
X002441Y025371D02*
X002370Y025394D01*
X002296Y025406D01*
X002277Y025406D01*
X002277Y024949D01*
X002734Y024949D01*
X002734Y024968D01*
X002722Y025042D01*
X002699Y025113D01*
X002665Y025180D01*
X002621Y025240D01*
X002568Y025293D01*
X002507Y025337D01*
X002441Y025371D01*
X002541Y025313D02*
X004377Y025313D01*
X004323Y025471D02*
X000458Y025471D01*
X000458Y025313D02*
X001975Y025313D01*
X001949Y025293D02*
X001896Y025240D01*
X001852Y025180D01*
X001818Y025113D01*
X001795Y025042D01*
X001783Y024968D01*
X001783Y024949D01*
X002240Y024949D01*
X002240Y024912D01*
X002277Y024912D01*
X002277Y024949D01*
X002240Y024949D01*
X002240Y025406D01*
X002221Y025406D01*
X002147Y025394D01*
X002076Y025371D01*
X002009Y025337D01*
X001949Y025293D01*
X001839Y025154D02*
X000458Y025154D01*
X000458Y024996D02*
X001787Y024996D01*
X001783Y024912D02*
X001783Y024893D01*
X001795Y024819D01*
X001818Y024748D01*
X001852Y024682D01*
X001896Y024621D01*
X001949Y024568D01*
X002009Y024524D01*
X002076Y024490D01*
X002147Y024467D01*
X002221Y024455D01*
X002240Y024455D01*
X002240Y024912D01*
X001783Y024912D01*
X001792Y024837D02*
X000458Y024837D01*
X000458Y024679D02*
X001854Y024679D01*
X002017Y024520D02*
X000458Y024520D01*
X000458Y024362D02*
X002161Y024362D01*
X002172Y024366D02*
X002012Y024300D01*
X001889Y024177D01*
X001823Y024017D01*
X001823Y023844D01*
X001889Y023684D01*
X002012Y023562D01*
X002172Y023495D01*
X002345Y023495D01*
X002505Y023562D01*
X002627Y023684D01*
X002694Y023844D01*
X002694Y024017D01*
X002627Y024177D01*
X002505Y024300D01*
X002345Y024366D01*
X002172Y024366D01*
X002277Y024455D02*
X002277Y024912D01*
X002734Y024912D01*
X002734Y024893D01*
X002722Y024819D01*
X002699Y024748D01*
X002665Y024682D01*
X002621Y024621D01*
X002568Y024568D01*
X002507Y024524D01*
X002441Y024490D01*
X002370Y024467D01*
X002296Y024455D01*
X002277Y024455D01*
X002277Y024520D02*
X002240Y024520D01*
X002240Y024679D02*
X002277Y024679D01*
X002277Y024837D02*
X002240Y024837D01*
X002240Y024996D02*
X002277Y024996D01*
X002277Y025154D02*
X002240Y025154D01*
X002240Y025313D02*
X002277Y025313D01*
X002678Y025154D02*
X004529Y025154D01*
X004454Y024679D02*
X002663Y024679D01*
X002725Y024837D02*
X013341Y024837D01*
X014010Y025471D02*
X014099Y025471D01*
X014200Y025630D02*
X013922Y025630D01*
X012200Y025630D02*
X011866Y025630D01*
X011927Y025569D02*
X011796Y025700D01*
X011626Y025770D01*
X011441Y025770D01*
X011270Y025700D01*
X011139Y025569D01*
X011068Y025398D01*
X011068Y025213D01*
X011139Y025042D01*
X011270Y024911D01*
X011441Y024841D01*
X011626Y024841D01*
X011796Y024911D01*
X011927Y025042D01*
X011998Y025213D01*
X011998Y025398D01*
X011927Y025569D01*
X011968Y025471D02*
X012099Y025471D01*
X012068Y025313D02*
X011998Y025313D01*
X011973Y025154D02*
X012093Y025154D01*
X012186Y024996D02*
X011880Y024996D01*
X011186Y024996D02*
X010880Y024996D01*
X010927Y025042D02*
X010998Y025213D01*
X010998Y025398D01*
X010927Y025569D01*
X010796Y025700D01*
X010626Y025770D01*
X010441Y025770D01*
X010270Y025700D01*
X010139Y025569D01*
X010068Y025398D01*
X010068Y025213D01*
X010139Y025042D01*
X010270Y024911D01*
X010441Y024841D01*
X010626Y024841D01*
X010796Y024911D01*
X010927Y025042D01*
X010973Y025154D02*
X011093Y025154D01*
X011068Y025313D02*
X010998Y025313D01*
X010968Y025471D02*
X011099Y025471D01*
X011200Y025630D02*
X010866Y025630D01*
X010200Y025630D02*
X009866Y025630D01*
X009968Y025471D02*
X010099Y025471D01*
X010068Y025313D02*
X009998Y025313D01*
X009973Y025154D02*
X010093Y025154D01*
X010186Y024996D02*
X009880Y024996D01*
X009186Y024996D02*
X002729Y024996D01*
X002499Y024520D02*
X004342Y024520D01*
X004303Y024362D02*
X002356Y024362D01*
X002602Y024203D02*
X004320Y024203D01*
X004398Y024045D02*
X002682Y024045D01*
X002694Y023886D02*
X004608Y023886D01*
X004600Y023728D02*
X002645Y023728D01*
X002512Y023569D02*
X004406Y023569D01*
X004343Y023411D02*
X000458Y023411D01*
X000458Y023569D02*
X002004Y023569D01*
X001871Y023728D02*
X000458Y023728D01*
X000458Y023886D02*
X001823Y023886D01*
X001834Y024045D02*
X000458Y024045D01*
X000458Y024203D02*
X001915Y024203D01*
X000458Y023252D02*
X004343Y023252D01*
X004405Y023094D02*
X000458Y023094D01*
X000458Y022935D02*
X004595Y022935D01*
X004961Y022935D02*
X019422Y022935D01*
X019430Y022927D02*
X019530Y022886D01*
X019637Y022886D01*
X019736Y022927D01*
X019812Y023003D01*
X019853Y023102D01*
X019853Y023209D01*
X019812Y023308D01*
X019736Y023384D01*
X019637Y023426D01*
X019530Y023426D01*
X019430Y023384D01*
X019354Y023308D01*
X019313Y023209D01*
X019313Y023102D01*
X019354Y023003D01*
X019430Y022927D01*
X019317Y023094D02*
X007892Y023094D01*
X007911Y023102D02*
X007987Y023178D01*
X008028Y023277D01*
X008028Y023384D01*
X007987Y023483D01*
X007911Y023559D01*
X007812Y023601D01*
X007705Y023601D01*
X007605Y023559D01*
X007529Y023483D01*
X007488Y023384D01*
X007488Y023277D01*
X007529Y023178D01*
X007605Y023102D01*
X007705Y023061D01*
X007812Y023061D01*
X007911Y023102D01*
X008018Y023252D02*
X019331Y023252D01*
X019493Y023411D02*
X008017Y023411D01*
X007888Y023569D02*
X023492Y023569D01*
X023492Y023411D02*
X019673Y023411D01*
X019836Y023252D02*
X023492Y023252D01*
X023492Y023094D02*
X019850Y023094D01*
X019745Y022935D02*
X023492Y022935D01*
X023492Y022777D02*
X011594Y022777D01*
X011612Y022758D02*
X011536Y022834D01*
X011437Y022876D01*
X011330Y022876D01*
X011230Y022834D01*
X011154Y022758D01*
X011113Y022659D01*
X011113Y022552D01*
X011154Y022453D01*
X011230Y022377D01*
X011330Y022336D01*
X011437Y022336D01*
X011536Y022377D01*
X011612Y022453D01*
X011653Y022552D01*
X011653Y022659D01*
X011612Y022758D01*
X011653Y022618D02*
X023492Y022618D01*
X023492Y022460D02*
X022611Y022460D01*
X022586Y022484D02*
X022487Y022526D01*
X022380Y022526D01*
X022280Y022484D01*
X022204Y022408D01*
X022163Y022309D01*
X022163Y022202D01*
X022204Y022103D01*
X022280Y022027D01*
X022380Y021986D01*
X022487Y021986D01*
X022586Y022027D01*
X022662Y022103D01*
X022703Y022202D01*
X022703Y022309D01*
X022662Y022408D01*
X022586Y022484D01*
X022703Y022301D02*
X023492Y022301D01*
X023492Y022143D02*
X022679Y022143D01*
X022188Y022143D02*
X020053Y022143D01*
X020087Y022108D02*
X020011Y022184D01*
X019912Y022226D01*
X019805Y022226D01*
X019705Y022184D01*
X019629Y022108D01*
X019588Y022009D01*
X019588Y021902D01*
X019629Y021803D01*
X019705Y021727D01*
X019805Y021686D01*
X019912Y021686D01*
X020011Y021727D01*
X020087Y021803D01*
X020128Y021902D01*
X020128Y022009D01*
X020087Y022108D01*
X020128Y021984D02*
X023492Y021984D01*
X023492Y021826D02*
X021645Y021826D01*
X021662Y021808D02*
X021586Y021884D01*
X021487Y021926D01*
X021380Y021926D01*
X021280Y021884D01*
X021204Y021808D01*
X021163Y021709D01*
X021163Y021602D01*
X021204Y021503D01*
X021280Y021427D01*
X021380Y021386D01*
X021487Y021386D01*
X021586Y021427D01*
X021662Y021503D01*
X021703Y021602D01*
X021703Y021709D01*
X021662Y021808D01*
X021703Y021667D02*
X023492Y021667D01*
X023492Y021509D02*
X021665Y021509D01*
X021202Y021509D02*
X001756Y021509D01*
X001727Y021577D02*
X001794Y021417D01*
X001794Y021244D01*
X001727Y021084D01*
X001605Y020962D01*
X001445Y020895D01*
X001272Y020895D01*
X001112Y020962D01*
X000989Y021084D01*
X000923Y021244D01*
X000923Y021417D01*
X000989Y021577D01*
X001112Y021700D01*
X001272Y021766D01*
X001445Y021766D01*
X001605Y021700D01*
X001727Y021577D01*
X001638Y021667D02*
X021163Y021667D01*
X021221Y021826D02*
X020097Y021826D01*
X019620Y021826D02*
X017772Y021826D01*
X017762Y021803D02*
X017803Y021902D01*
X017803Y022009D01*
X017762Y022108D01*
X017686Y022184D01*
X017587Y022226D01*
X017480Y022226D01*
X017380Y022184D01*
X017304Y022108D01*
X017283Y022057D01*
X017262Y022108D01*
X017186Y022184D01*
X017087Y022226D01*
X016980Y022226D01*
X016880Y022184D01*
X016804Y022108D01*
X016763Y022009D01*
X016763Y021902D01*
X016804Y021803D01*
X016880Y021727D01*
X016980Y021686D01*
X017087Y021686D01*
X017186Y021727D01*
X017262Y021803D01*
X017283Y021854D01*
X017304Y021803D01*
X017380Y021727D01*
X017480Y021686D01*
X017587Y021686D01*
X017686Y021727D01*
X017762Y021803D01*
X017803Y021984D02*
X019588Y021984D01*
X019663Y022143D02*
X017728Y022143D01*
X017338Y022143D02*
X017228Y022143D01*
X017272Y021826D02*
X017295Y021826D01*
X016795Y021826D02*
X000458Y021826D01*
X000458Y021984D02*
X007991Y021984D01*
X008004Y021953D02*
X008080Y021877D01*
X008180Y021836D01*
X008287Y021836D01*
X008386Y021877D01*
X008462Y021953D01*
X008503Y022052D01*
X008503Y022159D01*
X008462Y022258D01*
X008386Y022334D01*
X008287Y022376D01*
X008180Y022376D01*
X008080Y022334D01*
X008004Y022258D01*
X007963Y022159D01*
X007963Y022052D01*
X008004Y021953D01*
X007963Y022143D02*
X000458Y022143D01*
X000458Y022301D02*
X008047Y022301D01*
X008420Y022301D02*
X022163Y022301D01*
X022255Y022460D02*
X011615Y022460D01*
X011151Y022460D02*
X000458Y022460D01*
X000458Y022618D02*
X011113Y022618D01*
X011172Y022777D02*
X000458Y022777D01*
X000458Y021667D02*
X001079Y021667D01*
X000961Y021509D02*
X000458Y021509D01*
X000458Y021350D02*
X000923Y021350D01*
X000945Y021192D02*
X000458Y021192D01*
X000458Y021033D02*
X001040Y021033D01*
X001176Y020771D02*
X001109Y020737D01*
X001049Y020693D01*
X000996Y020640D01*
X000952Y020580D01*
X000918Y020513D01*
X000895Y020442D01*
X000883Y020368D01*
X000883Y020349D01*
X001340Y020349D01*
X001340Y020312D01*
X001377Y020312D01*
X001377Y020349D01*
X001834Y020349D01*
X001834Y020368D01*
X001822Y020442D01*
X001799Y020513D01*
X001765Y020580D01*
X001721Y020640D01*
X001668Y020693D01*
X001607Y020737D01*
X001541Y020771D01*
X001470Y020794D01*
X001396Y020806D01*
X001377Y020806D01*
X001377Y020349D01*
X001340Y020349D01*
X001340Y020806D01*
X001321Y020806D01*
X001247Y020794D01*
X001176Y020771D01*
X001080Y020716D02*
X000458Y020716D01*
X000458Y020558D02*
X000940Y020558D01*
X000888Y020399D02*
X000458Y020399D01*
X000458Y020241D02*
X000891Y020241D01*
X000895Y020219D02*
X000918Y020148D01*
X000952Y020082D01*
X000458Y020082D01*
X000458Y019924D02*
X001110Y019924D01*
X001109Y019924D02*
X001176Y019890D01*
X001247Y019867D01*
X001321Y019855D01*
X001340Y019855D01*
X001340Y020312D01*
X000883Y020312D01*
X000883Y020293D01*
X000895Y020219D01*
X000952Y020082D02*
X000996Y020021D01*
X001049Y019968D01*
X001109Y019924D01*
X001340Y019924D02*
X001377Y019924D01*
X001377Y019855D02*
X001396Y019855D01*
X001470Y019867D01*
X001541Y019890D01*
X001607Y019924D01*
X001668Y019968D01*
X001721Y020021D01*
X001765Y020082D01*
X006763Y020082D01*
X006763Y020084D02*
X006763Y019977D01*
X006804Y019878D01*
X006880Y019802D01*
X006980Y019761D01*
X007087Y019761D01*
X007186Y019802D01*
X007262Y019878D01*
X007303Y019977D01*
X007303Y020084D01*
X007262Y020183D01*
X007186Y020259D01*
X007087Y020301D01*
X006980Y020301D01*
X006880Y020259D01*
X006804Y020183D01*
X006763Y020084D01*
X006686Y020009D02*
X006587Y020051D01*
X006480Y020051D01*
X006380Y020009D01*
X006304Y019933D01*
X006263Y019834D01*
X006263Y019727D01*
X006304Y019628D01*
X006380Y019552D01*
X006480Y019511D01*
X006587Y019511D01*
X006686Y019552D01*
X006762Y019628D01*
X006803Y019727D01*
X006803Y019834D01*
X006762Y019933D01*
X006686Y020009D01*
X006766Y019924D02*
X006785Y019924D01*
X006803Y019765D02*
X006969Y019765D01*
X007098Y019765D02*
X011511Y019765D01*
X011530Y019784D02*
X011454Y019708D01*
X011413Y019609D01*
X011413Y019502D01*
X011454Y019403D01*
X011530Y019327D01*
X011630Y019286D01*
X011737Y019286D01*
X011836Y019327D01*
X011912Y019403D01*
X011953Y019502D01*
X011953Y019536D01*
X011962Y019536D01*
X012061Y019577D01*
X012137Y019653D01*
X012178Y019752D01*
X012178Y019859D01*
X012137Y019958D01*
X012061Y020034D01*
X011962Y020076D01*
X011855Y020076D01*
X011755Y020034D01*
X011679Y019958D01*
X011638Y019859D01*
X011638Y019826D01*
X011630Y019826D01*
X011530Y019784D01*
X011665Y019924D02*
X007281Y019924D01*
X007303Y020082D02*
X023492Y020082D01*
X023492Y019924D02*
X020327Y019924D01*
X020312Y019958D02*
X020236Y020034D01*
X020137Y020076D01*
X020030Y020076D01*
X019930Y020034D01*
X019854Y019958D01*
X019813Y019859D01*
X019813Y019752D01*
X019854Y019653D01*
X019930Y019577D01*
X020030Y019536D01*
X020137Y019536D01*
X020236Y019577D01*
X020312Y019653D01*
X020353Y019752D01*
X020353Y019859D01*
X020312Y019958D01*
X020353Y019765D02*
X023492Y019765D01*
X023492Y019607D02*
X020266Y019607D01*
X019900Y019607D02*
X018278Y019607D01*
X018278Y019609D02*
X018237Y019708D01*
X018161Y019784D01*
X018062Y019826D01*
X017955Y019826D01*
X017855Y019784D01*
X017779Y019708D01*
X017762Y019665D01*
X017737Y019676D01*
X017630Y019676D01*
X017530Y019634D01*
X017454Y019558D01*
X017413Y019459D01*
X017413Y019352D01*
X017454Y019253D01*
X017530Y019177D01*
X017630Y019136D01*
X017737Y019136D01*
X017836Y019177D01*
X017912Y019253D01*
X017930Y019296D01*
X017955Y019286D01*
X018062Y019286D01*
X018161Y019327D01*
X018237Y019403D01*
X018278Y019502D01*
X018278Y019609D01*
X018256Y019448D02*
X023492Y019448D01*
X023492Y019290D02*
X018072Y019290D01*
X017945Y019290D02*
X017927Y019290D01*
X017836Y019765D02*
X012178Y019765D01*
X012152Y019924D02*
X019840Y019924D01*
X019813Y019765D02*
X018181Y019765D01*
X017502Y019607D02*
X016914Y019607D01*
X016886Y019634D02*
X016787Y019676D01*
X016680Y019676D01*
X016580Y019634D01*
X016504Y019558D01*
X016463Y019459D01*
X016463Y019352D01*
X016504Y019253D01*
X016580Y019177D01*
X016680Y019136D01*
X016787Y019136D01*
X016886Y019177D01*
X016962Y019253D01*
X017003Y019352D01*
X017003Y019459D01*
X016962Y019558D01*
X016886Y019634D01*
X017003Y019448D02*
X017413Y019448D01*
X017439Y019290D02*
X016977Y019290D01*
X016489Y019290D02*
X015466Y019290D01*
X015478Y019259D02*
X015437Y019358D01*
X015361Y019434D01*
X015262Y019476D01*
X015155Y019476D01*
X015059Y019436D01*
X015036Y019459D01*
X014937Y019501D01*
X014836Y019501D01*
X014812Y019558D01*
X014736Y019634D01*
X014637Y019676D01*
X014530Y019676D01*
X014430Y019634D01*
X014354Y019558D01*
X014313Y019459D01*
X014313Y019352D01*
X014354Y019253D01*
X014430Y019177D01*
X014530Y019136D01*
X014630Y019136D01*
X014654Y019078D01*
X014730Y019002D01*
X014830Y018961D01*
X014937Y018961D01*
X015032Y019000D01*
X015055Y018977D01*
X015155Y018936D01*
X015262Y018936D01*
X015361Y018977D01*
X015437Y019053D01*
X015478Y019152D01*
X015478Y019259D01*
X015470Y019131D02*
X023492Y019131D01*
X023492Y018973D02*
X021317Y018973D01*
X021312Y018983D02*
X021236Y019059D01*
X021137Y019101D01*
X021030Y019101D01*
X020930Y019059D01*
X020854Y018983D01*
X020813Y018884D01*
X020813Y018777D01*
X020854Y018678D01*
X020930Y018602D01*
X021030Y018561D01*
X021063Y018561D01*
X021063Y018477D01*
X021104Y018378D01*
X021180Y018302D01*
X021280Y018261D01*
X021387Y018261D01*
X021486Y018302D01*
X021562Y018378D01*
X021603Y018477D01*
X021603Y018584D01*
X021562Y018683D01*
X021486Y018759D01*
X021387Y018801D01*
X021353Y018801D01*
X021353Y018884D01*
X021312Y018983D01*
X021353Y018814D02*
X023492Y018814D01*
X023492Y018656D02*
X021574Y018656D01*
X021603Y018497D02*
X023492Y018497D01*
X023492Y018339D02*
X021523Y018339D01*
X021143Y018339D02*
X014669Y018339D01*
X014662Y018336D02*
X014761Y018377D01*
X014837Y018453D01*
X014878Y018552D01*
X014878Y018659D01*
X014837Y018758D01*
X014761Y018834D01*
X014662Y018876D01*
X014555Y018876D01*
X014455Y018834D01*
X014379Y018758D01*
X014338Y018659D01*
X014338Y018552D01*
X014379Y018453D01*
X014455Y018377D01*
X014555Y018336D01*
X014662Y018336D01*
X014547Y018339D02*
X013419Y018339D01*
X013419Y018380D02*
X013352Y018540D01*
X013230Y018662D01*
X013070Y018728D01*
X012897Y018728D01*
X012737Y018662D01*
X012614Y018540D01*
X012548Y018380D01*
X012548Y018207D01*
X012614Y018047D01*
X012737Y017924D01*
X012897Y017858D01*
X013070Y017858D01*
X013230Y017924D01*
X013352Y018047D01*
X013419Y018207D01*
X013419Y018380D01*
X013370Y018497D02*
X014361Y018497D01*
X014338Y018656D02*
X013236Y018656D01*
X012730Y018656D02*
X012236Y018656D01*
X012230Y018662D02*
X012070Y018728D01*
X011897Y018728D01*
X011737Y018662D01*
X011614Y018540D01*
X011548Y018380D01*
X011548Y018207D01*
X011614Y018047D01*
X011737Y017924D01*
X011897Y017858D01*
X012070Y017858D01*
X012230Y017924D01*
X012352Y018047D01*
X012419Y018207D01*
X012419Y018380D01*
X012352Y018540D01*
X012230Y018662D01*
X012370Y018497D02*
X012597Y018497D01*
X012548Y018339D02*
X012419Y018339D01*
X012408Y018180D02*
X012559Y018180D01*
X012639Y018022D02*
X012327Y018022D01*
X012082Y017863D02*
X012884Y017863D01*
X013082Y017863D02*
X015263Y017863D01*
X015263Y017852D02*
X015304Y017753D01*
X015380Y017677D01*
X015480Y017636D01*
X015587Y017636D01*
X015686Y017677D01*
X015762Y017753D01*
X015803Y017852D01*
X015803Y017959D01*
X015762Y018058D01*
X015686Y018134D01*
X015587Y018176D01*
X015480Y018176D01*
X015380Y018134D01*
X015304Y018058D01*
X015263Y017959D01*
X015263Y017852D01*
X015289Y018022D02*
X013327Y018022D01*
X013408Y018180D02*
X023492Y018180D01*
X023492Y018022D02*
X020327Y018022D01*
X020312Y018058D02*
X020236Y018134D01*
X020137Y018176D01*
X020030Y018176D01*
X019930Y018134D01*
X019854Y018058D01*
X019813Y017959D01*
X019813Y017852D01*
X019854Y017753D01*
X019864Y017743D01*
X019854Y017733D01*
X019813Y017634D01*
X019813Y017527D01*
X019854Y017428D01*
X019930Y017352D01*
X020030Y017311D01*
X020137Y017311D01*
X020236Y017352D01*
X020312Y017428D01*
X020353Y017527D01*
X020353Y017634D01*
X020312Y017733D01*
X020303Y017743D01*
X020312Y017753D01*
X020353Y017852D01*
X020353Y017959D01*
X020312Y018058D01*
X020353Y017863D02*
X023492Y017863D01*
X023492Y017705D02*
X020324Y017705D01*
X020353Y017546D02*
X023492Y017546D01*
X023492Y017388D02*
X020272Y017388D01*
X019894Y017388D02*
X017328Y017388D01*
X017328Y017434D02*
X017328Y017327D01*
X017287Y017228D01*
X017211Y017152D01*
X017112Y017111D01*
X017005Y017111D01*
X016905Y017152D01*
X016829Y017228D01*
X016788Y017327D01*
X016788Y017434D01*
X016829Y017533D01*
X016905Y017609D01*
X017005Y017651D01*
X017112Y017651D01*
X017211Y017609D01*
X017287Y017533D01*
X017328Y017434D01*
X017275Y017546D02*
X019813Y017546D01*
X019842Y017705D02*
X015714Y017705D01*
X015803Y017863D02*
X019813Y017863D01*
X019839Y018022D02*
X015777Y018022D01*
X015352Y017705D02*
X000458Y017705D01*
X000458Y017863D02*
X007884Y017863D01*
X007897Y017858D02*
X008070Y017858D01*
X008230Y017924D01*
X008352Y018047D01*
X008419Y018207D01*
X008419Y018380D01*
X008352Y018540D01*
X008230Y018662D01*
X008070Y018728D01*
X007897Y018728D01*
X007737Y018662D01*
X007614Y018540D01*
X007548Y018380D01*
X007548Y018207D01*
X007614Y018047D01*
X007737Y017924D01*
X007897Y017858D01*
X008082Y017863D02*
X008884Y017863D01*
X008897Y017858D02*
X009070Y017858D01*
X009230Y017924D01*
X009352Y018047D01*
X009419Y018207D01*
X009419Y018380D01*
X009352Y018540D01*
X009230Y018662D01*
X009070Y018728D01*
X008897Y018728D01*
X008737Y018662D01*
X008614Y018540D01*
X008548Y018380D01*
X008548Y018207D01*
X008614Y018047D01*
X008737Y017924D01*
X008897Y017858D01*
X009082Y017863D02*
X009780Y017863D01*
X009801Y017853D02*
X009872Y017830D01*
X009946Y017818D01*
X009965Y017818D01*
X009965Y018275D01*
X009508Y018275D01*
X009508Y018256D01*
X009520Y018182D01*
X009543Y018111D01*
X009577Y018044D01*
X009621Y017983D01*
X009674Y017931D01*
X009734Y017887D01*
X009801Y017853D01*
X009965Y017863D02*
X010002Y017863D01*
X010002Y017818D02*
X010021Y017818D01*
X010095Y017830D01*
X010166Y017853D01*
X010232Y017887D01*
X010293Y017931D01*
X010346Y017983D01*
X010390Y018044D01*
X010424Y018111D01*
X010447Y018182D01*
X010459Y018256D01*
X010459Y018275D01*
X010002Y018275D01*
X010002Y018312D01*
X009965Y018312D01*
X009965Y018768D01*
X009946Y018768D01*
X009872Y018757D01*
X009801Y018734D01*
X009734Y018700D01*
X009674Y018656D01*
X009621Y018603D01*
X009577Y018542D01*
X009543Y018476D01*
X009520Y018404D01*
X009508Y018331D01*
X009508Y018312D01*
X009965Y018312D01*
X009965Y018275D01*
X010002Y018275D01*
X010002Y017818D01*
X010186Y017863D02*
X010884Y017863D01*
X010897Y017858D02*
X011070Y017858D01*
X011230Y017924D01*
X011352Y018047D01*
X011419Y018207D01*
X011419Y018380D01*
X011352Y018540D01*
X011230Y018662D01*
X011070Y018728D01*
X010897Y018728D01*
X010737Y018662D01*
X010614Y018540D01*
X010548Y018380D01*
X010548Y018207D01*
X010614Y018047D01*
X010737Y017924D01*
X010897Y017858D01*
X011082Y017863D02*
X011884Y017863D01*
X011639Y018022D02*
X011327Y018022D01*
X011408Y018180D02*
X011559Y018180D01*
X011548Y018339D02*
X011419Y018339D01*
X011370Y018497D02*
X011597Y018497D01*
X011730Y018656D02*
X011236Y018656D01*
X010730Y018656D02*
X010293Y018656D01*
X010232Y018700D01*
X010166Y018734D01*
X010095Y018757D01*
X010021Y018768D01*
X010002Y018768D01*
X010002Y018312D01*
X010459Y018312D01*
X010459Y018331D01*
X010447Y018404D01*
X010424Y018476D01*
X010390Y018542D01*
X010346Y018603D01*
X010293Y018656D01*
X010413Y018497D02*
X010597Y018497D01*
X010548Y018339D02*
X010457Y018339D01*
X010446Y018180D02*
X010559Y018180D01*
X010639Y018022D02*
X010373Y018022D01*
X010002Y018022D02*
X009965Y018022D01*
X009965Y018180D02*
X010002Y018180D01*
X010002Y018339D02*
X009965Y018339D01*
X009965Y018497D02*
X010002Y018497D01*
X010002Y018656D02*
X009965Y018656D01*
X009674Y018656D02*
X009236Y018656D01*
X009370Y018497D02*
X009554Y018497D01*
X009509Y018339D02*
X009419Y018339D01*
X009408Y018180D02*
X009520Y018180D01*
X009593Y018022D02*
X009327Y018022D01*
X008639Y018022D02*
X008327Y018022D01*
X008408Y018180D02*
X008559Y018180D01*
X008548Y018339D02*
X008419Y018339D01*
X008370Y018497D02*
X008597Y018497D01*
X008730Y018656D02*
X008236Y018656D01*
X007730Y018656D02*
X000458Y018656D01*
X000458Y018814D02*
X014435Y018814D01*
X014782Y018814D02*
X020813Y018814D01*
X020850Y018973D02*
X015351Y018973D01*
X015065Y018973D02*
X014966Y018973D01*
X014801Y018973D02*
X000458Y018973D01*
X000458Y019131D02*
X005803Y019131D01*
X005804Y019128D02*
X005880Y019052D01*
X005980Y019011D01*
X006087Y019011D01*
X006186Y019052D01*
X006262Y019128D01*
X006303Y019227D01*
X006303Y019334D01*
X006262Y019433D01*
X006186Y019509D01*
X006087Y019551D01*
X005980Y019551D01*
X005880Y019509D01*
X005804Y019433D01*
X005763Y019334D01*
X005763Y019227D01*
X005804Y019128D01*
X005763Y019290D02*
X000458Y019290D01*
X000458Y019448D02*
X005819Y019448D01*
X006248Y019448D02*
X011436Y019448D01*
X011413Y019607D02*
X006741Y019607D01*
X006325Y019607D02*
X000458Y019607D01*
X000458Y019765D02*
X006263Y019765D01*
X006300Y019924D02*
X001606Y019924D01*
X001765Y020082D02*
X001799Y020148D01*
X001822Y020219D01*
X001834Y020293D01*
X001834Y020312D01*
X001377Y020312D01*
X001377Y019855D01*
X001377Y020082D02*
X001340Y020082D01*
X001340Y020241D02*
X001377Y020241D01*
X001377Y020399D02*
X001340Y020399D01*
X001340Y020558D02*
X001377Y020558D01*
X001377Y020716D02*
X001340Y020716D01*
X001636Y020716D02*
X011512Y020716D01*
X011529Y020758D02*
X011488Y020659D01*
X011488Y020552D01*
X011529Y020453D01*
X011605Y020377D01*
X011705Y020336D01*
X011738Y020336D01*
X011738Y020302D01*
X011779Y020203D01*
X011855Y020127D01*
X011955Y020086D01*
X012062Y020086D01*
X012161Y020127D01*
X012237Y020203D01*
X012278Y020302D01*
X012278Y020409D01*
X012237Y020508D01*
X012161Y020584D01*
X012062Y020626D01*
X012028Y020626D01*
X012028Y020659D01*
X011987Y020758D01*
X011911Y020834D01*
X011812Y020876D01*
X011705Y020876D01*
X011605Y020834D01*
X011529Y020758D01*
X011488Y020558D02*
X010538Y020558D01*
X010511Y020584D02*
X010412Y020626D01*
X010305Y020626D01*
X010205Y020584D01*
X010129Y020508D01*
X010088Y020409D01*
X010088Y020302D01*
X010129Y020203D01*
X010205Y020127D01*
X010305Y020086D01*
X010412Y020086D01*
X010511Y020127D01*
X010587Y020203D01*
X010628Y020302D01*
X010628Y020409D01*
X010587Y020508D01*
X010511Y020584D01*
X010628Y020399D02*
X011583Y020399D01*
X011764Y020241D02*
X010603Y020241D01*
X010114Y020241D02*
X008418Y020241D01*
X008412Y020228D02*
X008453Y020327D01*
X008453Y020434D01*
X008412Y020533D01*
X008336Y020609D01*
X008237Y020651D01*
X008130Y020651D01*
X008030Y020609D01*
X007954Y020533D01*
X007913Y020434D01*
X007913Y020327D01*
X007954Y020228D01*
X008030Y020152D01*
X008130Y020111D01*
X008237Y020111D01*
X008336Y020152D01*
X008412Y020228D01*
X008453Y020399D02*
X010088Y020399D01*
X010178Y020558D02*
X008388Y020558D01*
X007978Y020558D02*
X001776Y020558D01*
X001829Y020399D02*
X007913Y020399D01*
X007949Y020241D02*
X007205Y020241D01*
X006861Y020241D02*
X001825Y020241D01*
X001676Y021033D02*
X017079Y021033D01*
X017038Y020934D01*
X017038Y020827D01*
X017079Y020728D01*
X017155Y020652D01*
X017231Y020620D01*
X017205Y020609D01*
X017129Y020533D01*
X017088Y020434D01*
X017088Y020327D01*
X017129Y020228D01*
X017205Y020152D01*
X017305Y020111D01*
X017412Y020111D01*
X017511Y020152D01*
X017587Y020228D01*
X017628Y020327D01*
X017628Y020434D01*
X017587Y020533D01*
X017511Y020609D01*
X017435Y020641D01*
X017461Y020652D01*
X017537Y020728D01*
X017578Y020827D01*
X017578Y020934D01*
X017537Y021033D01*
X018598Y021033D01*
X018588Y021009D02*
X018588Y020902D01*
X018629Y020803D01*
X018705Y020727D01*
X018805Y020686D01*
X018912Y020686D01*
X019007Y020725D01*
X019030Y020702D01*
X019130Y020661D01*
X019237Y020661D01*
X019336Y020702D01*
X019412Y020778D01*
X019453Y020877D01*
X019453Y020984D01*
X019412Y021083D01*
X019336Y021159D01*
X019237Y021201D01*
X019130Y021201D01*
X019034Y021161D01*
X019011Y021184D01*
X018912Y021226D01*
X018805Y021226D01*
X018705Y021184D01*
X018629Y021108D01*
X018588Y021009D01*
X018600Y020875D02*
X017578Y020875D01*
X017537Y021033D02*
X017461Y021109D01*
X017362Y021151D01*
X017255Y021151D01*
X017155Y021109D01*
X017079Y021033D01*
X017038Y020875D02*
X011814Y020875D01*
X011702Y020875D02*
X000458Y020875D01*
X001772Y021192D02*
X018723Y021192D01*
X018994Y021192D02*
X019108Y021192D01*
X019259Y021192D02*
X020347Y021192D01*
X020354Y021208D02*
X020313Y021109D01*
X020313Y021002D01*
X020354Y020903D01*
X020430Y020827D01*
X020530Y020786D01*
X020637Y020786D01*
X020736Y020827D01*
X020812Y020903D01*
X020853Y021002D01*
X020853Y021109D01*
X020812Y021208D01*
X020736Y021284D01*
X020637Y021326D01*
X020530Y021326D01*
X020430Y021284D01*
X020354Y021208D01*
X020313Y021033D02*
X019433Y021033D01*
X019452Y020875D02*
X020382Y020875D01*
X020784Y020875D02*
X023492Y020875D01*
X023492Y021033D02*
X020853Y021033D01*
X020819Y021192D02*
X023492Y021192D01*
X023492Y021350D02*
X001794Y021350D01*
X005151Y023094D02*
X007625Y023094D01*
X007499Y023252D02*
X005214Y023252D01*
X005214Y023411D02*
X007499Y023411D01*
X007629Y023569D02*
X005151Y023569D01*
X008503Y022143D02*
X016838Y022143D01*
X016763Y021984D02*
X008475Y021984D01*
X006303Y019290D02*
X011620Y019290D01*
X011747Y019290D02*
X013663Y019290D01*
X013663Y019252D02*
X013704Y019153D01*
X013780Y019077D01*
X013880Y019036D01*
X013987Y019036D01*
X014086Y019077D01*
X014162Y019153D01*
X014203Y019252D01*
X014203Y019359D01*
X014162Y019458D01*
X014086Y019534D01*
X013987Y019576D01*
X013880Y019576D01*
X013780Y019534D01*
X013704Y019458D01*
X013663Y019359D01*
X013663Y019252D01*
X013726Y019131D02*
X006264Y019131D01*
X007597Y018497D02*
X000458Y018497D01*
X000458Y018339D02*
X007548Y018339D01*
X007559Y018180D02*
X000458Y018180D01*
X000458Y018022D02*
X007639Y018022D01*
X006672Y016987D02*
X006501Y017058D01*
X006316Y017058D01*
X006145Y016987D01*
X006014Y016856D01*
X005943Y016686D01*
X005943Y016501D01*
X006014Y016330D01*
X006145Y016199D01*
X006316Y016128D01*
X006501Y016128D01*
X006672Y016199D01*
X006802Y016330D01*
X006873Y016501D01*
X006873Y016686D01*
X006802Y016856D01*
X006672Y016987D01*
X006747Y016912D02*
X010837Y016912D01*
X010830Y016909D02*
X010754Y016833D01*
X010713Y016734D01*
X010713Y016627D01*
X010754Y016528D01*
X010830Y016452D01*
X010930Y016411D01*
X011037Y016411D01*
X011136Y016452D01*
X011212Y016528D01*
X011253Y016627D01*
X011253Y016734D01*
X011212Y016833D01*
X011136Y016909D01*
X011037Y016951D01*
X010930Y016951D01*
X010830Y016909D01*
X010721Y016754D02*
X006845Y016754D01*
X006873Y016595D02*
X010726Y016595D01*
X010867Y016437D02*
X006847Y016437D01*
X006751Y016278D02*
X017938Y016278D01*
X017938Y016284D02*
X017938Y016177D01*
X017979Y016078D01*
X018055Y016002D01*
X018155Y015961D01*
X018262Y015961D01*
X018361Y016002D01*
X018437Y016078D01*
X018478Y016177D01*
X018478Y016284D01*
X018437Y016383D01*
X018361Y016459D01*
X018262Y016501D01*
X018155Y016501D01*
X018055Y016459D01*
X017979Y016383D01*
X017938Y016284D01*
X017962Y016120D02*
X005584Y016120D01*
X005602Y016125D02*
X005673Y016161D01*
X005737Y016208D01*
X005793Y016264D01*
X005840Y016329D01*
X005876Y016399D01*
X005901Y016475D01*
X005913Y016553D01*
X005913Y016565D01*
X005437Y016565D01*
X005437Y016621D01*
X005913Y016621D01*
X005913Y016633D01*
X005901Y016711D01*
X005876Y016787D01*
X005840Y016858D01*
X005793Y016922D01*
X005737Y016978D01*
X005673Y017025D01*
X005602Y017061D01*
X005526Y017085D01*
X005448Y017098D01*
X005437Y017098D01*
X005437Y016621D01*
X005380Y016621D01*
X005380Y016565D01*
X004903Y016565D01*
X004903Y016553D01*
X004916Y016475D01*
X004940Y016399D01*
X004977Y016329D01*
X005023Y016264D01*
X005079Y016208D01*
X005144Y016161D01*
X005214Y016125D01*
X005290Y016101D01*
X005369Y016088D01*
X005380Y016088D01*
X005380Y016565D01*
X005437Y016565D01*
X005437Y016088D01*
X005448Y016088D01*
X005526Y016101D01*
X005602Y016125D01*
X005437Y016120D02*
X005380Y016120D01*
X005232Y016120D02*
X000458Y016120D01*
X000458Y016278D02*
X001066Y016278D01*
X001014Y016330D02*
X001145Y016199D01*
X001316Y016128D01*
X001501Y016128D01*
X001672Y016199D01*
X001802Y016330D01*
X001873Y016501D01*
X001873Y016686D01*
X001802Y016856D01*
X001672Y016987D01*
X001501Y017058D01*
X001316Y017058D01*
X001145Y016987D01*
X001014Y016856D01*
X000943Y016686D01*
X000943Y016501D01*
X001014Y016330D01*
X000970Y016437D02*
X000458Y016437D01*
X000458Y016595D02*
X000943Y016595D01*
X000972Y016754D02*
X000458Y016754D01*
X000458Y016912D02*
X001070Y016912D01*
X000458Y017071D02*
X005244Y017071D01*
X005214Y017061D02*
X005144Y017025D01*
X005079Y016978D01*
X005023Y016922D01*
X004977Y016858D01*
X004940Y016787D01*
X004916Y016711D01*
X004903Y016633D01*
X004903Y016621D01*
X005380Y016621D01*
X005380Y017098D01*
X005369Y017098D01*
X005290Y017085D01*
X005214Y017061D01*
X005380Y017071D02*
X005437Y017071D01*
X005572Y017071D02*
X016355Y017071D01*
X016380Y017061D02*
X016487Y017061D01*
X016586Y017102D01*
X016662Y017178D01*
X016703Y017277D01*
X016703Y017384D01*
X016662Y017483D01*
X016586Y017559D01*
X016487Y017601D01*
X016380Y017601D01*
X016280Y017559D01*
X016204Y017483D01*
X016163Y017384D01*
X016163Y017277D01*
X016204Y017178D01*
X016280Y017102D01*
X016380Y017061D01*
X016511Y017071D02*
X023492Y017071D01*
X023492Y017229D02*
X017288Y017229D01*
X016829Y017229D02*
X016683Y017229D01*
X016702Y017388D02*
X016788Y017388D01*
X016842Y017546D02*
X016600Y017546D01*
X016267Y017546D02*
X000458Y017546D01*
X000458Y017388D02*
X016165Y017388D01*
X016183Y017229D02*
X000458Y017229D01*
X001747Y016912D02*
X002070Y016912D01*
X002014Y016856D02*
X001943Y016686D01*
X001943Y016501D01*
X002014Y016330D01*
X002145Y016199D01*
X002316Y016128D01*
X002501Y016128D01*
X002672Y016199D01*
X002802Y016330D01*
X002873Y016501D01*
X002873Y016686D01*
X002802Y016856D01*
X002672Y016987D01*
X002501Y017058D01*
X002316Y017058D01*
X002145Y016987D01*
X002014Y016856D01*
X001972Y016754D02*
X001845Y016754D01*
X001873Y016595D02*
X001943Y016595D01*
X001970Y016437D02*
X001847Y016437D01*
X001751Y016278D02*
X002066Y016278D01*
X002751Y016278D02*
X003066Y016278D01*
X003014Y016330D02*
X003145Y016199D01*
X003316Y016128D01*
X003501Y016128D01*
X003672Y016199D01*
X003802Y016330D01*
X003873Y016501D01*
X003873Y016686D01*
X003802Y016856D01*
X003672Y016987D01*
X003501Y017058D01*
X003316Y017058D01*
X003145Y016987D01*
X003014Y016856D01*
X002943Y016686D01*
X002943Y016501D01*
X003014Y016330D01*
X002970Y016437D02*
X002847Y016437D01*
X002873Y016595D02*
X002943Y016595D01*
X002972Y016754D02*
X002845Y016754D01*
X002747Y016912D02*
X003070Y016912D01*
X003747Y016912D02*
X004070Y016912D01*
X004014Y016856D02*
X003943Y016686D01*
X003943Y016501D01*
X004014Y016330D01*
X004145Y016199D01*
X004316Y016128D01*
X004501Y016128D01*
X004672Y016199D01*
X004802Y016330D01*
X004873Y016501D01*
X004873Y016686D01*
X004802Y016856D01*
X004672Y016987D01*
X004501Y017058D01*
X004316Y017058D01*
X004145Y016987D01*
X004014Y016856D01*
X003972Y016754D02*
X003845Y016754D01*
X003873Y016595D02*
X003943Y016595D01*
X003970Y016437D02*
X003847Y016437D01*
X003751Y016278D02*
X004066Y016278D01*
X004751Y016278D02*
X005013Y016278D01*
X004928Y016437D02*
X004847Y016437D01*
X004873Y016595D02*
X005380Y016595D01*
X005437Y016595D02*
X005943Y016595D01*
X005970Y016437D02*
X005888Y016437D01*
X005803Y016278D02*
X006066Y016278D01*
X005972Y016754D02*
X005887Y016754D01*
X005801Y016912D02*
X006070Y016912D01*
X005437Y016912D02*
X005380Y016912D01*
X005380Y016754D02*
X005437Y016754D01*
X005437Y016437D02*
X005380Y016437D01*
X005380Y016278D02*
X005437Y016278D01*
X004930Y016754D02*
X004845Y016754D01*
X004747Y016912D02*
X005016Y016912D01*
X005706Y014749D02*
X005639Y014715D01*
X005579Y014671D01*
X005526Y014618D01*
X005482Y014557D01*
X005448Y014491D01*
X005425Y014419D01*
X005413Y014346D01*
X005413Y014327D01*
X005870Y014327D01*
X005870Y014783D01*
X005851Y014783D01*
X005777Y014772D01*
X005706Y014749D01*
X005609Y014693D02*
X003591Y014693D01*
X003605Y014687D02*
X003445Y014753D01*
X003272Y014753D01*
X003112Y014687D01*
X002989Y014565D01*
X002923Y014405D01*
X002923Y014232D01*
X002989Y014072D01*
X003112Y013949D01*
X003272Y013883D01*
X003445Y013883D01*
X003605Y013949D01*
X003727Y014072D01*
X003794Y014232D01*
X003794Y014405D01*
X003727Y014565D01*
X003605Y014687D01*
X003740Y014535D02*
X005470Y014535D01*
X005418Y014376D02*
X003794Y014376D01*
X003788Y014218D02*
X005421Y014218D01*
X005425Y014197D02*
X005413Y014271D01*
X005413Y014290D01*
X005870Y014290D01*
X005870Y014327D01*
X005907Y014327D01*
X005907Y014783D01*
X005926Y014783D01*
X006000Y014772D01*
X006071Y014749D01*
X006137Y014715D01*
X006198Y014671D01*
X006251Y014618D01*
X006295Y014557D01*
X006329Y014491D01*
X006352Y014419D01*
X006364Y014346D01*
X006364Y014327D01*
X005907Y014327D01*
X005907Y014290D01*
X006364Y014290D01*
X006364Y014271D01*
X006352Y014197D01*
X006329Y014126D01*
X006295Y014059D01*
X006522Y014059D01*
X006519Y014062D02*
X006642Y013939D01*
X006802Y013873D01*
X006975Y013873D01*
X007135Y013939D01*
X007257Y014062D01*
X007324Y014222D01*
X007324Y014395D01*
X007257Y014555D01*
X007135Y014677D01*
X006975Y014743D01*
X006802Y014743D01*
X006642Y014677D01*
X006519Y014555D01*
X006453Y014395D01*
X006453Y014222D01*
X006519Y014062D01*
X006455Y014218D02*
X006355Y014218D01*
X006359Y014376D02*
X006453Y014376D01*
X006511Y014535D02*
X006306Y014535D01*
X006167Y014693D02*
X006680Y014693D01*
X007096Y014693D02*
X007680Y014693D01*
X007642Y014677D02*
X007519Y014555D01*
X007453Y014395D01*
X007453Y014222D01*
X007519Y014062D01*
X007642Y013939D01*
X007802Y013873D01*
X007975Y013873D01*
X008135Y013939D01*
X008257Y014062D01*
X008324Y014222D01*
X008324Y014395D01*
X008257Y014555D01*
X008135Y014677D01*
X007975Y014743D01*
X007802Y014743D01*
X007642Y014677D01*
X007511Y014535D02*
X007266Y014535D01*
X007324Y014376D02*
X007453Y014376D01*
X007455Y014218D02*
X007322Y014218D01*
X007255Y014059D02*
X007522Y014059D01*
X007735Y013901D02*
X007042Y013901D01*
X006975Y013743D02*
X006802Y013743D01*
X006642Y013677D01*
X006519Y013555D01*
X006453Y013395D01*
X006453Y013222D01*
X006519Y013062D01*
X006642Y012939D01*
X006802Y012873D01*
X006975Y012873D01*
X007135Y012939D01*
X007257Y013062D01*
X007324Y013222D01*
X007324Y013395D01*
X007257Y013555D01*
X007135Y013677D01*
X006975Y013743D01*
X006978Y013742D02*
X007798Y013742D01*
X007802Y013743D02*
X007642Y013677D01*
X007519Y013555D01*
X007453Y013395D01*
X007453Y013222D01*
X007519Y013062D01*
X007642Y012939D01*
X007802Y012873D01*
X007975Y012873D01*
X008135Y012939D01*
X008257Y013062D01*
X008324Y013222D01*
X008324Y013395D01*
X008257Y013555D01*
X008135Y013677D01*
X007975Y013743D01*
X007802Y013743D01*
X007978Y013742D02*
X008798Y013742D01*
X008802Y013743D02*
X008642Y013677D01*
X008519Y013555D01*
X008453Y013395D01*
X008453Y013222D01*
X008519Y013062D01*
X008642Y012939D01*
X008802Y012873D01*
X008975Y012873D01*
X009135Y012939D01*
X009257Y013062D01*
X009324Y013222D01*
X009324Y013395D01*
X009257Y013555D01*
X009135Y013677D01*
X008975Y013743D01*
X008802Y013743D01*
X008802Y013873D02*
X008642Y013939D01*
X008519Y014062D01*
X008453Y014222D01*
X008453Y014395D01*
X008519Y014555D01*
X008642Y014677D01*
X008802Y014743D01*
X008975Y014743D01*
X009135Y014677D01*
X009257Y014555D01*
X009324Y014395D01*
X009324Y014222D01*
X009257Y014062D01*
X009135Y013939D01*
X008975Y013873D01*
X008802Y013873D01*
X008735Y013901D02*
X008042Y013901D01*
X008255Y014059D02*
X008522Y014059D01*
X008455Y014218D02*
X008322Y014218D01*
X008324Y014376D02*
X008453Y014376D01*
X008511Y014535D02*
X008266Y014535D01*
X008096Y014693D02*
X008680Y014693D01*
X009096Y014693D02*
X009461Y014693D01*
X009480Y014686D02*
X009587Y014686D01*
X009686Y014727D01*
X009762Y014803D01*
X009803Y014902D01*
X009803Y015009D01*
X009762Y015108D01*
X009686Y015184D01*
X009587Y015226D01*
X009480Y015226D01*
X009380Y015184D01*
X009304Y015108D01*
X009263Y015009D01*
X009263Y014902D01*
X009304Y014803D01*
X009380Y014727D01*
X009480Y014686D01*
X009605Y014693D02*
X009680Y014693D01*
X009642Y014677D02*
X009519Y014555D01*
X009453Y014395D01*
X009453Y014222D01*
X009519Y014062D01*
X009642Y013939D01*
X009802Y013873D01*
X009975Y013873D01*
X010135Y013939D01*
X010257Y014062D01*
X010324Y014222D01*
X010324Y014395D01*
X010257Y014555D01*
X010135Y014677D01*
X009975Y014743D01*
X009802Y014743D01*
X009642Y014677D01*
X009511Y014535D02*
X009266Y014535D01*
X009324Y014376D02*
X009453Y014376D01*
X009455Y014218D02*
X009322Y014218D01*
X009255Y014059D02*
X009522Y014059D01*
X009735Y013901D02*
X009042Y013901D01*
X008978Y013742D02*
X009798Y013742D01*
X009802Y013743D02*
X009642Y013677D01*
X009519Y013555D01*
X009453Y013395D01*
X009453Y013222D01*
X009519Y013062D01*
X009642Y012939D01*
X009802Y012873D01*
X009975Y012873D01*
X010135Y012939D01*
X010257Y013062D01*
X010324Y013222D01*
X010324Y013395D01*
X010257Y013555D01*
X010135Y013677D01*
X009975Y013743D01*
X009802Y013743D01*
X009978Y013742D02*
X010798Y013742D01*
X010802Y013743D02*
X010642Y013677D01*
X010519Y013555D01*
X010453Y013395D01*
X010453Y013222D01*
X010519Y013062D01*
X010642Y012939D01*
X010802Y012873D01*
X010975Y012873D01*
X011135Y012939D01*
X011257Y013062D01*
X011324Y013222D01*
X011324Y013395D01*
X011257Y013555D01*
X011135Y013677D01*
X010975Y013743D01*
X010802Y013743D01*
X010851Y013833D02*
X010870Y013833D01*
X010870Y014290D01*
X010413Y014290D01*
X010413Y014271D01*
X010425Y014197D01*
X010448Y014126D01*
X010482Y014059D01*
X010526Y013998D01*
X010579Y013946D01*
X010639Y013902D01*
X010706Y013868D01*
X010777Y013845D01*
X010851Y013833D01*
X010907Y013833D02*
X010926Y013833D01*
X011000Y013845D01*
X011071Y013868D01*
X011137Y013902D01*
X011198Y013946D01*
X011251Y013998D01*
X011295Y014059D01*
X013160Y014059D01*
X013157Y014064D02*
X013201Y014003D01*
X013254Y013951D01*
X013314Y013907D01*
X013381Y013873D01*
X013452Y013850D01*
X013526Y013838D01*
X013545Y013838D01*
X013545Y014295D01*
X013088Y014295D01*
X013088Y014276D01*
X013100Y014202D01*
X013123Y014131D01*
X013157Y014064D01*
X013097Y014218D02*
X011355Y014218D01*
X011352Y014197D02*
X011364Y014271D01*
X011364Y014290D01*
X010907Y014290D01*
X010907Y014327D01*
X010870Y014327D01*
X010870Y014783D01*
X010851Y014783D01*
X010777Y014772D01*
X010706Y014749D01*
X010639Y014715D01*
X010579Y014671D01*
X010526Y014618D01*
X010482Y014557D01*
X010448Y014491D01*
X010425Y014419D01*
X010413Y014346D01*
X010413Y014327D01*
X010870Y014327D01*
X010870Y014290D01*
X010907Y014290D01*
X010907Y013833D01*
X010907Y013901D02*
X010870Y013901D01*
X010870Y014059D02*
X010907Y014059D01*
X010907Y014218D02*
X010870Y014218D01*
X010907Y014327D02*
X011364Y014327D01*
X011364Y014346D01*
X011352Y014419D01*
X011329Y014491D01*
X011295Y014557D01*
X011251Y014618D01*
X011198Y014671D01*
X011137Y014715D01*
X011071Y014749D01*
X011000Y014772D01*
X010926Y014783D01*
X010907Y014783D01*
X010907Y014327D01*
X010907Y014376D02*
X010870Y014376D01*
X010870Y014535D02*
X010907Y014535D01*
X010907Y014693D02*
X010870Y014693D01*
X010609Y014693D02*
X010096Y014693D01*
X010266Y014535D02*
X010470Y014535D01*
X010418Y014376D02*
X010324Y014376D01*
X010322Y014218D02*
X010421Y014218D01*
X010482Y014059D02*
X010255Y014059D01*
X010042Y013901D02*
X010641Y013901D01*
X010548Y013584D02*
X010228Y013584D01*
X010311Y013425D02*
X010466Y013425D01*
X010453Y013267D02*
X010324Y013267D01*
X010277Y013108D02*
X010500Y013108D01*
X010631Y012950D02*
X010145Y012950D01*
X009631Y012950D02*
X009145Y012950D01*
X009277Y013108D02*
X009500Y013108D01*
X009453Y013267D02*
X009324Y013267D01*
X009311Y013425D02*
X009466Y013425D01*
X009548Y013584D02*
X009228Y013584D01*
X008548Y013584D02*
X008228Y013584D01*
X008311Y013425D02*
X008466Y013425D01*
X008453Y013267D02*
X008324Y013267D01*
X008277Y013108D02*
X008500Y013108D01*
X008631Y012950D02*
X008145Y012950D01*
X007631Y012950D02*
X007145Y012950D01*
X007277Y013108D02*
X007500Y013108D01*
X007453Y013267D02*
X007324Y013267D01*
X007311Y013425D02*
X007466Y013425D01*
X007548Y013584D02*
X007228Y013584D01*
X006798Y013742D02*
X005978Y013742D01*
X005975Y013743D02*
X005802Y013743D01*
X005642Y013677D01*
X005519Y013555D01*
X005453Y013395D01*
X005453Y013222D01*
X005519Y013062D01*
X005642Y012939D01*
X005802Y012873D01*
X005975Y012873D01*
X006135Y012939D01*
X006257Y013062D01*
X006324Y013222D01*
X006324Y013395D01*
X006257Y013555D01*
X006135Y013677D01*
X005975Y013743D01*
X005926Y013833D02*
X006000Y013845D01*
X006071Y013868D01*
X006137Y013902D01*
X006198Y013946D01*
X006251Y013998D01*
X006295Y014059D01*
X006135Y013901D02*
X006735Y013901D01*
X006548Y013584D02*
X006228Y013584D01*
X006311Y013425D02*
X006466Y013425D01*
X006453Y013267D02*
X006324Y013267D01*
X006277Y013108D02*
X006500Y013108D01*
X006631Y012950D02*
X006145Y012950D01*
X005631Y012950D02*
X003660Y012950D01*
X003668Y012956D02*
X003721Y013008D01*
X003765Y013069D01*
X003799Y013136D01*
X003822Y013207D01*
X003834Y013281D01*
X003834Y013300D01*
X003377Y013300D01*
X003377Y013337D01*
X003340Y013337D01*
X003340Y013793D01*
X003321Y013793D01*
X003247Y013782D01*
X003176Y013759D01*
X003109Y013725D01*
X003049Y013681D01*
X002996Y013628D01*
X002952Y013567D01*
X002918Y013501D01*
X002895Y013429D01*
X002883Y013356D01*
X002883Y013337D01*
X003340Y013337D01*
X003340Y013300D01*
X002883Y013300D01*
X002883Y013281D01*
X002895Y013207D01*
X002918Y013136D01*
X002952Y013069D01*
X002996Y013008D01*
X003049Y012956D01*
X003109Y012912D01*
X003176Y012878D01*
X003247Y012855D01*
X003321Y012843D01*
X003340Y012843D01*
X003340Y013300D01*
X003377Y013300D01*
X003377Y012843D01*
X003396Y012843D01*
X003470Y012855D01*
X003541Y012878D01*
X003607Y012912D01*
X003668Y012956D01*
X003785Y013108D02*
X005500Y013108D01*
X005453Y013267D02*
X003831Y013267D01*
X003834Y013337D02*
X003377Y013337D01*
X003377Y013793D01*
X003396Y013793D01*
X003470Y013782D01*
X003541Y013759D01*
X003607Y013725D01*
X003668Y013681D01*
X003721Y013628D01*
X003765Y013567D01*
X003799Y013501D01*
X003822Y013429D01*
X003834Y013356D01*
X003834Y013337D01*
X003823Y013425D02*
X005466Y013425D01*
X005548Y013584D02*
X003753Y013584D01*
X003573Y013742D02*
X005798Y013742D01*
X005777Y013845D02*
X005851Y013833D01*
X005870Y013833D01*
X005870Y014290D01*
X005907Y014290D01*
X005907Y013833D01*
X005926Y013833D01*
X005907Y013901D02*
X005870Y013901D01*
X005777Y013845D02*
X005706Y013868D01*
X005639Y013902D01*
X005579Y013946D01*
X005526Y013998D01*
X005482Y014059D01*
X005448Y014126D01*
X005425Y014197D01*
X005482Y014059D02*
X003715Y014059D01*
X003488Y013901D02*
X005641Y013901D01*
X005870Y014059D02*
X005907Y014059D01*
X005907Y014218D02*
X005870Y014218D01*
X005870Y014376D02*
X005907Y014376D01*
X005907Y014535D02*
X005870Y014535D01*
X005870Y014693D02*
X005907Y014693D01*
X003377Y013742D02*
X003340Y013742D01*
X003340Y013584D02*
X003377Y013584D01*
X003377Y013425D02*
X003340Y013425D01*
X003340Y013267D02*
X003377Y013267D01*
X003377Y013108D02*
X003340Y013108D01*
X003340Y012950D02*
X003377Y012950D01*
X003057Y012950D02*
X002605Y012950D01*
X002605Y012949D02*
X002727Y013072D01*
X002794Y013232D01*
X002794Y013405D01*
X002727Y013565D01*
X002605Y013687D01*
X002445Y013753D01*
X002272Y013753D01*
X002112Y013687D01*
X001989Y013565D01*
X001923Y013405D01*
X001923Y013232D01*
X001989Y013072D01*
X002112Y012949D01*
X002272Y012883D01*
X002445Y012883D01*
X002605Y012949D01*
X002742Y013108D02*
X002932Y013108D01*
X002885Y013267D02*
X002794Y013267D01*
X002785Y013425D02*
X002894Y013425D01*
X002964Y013584D02*
X002708Y013584D01*
X002472Y013742D02*
X003143Y013742D01*
X003229Y013901D02*
X002488Y013901D01*
X002445Y013883D02*
X002605Y013949D01*
X002727Y014072D01*
X002794Y014232D01*
X002794Y014405D01*
X002727Y014565D01*
X002605Y014687D01*
X002445Y014753D01*
X002272Y014753D01*
X002112Y014687D01*
X001989Y014565D01*
X001923Y014405D01*
X001923Y014232D01*
X001989Y014072D01*
X002112Y013949D01*
X002272Y013883D01*
X002445Y013883D01*
X002229Y013901D02*
X001488Y013901D01*
X001445Y013883D02*
X001605Y013949D01*
X001727Y014072D01*
X001794Y014232D01*
X001794Y014405D01*
X001727Y014565D01*
X001605Y014687D01*
X001445Y014753D01*
X001272Y014753D01*
X001112Y014687D01*
X000989Y014565D01*
X000923Y014405D01*
X000923Y014232D01*
X000989Y014072D01*
X001112Y013949D01*
X001272Y013883D01*
X001445Y013883D01*
X001445Y013753D02*
X001272Y013753D01*
X001112Y013687D01*
X000989Y013565D01*
X000923Y013405D01*
X000923Y013232D01*
X000989Y013072D01*
X001112Y012949D01*
X001272Y012883D01*
X001445Y012883D01*
X001605Y012949D01*
X001727Y013072D01*
X001794Y013232D01*
X001794Y013405D01*
X001727Y013565D01*
X001605Y013687D01*
X001445Y013753D01*
X001472Y013742D02*
X002244Y013742D01*
X002008Y013584D02*
X001708Y013584D01*
X001785Y013425D02*
X001931Y013425D01*
X001923Y013267D02*
X001794Y013267D01*
X001742Y013108D02*
X001974Y013108D01*
X002111Y012950D02*
X001605Y012950D01*
X001111Y012950D02*
X000458Y012950D01*
X000458Y013108D02*
X000974Y013108D01*
X000923Y013267D02*
X000458Y013267D01*
X000458Y013425D02*
X000931Y013425D01*
X001008Y013584D02*
X000458Y013584D01*
X000458Y013742D02*
X001244Y013742D01*
X001229Y013901D02*
X000458Y013901D01*
X000458Y014059D02*
X001002Y014059D01*
X000929Y014218D02*
X000458Y014218D01*
X000458Y014376D02*
X000923Y014376D01*
X000977Y014535D02*
X000458Y014535D01*
X000458Y014693D02*
X001126Y014693D01*
X001591Y014693D02*
X002126Y014693D01*
X001977Y014535D02*
X001740Y014535D01*
X001794Y014376D02*
X001923Y014376D01*
X001929Y014218D02*
X001788Y014218D01*
X001715Y014059D02*
X002002Y014059D01*
X002715Y014059D02*
X003002Y014059D01*
X002929Y014218D02*
X002788Y014218D01*
X002794Y014376D02*
X002923Y014376D01*
X002977Y014535D02*
X002740Y014535D01*
X002591Y014693D02*
X003126Y014693D01*
X000458Y014852D02*
X009284Y014852D01*
X009264Y015010D02*
X000458Y015010D01*
X000458Y015169D02*
X009364Y015169D01*
X009702Y015169D02*
X017573Y015169D01*
X017579Y015183D02*
X017538Y015084D01*
X017538Y014977D01*
X017579Y014878D01*
X017655Y014802D01*
X017755Y014761D01*
X017862Y014761D01*
X017961Y014802D01*
X018037Y014878D01*
X018078Y014977D01*
X018078Y015030D01*
X018079Y015028D01*
X018155Y014952D01*
X018255Y014911D01*
X018362Y014911D01*
X018461Y014952D01*
X018537Y015028D01*
X018578Y015127D01*
X018578Y015234D01*
X018537Y015333D01*
X018461Y015409D01*
X018362Y015451D01*
X018255Y015451D01*
X018155Y015409D01*
X018079Y015333D01*
X018038Y015234D01*
X018038Y015181D01*
X018037Y015183D01*
X017961Y015259D01*
X017862Y015301D01*
X017755Y015301D01*
X017655Y015259D01*
X017579Y015183D01*
X017538Y015010D02*
X009803Y015010D01*
X009782Y014852D02*
X017605Y014852D01*
X018011Y014852D02*
X018649Y014852D01*
X018638Y014877D02*
X018679Y014778D01*
X018755Y014702D01*
X018855Y014661D01*
X018962Y014661D01*
X019061Y014702D01*
X019137Y014778D01*
X019178Y014877D01*
X019178Y014984D01*
X019137Y015083D01*
X019061Y015159D01*
X018962Y015201D01*
X018855Y015201D01*
X018755Y015159D01*
X018679Y015083D01*
X018638Y014984D01*
X018638Y014877D01*
X018649Y015010D02*
X018520Y015010D01*
X018578Y015169D02*
X018777Y015169D01*
X019039Y015169D02*
X019863Y015169D01*
X019829Y015203D02*
X019905Y015127D01*
X020005Y015086D01*
X020112Y015086D01*
X020211Y015127D01*
X020287Y015203D01*
X020328Y015302D01*
X020328Y015336D01*
X020362Y015336D01*
X020461Y015377D01*
X020537Y015453D01*
X020578Y015552D01*
X020578Y015659D01*
X020537Y015758D01*
X020461Y015834D01*
X020362Y015876D01*
X020255Y015876D01*
X020155Y015834D01*
X020079Y015758D01*
X020038Y015659D01*
X020038Y015626D01*
X020005Y015626D01*
X019905Y015584D01*
X019829Y015508D01*
X019788Y015409D01*
X019788Y015302D01*
X019829Y015203D01*
X019788Y015327D02*
X018540Y015327D01*
X018077Y015327D02*
X000458Y015327D01*
X000458Y015486D02*
X019346Y015486D01*
X019355Y015477D02*
X019455Y015436D01*
X019562Y015436D01*
X019661Y015477D01*
X019737Y015553D01*
X019778Y015652D01*
X019778Y015759D01*
X019737Y015858D01*
X019661Y015934D01*
X019562Y015976D01*
X019455Y015976D01*
X019355Y015934D01*
X019279Y015858D01*
X019238Y015759D01*
X019238Y015652D01*
X019279Y015553D01*
X019355Y015477D01*
X019241Y015644D02*
X016119Y015644D01*
X016112Y015628D02*
X016153Y015727D01*
X016153Y015834D01*
X016112Y015933D01*
X016036Y016009D01*
X015937Y016051D01*
X015830Y016051D01*
X015730Y016009D01*
X015654Y015933D01*
X015613Y015834D01*
X015613Y015727D01*
X015654Y015628D01*
X015730Y015552D01*
X015830Y015511D01*
X015937Y015511D01*
X016036Y015552D01*
X016112Y015628D01*
X016153Y015803D02*
X019256Y015803D01*
X019161Y015977D02*
X019237Y016053D01*
X019278Y016152D01*
X019278Y016259D01*
X019237Y016358D01*
X019161Y016434D01*
X019062Y016476D01*
X018955Y016476D01*
X018855Y016434D01*
X018779Y016358D01*
X018738Y016259D01*
X018738Y016152D01*
X018779Y016053D01*
X018855Y015977D01*
X018955Y015936D01*
X019062Y015936D01*
X019161Y015977D01*
X019124Y015961D02*
X019420Y015961D01*
X019597Y015961D02*
X023492Y015961D01*
X023492Y015803D02*
X022772Y015803D01*
X022704Y015831D02*
X022378Y015831D01*
X022076Y015706D01*
X021845Y015475D01*
X021720Y015173D01*
X021720Y014847D01*
X021845Y014545D01*
X022076Y014315D01*
X022378Y014190D01*
X022704Y014190D01*
X023006Y014315D01*
X023237Y014545D01*
X023361Y014847D01*
X023361Y015173D01*
X023237Y015475D01*
X023006Y015706D01*
X022704Y015831D01*
X022310Y015803D02*
X020493Y015803D01*
X020578Y015644D02*
X022014Y015644D01*
X021856Y015486D02*
X020551Y015486D01*
X020779Y015358D02*
X020738Y015259D01*
X020738Y015152D01*
X020779Y015053D01*
X020855Y014977D01*
X020955Y014936D01*
X021062Y014936D01*
X021161Y014977D01*
X021237Y015053D01*
X021278Y015152D01*
X021278Y015259D01*
X021237Y015358D01*
X021161Y015434D01*
X021062Y015476D01*
X020955Y015476D01*
X020855Y015434D01*
X020779Y015358D01*
X020766Y015327D02*
X020328Y015327D01*
X020253Y015169D02*
X020738Y015169D01*
X020822Y015010D02*
X019168Y015010D01*
X019168Y014852D02*
X021720Y014852D01*
X021720Y015010D02*
X021195Y015010D01*
X021278Y015169D02*
X021720Y015169D01*
X021784Y015327D02*
X021250Y015327D01*
X021784Y014693D02*
X019040Y014693D01*
X018776Y014693D02*
X016803Y014693D01*
X016837Y014658D02*
X016761Y014734D01*
X016662Y014776D01*
X016555Y014776D01*
X016455Y014734D01*
X016379Y014658D01*
X016338Y014559D01*
X016338Y014452D01*
X016379Y014353D01*
X016455Y014277D01*
X016555Y014236D01*
X016662Y014236D01*
X016761Y014277D01*
X016837Y014353D01*
X016878Y014452D01*
X016878Y014559D01*
X016837Y014658D01*
X016878Y014535D02*
X021856Y014535D01*
X022015Y014376D02*
X016847Y014376D01*
X016370Y014376D02*
X015999Y014376D01*
X015999Y014400D02*
X015932Y014560D01*
X015810Y014682D01*
X015650Y014748D01*
X015477Y014748D01*
X015317Y014682D01*
X015194Y014560D01*
X015128Y014400D01*
X015128Y014227D01*
X015194Y014067D01*
X015317Y013944D01*
X015477Y013878D01*
X015650Y013878D01*
X015810Y013944D01*
X015932Y014067D01*
X015999Y014227D01*
X015999Y014400D01*
X015943Y014535D02*
X016338Y014535D01*
X016414Y014693D02*
X015783Y014693D01*
X015343Y014693D02*
X014783Y014693D01*
X014810Y014682D02*
X014650Y014748D01*
X014477Y014748D01*
X014317Y014682D01*
X014194Y014560D01*
X014128Y014400D01*
X014128Y014227D01*
X014194Y014067D01*
X014317Y013944D01*
X014477Y013878D01*
X014650Y013878D01*
X014810Y013944D01*
X014932Y014067D01*
X014999Y014227D01*
X014999Y014400D01*
X014932Y014560D01*
X014810Y014682D01*
X014943Y014535D02*
X015184Y014535D01*
X015128Y014376D02*
X014999Y014376D01*
X014995Y014218D02*
X015132Y014218D01*
X015202Y014059D02*
X014925Y014059D01*
X014705Y013901D02*
X015422Y013901D01*
X015477Y013748D02*
X015317Y013682D01*
X015194Y013560D01*
X015128Y013400D01*
X015128Y013227D01*
X015194Y013067D01*
X015317Y012944D01*
X015477Y012878D01*
X015650Y012878D01*
X015810Y012944D01*
X015932Y013067D01*
X015999Y013227D01*
X015999Y013400D01*
X015932Y013560D01*
X015810Y013682D01*
X015650Y013748D01*
X015477Y013748D01*
X015461Y013742D02*
X014665Y013742D01*
X014650Y013748D02*
X014810Y013682D01*
X014932Y013560D01*
X014999Y013400D01*
X014999Y013227D01*
X014932Y013067D01*
X014810Y012944D01*
X014650Y012878D01*
X014477Y012878D01*
X014317Y012944D01*
X014194Y013067D01*
X014128Y013227D01*
X014128Y013400D01*
X014194Y013560D01*
X014317Y013682D01*
X014477Y013748D01*
X014650Y013748D01*
X014461Y013742D02*
X013665Y013742D01*
X013650Y013748D02*
X013810Y013682D01*
X013932Y013560D01*
X013999Y013400D01*
X013999Y013227D01*
X013932Y013067D01*
X013810Y012944D01*
X013650Y012878D01*
X013477Y012878D01*
X013317Y012944D01*
X013194Y013067D01*
X013128Y013227D01*
X013128Y013400D01*
X013194Y013560D01*
X013317Y013682D01*
X013477Y013748D01*
X013650Y013748D01*
X013601Y013838D02*
X013675Y013850D01*
X013746Y013873D01*
X013812Y013907D01*
X013873Y013951D01*
X013926Y014003D01*
X013970Y014064D01*
X014004Y014131D01*
X014027Y014202D01*
X014039Y014276D01*
X014039Y014295D01*
X013582Y014295D01*
X013582Y014332D01*
X013545Y014332D01*
X013545Y014788D01*
X013526Y014788D01*
X013452Y014777D01*
X013381Y014754D01*
X013314Y014720D01*
X013254Y014676D01*
X013201Y014623D01*
X013157Y014562D01*
X013123Y014496D01*
X013100Y014424D01*
X013088Y014351D01*
X013088Y014332D01*
X013545Y014332D01*
X013545Y014295D01*
X013582Y014295D01*
X013582Y013838D01*
X013601Y013838D01*
X013582Y013901D02*
X013545Y013901D01*
X013545Y014059D02*
X013582Y014059D01*
X013582Y014218D02*
X013545Y014218D01*
X013582Y014332D02*
X014039Y014332D01*
X014039Y014351D01*
X014027Y014424D01*
X014004Y014496D01*
X013970Y014562D01*
X013926Y014623D01*
X013873Y014676D01*
X013812Y014720D01*
X013746Y014754D01*
X013675Y014777D01*
X013601Y014788D01*
X013582Y014788D01*
X013582Y014332D01*
X013582Y014376D02*
X013545Y014376D01*
X013545Y014535D02*
X013582Y014535D01*
X013582Y014693D02*
X013545Y014693D01*
X013278Y014693D02*
X011167Y014693D01*
X011306Y014535D02*
X013143Y014535D01*
X013092Y014376D02*
X011359Y014376D01*
X011352Y014197D02*
X011329Y014126D01*
X011295Y014059D01*
X011135Y013901D02*
X013326Y013901D01*
X013461Y013742D02*
X010978Y013742D01*
X011228Y013584D02*
X013218Y013584D01*
X013138Y013425D02*
X011311Y013425D01*
X011324Y013267D02*
X013128Y013267D01*
X013177Y013108D02*
X011277Y013108D01*
X011145Y012950D02*
X013311Y012950D01*
X013815Y012950D02*
X014311Y012950D01*
X014177Y013108D02*
X013949Y013108D01*
X013999Y013267D02*
X014128Y013267D01*
X014138Y013425D02*
X013988Y013425D01*
X013908Y013584D02*
X014218Y013584D01*
X014422Y013901D02*
X013800Y013901D01*
X013966Y014059D02*
X014202Y014059D01*
X014132Y014218D02*
X014029Y014218D01*
X014035Y014376D02*
X014128Y014376D01*
X014184Y014535D02*
X013984Y014535D01*
X013849Y014693D02*
X014343Y014693D01*
X015705Y013901D02*
X016126Y013901D01*
X016129Y013908D02*
X016088Y013809D01*
X016088Y013702D01*
X016129Y013603D01*
X016205Y013527D01*
X016305Y013486D01*
X016412Y013486D01*
X016511Y013527D01*
X016587Y013603D01*
X016628Y013702D01*
X016628Y013809D01*
X016587Y013908D01*
X016511Y013984D01*
X016412Y014026D01*
X016305Y014026D01*
X016205Y013984D01*
X016129Y013908D01*
X016088Y013742D02*
X015665Y013742D01*
X015908Y013584D02*
X016148Y013584D01*
X015988Y013425D02*
X021357Y013425D01*
X021380Y013402D02*
X021480Y013361D01*
X021587Y013361D01*
X021686Y013402D01*
X021762Y013478D01*
X021803Y013577D01*
X021803Y013684D01*
X021762Y013783D01*
X021686Y013859D01*
X021587Y013901D01*
X021480Y013901D01*
X021380Y013859D01*
X021304Y013783D01*
X021263Y013684D01*
X021263Y013577D01*
X021304Y013478D01*
X021380Y013402D01*
X021263Y013584D02*
X016568Y013584D01*
X016628Y013742D02*
X021287Y013742D01*
X021779Y013742D02*
X023492Y013742D01*
X023492Y013584D02*
X021803Y013584D01*
X021710Y013425D02*
X023492Y013425D01*
X023492Y013267D02*
X015999Y013267D01*
X015949Y013108D02*
X023492Y013108D01*
X023492Y012950D02*
X015815Y012950D01*
X015311Y012950D02*
X014815Y012950D01*
X014949Y013108D02*
X015177Y013108D01*
X015128Y013267D02*
X014999Y013267D01*
X014988Y013425D02*
X015138Y013425D01*
X015218Y013584D02*
X014908Y013584D01*
X015925Y014059D02*
X023492Y014059D01*
X023492Y013901D02*
X016590Y013901D01*
X015995Y014218D02*
X022311Y014218D01*
X022771Y014218D02*
X023492Y014218D01*
X023492Y014376D02*
X023067Y014376D01*
X023226Y014535D02*
X023492Y014535D01*
X023492Y014693D02*
X023298Y014693D01*
X023361Y014852D02*
X023492Y014852D01*
X023492Y015010D02*
X023361Y015010D01*
X023361Y015169D02*
X023492Y015169D01*
X023492Y015327D02*
X023298Y015327D01*
X023226Y015486D02*
X023492Y015486D01*
X023492Y015644D02*
X023068Y015644D01*
X023492Y016120D02*
X019265Y016120D01*
X019270Y016278D02*
X023492Y016278D01*
X023492Y016437D02*
X019156Y016437D01*
X018860Y016437D02*
X018384Y016437D01*
X018478Y016278D02*
X018746Y016278D01*
X018752Y016120D02*
X018455Y016120D01*
X018263Y015961D02*
X018893Y015961D01*
X018153Y015961D02*
X016085Y015961D01*
X015682Y015961D02*
X000458Y015961D01*
X000458Y015803D02*
X015613Y015803D01*
X015648Y015644D02*
X000458Y015644D01*
X000458Y012791D02*
X023492Y012791D01*
X023492Y012633D02*
X000458Y012633D01*
X000458Y012474D02*
X012375Y012474D01*
X012379Y012483D02*
X012338Y012384D01*
X012338Y012277D01*
X012379Y012178D01*
X012455Y012102D01*
X012555Y012061D01*
X012662Y012061D01*
X012761Y012102D01*
X012837Y012178D01*
X012878Y012277D01*
X012878Y012384D01*
X012837Y012483D01*
X012761Y012559D01*
X012662Y012601D01*
X012555Y012601D01*
X012455Y012559D01*
X012379Y012483D01*
X012338Y012316D02*
X000458Y012316D01*
X000458Y012157D02*
X012400Y012157D01*
X012817Y012157D02*
X015838Y012157D01*
X015838Y012159D02*
X015838Y012052D01*
X015879Y011953D01*
X015955Y011877D01*
X016055Y011836D01*
X016162Y011836D01*
X016261Y011877D01*
X016337Y011953D01*
X016378Y012052D01*
X016378Y012159D01*
X016337Y012258D01*
X016261Y012334D01*
X016162Y012376D01*
X016055Y012376D01*
X015955Y012334D01*
X015879Y012258D01*
X015838Y012159D01*
X015860Y011999D02*
X000458Y011999D01*
X000458Y011840D02*
X009311Y011840D01*
X009304Y011833D02*
X009263Y011734D01*
X009263Y011627D01*
X009304Y011528D01*
X009380Y011452D01*
X009480Y011411D01*
X009587Y011411D01*
X009686Y011452D01*
X009762Y011528D01*
X009803Y011627D01*
X009803Y011734D01*
X009762Y011833D01*
X009686Y011909D01*
X009587Y011951D01*
X009480Y011951D01*
X009380Y011909D01*
X009304Y011833D01*
X009263Y011682D02*
X008914Y011682D01*
X008937Y011658D02*
X008861Y011734D01*
X008762Y011776D01*
X008655Y011776D01*
X008555Y011734D01*
X008479Y011658D01*
X008438Y011559D01*
X008438Y011452D01*
X008479Y011353D01*
X008555Y011277D01*
X008655Y011236D01*
X008762Y011236D01*
X008861Y011277D01*
X008937Y011353D01*
X008978Y011452D01*
X008978Y011559D01*
X008937Y011658D01*
X008978Y011523D02*
X009309Y011523D01*
X008942Y011365D02*
X012492Y011365D01*
X012479Y011378D02*
X012555Y011302D01*
X012655Y011261D01*
X012762Y011261D01*
X012861Y011302D01*
X012937Y011378D01*
X012978Y011477D01*
X012978Y011584D01*
X012937Y011683D01*
X012861Y011759D01*
X012762Y011801D01*
X012655Y011801D01*
X012555Y011759D01*
X012479Y011683D01*
X012438Y011584D01*
X012438Y011477D01*
X012479Y011378D01*
X012438Y011523D02*
X009758Y011523D01*
X009803Y011682D02*
X012479Y011682D01*
X012938Y011682D02*
X023492Y011682D01*
X023492Y011840D02*
X016173Y011840D01*
X016044Y011840D02*
X009756Y011840D01*
X008502Y011682D02*
X000458Y011682D01*
X000458Y011523D02*
X008438Y011523D01*
X008474Y011365D02*
X000458Y011365D01*
X000458Y011206D02*
X017863Y011206D01*
X017863Y011202D02*
X017904Y011103D01*
X017980Y011027D01*
X018080Y010986D01*
X018187Y010986D01*
X018286Y011027D01*
X018362Y011103D01*
X018403Y011202D01*
X018403Y011309D01*
X018362Y011408D01*
X018286Y011484D01*
X018187Y011526D01*
X018080Y011526D01*
X017980Y011484D01*
X017904Y011408D01*
X017863Y011309D01*
X017863Y011202D01*
X017886Y011365D02*
X012924Y011365D01*
X012978Y011523D02*
X018074Y011523D01*
X018193Y011523D02*
X023492Y011523D01*
X023492Y011365D02*
X018380Y011365D01*
X018403Y011206D02*
X023492Y011206D01*
X023492Y011048D02*
X020319Y011048D01*
X020312Y011051D02*
X020205Y011051D01*
X020105Y011009D01*
X020029Y010933D01*
X019988Y010834D01*
X019988Y010727D01*
X020029Y010628D01*
X020105Y010552D01*
X020205Y010511D01*
X020312Y010511D01*
X020411Y010552D01*
X020487Y010628D01*
X020528Y010727D01*
X020528Y010834D01*
X020487Y010933D01*
X020411Y011009D01*
X020312Y011051D01*
X020197Y011048D02*
X018307Y011048D01*
X017959Y011048D02*
X000458Y011048D01*
X000458Y010889D02*
X020011Y010889D01*
X019988Y010731D02*
X000458Y010731D01*
X000458Y010572D02*
X020085Y010572D01*
X020432Y010572D02*
X023492Y010572D01*
X023492Y010414D02*
X000458Y010414D01*
X000458Y010255D02*
X023492Y010255D01*
X023492Y010097D02*
X000458Y010097D01*
X000458Y009938D02*
X023492Y009938D01*
X023492Y009780D02*
X000458Y009780D01*
X000458Y009621D02*
X023492Y009621D01*
X023492Y009463D02*
X000458Y009463D01*
X000458Y009304D02*
X023492Y009304D01*
X023492Y009146D02*
X000458Y009146D01*
X000458Y008987D02*
X023492Y008987D01*
X023492Y008829D02*
X000458Y008829D01*
X000458Y008670D02*
X023492Y008670D01*
X023492Y008512D02*
X000458Y008512D01*
X000458Y008353D02*
X023492Y008353D01*
X023492Y008195D02*
X000458Y008195D01*
X000458Y008036D02*
X023492Y008036D01*
X023492Y007878D02*
X000458Y007878D01*
X000458Y007719D02*
X018404Y007719D01*
X018380Y007709D02*
X018304Y007633D01*
X018263Y007534D01*
X018263Y007427D01*
X018304Y007328D01*
X018380Y007252D01*
X018480Y007211D01*
X018587Y007211D01*
X018686Y007252D01*
X018762Y007328D01*
X018803Y007427D01*
X018803Y007534D01*
X018762Y007633D01*
X018686Y007709D01*
X018587Y007751D01*
X018480Y007751D01*
X018380Y007709D01*
X018274Y007561D02*
X000458Y007561D01*
X000458Y007402D02*
X018274Y007402D01*
X018400Y007244D02*
X000458Y007244D01*
X000458Y007085D02*
X023492Y007085D01*
X023492Y006927D02*
X000458Y006927D01*
X000458Y006768D02*
X023492Y006768D01*
X023492Y006610D02*
X000458Y006610D01*
X000458Y006451D02*
X019429Y006451D01*
X019365Y006425D02*
X019235Y006294D01*
X019164Y006123D01*
X019164Y005938D01*
X019235Y005767D01*
X019365Y005637D01*
X019235Y005506D01*
X019164Y005336D01*
X019164Y005151D01*
X019235Y004980D01*
X019365Y004849D01*
X019536Y004778D01*
X019721Y004778D01*
X019892Y004849D01*
X020023Y004980D01*
X020094Y005151D01*
X020094Y005336D01*
X020023Y005506D01*
X019892Y005637D01*
X020023Y005767D01*
X020094Y005938D01*
X020094Y006123D01*
X020023Y006294D01*
X019892Y006425D01*
X019721Y006495D01*
X019536Y006495D01*
X019365Y006425D01*
X019234Y006293D02*
X000458Y006293D01*
X000458Y006134D02*
X019169Y006134D01*
X019164Y005976D02*
X000458Y005976D01*
X000458Y005817D02*
X019214Y005817D01*
X019343Y005659D02*
X000458Y005659D01*
X000458Y005500D02*
X019232Y005500D01*
X019166Y005342D02*
X000458Y005342D01*
X000458Y005183D02*
X019164Y005183D01*
X019216Y005025D02*
X000458Y005025D01*
X000458Y004866D02*
X017293Y004866D01*
X017291Y004865D02*
X017062Y004636D01*
X016938Y004338D01*
X016938Y004015D01*
X017062Y003716D01*
X017291Y003487D01*
X017589Y003364D01*
X017912Y003364D01*
X018211Y003487D01*
X018440Y003716D01*
X018563Y004015D01*
X018563Y004338D01*
X018440Y004636D01*
X018211Y004865D01*
X017912Y004989D01*
X017589Y004989D01*
X017291Y004865D01*
X017133Y004708D02*
X000458Y004708D01*
X000458Y004549D02*
X017026Y004549D01*
X016960Y004391D02*
X000458Y004391D01*
X000458Y004232D02*
X016938Y004232D01*
X016938Y004074D02*
X000458Y004074D01*
X000458Y003915D02*
X016980Y003915D01*
X017045Y003757D02*
X000458Y003757D01*
X000458Y003598D02*
X017180Y003598D01*
X017406Y003440D02*
X000458Y003440D01*
X000458Y003281D02*
X023492Y003281D01*
X023492Y003123D02*
X000458Y003123D01*
X000458Y002964D02*
X023492Y002964D01*
X023492Y002806D02*
X000458Y002806D01*
X000458Y002647D02*
X023492Y002647D01*
X023492Y002489D02*
X000458Y002489D01*
X000458Y002330D02*
X001117Y002330D01*
X001162Y002375D02*
X001039Y002252D01*
X000973Y002092D01*
X000973Y001919D01*
X001039Y001759D01*
X001162Y001637D01*
X001322Y001570D01*
X001495Y001570D01*
X001655Y001637D01*
X001777Y001759D01*
X001844Y001919D01*
X001844Y002092D01*
X001777Y002252D01*
X001655Y002375D01*
X001495Y002441D01*
X001322Y002441D01*
X001162Y002375D01*
X001006Y002172D02*
X000458Y002172D01*
X000458Y002013D02*
X000973Y002013D01*
X001000Y001855D02*
X000458Y001855D01*
X000458Y001696D02*
X001102Y001696D01*
X001714Y001696D02*
X002102Y001696D01*
X002162Y001637D02*
X002322Y001570D01*
X002495Y001570D01*
X002655Y001637D01*
X002777Y001759D01*
X002844Y001919D01*
X002844Y002092D01*
X002777Y002252D01*
X002655Y002375D01*
X002495Y002441D01*
X002322Y002441D01*
X002162Y002375D01*
X002039Y002252D01*
X001973Y002092D01*
X001973Y001919D01*
X002039Y001759D01*
X002162Y001637D01*
X002000Y001855D02*
X001817Y001855D01*
X001844Y002013D02*
X001973Y002013D01*
X002006Y002172D02*
X001811Y002172D01*
X001699Y002330D02*
X002117Y002330D01*
X002699Y002330D02*
X014307Y002330D01*
X014352Y002375D02*
X014229Y002252D01*
X014163Y002092D01*
X014163Y001919D01*
X014229Y001759D01*
X014352Y001637D01*
X014512Y001570D01*
X014685Y001570D01*
X014845Y001637D01*
X014967Y001759D01*
X015034Y001919D01*
X015034Y002092D01*
X014967Y002252D01*
X014845Y002375D01*
X014685Y002441D01*
X014512Y002441D01*
X014352Y002375D01*
X014196Y002172D02*
X002811Y002172D01*
X002844Y002013D02*
X014163Y002013D01*
X014190Y001855D02*
X002817Y001855D01*
X002714Y001696D02*
X014292Y001696D01*
X014904Y001696D02*
X015292Y001696D01*
X015352Y001637D02*
X015229Y001759D01*
X015163Y001919D01*
X015163Y002092D01*
X015229Y002252D01*
X015352Y002375D01*
X015512Y002441D01*
X015685Y002441D01*
X015845Y002375D01*
X015967Y002252D01*
X016034Y002092D01*
X016034Y001919D01*
X015967Y001759D01*
X015845Y001637D01*
X015685Y001570D01*
X015512Y001570D01*
X015352Y001637D01*
X015190Y001855D02*
X015007Y001855D01*
X015034Y002013D02*
X015163Y002013D01*
X015196Y002172D02*
X015001Y002172D01*
X014889Y002330D02*
X015307Y002330D01*
X015889Y002330D02*
X023492Y002330D01*
X023492Y002172D02*
X016001Y002172D01*
X016034Y002013D02*
X023492Y002013D01*
X023492Y001855D02*
X016007Y001855D01*
X015904Y001696D02*
X023492Y001696D01*
X023492Y001538D02*
X000458Y001538D01*
X000458Y001379D02*
X023492Y001379D01*
X023492Y001221D02*
X000458Y001221D01*
X012878Y012316D02*
X015936Y012316D01*
X016280Y012316D02*
X023492Y012316D01*
X023492Y012474D02*
X012841Y012474D01*
X016356Y011999D02*
X023492Y011999D01*
X023492Y012157D02*
X016378Y012157D01*
X018078Y015010D02*
X018097Y015010D01*
X019670Y015486D02*
X019820Y015486D01*
X019775Y015644D02*
X020038Y015644D01*
X020123Y015803D02*
X019760Y015803D01*
X018032Y016437D02*
X011100Y016437D01*
X011240Y016595D02*
X023492Y016595D01*
X023492Y016754D02*
X011245Y016754D01*
X011130Y016912D02*
X023492Y016912D01*
X021063Y018497D02*
X014856Y018497D01*
X014878Y018656D02*
X020876Y018656D01*
X023492Y020241D02*
X017593Y020241D01*
X017628Y020399D02*
X023492Y020399D01*
X023492Y020558D02*
X017563Y020558D01*
X017526Y020716D02*
X018731Y020716D01*
X018986Y020716D02*
X019016Y020716D01*
X019351Y020716D02*
X023492Y020716D01*
X017153Y020558D02*
X012188Y020558D01*
X012278Y020399D02*
X017088Y020399D01*
X017124Y020241D02*
X012253Y020241D01*
X012005Y020716D02*
X017091Y020716D01*
X016552Y019607D02*
X014764Y019607D01*
X015048Y019448D02*
X015088Y019448D01*
X015328Y019448D02*
X016463Y019448D01*
X014632Y019131D02*
X014141Y019131D01*
X014203Y019290D02*
X014339Y019290D01*
X014313Y019448D02*
X014166Y019448D01*
X014402Y019607D02*
X012091Y019607D01*
X011931Y019448D02*
X013700Y019448D01*
X016478Y025788D02*
X021206Y025788D01*
X021199Y025792D02*
X021266Y025758D01*
X021337Y025735D01*
X021411Y025723D01*
X021430Y025723D01*
X021430Y026180D01*
X020973Y026180D01*
X020973Y026161D01*
X020984Y026087D01*
X021008Y026016D01*
X021042Y025949D01*
X021086Y025889D01*
X021138Y025836D01*
X021199Y025792D01*
X021043Y025947D02*
X016616Y025947D01*
X016620Y026105D02*
X020982Y026105D01*
X020977Y026264D02*
X016501Y026264D01*
X016215Y026264D02*
X005152Y026264D01*
X005222Y026422D02*
X011835Y026422D01*
X011855Y026402D02*
X011955Y026361D01*
X012062Y026361D01*
X012161Y026402D01*
X012237Y026478D01*
X012278Y026577D01*
X012278Y026684D01*
X012237Y026783D01*
X012161Y026859D01*
X012062Y026901D01*
X011955Y026901D01*
X011855Y026859D01*
X011779Y026783D01*
X011738Y026684D01*
X011738Y026577D01*
X011779Y026478D01*
X011855Y026402D01*
X011738Y026581D02*
X005232Y026581D01*
X005185Y026739D02*
X009411Y026739D01*
X009380Y026752D02*
X009480Y026711D01*
X009587Y026711D01*
X009686Y026752D01*
X009762Y026828D01*
X009803Y026927D01*
X009803Y027034D01*
X009762Y027133D01*
X009686Y027209D01*
X009587Y027251D01*
X009480Y027251D01*
X009380Y027209D01*
X009304Y027133D01*
X009263Y027034D01*
X009263Y026927D01*
X009304Y026828D01*
X009380Y026752D01*
X009275Y026898D02*
X005061Y026898D01*
X004777Y026898D02*
X004740Y026898D01*
X004740Y026739D02*
X004777Y026739D01*
X004777Y026581D02*
X004740Y026581D01*
X004740Y026422D02*
X004777Y026422D01*
X004777Y026264D02*
X004740Y026264D01*
X004971Y026105D02*
X016097Y026105D01*
X015862Y027011D02*
X015961Y027052D01*
X016037Y027128D01*
X016078Y027227D01*
X016078Y027334D01*
X016037Y027433D01*
X015961Y027509D01*
X015862Y027551D01*
X015755Y027551D01*
X015655Y027509D01*
X015579Y027433D01*
X015538Y027334D01*
X015538Y027227D01*
X015579Y027128D01*
X015655Y027052D01*
X015755Y027011D01*
X015862Y027011D01*
X015966Y027056D02*
X021036Y027056D01*
X021013Y027215D02*
X016073Y027215D01*
X016062Y027373D02*
X021049Y027373D01*
X021166Y027532D02*
X015908Y027532D01*
X015709Y027532D02*
X000458Y027532D01*
X000458Y027690D02*
X013769Y027690D01*
X013780Y027686D02*
X013887Y027686D01*
X013986Y027727D01*
X014062Y027803D01*
X014103Y027902D01*
X014103Y028009D01*
X014062Y028108D01*
X013986Y028184D01*
X013887Y028226D01*
X013780Y028226D01*
X013680Y028184D01*
X013604Y028108D01*
X013563Y028009D01*
X013563Y027902D01*
X013604Y027803D01*
X013680Y027727D01*
X013780Y027686D01*
X013898Y027690D02*
X023492Y027690D01*
X023492Y027532D02*
X022730Y027532D01*
X022847Y027373D02*
X023492Y027373D01*
X023492Y027215D02*
X022883Y027215D01*
X022860Y027056D02*
X023492Y027056D01*
X023492Y026898D02*
X022763Y026898D01*
X022662Y026581D02*
X023492Y026581D01*
X023492Y026739D02*
X012256Y026739D01*
X012278Y026581D02*
X021166Y026581D01*
X021029Y026422D02*
X012182Y026422D01*
X012069Y026898D02*
X021133Y026898D01*
X021430Y026581D02*
X021466Y026581D01*
X021466Y026422D02*
X021430Y026422D01*
X021430Y026264D02*
X021466Y026264D01*
X021466Y026105D02*
X021430Y026105D01*
X021430Y025947D02*
X021466Y025947D01*
X021466Y025788D02*
X021430Y025788D01*
X022812Y025947D02*
X023492Y025947D01*
X023492Y026105D02*
X022881Y026105D01*
X022883Y026264D02*
X023492Y026264D01*
X023492Y026422D02*
X022826Y026422D01*
X022714Y027849D02*
X023492Y027849D01*
X023492Y028007D02*
X022840Y028007D01*
X022883Y028166D02*
X023492Y028166D01*
X023492Y028324D02*
X022867Y028324D01*
X022779Y028483D02*
X023492Y028483D01*
X023492Y028641D02*
X019816Y028641D01*
X019805Y028630D02*
X019919Y028744D01*
X019981Y028893D01*
X019981Y029054D01*
X019919Y029203D01*
X019805Y029318D01*
X019685Y029367D01*
X019805Y029417D01*
X019919Y029531D01*
X019981Y029680D01*
X019981Y029842D01*
X019919Y029991D01*
X019805Y030105D01*
X019656Y030167D01*
X019494Y030167D01*
X019345Y030105D01*
X019231Y029991D01*
X019181Y029871D01*
X019132Y029991D01*
X019018Y030105D01*
X018869Y030167D01*
X018707Y030167D01*
X018558Y030105D01*
X018444Y029991D01*
X018416Y029924D01*
X018413Y029932D01*
X018382Y029995D01*
X018340Y030051D01*
X018291Y030101D01*
X018234Y030142D01*
X018172Y030174D01*
X018105Y030196D01*
X018035Y030207D01*
X018009Y030207D01*
X018009Y029770D01*
X017992Y029770D01*
X017992Y030207D01*
X017965Y030207D01*
X017896Y030196D01*
X017829Y030174D01*
X017767Y030142D01*
X017710Y030101D01*
X017660Y030051D01*
X017619Y029995D01*
X017587Y029932D01*
X017566Y029865D01*
X017555Y029796D01*
X017555Y029770D01*
X017992Y029770D01*
X017992Y029752D01*
X017555Y029752D01*
X017555Y029726D01*
X017566Y029657D01*
X017587Y029590D01*
X017619Y029527D01*
X017660Y029471D01*
X017710Y029421D01*
X017767Y029380D01*
X017829Y029348D01*
X017837Y029345D01*
X017771Y029318D01*
X017656Y029203D01*
X017595Y029054D01*
X017595Y028893D01*
X017656Y028744D01*
X017768Y028632D01*
X017738Y028559D01*
X017738Y028452D01*
X017779Y028353D01*
X017855Y028277D01*
X017955Y028236D01*
X018062Y028236D01*
X018161Y028277D01*
X018237Y028353D01*
X018278Y028452D01*
X018278Y028559D01*
X018244Y028643D01*
X018344Y028744D01*
X018394Y028864D01*
X018444Y028744D01*
X018558Y028630D01*
X018707Y028568D01*
X018869Y028568D01*
X019018Y028630D01*
X019132Y028744D01*
X019181Y028864D01*
X019231Y028744D01*
X019345Y028630D01*
X019494Y028568D01*
X019656Y028568D01*
X019805Y028630D01*
X019942Y028800D02*
X021273Y028800D01*
X021076Y028958D02*
X019981Y028958D01*
X019955Y029117D02*
X021013Y029117D01*
X021013Y029275D02*
X019848Y029275D01*
X019822Y029434D02*
X021074Y029434D01*
X021261Y029592D02*
X019944Y029592D01*
X019981Y029751D02*
X023492Y029751D01*
X023492Y029909D02*
X022774Y029909D01*
X022865Y030068D02*
X023492Y030068D01*
X023492Y030226D02*
X022883Y030226D01*
X022842Y030385D02*
X023492Y030385D01*
X023492Y030543D02*
X022719Y030543D01*
X022635Y029592D02*
X023492Y029592D01*
X023492Y029434D02*
X022822Y029434D01*
X022883Y029275D02*
X023492Y029275D01*
X023492Y029117D02*
X022883Y029117D01*
X022820Y028958D02*
X023492Y028958D01*
X023492Y028800D02*
X022623Y028800D01*
X021117Y028483D02*
X018278Y028483D01*
X018244Y028641D02*
X018547Y028641D01*
X018421Y028800D02*
X018367Y028800D01*
X018209Y028324D02*
X021029Y028324D01*
X021013Y028166D02*
X014005Y028166D01*
X014103Y028007D02*
X021056Y028007D01*
X021182Y027849D02*
X014081Y027849D01*
X013585Y027849D02*
X000458Y027849D01*
X000458Y028007D02*
X011250Y028007D01*
X011280Y027977D02*
X011380Y027936D01*
X011487Y027936D01*
X011586Y027977D01*
X011662Y028053D01*
X011703Y028152D01*
X011703Y028259D01*
X011662Y028358D01*
X011586Y028434D01*
X011487Y028476D01*
X011380Y028476D01*
X011280Y028434D01*
X011204Y028358D01*
X011163Y028259D01*
X011163Y028152D01*
X011204Y028053D01*
X011280Y027977D01*
X011163Y028166D02*
X000458Y028166D01*
X000458Y028324D02*
X011190Y028324D01*
X011676Y028324D02*
X017808Y028324D01*
X017738Y028483D02*
X000458Y028483D01*
X000458Y028641D02*
X017759Y028641D01*
X017633Y028800D02*
X000458Y028800D01*
X000458Y028958D02*
X005874Y028958D01*
X005880Y028952D02*
X005980Y028911D01*
X006087Y028911D01*
X006186Y028952D01*
X006262Y029028D01*
X006283Y029079D01*
X006304Y029028D01*
X006380Y028952D01*
X006480Y028911D01*
X006587Y028911D01*
X006686Y028952D01*
X006762Y029028D01*
X006783Y029079D01*
X006804Y029028D01*
X006880Y028952D01*
X006980Y028911D01*
X007087Y028911D01*
X007186Y028952D01*
X007262Y029028D01*
X007303Y029127D01*
X007303Y029234D01*
X007262Y029333D01*
X007186Y029409D01*
X007087Y029451D01*
X006980Y029451D01*
X006880Y029409D01*
X006804Y029333D01*
X006783Y029282D01*
X006762Y029333D01*
X006686Y029409D01*
X006587Y029451D01*
X006480Y029451D01*
X006380Y029409D01*
X006304Y029333D01*
X006283Y029282D01*
X006262Y029333D01*
X006186Y029409D01*
X006087Y029451D01*
X005980Y029451D01*
X005880Y029409D01*
X005804Y029333D01*
X005763Y029234D01*
X005763Y029127D01*
X005804Y029028D01*
X005880Y028952D01*
X005768Y029117D02*
X000458Y029117D01*
X000458Y029275D02*
X005780Y029275D01*
X005939Y029434D02*
X000458Y029434D01*
X000458Y029592D02*
X017587Y029592D01*
X017555Y029751D02*
X000458Y029751D01*
X000458Y029909D02*
X002573Y029909D01*
X002554Y029928D02*
X002630Y029852D01*
X002730Y029811D01*
X002837Y029811D01*
X002936Y029852D01*
X003012Y029928D01*
X003053Y030027D01*
X003053Y030134D01*
X003012Y030233D01*
X002936Y030309D01*
X002837Y030351D01*
X002730Y030351D01*
X002630Y030309D01*
X002554Y030233D01*
X002513Y030134D01*
X002513Y030027D01*
X002554Y029928D01*
X002513Y030068D02*
X000458Y030068D01*
X000458Y030226D02*
X002551Y030226D01*
X003015Y030226D02*
X021013Y030226D01*
X021031Y030068D02*
X019842Y030068D01*
X019953Y029909D02*
X021122Y029909D01*
X021054Y030385D02*
X000458Y030385D01*
X000458Y030543D02*
X021177Y030543D01*
X021171Y030860D02*
X018453Y030860D01*
X018402Y031019D02*
X021051Y031019D01*
X021128Y031494D02*
X013579Y031494D01*
X014170Y032445D02*
X021079Y032445D01*
X021289Y032604D02*
X014294Y032604D01*
X013059Y033555D02*
X023492Y033555D01*
X023492Y033713D02*
X013077Y033713D01*
X012974Y033872D02*
X023492Y033872D01*
X023003Y035457D02*
X017041Y035457D01*
X017148Y035615D02*
X022963Y035615D01*
X023019Y035774D02*
X017137Y035774D01*
X016630Y035774D02*
X000458Y035774D01*
X000458Y035615D02*
X016618Y035615D01*
X016725Y035457D02*
X000458Y035457D01*
X000458Y035298D02*
X015369Y035298D01*
X015313Y035140D02*
X000458Y035140D01*
X000458Y031811D02*
X006645Y031811D01*
X006613Y031653D02*
X000458Y031653D01*
X003053Y030068D02*
X017677Y030068D01*
X017580Y029909D02*
X002994Y029909D01*
X006128Y029434D02*
X006439Y029434D01*
X006628Y029434D02*
X006939Y029434D01*
X007128Y029434D02*
X008939Y029434D01*
X008980Y029451D02*
X008880Y029409D01*
X008804Y029333D01*
X008763Y029234D01*
X008763Y029127D01*
X008804Y029028D01*
X008880Y028952D01*
X008980Y028911D01*
X009087Y028911D01*
X009186Y028952D01*
X009262Y029028D01*
X009303Y029127D01*
X009303Y029234D01*
X009262Y029333D01*
X009186Y029409D01*
X009087Y029451D01*
X008980Y029451D01*
X009128Y029434D02*
X017697Y029434D01*
X017728Y029275D02*
X009286Y029275D01*
X009299Y029117D02*
X017620Y029117D01*
X017595Y028958D02*
X009193Y028958D01*
X008874Y028958D02*
X007193Y028958D01*
X007299Y029117D02*
X008768Y029117D01*
X008780Y029275D02*
X007286Y029275D01*
X006874Y028958D02*
X006693Y028958D01*
X006374Y028958D02*
X006193Y028958D01*
X009272Y027056D02*
X000458Y027056D01*
X000458Y026898D02*
X004455Y026898D01*
X004331Y026739D02*
X000458Y026739D01*
X000458Y026581D02*
X004285Y026581D01*
X004294Y026422D02*
X000458Y026422D01*
X000458Y026264D02*
X001976Y026264D01*
X001859Y026105D02*
X000458Y026105D01*
X000458Y025947D02*
X001823Y025947D01*
X001846Y025788D02*
X000458Y025788D01*
X000458Y025630D02*
X001944Y025630D01*
X000458Y027215D02*
X009393Y027215D01*
X009674Y027215D02*
X015543Y027215D01*
X015554Y027373D02*
X000458Y027373D01*
X009656Y026739D02*
X011761Y026739D01*
X011947Y026898D02*
X009791Y026898D01*
X009794Y027056D02*
X015651Y027056D01*
X013661Y028166D02*
X011703Y028166D01*
X011617Y028007D02*
X013563Y028007D01*
X017992Y029909D02*
X018009Y029909D01*
X017992Y030068D02*
X018009Y030068D01*
X018324Y030068D02*
X018521Y030068D01*
X019055Y030068D02*
X019308Y030068D01*
X019197Y029909D02*
X019166Y029909D01*
X019155Y028800D02*
X019208Y028800D01*
X019334Y028641D02*
X019029Y028641D01*
X023492Y038944D02*
X003317Y038944D01*
X003443Y039102D02*
X023492Y039102D01*
X023492Y039261D02*
X003442Y039261D01*
X003313Y039419D02*
X023492Y039419D01*
X023492Y041163D02*
X018303Y041163D01*
X018225Y041321D02*
X023492Y041321D01*
X023492Y010889D02*
X020506Y010889D01*
X020528Y010731D02*
X023492Y010731D01*
X023492Y007719D02*
X021777Y007719D01*
X021761Y007734D02*
X021662Y007776D01*
X021555Y007776D01*
X021455Y007734D01*
X021379Y007658D01*
X021338Y007559D01*
X021338Y007452D01*
X021379Y007353D01*
X021455Y007277D01*
X021555Y007236D01*
X021662Y007236D01*
X021761Y007277D01*
X021837Y007353D01*
X021878Y007452D01*
X021878Y007559D01*
X021837Y007658D01*
X021761Y007734D01*
X021878Y007561D02*
X023492Y007561D01*
X023492Y007402D02*
X021858Y007402D01*
X021681Y007244D02*
X023492Y007244D01*
X023492Y006451D02*
X020812Y006451D01*
X020876Y006425D02*
X020705Y006495D01*
X020521Y006495D01*
X020350Y006425D01*
X020219Y006294D01*
X020148Y006123D01*
X020148Y005938D01*
X020219Y005767D01*
X020327Y005659D01*
X020284Y005628D01*
X020228Y005572D01*
X020181Y005508D01*
X020145Y005437D01*
X020121Y005361D01*
X020108Y005283D01*
X020108Y005271D01*
X020585Y005271D01*
X020585Y005215D01*
X020641Y005215D01*
X020641Y004738D01*
X020653Y004738D01*
X020731Y004751D01*
X020807Y004775D01*
X020878Y004811D01*
X020942Y004858D01*
X020998Y004914D01*
X021045Y004979D01*
X021081Y005049D01*
X021105Y005125D01*
X021118Y005203D01*
X021118Y005215D01*
X020641Y005215D01*
X020641Y005271D01*
X021118Y005271D01*
X021118Y005283D01*
X021105Y005361D01*
X021081Y005437D01*
X021045Y005508D01*
X020998Y005572D01*
X020942Y005628D01*
X020899Y005659D01*
X021007Y005767D01*
X021078Y005938D01*
X021078Y006123D01*
X021007Y006294D01*
X020876Y006425D01*
X021008Y006293D02*
X023492Y006293D01*
X023492Y006134D02*
X021073Y006134D01*
X021078Y005976D02*
X023492Y005976D01*
X023492Y005817D02*
X021028Y005817D01*
X020900Y005659D02*
X023492Y005659D01*
X023492Y005500D02*
X021049Y005500D01*
X021109Y005342D02*
X023492Y005342D01*
X023492Y005183D02*
X021115Y005183D01*
X021068Y005025D02*
X023492Y005025D01*
X023492Y004866D02*
X022949Y004866D01*
X022951Y004865D02*
X022653Y004989D01*
X022329Y004989D01*
X022031Y004865D01*
X021802Y004636D01*
X021679Y004338D01*
X021679Y004015D01*
X021802Y003716D01*
X022031Y003487D01*
X022329Y003364D01*
X022653Y003364D01*
X022951Y003487D01*
X023180Y003716D01*
X023303Y004015D01*
X023303Y004338D01*
X023180Y004636D01*
X022951Y004865D01*
X023109Y004708D02*
X023492Y004708D01*
X023492Y004549D02*
X023216Y004549D01*
X023282Y004391D02*
X023492Y004391D01*
X023492Y004232D02*
X023303Y004232D01*
X023303Y004074D02*
X023492Y004074D01*
X023492Y003915D02*
X023262Y003915D01*
X023196Y003757D02*
X023492Y003757D01*
X023492Y003598D02*
X023062Y003598D01*
X022835Y003440D02*
X023492Y003440D01*
X022146Y003440D02*
X018095Y003440D01*
X018322Y003598D02*
X021920Y003598D01*
X021785Y003757D02*
X018456Y003757D01*
X018522Y003915D02*
X021720Y003915D01*
X021679Y004074D02*
X018563Y004074D01*
X018563Y004232D02*
X021679Y004232D01*
X021700Y004391D02*
X018541Y004391D01*
X018476Y004549D02*
X021766Y004549D01*
X021873Y004708D02*
X018368Y004708D01*
X018208Y004866D02*
X019349Y004866D01*
X019909Y004866D02*
X020276Y004866D01*
X020284Y004858D02*
X020348Y004811D01*
X020419Y004775D01*
X020495Y004751D01*
X020573Y004738D01*
X020585Y004738D01*
X020585Y005215D01*
X020108Y005215D01*
X020108Y005203D01*
X020121Y005125D01*
X020145Y005049D01*
X020181Y004979D01*
X020228Y004914D01*
X020284Y004858D01*
X020158Y005025D02*
X020041Y005025D01*
X020094Y005183D02*
X020111Y005183D01*
X020117Y005342D02*
X020091Y005342D01*
X020025Y005500D02*
X020177Y005500D01*
X020326Y005659D02*
X019914Y005659D01*
X020043Y005817D02*
X020198Y005817D01*
X020148Y005976D02*
X020094Y005976D01*
X020089Y006134D02*
X020153Y006134D01*
X020218Y006293D02*
X020023Y006293D01*
X019828Y006451D02*
X020414Y006451D01*
X021359Y007402D02*
X018793Y007402D01*
X018792Y007561D02*
X021339Y007561D01*
X021440Y007719D02*
X018663Y007719D01*
X018667Y007244D02*
X021535Y007244D01*
X020641Y005183D02*
X020585Y005183D01*
X020585Y005025D02*
X020641Y005025D01*
X020641Y004866D02*
X020585Y004866D01*
X020950Y004866D02*
X022033Y004866D01*
M02*
