G75*
G70*
%OFA0B0*%
%FSLAX24Y24*%
%IPPOS*%
%LPD*%
%AMOC8*
5,1,8,0,0,1.08239X$1,22.5*
%
%ADD10C,0.0000*%
%ADD11C,0.0040*%
%ADD12C,0.0050*%
%ADD13C,0.0080*%
%ADD14C,0.0348*%
D10*
X000100Y000837D02*
X000100Y045719D01*
X023722Y045719D01*
X023722Y000837D01*
X000100Y000837D01*
X021950Y015010D02*
X021952Y015058D01*
X021958Y015106D01*
X021968Y015153D01*
X021981Y015199D01*
X021999Y015244D01*
X022019Y015288D01*
X022044Y015330D01*
X022072Y015369D01*
X022102Y015406D01*
X022136Y015440D01*
X022173Y015472D01*
X022211Y015501D01*
X022252Y015526D01*
X022295Y015548D01*
X022340Y015566D01*
X022386Y015580D01*
X022433Y015591D01*
X022481Y015598D01*
X022529Y015601D01*
X022577Y015600D01*
X022625Y015595D01*
X022673Y015586D01*
X022719Y015574D01*
X022764Y015557D01*
X022808Y015537D01*
X022850Y015514D01*
X022890Y015487D01*
X022928Y015457D01*
X022963Y015424D01*
X022995Y015388D01*
X023025Y015350D01*
X023051Y015309D01*
X023073Y015266D01*
X023093Y015222D01*
X023108Y015177D01*
X023120Y015130D01*
X023128Y015082D01*
X023132Y015034D01*
X023132Y014986D01*
X023128Y014938D01*
X023120Y014890D01*
X023108Y014843D01*
X023093Y014798D01*
X023073Y014754D01*
X023051Y014711D01*
X023025Y014670D01*
X022995Y014632D01*
X022963Y014596D01*
X022928Y014563D01*
X022890Y014533D01*
X022850Y014506D01*
X022808Y014483D01*
X022764Y014463D01*
X022719Y014446D01*
X022673Y014434D01*
X022625Y014425D01*
X022577Y014420D01*
X022529Y014419D01*
X022481Y014422D01*
X022433Y014429D01*
X022386Y014440D01*
X022340Y014454D01*
X022295Y014472D01*
X022252Y014494D01*
X022211Y014519D01*
X022173Y014548D01*
X022136Y014580D01*
X022102Y014614D01*
X022072Y014651D01*
X022044Y014690D01*
X022019Y014732D01*
X021999Y014776D01*
X021981Y014821D01*
X021968Y014867D01*
X021958Y014914D01*
X021952Y014962D01*
X021950Y015010D01*
X000690Y044538D02*
X000692Y044586D01*
X000698Y044634D01*
X000708Y044681D01*
X000721Y044727D01*
X000739Y044772D01*
X000759Y044816D01*
X000784Y044858D01*
X000812Y044897D01*
X000842Y044934D01*
X000876Y044968D01*
X000913Y045000D01*
X000951Y045029D01*
X000992Y045054D01*
X001035Y045076D01*
X001080Y045094D01*
X001126Y045108D01*
X001173Y045119D01*
X001221Y045126D01*
X001269Y045129D01*
X001317Y045128D01*
X001365Y045123D01*
X001413Y045114D01*
X001459Y045102D01*
X001504Y045085D01*
X001548Y045065D01*
X001590Y045042D01*
X001630Y045015D01*
X001668Y044985D01*
X001703Y044952D01*
X001735Y044916D01*
X001765Y044878D01*
X001791Y044837D01*
X001813Y044794D01*
X001833Y044750D01*
X001848Y044705D01*
X001860Y044658D01*
X001868Y044610D01*
X001872Y044562D01*
X001872Y044514D01*
X001868Y044466D01*
X001860Y044418D01*
X001848Y044371D01*
X001833Y044326D01*
X001813Y044282D01*
X001791Y044239D01*
X001765Y044198D01*
X001735Y044160D01*
X001703Y044124D01*
X001668Y044091D01*
X001630Y044061D01*
X001590Y044034D01*
X001548Y044011D01*
X001504Y043991D01*
X001459Y043974D01*
X001413Y043962D01*
X001365Y043953D01*
X001317Y043948D01*
X001269Y043947D01*
X001221Y043950D01*
X001173Y043957D01*
X001126Y043968D01*
X001080Y043982D01*
X001035Y044000D01*
X000992Y044022D01*
X000951Y044047D01*
X000913Y044076D01*
X000876Y044108D01*
X000842Y044142D01*
X000812Y044179D01*
X000784Y044218D01*
X000759Y044260D01*
X000739Y044304D01*
X000721Y044349D01*
X000708Y044395D01*
X000698Y044442D01*
X000692Y044490D01*
X000690Y044538D01*
D11*
X008378Y044452D02*
X008455Y044376D01*
X008608Y044376D01*
X008685Y044452D01*
X008685Y044836D01*
X008839Y044759D02*
X008839Y044452D01*
X008915Y044376D01*
X009069Y044376D01*
X009146Y044452D01*
X009146Y044759D02*
X009069Y044836D01*
X008915Y044836D01*
X008839Y044759D01*
X008378Y044836D02*
X008378Y044452D01*
X009759Y044376D02*
X009990Y044376D01*
X010066Y044452D01*
X010066Y044529D01*
X009990Y044606D01*
X009759Y044606D01*
X009759Y044836D02*
X009990Y044836D01*
X010066Y044759D01*
X010066Y044682D01*
X009990Y044606D01*
X010220Y044606D02*
X010373Y044606D01*
X010527Y044836D02*
X010220Y044836D01*
X010220Y044376D01*
X010527Y044376D01*
X010680Y044376D02*
X010680Y044836D01*
X010910Y044836D01*
X010987Y044759D01*
X010987Y044606D01*
X010910Y044529D01*
X010680Y044529D01*
X010834Y044529D02*
X010987Y044376D01*
X011141Y044376D02*
X011141Y044836D01*
X011217Y044606D02*
X011448Y044376D01*
X011601Y044376D02*
X011908Y044376D01*
X012061Y044376D02*
X012368Y044376D01*
X012522Y044376D02*
X012522Y044836D01*
X012829Y044836D01*
X012982Y044836D02*
X012982Y044759D01*
X013136Y044606D01*
X013136Y044376D01*
X013136Y044606D02*
X013289Y044759D01*
X013289Y044836D01*
X012829Y044376D02*
X012522Y044376D01*
X012522Y044606D02*
X012675Y044606D01*
X012061Y044836D02*
X012061Y044376D01*
X011754Y044606D02*
X011601Y044606D01*
X011601Y044836D02*
X011601Y044376D01*
X011601Y044836D02*
X011908Y044836D01*
X011448Y044836D02*
X011141Y044529D01*
X009759Y044376D02*
X009759Y044836D01*
X014602Y034587D02*
X014678Y034587D01*
X014985Y034280D01*
X015062Y034280D01*
X014985Y034126D02*
X015062Y034049D01*
X015062Y033896D01*
X014985Y033819D01*
X014678Y033819D01*
X014602Y033896D01*
X014602Y034049D01*
X014678Y034126D01*
X014602Y034280D02*
X014602Y034587D01*
X017914Y031719D02*
X017914Y031489D01*
X018374Y031489D01*
X018374Y031719D01*
X018297Y031796D01*
X017990Y031796D01*
X017914Y031719D01*
X017914Y031336D02*
X018374Y031336D01*
X017914Y031029D01*
X018374Y031029D01*
X018297Y030875D02*
X018144Y030875D01*
X018144Y030722D01*
X018297Y030875D02*
X018374Y030799D01*
X018374Y030645D01*
X018297Y030568D01*
X017990Y030568D01*
X017914Y030645D01*
X017914Y030799D01*
X017990Y030875D01*
X018701Y030799D02*
X018701Y030568D01*
X019161Y030568D01*
X019008Y030568D02*
X019008Y030799D01*
X018931Y030875D01*
X018778Y030875D01*
X018701Y030799D01*
X018701Y031029D02*
X019161Y031336D01*
X019161Y031489D02*
X019161Y031796D01*
X019161Y031643D02*
X018701Y031643D01*
X018855Y031489D01*
X018701Y031336D02*
X019161Y031029D01*
X019161Y030875D02*
X019008Y030722D01*
X019489Y030799D02*
X019565Y030875D01*
X019719Y030875D01*
X019795Y030799D01*
X019795Y030568D01*
X019795Y030722D02*
X019949Y030875D01*
X019872Y031029D02*
X019949Y031106D01*
X019949Y031259D01*
X019872Y031336D01*
X019795Y031336D01*
X019719Y031259D01*
X019719Y031106D01*
X019642Y031029D01*
X019565Y031029D01*
X019489Y031106D01*
X019489Y031259D01*
X019565Y031336D01*
X019489Y031489D02*
X019489Y031796D01*
X019489Y031643D02*
X019949Y031643D01*
X019795Y031950D02*
X019795Y032257D01*
X019642Y032257D02*
X019642Y032180D01*
X019642Y031950D01*
X019489Y032026D02*
X019949Y032026D01*
X019949Y032180D02*
X019489Y032180D01*
X019489Y030799D02*
X019489Y030568D01*
X019949Y030568D01*
X017193Y029291D02*
X017193Y029137D01*
X017116Y029060D01*
X017040Y029060D01*
X016963Y029137D01*
X016963Y029291D01*
X017040Y029367D01*
X017116Y029367D01*
X017193Y029291D01*
X016963Y029291D02*
X016886Y029367D01*
X016809Y029367D01*
X016733Y029291D01*
X016733Y029137D01*
X016809Y029060D01*
X016886Y029060D01*
X016963Y029137D01*
X016733Y028907D02*
X016733Y028753D01*
X016733Y028830D02*
X017116Y028830D01*
X017193Y028753D01*
X017193Y028677D01*
X017116Y028600D01*
X017914Y028176D02*
X017914Y028023D01*
X017990Y027946D01*
X018297Y027946D01*
X018374Y028023D01*
X018374Y028176D01*
X018297Y028253D01*
X017990Y028253D02*
X017914Y028176D01*
X017990Y027792D02*
X017914Y027716D01*
X017914Y027562D01*
X017990Y027486D01*
X018297Y027486D01*
X018374Y027562D01*
X018374Y027716D01*
X018297Y027792D01*
X018701Y027792D02*
X019161Y027486D01*
X019161Y027792D02*
X018701Y027486D01*
X018701Y027332D02*
X018701Y027025D01*
X018701Y027179D02*
X019161Y027179D01*
X019489Y027179D02*
X019949Y027179D01*
X019872Y027486D02*
X019949Y027562D01*
X019949Y027716D01*
X019872Y027792D01*
X019795Y027946D02*
X019489Y028253D01*
X019489Y027946D02*
X019949Y027946D01*
X019719Y028023D02*
X019949Y028253D01*
X019565Y027792D02*
X019489Y027716D01*
X019489Y027562D01*
X019565Y027486D01*
X019872Y027486D01*
X019489Y027332D02*
X019489Y027025D01*
X018374Y027179D02*
X018221Y027332D01*
X017914Y027332D01*
X017914Y027025D02*
X018221Y027025D01*
X018374Y027179D01*
X018855Y027946D02*
X018701Y028099D01*
X019161Y028099D01*
X019161Y027946D02*
X019161Y028253D01*
X015415Y028482D02*
X015339Y028405D01*
X015185Y028405D01*
X015108Y028482D01*
X015108Y028636D02*
X015262Y028712D01*
X015339Y028712D01*
X015415Y028636D01*
X015415Y028482D01*
X015108Y028636D02*
X015108Y028866D01*
X015415Y028866D01*
X014801Y028866D02*
X014801Y028405D01*
X014648Y028405D02*
X014955Y028405D01*
X014648Y028712D02*
X014801Y028866D01*
X014495Y028789D02*
X014495Y028636D01*
X014418Y028559D01*
X014188Y028559D01*
X014341Y028559D02*
X014495Y028405D01*
X014188Y028405D02*
X014188Y028866D01*
X014418Y028866D01*
X014495Y028789D01*
X014379Y027303D02*
X014303Y027226D01*
X014303Y026996D01*
X014763Y026996D01*
X014763Y027226D01*
X014686Y027303D01*
X014379Y027303D01*
X014379Y026843D02*
X014303Y026766D01*
X014303Y026536D01*
X014763Y026536D01*
X014763Y026766D01*
X014686Y026843D01*
X014379Y026843D01*
X014303Y026382D02*
X014610Y026382D01*
X014763Y026229D01*
X014610Y026076D01*
X014303Y026076D01*
X013763Y026152D02*
X013763Y026306D01*
X013686Y026382D01*
X013533Y026382D01*
X013533Y026229D01*
X013686Y026076D02*
X013763Y026152D01*
X013686Y026076D02*
X013379Y026076D01*
X013303Y026152D01*
X013303Y026306D01*
X013379Y026382D01*
X013303Y026536D02*
X013763Y026843D01*
X013303Y026843D01*
X013303Y026996D02*
X013303Y027226D01*
X013379Y027303D01*
X013686Y027303D01*
X013763Y027226D01*
X013763Y026996D01*
X013303Y026996D01*
X013303Y026536D02*
X013763Y026536D01*
X012763Y026613D02*
X012763Y026766D01*
X012686Y026843D01*
X012610Y026996D02*
X012303Y027303D01*
X012303Y026996D02*
X012763Y026996D01*
X012533Y027073D02*
X012763Y027303D01*
X012379Y026843D02*
X012303Y026766D01*
X012303Y026613D01*
X012379Y026536D01*
X012686Y026536D01*
X012763Y026613D01*
X012763Y026229D02*
X012303Y026229D01*
X012303Y026076D02*
X012303Y026382D01*
X011763Y026229D02*
X011303Y026229D01*
X011303Y026076D02*
X011303Y026382D01*
X011303Y026536D02*
X011303Y026766D01*
X011379Y026843D01*
X011686Y026843D01*
X011763Y026766D01*
X011763Y026536D01*
X011303Y026536D01*
X011379Y026996D02*
X011686Y026996D01*
X011763Y027073D01*
X011763Y027226D01*
X011686Y027303D01*
X011379Y027303D01*
X011303Y027226D01*
X011303Y027073D01*
X011379Y026996D01*
X010763Y026996D02*
X010763Y027150D01*
X010763Y027073D02*
X010303Y027073D01*
X010303Y026996D02*
X010303Y027150D01*
X010379Y026843D02*
X010303Y026766D01*
X010303Y026536D01*
X010763Y026536D01*
X010763Y026766D01*
X010686Y026843D01*
X010379Y026843D01*
X010303Y026382D02*
X010303Y026076D01*
X010303Y026229D02*
X010763Y026229D01*
X009763Y026229D02*
X009303Y026229D01*
X009303Y026076D02*
X009303Y026382D01*
X009303Y026536D02*
X009456Y026689D01*
X009303Y026843D01*
X009763Y026843D01*
X009686Y026996D02*
X009763Y027073D01*
X009763Y027226D01*
X009686Y027303D01*
X009610Y027303D01*
X009533Y027226D01*
X009533Y027073D01*
X009456Y026996D01*
X009379Y026996D01*
X009303Y027073D01*
X009303Y027226D01*
X009379Y027303D01*
X009303Y026536D02*
X009763Y026536D01*
X008526Y025046D02*
X008372Y025046D01*
X008296Y024969D01*
X008142Y024969D02*
X008065Y025046D01*
X007835Y025046D01*
X007835Y024585D01*
X008065Y024585D01*
X008142Y024662D01*
X008142Y024969D01*
X008526Y025046D02*
X008602Y024969D01*
X008602Y024892D01*
X008296Y024585D01*
X008602Y024585D01*
X007552Y024660D02*
X007476Y024583D01*
X007322Y024583D01*
X007246Y024660D01*
X007092Y024660D02*
X007092Y024967D01*
X007015Y025044D01*
X006785Y025044D01*
X006785Y024583D01*
X007015Y024583D01*
X007092Y024660D01*
X007246Y024967D02*
X007322Y025044D01*
X007476Y025044D01*
X007552Y024967D01*
X007552Y024890D01*
X007476Y024813D01*
X007552Y024737D01*
X007552Y024660D01*
X007476Y024813D02*
X007399Y024813D01*
X006542Y024588D02*
X006236Y024588D01*
X006389Y024588D02*
X006389Y025048D01*
X006236Y024895D01*
X006082Y024972D02*
X006005Y025048D01*
X005775Y025048D01*
X005775Y024588D01*
X006005Y024588D01*
X006082Y024665D01*
X006082Y024972D01*
X005299Y027107D02*
X005145Y027107D01*
X005069Y027183D01*
X005069Y027337D02*
X005222Y027414D01*
X005299Y027414D01*
X005376Y027337D01*
X005376Y027183D01*
X005299Y027107D01*
X005069Y027337D02*
X005069Y027567D01*
X005376Y027567D01*
X005235Y027833D02*
X005235Y028063D01*
X005312Y028140D01*
X005466Y028140D01*
X005542Y028063D01*
X005542Y027833D01*
X005542Y027987D02*
X005696Y028140D01*
X005696Y028294D02*
X005696Y028601D01*
X005696Y028447D02*
X005235Y028447D01*
X005389Y028294D01*
X005466Y028754D02*
X005466Y028984D01*
X005542Y029061D01*
X005619Y029061D01*
X005696Y028984D01*
X005696Y028831D01*
X005619Y028754D01*
X005466Y028754D01*
X005312Y028907D01*
X005235Y029061D01*
X006536Y029204D02*
X006536Y028743D01*
X006536Y028897D02*
X006766Y028897D01*
X006843Y028973D01*
X006843Y029127D01*
X006766Y029204D01*
X006536Y029204D01*
X006689Y028897D02*
X006843Y028743D01*
X006996Y028743D02*
X007303Y028743D01*
X007150Y028743D02*
X007150Y029204D01*
X006996Y029050D01*
X007457Y029050D02*
X007457Y029127D01*
X007533Y029204D01*
X007687Y029204D01*
X007764Y029127D01*
X007764Y029050D01*
X007687Y028973D01*
X007533Y028973D01*
X007457Y029050D01*
X007533Y028973D02*
X007457Y028897D01*
X007457Y028820D01*
X007533Y028743D01*
X007687Y028743D01*
X007764Y028820D01*
X007764Y028897D01*
X007687Y028973D01*
X008236Y028884D02*
X008466Y028884D01*
X008543Y028961D01*
X008543Y029114D01*
X008466Y029191D01*
X008236Y029191D01*
X008236Y028730D01*
X008389Y028884D02*
X008543Y028730D01*
X008696Y028730D02*
X009003Y028730D01*
X008850Y028730D02*
X008850Y029191D01*
X008696Y029037D01*
X009157Y029191D02*
X009464Y029191D01*
X009464Y029114D01*
X009157Y028807D01*
X009157Y028730D01*
X011078Y028559D02*
X011078Y028252D01*
X011155Y028176D01*
X011308Y028176D01*
X011385Y028252D01*
X011539Y028252D02*
X011615Y028176D01*
X011769Y028176D01*
X011846Y028252D01*
X011846Y028329D01*
X011769Y028406D01*
X011539Y028406D01*
X011539Y028252D01*
X011539Y028406D02*
X011692Y028559D01*
X011846Y028636D01*
X011385Y028559D02*
X011308Y028636D01*
X011155Y028636D01*
X011078Y028559D01*
X005696Y027833D02*
X005235Y027833D01*
X004915Y027567D02*
X004762Y027567D01*
X004838Y027567D02*
X004838Y027183D01*
X004762Y027107D01*
X004685Y027107D01*
X004608Y027183D01*
X003766Y028280D02*
X003460Y028280D01*
X003613Y028280D02*
X003613Y028740D01*
X003460Y028587D01*
X003306Y028664D02*
X003229Y028740D01*
X003076Y028740D01*
X002999Y028664D01*
X002999Y028357D01*
X003076Y028280D01*
X003229Y028280D01*
X003306Y028357D01*
X002370Y028267D02*
X002063Y028267D01*
X002370Y028574D01*
X002370Y028651D01*
X002293Y028728D01*
X002140Y028728D01*
X002063Y028651D01*
X001909Y028651D02*
X001833Y028728D01*
X001679Y028728D01*
X001603Y028651D01*
X001603Y028344D01*
X001679Y028267D01*
X001833Y028267D01*
X001909Y028344D01*
X004568Y022761D02*
X004722Y022761D01*
X004645Y022761D02*
X004645Y022377D01*
X004568Y022300D01*
X004492Y022300D01*
X004415Y022377D01*
X004875Y022531D02*
X005182Y022531D01*
X005105Y022761D02*
X005105Y022300D01*
X004875Y022531D02*
X005105Y022761D01*
X004736Y021686D02*
X004736Y021225D01*
X004583Y021225D02*
X004890Y021225D01*
X004583Y021532D02*
X004736Y021686D01*
X004429Y021609D02*
X004429Y021456D01*
X004353Y021379D01*
X004122Y021379D01*
X004122Y021225D02*
X004122Y021686D01*
X004353Y021686D01*
X004429Y021609D01*
X004276Y021379D02*
X004429Y021225D01*
X004383Y020511D02*
X004460Y020434D01*
X004460Y020281D01*
X004383Y020204D01*
X004153Y020204D01*
X004153Y020051D02*
X004153Y020511D01*
X004383Y020511D01*
X004614Y020434D02*
X004690Y020511D01*
X004844Y020511D01*
X004921Y020434D01*
X004921Y020358D01*
X004614Y020051D01*
X004921Y020051D01*
X004460Y020051D02*
X004307Y020204D01*
X001642Y019676D02*
X001642Y019599D01*
X001565Y019523D01*
X001642Y019446D01*
X001642Y019369D01*
X001565Y019292D01*
X001411Y019292D01*
X001335Y019369D01*
X001488Y019523D02*
X001565Y019523D01*
X001642Y019676D02*
X001565Y019753D01*
X001411Y019753D01*
X001335Y019676D01*
X001181Y019753D02*
X001028Y019753D01*
X001105Y019753D02*
X001105Y019369D01*
X001028Y019292D01*
X000951Y019292D01*
X000874Y019369D01*
X001255Y018591D02*
X001178Y018514D01*
X001178Y018361D01*
X001255Y018284D01*
X001331Y018284D01*
X001408Y018361D01*
X001408Y018514D01*
X001485Y018591D01*
X001562Y018591D01*
X001638Y018514D01*
X001638Y018361D01*
X001562Y018284D01*
X001638Y018130D02*
X001178Y018130D01*
X001331Y017977D01*
X001178Y017824D01*
X001638Y017824D01*
X001638Y017517D02*
X001178Y017517D01*
X001178Y017670D02*
X001178Y017363D01*
X002178Y017363D02*
X002178Y017670D01*
X002178Y017517D02*
X002638Y017517D01*
X002638Y017824D02*
X002638Y018054D01*
X002562Y018130D01*
X002255Y018130D01*
X002178Y018054D01*
X002178Y017824D01*
X002638Y017824D01*
X002638Y018284D02*
X002638Y018437D01*
X002638Y018361D02*
X002178Y018361D01*
X002178Y018437D02*
X002178Y018284D01*
X003178Y018361D02*
X003255Y018284D01*
X003562Y018284D01*
X003638Y018361D01*
X003638Y018514D01*
X003562Y018591D01*
X003255Y018591D01*
X003178Y018514D01*
X003178Y018361D01*
X003255Y018130D02*
X003178Y018054D01*
X003178Y017824D01*
X003638Y017824D01*
X003638Y018054D01*
X003562Y018130D01*
X003255Y018130D01*
X003178Y017670D02*
X003178Y017363D01*
X003178Y017517D02*
X003638Y017517D01*
X004178Y017517D02*
X004638Y017517D01*
X004562Y017824D02*
X004638Y017900D01*
X004638Y018054D01*
X004562Y018130D01*
X004638Y018284D02*
X004178Y018284D01*
X004255Y018130D02*
X004178Y018054D01*
X004178Y017900D01*
X004255Y017824D01*
X004562Y017824D01*
X004178Y017670D02*
X004178Y017363D01*
X004485Y018284D02*
X004178Y018591D01*
X004408Y018361D02*
X004638Y018591D01*
X005178Y018514D02*
X005178Y018284D01*
X005638Y018284D01*
X005638Y018514D01*
X005562Y018591D01*
X005255Y018591D01*
X005178Y018514D01*
X005178Y018130D02*
X005638Y018130D01*
X005178Y017824D01*
X005638Y017824D01*
X005562Y017670D02*
X005408Y017670D01*
X005408Y017517D01*
X005255Y017670D02*
X005178Y017593D01*
X005178Y017440D01*
X005255Y017363D01*
X005562Y017363D01*
X005638Y017440D01*
X005638Y017593D01*
X005562Y017670D01*
X006178Y017670D02*
X006485Y017670D01*
X006638Y017517D01*
X006485Y017363D01*
X006178Y017363D01*
X006178Y017824D02*
X006178Y018054D01*
X006255Y018130D01*
X006562Y018130D01*
X006638Y018054D01*
X006638Y017824D01*
X006178Y017824D01*
X006178Y018284D02*
X006178Y018514D01*
X006255Y018591D01*
X006562Y018591D01*
X006638Y018514D01*
X006638Y018284D01*
X006178Y018284D01*
X007753Y017497D02*
X007753Y017190D01*
X007830Y017113D01*
X007983Y017113D01*
X008060Y017190D01*
X008214Y017113D02*
X008521Y017113D01*
X008367Y017113D02*
X008367Y017574D01*
X008214Y017420D01*
X008060Y017497D02*
X007983Y017574D01*
X007830Y017574D01*
X007753Y017497D01*
X008674Y017497D02*
X008674Y017190D01*
X008981Y017497D01*
X008981Y017190D01*
X008904Y017113D01*
X008751Y017113D01*
X008674Y017190D01*
X008674Y017497D02*
X008751Y017574D01*
X008904Y017574D01*
X008981Y017497D01*
X009542Y016119D02*
X009772Y016119D01*
X009849Y016042D01*
X009849Y015888D01*
X009772Y015812D01*
X009542Y015812D01*
X009696Y015812D02*
X009849Y015658D01*
X010002Y015658D02*
X010309Y015965D01*
X010309Y016042D01*
X010233Y016119D01*
X010079Y016119D01*
X010002Y016042D01*
X010002Y015658D02*
X010309Y015658D01*
X010463Y015735D02*
X010540Y015658D01*
X010693Y015658D01*
X010770Y015735D01*
X010770Y015812D01*
X010693Y015888D01*
X010616Y015888D01*
X010693Y015888D02*
X010770Y015965D01*
X010770Y016042D01*
X010693Y016119D01*
X010540Y016119D01*
X010463Y016042D01*
X009542Y016119D02*
X009542Y015658D01*
X011928Y017276D02*
X012082Y017276D01*
X012005Y017276D02*
X012005Y017736D01*
X011928Y017736D02*
X012082Y017736D01*
X012235Y017659D02*
X012235Y017352D01*
X012312Y017276D01*
X012465Y017276D01*
X012542Y017352D01*
X012696Y017352D02*
X012772Y017276D01*
X012926Y017276D01*
X013003Y017352D01*
X013003Y017429D01*
X012926Y017506D01*
X012772Y017506D01*
X012696Y017582D01*
X012696Y017659D01*
X012772Y017736D01*
X012926Y017736D01*
X013003Y017659D01*
X013156Y017736D02*
X013156Y017276D01*
X013156Y017429D02*
X013386Y017429D01*
X013463Y017506D01*
X013463Y017659D01*
X013386Y017736D01*
X013156Y017736D01*
X012542Y017659D02*
X012465Y017736D01*
X012312Y017736D01*
X012235Y017659D01*
X014578Y016684D02*
X014578Y016377D01*
X014655Y016301D01*
X014808Y016301D01*
X014885Y016377D01*
X015039Y016377D02*
X015115Y016301D01*
X015269Y016301D01*
X015346Y016377D01*
X015346Y016531D01*
X015269Y016607D01*
X015192Y016607D01*
X015039Y016531D01*
X015039Y016761D01*
X015346Y016761D01*
X014885Y016684D02*
X014808Y016761D01*
X014655Y016761D01*
X014578Y016684D01*
X017578Y015075D02*
X018038Y015075D01*
X018038Y015228D02*
X018038Y014921D01*
X018038Y014768D02*
X018038Y014461D01*
X018038Y014614D02*
X017578Y014614D01*
X017731Y014461D01*
X017655Y014307D02*
X017578Y014231D01*
X017578Y014077D01*
X017655Y014001D01*
X017962Y014001D01*
X018038Y014077D01*
X018038Y014231D01*
X017962Y014307D01*
X017731Y014921D02*
X017578Y015075D01*
X017562Y013466D02*
X017792Y013466D01*
X017869Y013389D01*
X017869Y013236D01*
X017792Y013159D01*
X017562Y013159D01*
X017562Y013006D02*
X017562Y013466D01*
X017716Y013159D02*
X017869Y013006D01*
X018022Y013006D02*
X018329Y013312D01*
X018329Y013389D01*
X018253Y013466D01*
X018099Y013466D01*
X018022Y013389D01*
X018022Y013006D02*
X018329Y013006D01*
X018483Y013006D02*
X018790Y013312D01*
X018790Y013389D01*
X018713Y013466D01*
X018560Y013466D01*
X018483Y013389D01*
X018483Y013006D02*
X018790Y013006D01*
X016543Y012987D02*
X016467Y013063D01*
X016083Y013063D01*
X016083Y012987D02*
X016083Y013140D01*
X016160Y013294D02*
X016236Y013294D01*
X016313Y013370D01*
X016313Y013600D01*
X016160Y013600D02*
X016083Y013524D01*
X016083Y013370D01*
X016160Y013294D01*
X016160Y013600D02*
X016467Y013600D01*
X016543Y013524D01*
X016543Y013370D01*
X016467Y013294D01*
X016543Y012987D02*
X016543Y012910D01*
X016467Y012833D01*
X015594Y011986D02*
X015671Y011909D01*
X015671Y011832D01*
X015594Y011756D01*
X015671Y011679D01*
X015671Y011602D01*
X015594Y011526D01*
X015440Y011526D01*
X015364Y011602D01*
X015210Y011526D02*
X015057Y011679D01*
X015133Y011679D02*
X014903Y011679D01*
X014903Y011526D02*
X014903Y011986D01*
X015133Y011986D01*
X015210Y011909D01*
X015210Y011756D01*
X015133Y011679D01*
X015364Y011909D02*
X015440Y011986D01*
X015594Y011986D01*
X015594Y011756D02*
X015517Y011756D01*
X016753Y011011D02*
X016983Y011011D01*
X017060Y010934D01*
X017060Y010781D01*
X016983Y010704D01*
X016753Y010704D01*
X016753Y010551D02*
X016753Y011011D01*
X016907Y010704D02*
X017060Y010551D01*
X017214Y010551D02*
X017521Y010857D01*
X017521Y010934D01*
X017444Y011011D01*
X017290Y011011D01*
X017214Y010934D01*
X017214Y010551D02*
X017521Y010551D01*
X017674Y010781D02*
X017904Y011011D01*
X017904Y010551D01*
X017981Y010781D02*
X017674Y010781D01*
X018028Y009336D02*
X018258Y009336D01*
X018335Y009259D01*
X018335Y009106D01*
X018258Y009029D01*
X018028Y009029D01*
X018028Y008876D02*
X018028Y009336D01*
X018182Y009029D02*
X018335Y008876D01*
X018489Y008876D02*
X018796Y009182D01*
X018796Y009259D01*
X018719Y009336D01*
X018565Y009336D01*
X018489Y009259D01*
X018489Y008876D02*
X018796Y008876D01*
X018949Y008952D02*
X019256Y009259D01*
X019256Y008952D01*
X019179Y008876D01*
X019026Y008876D01*
X018949Y008952D01*
X018949Y009259D01*
X019026Y009336D01*
X019179Y009336D01*
X019256Y009259D01*
X019798Y007803D02*
X020028Y007573D01*
X020028Y007880D01*
X020258Y007803D02*
X019798Y007803D01*
X019875Y007420D02*
X019798Y007343D01*
X019798Y007113D01*
X020258Y007113D01*
X020258Y007343D01*
X020182Y007420D01*
X019875Y007420D01*
X021263Y008931D02*
X021263Y009391D01*
X021493Y009391D01*
X021570Y009314D01*
X021570Y009161D01*
X021493Y009084D01*
X021263Y009084D01*
X021417Y009084D02*
X021570Y008931D01*
X021724Y008931D02*
X022031Y009237D01*
X022031Y009314D01*
X021954Y009391D01*
X021800Y009391D01*
X021724Y009314D01*
X021724Y008931D02*
X022031Y008931D01*
X022184Y008931D02*
X022491Y008931D01*
X022338Y008931D02*
X022338Y009391D01*
X022184Y009237D01*
X022888Y007898D02*
X022888Y007591D01*
X023118Y007591D01*
X023041Y007744D01*
X023041Y007821D01*
X023118Y007898D01*
X023272Y007898D01*
X023348Y007821D01*
X023348Y007668D01*
X023272Y007591D01*
X023272Y007437D02*
X022965Y007437D01*
X022888Y007361D01*
X022888Y007131D01*
X023348Y007131D01*
X023348Y007361D01*
X023272Y007437D01*
X016638Y002760D02*
X016178Y002760D01*
X016178Y002607D02*
X016178Y002914D01*
X016331Y002453D02*
X016638Y002453D01*
X016408Y002453D02*
X016408Y002146D01*
X016331Y002146D02*
X016178Y002300D01*
X016331Y002453D01*
X016331Y002146D02*
X016638Y002146D01*
X016638Y001993D02*
X016638Y001686D01*
X016178Y001686D01*
X016178Y001993D01*
X016408Y001839D02*
X016408Y001686D01*
X016408Y001532D02*
X016408Y001226D01*
X016638Y001226D02*
X016178Y001226D01*
X016178Y001532D02*
X016638Y001532D01*
X014035Y002006D02*
X013728Y002006D01*
X013882Y002159D02*
X013882Y001852D01*
X013727Y002487D02*
X013574Y002487D01*
X013497Y002563D01*
X013497Y002640D01*
X013574Y002717D01*
X013727Y002717D01*
X013804Y002640D01*
X013804Y002563D01*
X013727Y002487D01*
X013727Y002717D02*
X013804Y002793D01*
X013804Y002870D01*
X013727Y002947D01*
X013574Y002947D01*
X013497Y002870D01*
X013497Y002793D01*
X013574Y002717D01*
X013343Y002717D02*
X013267Y002640D01*
X013036Y002640D01*
X013036Y002487D02*
X013036Y002947D01*
X013267Y002947D01*
X013343Y002870D01*
X013343Y002717D01*
X013190Y002640D02*
X013343Y002487D01*
X013351Y003044D02*
X013198Y003198D01*
X013275Y003198D02*
X013044Y003198D01*
X013044Y003044D02*
X013044Y003505D01*
X013275Y003505D01*
X013351Y003428D01*
X013351Y003275D01*
X013275Y003198D01*
X013505Y003351D02*
X013658Y003505D01*
X013658Y003044D01*
X013505Y003044D02*
X013812Y003044D01*
X013965Y003121D02*
X014272Y003428D01*
X014272Y003121D01*
X014195Y003044D01*
X014042Y003044D01*
X013965Y003121D01*
X013965Y003428D01*
X014042Y003505D01*
X014195Y003505D01*
X014272Y003428D01*
X008887Y001887D02*
X008887Y001810D01*
X008580Y001503D01*
X008580Y001427D01*
X008427Y001427D02*
X008274Y001580D01*
X008350Y001580D02*
X008120Y001580D01*
X008120Y001427D02*
X008120Y001887D01*
X008350Y001887D01*
X008427Y001810D01*
X008427Y001657D01*
X008350Y001580D01*
X008318Y001955D02*
X008241Y002032D01*
X008318Y001955D02*
X008471Y001955D01*
X008548Y002032D01*
X008548Y002185D01*
X008471Y002262D01*
X008394Y002262D01*
X008241Y002185D01*
X008241Y002415D01*
X008548Y002415D01*
X008463Y002507D02*
X008540Y002584D01*
X008540Y002891D01*
X008463Y002968D01*
X008309Y002968D01*
X008233Y002891D01*
X008233Y002814D01*
X008309Y002738D01*
X008540Y002738D01*
X008463Y002507D02*
X008309Y002507D01*
X008233Y002584D01*
X008079Y002507D02*
X007926Y002661D01*
X008002Y002661D02*
X007772Y002661D01*
X007772Y002507D02*
X007772Y002968D01*
X008002Y002968D01*
X008079Y002891D01*
X008079Y002738D01*
X008002Y002661D01*
X008011Y002415D02*
X008087Y002339D01*
X008087Y002185D01*
X008011Y002108D01*
X007780Y002108D01*
X007780Y001955D02*
X007780Y002415D01*
X008011Y002415D01*
X007934Y002108D02*
X008087Y001955D01*
X008580Y001887D02*
X008887Y001887D01*
X008451Y003044D02*
X008528Y003120D01*
X008528Y003197D01*
X008451Y003274D01*
X008221Y003274D01*
X008221Y003120D01*
X008298Y003044D01*
X008451Y003044D01*
X008221Y003274D02*
X008374Y003427D01*
X008528Y003504D01*
X008067Y003427D02*
X008067Y003274D01*
X007991Y003197D01*
X007760Y003197D01*
X007760Y003044D02*
X007760Y003504D01*
X007991Y003504D01*
X008067Y003427D01*
X007914Y003197D02*
X008067Y003044D01*
X003488Y002603D02*
X003028Y002603D01*
X003028Y002296D02*
X003488Y002603D01*
X003488Y002296D02*
X003028Y002296D01*
X003181Y002143D02*
X003488Y002143D01*
X003258Y002143D02*
X003258Y001836D01*
X003181Y001836D02*
X003028Y001989D01*
X003181Y002143D01*
X003181Y001836D02*
X003488Y001836D01*
X003258Y001529D02*
X003258Y001376D01*
X003028Y001376D02*
X003028Y001682D01*
X003028Y001376D02*
X003488Y001376D01*
X000835Y002006D02*
X000528Y002006D01*
X000682Y002159D02*
X000682Y001852D01*
X000982Y010099D02*
X000905Y010176D01*
X000905Y010483D01*
X000982Y010560D01*
X001135Y010560D01*
X001212Y010483D01*
X001212Y010176D01*
X001135Y010099D01*
X000982Y010099D01*
X001059Y010253D02*
X001212Y010099D01*
X001366Y010099D02*
X001672Y010099D01*
X001519Y010099D02*
X001519Y010560D01*
X001366Y010406D01*
X002350Y011448D02*
X002350Y011908D01*
X002581Y011908D01*
X002657Y011832D01*
X002657Y011678D01*
X002581Y011601D01*
X002350Y011601D01*
X002504Y011601D02*
X002657Y011448D01*
X002811Y011448D02*
X003118Y011448D01*
X003271Y011448D02*
X003578Y011448D01*
X003425Y011448D02*
X003425Y011908D01*
X003271Y011755D01*
X002964Y011908D02*
X002964Y011448D01*
X002811Y011755D02*
X002964Y011908D01*
X004059Y010579D02*
X004213Y010579D01*
X004290Y010502D01*
X004290Y010196D01*
X004213Y010119D01*
X004059Y010119D01*
X003983Y010196D01*
X003983Y010502D01*
X004059Y010579D01*
X004136Y010272D02*
X004290Y010119D01*
X004443Y010119D02*
X004750Y010426D01*
X004750Y010502D01*
X004673Y010579D01*
X004520Y010579D01*
X004443Y010502D01*
X004443Y010119D02*
X004750Y010119D01*
X005388Y011478D02*
X005388Y011939D01*
X005618Y011939D01*
X005695Y011862D01*
X005695Y011708D01*
X005618Y011632D01*
X005388Y011632D01*
X005542Y011632D02*
X005695Y011478D01*
X005849Y011478D02*
X006155Y011478D01*
X006002Y011478D02*
X006002Y011939D01*
X005849Y011785D01*
X006309Y011862D02*
X006386Y011939D01*
X006539Y011939D01*
X006616Y011862D01*
X006616Y011785D01*
X006309Y011478D01*
X006616Y011478D01*
X007170Y010610D02*
X007324Y010610D01*
X007400Y010533D01*
X007400Y010226D01*
X007324Y010149D01*
X007170Y010149D01*
X007093Y010226D01*
X007093Y010533D01*
X007170Y010610D01*
X007247Y010303D02*
X007400Y010149D01*
X007554Y010226D02*
X007630Y010149D01*
X007784Y010149D01*
X007861Y010226D01*
X007861Y010303D01*
X007784Y010379D01*
X007707Y010379D01*
X007784Y010379D02*
X007861Y010456D01*
X007861Y010533D01*
X007784Y010610D01*
X007630Y010610D01*
X007554Y010533D01*
X008398Y011478D02*
X008398Y011939D01*
X008628Y011939D01*
X008704Y011862D01*
X008704Y011708D01*
X008628Y011632D01*
X008398Y011632D01*
X008551Y011632D02*
X008704Y011478D01*
X008858Y011478D02*
X009165Y011478D01*
X009011Y011478D02*
X009011Y011939D01*
X008858Y011785D01*
X009318Y011862D02*
X009395Y011939D01*
X009549Y011939D01*
X009625Y011862D01*
X009625Y011785D01*
X009549Y011708D01*
X009625Y011632D01*
X009625Y011555D01*
X009549Y011478D01*
X009395Y011478D01*
X009318Y011555D01*
X009472Y011708D02*
X009549Y011708D01*
X010374Y010598D02*
X010527Y010598D01*
X010604Y010521D01*
X010604Y010214D01*
X010527Y010137D01*
X010374Y010137D01*
X010297Y010214D01*
X010297Y010521D01*
X010374Y010598D01*
X010451Y010291D02*
X010604Y010137D01*
X010758Y010368D02*
X011065Y010368D01*
X010988Y010598D02*
X010988Y010137D01*
X010758Y010368D02*
X010988Y010598D01*
X011591Y011498D02*
X011591Y011958D01*
X011821Y011958D01*
X011898Y011882D01*
X011898Y011728D01*
X011821Y011651D01*
X011591Y011651D01*
X011744Y011651D02*
X011898Y011498D01*
X012051Y011498D02*
X012358Y011498D01*
X012205Y011498D02*
X012205Y011958D01*
X012051Y011805D01*
X012512Y011728D02*
X012742Y011958D01*
X012742Y011498D01*
X012819Y011728D02*
X012512Y011728D01*
X012042Y012828D02*
X012118Y012905D01*
X012118Y012982D01*
X012042Y013058D01*
X011658Y013058D01*
X011658Y012982D02*
X011658Y013135D01*
X011811Y013289D02*
X011658Y013442D01*
X012118Y013442D01*
X012118Y013289D02*
X012118Y013595D01*
X012042Y013749D02*
X012118Y013826D01*
X012118Y013979D01*
X012042Y014056D01*
X011965Y014056D01*
X011888Y013979D01*
X011888Y013902D01*
X011888Y013979D02*
X011811Y014056D01*
X011735Y014056D01*
X011658Y013979D01*
X011658Y013826D01*
X011735Y013749D01*
X013452Y010611D02*
X013605Y010611D01*
X013682Y010534D01*
X013682Y010227D01*
X013605Y010150D01*
X013452Y010150D01*
X013375Y010227D01*
X013375Y010534D01*
X013452Y010611D01*
X013528Y010304D02*
X013682Y010150D01*
X013835Y010227D02*
X013912Y010150D01*
X014065Y010150D01*
X014142Y010227D01*
X014142Y010381D01*
X014065Y010457D01*
X013989Y010457D01*
X013835Y010381D01*
X013835Y010611D01*
X014142Y010611D01*
X004338Y012915D02*
X004338Y012992D01*
X004262Y013068D01*
X003878Y013068D01*
X003878Y012992D02*
X003878Y013145D01*
X004031Y013299D02*
X003878Y013452D01*
X004338Y013452D01*
X004338Y013299D02*
X004338Y013605D01*
X004338Y012915D02*
X004262Y012838D01*
X003077Y015526D02*
X003077Y015986D01*
X003077Y015756D02*
X002770Y015756D01*
X002616Y015679D02*
X002616Y015602D01*
X002540Y015526D01*
X002386Y015526D01*
X002309Y015602D01*
X002156Y015526D02*
X002156Y015832D01*
X002003Y015986D01*
X001849Y015832D01*
X001849Y015526D01*
X001696Y015526D02*
X001389Y015526D01*
X001389Y015986D01*
X001235Y015986D02*
X000928Y015986D01*
X000928Y015526D01*
X000928Y015756D02*
X001082Y015756D01*
X001849Y015756D02*
X002156Y015756D01*
X002309Y015832D02*
X002386Y015756D01*
X002540Y015756D01*
X002616Y015679D01*
X002770Y015526D02*
X002770Y015986D01*
X002616Y015909D02*
X002540Y015986D01*
X002386Y015986D01*
X002309Y015909D01*
X002309Y015832D01*
X008728Y019552D02*
X008805Y019476D01*
X008958Y019476D01*
X009035Y019552D01*
X009035Y019936D01*
X009189Y019859D02*
X009265Y019936D01*
X009419Y019936D01*
X009496Y019859D01*
X009496Y019783D01*
X009419Y019706D01*
X009496Y019629D01*
X009496Y019552D01*
X009419Y019476D01*
X009265Y019476D01*
X009189Y019552D01*
X009342Y019706D02*
X009419Y019706D01*
X008728Y019552D02*
X008728Y019936D01*
X012253Y020465D02*
X012330Y020388D01*
X012483Y020388D01*
X012560Y020465D01*
X012714Y020465D02*
X012790Y020388D01*
X012944Y020388D01*
X013021Y020465D01*
X013021Y020772D01*
X012944Y020849D01*
X012790Y020849D01*
X012714Y020772D01*
X012714Y020695D01*
X012790Y020618D01*
X013021Y020618D01*
X012560Y020772D02*
X012483Y020849D01*
X012330Y020849D01*
X012253Y020772D01*
X012253Y020465D01*
X014005Y022426D02*
X014312Y022426D01*
X014388Y022502D01*
X014388Y022656D01*
X014312Y022732D01*
X014158Y022886D02*
X014158Y023193D01*
X013928Y023116D02*
X014158Y022886D01*
X014005Y022732D02*
X013928Y022656D01*
X013928Y022502D01*
X014005Y022426D01*
X013928Y023116D02*
X014388Y023116D01*
X014449Y024226D02*
X014603Y024226D01*
X014526Y024226D02*
X014526Y024686D01*
X014449Y024686D02*
X014603Y024686D01*
X014756Y024609D02*
X014756Y024302D01*
X014833Y024226D01*
X014986Y024226D01*
X015063Y024302D01*
X015063Y024609D02*
X014986Y024686D01*
X014833Y024686D01*
X014756Y024609D01*
X014296Y024609D02*
X014296Y024456D01*
X014219Y024379D01*
X013989Y024379D01*
X013989Y024226D02*
X013989Y024686D01*
X014219Y024686D01*
X014296Y024609D01*
X013835Y024686D02*
X013528Y024686D01*
X013528Y024226D01*
X013835Y024226D01*
X013682Y024456D02*
X013528Y024456D01*
X015678Y021599D02*
X015678Y021215D01*
X015755Y021138D01*
X015908Y021138D01*
X015985Y021215D01*
X015985Y021599D01*
X016139Y021445D02*
X016292Y021599D01*
X016292Y021138D01*
X016139Y021138D02*
X016446Y021138D01*
X019554Y023816D02*
X019631Y023739D01*
X019784Y023739D01*
X019861Y023816D01*
X020015Y023816D02*
X020015Y023892D01*
X020091Y023969D01*
X020245Y023969D01*
X020322Y023892D01*
X020322Y023816D01*
X020245Y023739D01*
X020091Y023739D01*
X020015Y023816D01*
X020091Y023969D02*
X020015Y024046D01*
X020015Y024123D01*
X020091Y024199D01*
X020245Y024199D01*
X020322Y024123D01*
X020322Y024046D01*
X020245Y023969D01*
X019861Y024123D02*
X019784Y024199D01*
X019631Y024199D01*
X019554Y024123D01*
X019554Y023816D01*
X020390Y023119D02*
X020390Y022812D01*
X020467Y022735D01*
X020620Y022735D01*
X020697Y022812D01*
X020851Y022812D02*
X020927Y022735D01*
X021081Y022735D01*
X021157Y022812D01*
X021157Y022889D01*
X021081Y022965D01*
X021004Y022965D01*
X021081Y022965D02*
X021157Y023042D01*
X021157Y023119D01*
X021081Y023195D01*
X020927Y023195D01*
X020851Y023119D01*
X020697Y023119D02*
X020620Y023195D01*
X020467Y023195D01*
X020390Y023119D01*
X021530Y021878D02*
X021453Y021801D01*
X021453Y021648D01*
X021530Y021571D01*
X021530Y021878D02*
X021606Y021878D01*
X021913Y021571D01*
X021913Y021878D01*
X021913Y021418D02*
X021913Y021111D01*
X021913Y021264D02*
X021453Y021264D01*
X021606Y021111D01*
X021530Y020957D02*
X021453Y020881D01*
X021453Y020727D01*
X021530Y020651D01*
X021837Y020651D01*
X021913Y020727D01*
X021913Y020881D01*
X021837Y020957D01*
X021835Y019878D02*
X021912Y019878D01*
X021988Y019801D01*
X021988Y019648D01*
X021912Y019571D01*
X021988Y019418D02*
X021988Y019111D01*
X021988Y019264D02*
X021528Y019264D01*
X021681Y019111D01*
X021605Y018957D02*
X021528Y018881D01*
X021528Y018727D01*
X021605Y018651D01*
X021912Y018651D01*
X021988Y018727D01*
X021988Y018881D01*
X021912Y018957D01*
X021605Y019571D02*
X021528Y019648D01*
X021528Y019801D01*
X021605Y019878D01*
X021681Y019878D01*
X021758Y019801D01*
X021835Y019878D01*
X021758Y019801D02*
X021758Y019725D01*
X020235Y025078D02*
X020235Y025538D01*
X020005Y025308D01*
X020312Y025308D01*
X019851Y025308D02*
X019774Y025231D01*
X019544Y025231D01*
X019544Y025078D02*
X019544Y025538D01*
X019774Y025538D01*
X019851Y025461D01*
X019851Y025308D01*
X019698Y025231D02*
X019851Y025078D01*
D12*
X019445Y024933D02*
X019445Y025683D01*
X017945Y025683D01*
X017945Y024933D01*
X019445Y024933D01*
X019455Y024344D02*
X019455Y023594D01*
X017955Y023594D01*
X017955Y024344D01*
X019455Y024344D01*
X020948Y025698D02*
X020948Y032698D01*
X022948Y032698D01*
X022948Y025698D01*
X020948Y025698D01*
X021288Y023361D02*
X021288Y022611D01*
X022788Y022611D01*
X022788Y023361D01*
X021288Y023361D01*
X022058Y021881D02*
X022808Y021881D01*
X022808Y020381D01*
X022058Y020381D01*
X022058Y021881D01*
X020058Y020918D02*
X020058Y017418D01*
X016558Y017418D01*
X016558Y020668D01*
X016808Y020918D01*
X020058Y020918D01*
X022133Y019881D02*
X022883Y019881D01*
X022883Y018381D01*
X022133Y018381D01*
X022133Y019881D01*
X016808Y020918D02*
X016558Y020918D01*
X016558Y020668D01*
X015283Y022156D02*
X014533Y022156D01*
X014533Y023656D01*
X015283Y023656D01*
X015283Y022156D01*
X013483Y020243D02*
X011983Y020243D01*
X011983Y019493D01*
X013483Y019493D01*
X013483Y020243D01*
X013483Y018793D02*
X007483Y018793D01*
X007483Y017793D01*
X013483Y017793D01*
X013483Y018793D01*
X010903Y016963D02*
X010903Y016213D01*
X009403Y016213D01*
X009403Y016963D01*
X010903Y016963D01*
X008983Y016968D02*
X008983Y016218D01*
X007483Y016218D01*
X007483Y016968D01*
X008983Y016968D01*
X006908Y017093D02*
X006908Y016093D01*
X000908Y016093D01*
X000908Y017093D01*
X006908Y017093D01*
X005388Y014808D02*
X011388Y014808D01*
X011388Y012808D01*
X005388Y012808D01*
X005388Y014808D01*
X003858Y014818D02*
X000858Y014818D01*
X000858Y012818D01*
X003858Y012818D01*
X003858Y014818D01*
X003808Y011381D02*
X002308Y011381D01*
X002308Y010631D01*
X003808Y010631D01*
X003808Y011381D01*
X005358Y011381D02*
X005358Y010631D01*
X006858Y010631D01*
X006858Y011381D01*
X005358Y011381D01*
X004041Y010050D02*
X004041Y003909D01*
X006876Y003909D01*
X006876Y010050D01*
X004041Y010050D01*
X003776Y010050D02*
X000941Y010050D01*
X000941Y003909D01*
X003776Y003909D01*
X003776Y010050D01*
X007141Y010050D02*
X007141Y003909D01*
X009976Y003909D01*
X009976Y010050D01*
X007141Y010050D01*
X008458Y010631D02*
X008458Y011381D01*
X009958Y011381D01*
X009958Y010631D01*
X008458Y010631D01*
X010241Y010050D02*
X010241Y003909D01*
X013076Y003909D01*
X013076Y010050D01*
X010241Y010050D01*
X011608Y010631D02*
X011608Y011381D01*
X013108Y011381D01*
X013108Y010631D01*
X011608Y010631D01*
X013291Y010050D02*
X013291Y003909D01*
X016126Y003909D01*
X016126Y010050D01*
X013291Y010050D01*
X014633Y010631D02*
X014633Y011381D01*
X016133Y011381D01*
X016133Y010631D01*
X014633Y010631D01*
X016533Y011106D02*
X016533Y011856D01*
X018033Y011856D01*
X018033Y011106D01*
X016533Y011106D01*
X016523Y012161D02*
X016523Y012911D01*
X018023Y012911D01*
X018023Y012161D01*
X016523Y012161D01*
X016063Y012813D02*
X016063Y014813D01*
X013063Y014813D01*
X013063Y012813D01*
X016063Y012813D01*
X016733Y013381D02*
X017483Y013381D01*
X017483Y014881D01*
X016733Y014881D01*
X016733Y013381D01*
X015808Y015406D02*
X014308Y015406D01*
X014308Y016156D01*
X015808Y016156D01*
X015808Y015406D01*
X010408Y020056D02*
X010408Y021056D01*
X009908Y021056D02*
X009908Y023156D01*
X008608Y023156D01*
X008208Y022656D01*
X008208Y021056D01*
X009908Y021056D01*
X010408Y020056D02*
X007708Y020056D01*
X007708Y021056D01*
X008208Y022656D02*
X008208Y023156D01*
X008608Y023156D01*
X007708Y023156D02*
X007708Y023556D01*
X008308Y024156D01*
X007708Y024156D01*
X007708Y023556D01*
X008308Y024156D02*
X010408Y024156D01*
X010408Y023156D01*
X009033Y024806D02*
X009033Y025806D01*
X015033Y025806D01*
X015033Y024806D01*
X009033Y024806D01*
X008588Y025578D02*
X008588Y026378D01*
X008688Y026978D02*
X007688Y026978D01*
X007666Y026978D02*
X006666Y026978D01*
X006641Y026978D02*
X005641Y026978D01*
X005776Y027148D02*
X006526Y027148D01*
X006526Y028648D01*
X005776Y028648D01*
X005776Y027148D01*
X005258Y027030D02*
X005258Y025030D01*
X004258Y025030D01*
X004258Y027030D01*
X005258Y027030D01*
X005741Y026378D02*
X005741Y025578D01*
X006541Y025578D02*
X006541Y026378D01*
X006766Y026378D02*
X006766Y025578D01*
X007566Y025578D02*
X007566Y026378D01*
X007788Y026378D02*
X007788Y025578D01*
X005278Y024830D02*
X005278Y022830D01*
X004278Y022830D01*
X004278Y024830D01*
X005278Y024830D01*
X003858Y022831D02*
X003858Y027031D01*
X000858Y027031D01*
X000858Y022831D01*
X003858Y022831D01*
X004023Y021830D02*
X002523Y021830D01*
X002523Y021080D01*
X004023Y021080D01*
X004023Y021830D01*
X004033Y020656D02*
X002533Y020656D01*
X002533Y019906D01*
X004033Y019906D01*
X004033Y020656D01*
X001858Y019831D02*
X000858Y019831D01*
X000858Y021831D01*
X001858Y021831D01*
X001858Y019831D01*
X002348Y027456D02*
X000848Y027456D01*
X000848Y028206D01*
X002348Y028206D01*
X002348Y027456D01*
X003008Y027456D02*
X003008Y028206D01*
X004508Y028206D01*
X004508Y027456D01*
X003008Y027456D01*
X003353Y029311D02*
X003713Y029311D01*
X006801Y028648D02*
X006801Y027148D01*
X007551Y027148D01*
X007551Y028648D01*
X006801Y028648D01*
X007988Y028648D02*
X008738Y028648D01*
X008738Y027148D01*
X007988Y027148D01*
X007988Y028648D01*
X010308Y028081D02*
X010308Y027331D01*
X011808Y027331D01*
X011808Y028081D01*
X010308Y028081D01*
X014034Y028330D02*
X014034Y027580D01*
X015534Y027580D01*
X015534Y028330D01*
X014034Y028330D01*
X015207Y033549D02*
X015957Y033549D01*
X015957Y035049D01*
X015207Y035049D01*
X015207Y033549D01*
X016900Y033701D02*
X016900Y045118D01*
X023199Y045118D01*
X023199Y033701D01*
X016900Y033701D01*
X017858Y008781D02*
X017858Y008031D01*
X019358Y008031D01*
X019358Y008781D01*
X017858Y008781D01*
X018295Y007885D02*
X019095Y007885D01*
X019695Y007985D02*
X019695Y006985D01*
X019095Y007085D02*
X018295Y007085D01*
X017759Y006818D02*
X022483Y006818D01*
X022483Y005243D01*
X022763Y006996D02*
X022763Y007996D01*
X022593Y008086D02*
X022593Y008836D01*
X021093Y008836D01*
X021093Y008086D01*
X022593Y008086D01*
X022163Y007896D02*
X021363Y007896D01*
X021363Y007096D02*
X022163Y007096D01*
X017759Y006818D02*
X017759Y005243D01*
X016098Y002506D02*
X014098Y002506D01*
X014098Y001506D01*
X016098Y001506D01*
X016098Y002506D01*
X012948Y001506D02*
X012948Y003506D01*
X011948Y003506D01*
X011948Y001506D01*
X012948Y001506D01*
X011448Y001506D02*
X011448Y003506D01*
X010448Y003506D01*
X010448Y001506D01*
X011448Y001506D01*
X009948Y001506D02*
X009948Y003506D01*
X008948Y003506D01*
X008948Y001506D01*
X009948Y001506D01*
X007648Y001506D02*
X007648Y003506D01*
X006648Y003506D01*
X006648Y001506D01*
X007648Y001506D01*
X006398Y001506D02*
X006398Y003506D01*
X005398Y003506D01*
X005398Y001506D01*
X006398Y001506D01*
X005148Y001506D02*
X005148Y003506D01*
X004148Y003506D01*
X004148Y001506D01*
X005148Y001506D01*
X002908Y001506D02*
X000908Y001506D01*
X000908Y002506D01*
X002908Y002506D01*
X002908Y001506D01*
D13*
X018625Y010682D02*
X022641Y010682D01*
X022641Y012729D01*
X018625Y012729D01*
X018625Y010682D01*
X018394Y028580D02*
X017607Y028580D01*
X017607Y029367D01*
X018394Y029367D01*
X018394Y028580D01*
X019969Y028580D01*
X019969Y030155D01*
X017607Y030155D01*
X017607Y029367D01*
X012533Y029431D02*
X012533Y029931D01*
X012533Y029431D02*
X012033Y029431D01*
X003033Y029431D02*
X002533Y029931D01*
X002533Y038931D02*
X002533Y039431D01*
X003033Y039431D01*
X012033Y039431D02*
X012533Y039431D01*
X012533Y038931D01*
D14*
X022287Y012345D03*
M02*
