%
M48
M72
T01C0.0130
T02C0.0394
T03C0.1260
%
T01
X4206Y11875
X4431Y12425
X9606Y17050
X10156Y16400
X10406Y16150
X10756Y17050
X11481Y16875
X11981Y16650
X12206Y17100
X12431Y15650
X13556Y15750
X12256Y13475
X15406Y16300
X18556Y15100
X12081Y21400
X11056Y19225
X11281Y18675
X10681Y18625
X9081Y24075
X9306Y24625
X9956Y25775
X10606Y28175
X11356Y28925
X13806Y28925
X14956Y27125
X15556Y26850
X7931Y25300
X2906Y23950
X10381Y6375
X11056Y3900
X16406Y3900
T02
X17081Y9750
X17081Y10950
X17081Y12150
X18081Y12150
X18081Y13350
X18081Y14350
X18081Y10950
X18081Y9750
X17981Y29750
X17981Y30750
X16581Y30750
X16581Y29750
X15081Y29750
X15081Y30750
X14081Y30750
X14081Y29750
X13081Y29750
X13081Y30750
X12081Y30750
X12081Y29750
X11081Y29750
X11081Y30750
X10081Y30750
X10081Y29750
X9081Y29750
X9081Y30750
X2781Y27850
X2781Y26850
X2781Y25850
T03
X5071Y19835
M30
